<?xml version="1.0" encoding="UTF-8"?>
<svg width="398px" height="466px" viewBox="0 0 398 466" version="1.1" xmlns="http://www.w3.org/2000/svg" xmlns:xlink="http://www.w3.org/1999/xlink">
    <title>Group 59</title>
    <defs>
        <linearGradient x1="3.40779993%" y1="31.8465079%" x2="98.8603822%" y2="53.9269182%" id="linearGradient-1">
            <stop stop-color="#2A3687" offset="0%"></stop>
            <stop stop-color="#FFFFFF" stop-opacity="0" offset="100%"></stop>
        </linearGradient>
        <linearGradient x1="63.9398424%" y1="38.5182162%" x2="11.0830278%" y2="92.4987021%" id="linearGradient-2">
            <stop stop-color="#D3D7E7" offset="0%"></stop>
            <stop stop-color="#DEE3F9" stop-opacity="0" offset="100%"></stop>
        </linearGradient>
        <linearGradient x1="81.7401047%" y1="22.6432174%" x2="22.0110584%" y2="82.4758848%" id="linearGradient-3">
            <stop stop-color="#2A3687" offset="0%"></stop>
            <stop stop-color="#424D95" stop-opacity="0.886487" offset="11.3513%"></stop>
            <stop stop-color="#FFFFFF" stop-opacity="0" offset="100%"></stop>
        </linearGradient>
    </defs>
    <g id="Page-1" stroke="none" stroke-width="1" fill="none" fill-rule="evenodd">
        <g id="proposal-" transform="translate(-865.000000, -10616.000000)">
            <g id="Group-59" transform="translate(1063.967600, 10847.406210) scale(-1, 1) rotate(-85.000000) translate(-1063.967600, -10847.406210) translate(847.467600, 10667.406210)">
                <path d="M5.64024548,108.463808 C18.1807808,85.3391832 45.6901216,79.3734948 72.4981258,93.9413977 L402.922603,273.500997 C429.727332,288.069309 439.71718,314.412439 427.176645,337.537064 C424.630052,342.733885 420.851105,347.23643 416.06908,350.764367 C411.291148,354.292304 405.612492,356.77063 399.389308,358.044425 C393.166123,359.31822 386.529425,359.360434 379.89682,358.168608 C373.264216,356.977191 366.772452,354.576735 360.829311,351.117243 L30.4068815,171.557234 C24.271313,168.453076 18.7249,164.312422 14.1127834,159.393066 C9.50107629,154.473709 5.92233587,148.880978 3.59928666,142.963242 C1.27623745,137.045095 0.258419271,130.928174 0.609701651,124.992814 C0.960574611,119.057864 2.67317857,113.431117 5.64024548,108.463808 Z" id="Path" fill="url(#linearGradient-1)" fill-rule="nonzero" opacity="0.1"></path>
                <path d="M12.484871,155.765954 C-5.32336975,136.506982 -2.12861039,108.603267 20.2271047,87.942654 L94.9708992,20.9972687 C117.32641,0.336574288 145.401865,-0.659117397 163.209779,18.6000591 C167.299715,22.670168 170.337439,27.6851891 172.134167,33.332603 C173.930895,38.9804254 174.448624,45.1397179 173.654255,51.4281034 C172.859887,57.7160805 170.770991,63.9983382 167.517513,69.8839206 C164.264034,75.7695031 159.915438,81.1325854 154.742234,85.6389961 L79.99844,152.584381 C75.0986076,157.386562 69.4097187,161.300207 63.2856434,164.081428 C57.161568,166.862648 50.7330664,168.451801 44.4005918,168.750022 C38.0677086,169.048652 31.9665163,168.050223 26.475811,165.816423 C20.9851056,163.582622 16.2225715,160.161655 12.484871,155.765954 Z" id="Path" fill="url(#linearGradient-2)" fill-rule="nonzero"></path>
                <path d="M12.4848831,155.766095 C-5.32335628,136.506737 -2.12863802,108.603054 20.2271162,87.9424654 L94.9709051,20.997158 C117.326414,0.336610295 145.401867,-0.65908023 163.20978,18.5999513 C167.299716,22.6700554 170.33744,27.6850707 172.134167,33.3328865 C173.930895,38.9802938 174.448624,45.1395791 173.654255,51.4279574 C172.859887,57.7159271 170.770992,63.9981775 167.517513,69.8837531 C164.264034,75.7693286 159.915439,81.1324047 154.742236,85.6392187 L79.9984471,152.584118 C75.098615,157.386702 69.4097266,161.299933 63.2856517,164.081151 C57.1615768,166.862368 50.7330756,168.451518 44.4006015,168.750148 C38.0677188,169.048369 31.966527,168.049941 26.475822,165.816143 C20.9851171,163.582345 16.2225834,160.161383 12.4848831,155.766095 Z" id="Path" fill="url(#linearGradient-3)" fill-rule="nonzero" opacity="0.5"></path>
                <ellipse id="Oval" fill="#2A3687" fill-rule="nonzero" transform="translate(131.437416, 47.213208) scale(-1, 1) rotate(-6.490009) translate(-131.437416, -47.213208) " cx="131.437416" cy="47.2132075" rx="42.5397194" ry="42.5093725"></ellipse>
                <path d="M10.609975,99.8622014 C-4.64253917,117.765265 -2.47580861,144.628263 15.4496003,159.862201" id="Path" stroke="#FCC929" stroke-width="6"></path>
            </g>
        </g>
    </g>
</svg>