<?xml version="1.0" encoding="UTF-8"?>
<svg width="302px" height="400px" viewBox="0 0 302 400" version="1.1" xmlns="http://www.w3.org/2000/svg" xmlns:xlink="http://www.w3.org/1999/xlink">
    <title>Path</title>
    <defs>
        <linearGradient x1="3.40779993%" y1="31.8465079%" x2="98.8603822%" y2="53.9269182%" id="linearGradient-1">
            <stop stop-color="#2A3687" offset="0%"></stop>
            <stop stop-color="#FFFFFF" stop-opacity="0" offset="100%"></stop>
        </linearGradient>
    </defs>
    <g id="Page-1" stroke="none" stroke-width="1" fill="none" fill-rule="evenodd" opacity="0.1">
        <g id="proposal-" transform="translate(-871.000000, -10659.000000)" fill="url(#linearGradient-1)" fill-rule="nonzero">
            <path d="M810.691891,10737.003 C823.232426,10713.8783 850.741767,10707.9126 877.549771,10722.4805 L1207.97425,10902.0401 C1234.77898,10916.6085 1244.76883,10942.9516 1232.22829,10966.0762 C1229.6817,10971.273 1225.90275,10975.7756 1221.12073,10979.3035 C1216.34279,10982.8315 1210.66414,10985.3098 1204.44095,10986.5836 C1198.21777,10987.8574 1191.58107,10987.8996 1184.94847,10986.7078 C1178.31586,10985.5163 1171.8241,10983.1159 1165.88096,10979.6564 L835.458527,10800.0964 C829.322959,10796.9922 823.776546,10792.8516 819.164429,10787.9322 C814.552722,10783.0129 810.973982,10777.4201 808.650932,10771.5024 C806.327883,10765.5842 805.310065,10759.4673 805.661347,10753.532 C806.01222,10747.597 807.724824,10741.9703 810.691891,10737.003 Z" id="Path" transform="translate(1021.593613, 10851.071326) scale(-1, 1) rotate(-85.000000) translate(-1021.593613, -10851.071326) "></path>
        </g>
    </g>
</svg>