<?xml version="1.0" encoding="UTF-8"?>
<svg width="154px" height="177px" viewBox="0 0 154 177" version="1.1" xmlns="http://www.w3.org/2000/svg" xmlns:xlink="http://www.w3.org/1999/xlink">
    <title>Path</title>
    <defs>
        <linearGradient x1="81.7401047%" y1="22.6432174%" x2="22.0110584%" y2="82.4758848%" id="linearGradient-1">
            <stop stop-color="#2A3687" offset="0%"></stop>
            <stop stop-color="#424D95" stop-opacity="0.886487" offset="11.3513%"></stop>
            <stop stop-color="#FFFFFF" stop-opacity="0" offset="100%"></stop>
        </linearGradient>
    </defs>
    <g id="Page-1" stroke="none" stroke-width="1" fill="none" fill-rule="evenodd" opacity="0.5">
        <g id="proposal-" transform="translate(-1092.000000, -10877.000000)" fill="url(#linearGradient-1)" fill-rule="nonzero">
            <path d="M1093.02199,11036.7412 C1075.21375,11017.4818 1078.40847,10989.5781 1100.76422,10968.9175 L1175.50801,10901.9722 C1197.86352,10881.3117 1225.93897,10880.316 1243.74688,10899.575 C1247.83682,10903.6451 1250.87454,10908.6601 1252.67127,10914.3079 C1254.468,10919.9554 1254.98573,10926.1146 1254.19136,10932.403 C1253.39699,10938.691 1251.3081,10944.9732 1248.05462,10950.8588 C1244.80114,10956.7444 1240.45254,10962.1075 1235.27934,10966.6143 L1160.53555,11033.5592 C1155.63572,11038.3618 1149.94683,11042.275 1143.82276,11045.0562 C1137.69868,11047.8374 1131.27018,11049.4266 1124.93771,11049.7252 C1118.60482,11050.0234 1112.50363,11049.025 1107.01293,11046.7912 C1101.52222,11044.5574 1096.75969,11041.1364 1093.02199,11036.7412 Z" id="Path" transform="translate(1168.052977, 10967.776745) scale(-1, 1) rotate(-85.000000) translate(-1168.052977, -10967.776745) "></path>
        </g>
    </g>
</svg>