<?xml version="1.0" encoding="UTF-8"?>
<svg width="311px" height="456px" viewBox="0 0 311 456" version="1.1" xmlns="http://www.w3.org/2000/svg" xmlns:xlink="http://www.w3.org/1999/xlink">
    <title>Group 8</title>
    <defs>
        <linearGradient x1="3.40779993%" y1="31.8465079%" x2="98.8603822%" y2="53.9269182%" id="linearGradient-1">
            <stop stop-color="#2A3687" offset="0%"></stop>
            <stop stop-color="#FFFFFF" stop-opacity="0" offset="100%"></stop>
        </linearGradient>
    </defs>
    <g id="Page-1" stroke="none" stroke-width="1" fill="none" fill-rule="evenodd">
        <g id="proposal-" transform="translate(-866.000000, -10623.000000)" fill-rule="nonzero">
            <g id="Group-8" transform="translate(866.593613, 10623.571326)">
                <g id="Path-5" fill="url(#linearGradient-1)" opacity="0.1">
                    <path d="M-55.901722,113.431631 C-43.3611867,90.3070062 -15.8518459,84.3413178 10.9561584,98.9092208 L341.380635,278.46882 C368.185364,293.037132 378.175213,319.380262 365.634677,342.504887 C363.088085,347.701708 359.309138,352.204253 354.527112,355.73219 C349.74918,359.260127 344.070525,361.738453 337.84734,363.012248 C331.624156,364.286043 324.987457,364.328257 318.354853,363.136431 C311.722249,361.945014 305.230485,359.544558 299.287344,356.085066 L-31.1350859,176.525057 C-37.2706544,173.420899 -42.8170674,169.280246 -47.429184,164.360889 C-52.0408911,159.441532 -55.6196316,153.848801 -57.9426808,147.931065 C-60.26573,142.012918 -61.2835482,135.895997 -60.9322658,129.960637 C-60.5813928,124.025687 -58.8687889,118.39894 -55.901722,113.431631 Z" id="Path" transform="translate(155.000000, 227.500000) scale(-1, 1) rotate(-85.000000) translate(-155.000000, -227.500000) "></path>
                </g>
                <ellipse id="Oval" fill="#2A3687" transform="translate(265.069178, 394.000648) rotate(-91.490009) translate(-265.069178, -394.000648) " cx="265.069178" cy="394.000648" rx="42.5397194" ry="42.5093725"></ellipse>
            </g>
        </g>
    </g>
</svg>