<?xml version="1.0" encoding="UTF-8" standalone="no"?>
<svg width="14px" height="11px" viewBox="0 0 14 11" version="1.1" xmlns="http://www.w3.org/2000/svg" xmlns:xlink="http://www.w3.org/1999/xlink">
    <!-- Generator: Sketch 50.2 (55047) - http://www.bohemiancoding.com/sketch -->
    <title>Shape</title>
    <desc>Created with Sketch.</desc>
    <defs></defs>
    <g id="Page-1" stroke="none" stroke-width="1" fill="none" fill-rule="evenodd">
        <g id="arrow-down" transform="translate(7.000000, 5.500000) rotate(-90.000000) translate(-7.000000, -5.500000) translate(2.000000, -1.000000)" fill="#000000" fill-rule="nonzero">
            <path d="M7.823,6.044 C7.419,6.044 7.091,5.684 7.091,5.238 L7.091,0.86 C7.09,0.385 6.74,0 6.31,0 L3.71,0 C3.49860538,0.00199172133 3.29798201,0.0935806517 3.158,0.252 C3.00963753,0.419228064 2.92842034,0.635451004 2.93,0.859 L2.93,5.239 C2.93,5.683 2.602,6.044 2.198,6.044 L0.539,6.044 C0.322606524,6.04841052 0.130100449,6.18253361 0.051,6.384 C-0.0373802409,6.5924567 -0.00884910837,6.83211822 0.126,7.014 L4.441,12.712 C4.57182903,12.8909109 4.77937011,12.9976463 5.001,13 C5.216,13 5.421,12.894 5.56,12.712 L9.874,7.014 C10.0088491,6.83211822 10.0373802,6.5924567 9.949,6.384 C9.86989955,6.18253361 9.67739348,6.04841052 9.461,6.044 L7.823,6.044 Z" id="Shape"></path>
        </g>
    </g>
</svg>