<svg viewBox="0 0 17 60" xmlns="http://www.w3.org/2000/svg">
  <path d="M10.327 42.421l-.27.433c-.022-.157-.083-.319-.055-.464.03-.152.149-.285.23-.427.03.153.063.305.095.458zm3.02-3.49l-.414.743c-.625-.298-.192-.702-.201-1.054-.007-.218.077-.443.162-.648.025-.062.217-.122.294-.095.094.035.204.16.21.248.014.223-.023.449-.05.806zm-.44-11.47c-.067-.153-.163-.305-.187-.462-.013-.074.112-.157.174-.236.04.09.123.184.11.265-.025.16-.104.309-.16.462.491.551.422 1.182.474 1.792.009.097-.101.195-.156.294-.068-.088-.19-.177-.193-.263-.035-.617-.045-1.235-.062-1.852zm-.275-4.096c-.09-.063-.215-.122-.252-.194-.02-.043.103-.105.161-.157.024.042.065.085.065.124 0 .084-.023.167-.037.25.514.413.442.882.532 1.332.014.069-.12.136-.184.204-.09-.07-.253-.146-.258-.211-.027-.45-.022-.899-.027-1.348zM1.383 42.17c-.119 1.262-.257 2.525-.354 3.79-.239 3.115-.48 6.232-.403 9.346.027 1.115-.036 2.208-.406 3.29-.239.696-.06.818.603 1.02 2.398.74 4.563-.379 6.739-1.39 2.097-.976 4.067-2.275 6.054-3.524.543-.343 1.08-.642 1.686-.795.538-.137.955-.504.99-1.194.013-.24-.021-.577-.157-.705-.275-.26-.374-.532-.344-.94.03-.432.237-.677.538-.88.12-.081.25-.18.326-.308.07-.119.13-.315.09-.425-.036-.104-.213-.212-.317-.194a2.176 2.176 0 0 0-.665.24A282.539 282.539 0 0 0 11.94 51.6c-.55.308-1.078.676-1.628.986-.585.33-1.185.622-1.78.93-.17-.934.59-1.376.934-2.014a35.273 35.273 0 0 0 3.51-9.463c.387-1.81.86-3.608 1.06-5.465.164-1.533.31-3.057.272-4.592-.042-1.632.068-3.268-.084-4.902-.343-3.712-.775-7.392-1.772-10.929-.35-1.239-.649-2.5-1.012-3.733-.203-.687-.493-1.337-.739-2.007-.21-.572-.354-1.191-.632-1.714-1.243-2.337-2.286-4.84-4.096-6.714-.399-.415-.736-.904-1.113-1.345-.37-.434-.865-.288-1.103.293-.287.698-.362.714-.904.515-.085-.03-.164-.167-.23-.15-.212.054-.455.103-.605.258-.097.1-.134.49-.057.565.48.469.366.97.125 1.549-.119.283-.163.621-.175.933-.007.183.071.442.192.536 2.021 1.61 3.173 4.07 4.62 6.237.356.533.88 1.115.356 1.97-.07.114.03.408.107.583 1.044 2.32 1.767 4.784 2.26 7.349.442 2.303.755 4.637.686 7.026-.072 2.532-.218 5.066-.333 7.6-.06 1.334-.336 2.63-.674 3.914a503.82 503.82 0 0 1-1.73 6.453 10.463 10.463 0 0 1-.659 1.777c-.48.988-1.018 1.943-1.539 2.906a3.098 3.098 0 0 1-.352.507c-.06.071-.2.158-.235.13-.088-.073-.2-.204-.195-.312.07-1.426.118-2.856.254-4.28.095-.998.323-1.987.477-2.983.115-.735.213-1.43-.328-2.048-.335-.384-.464-.993-.724-1.473-.163-.297-.563-.231-.655.123-.144.553-.342.941-.899 1.072-.47.112-.466.172-.435-.358.01-.157.068-.328.035-.467-.028-.115-.15-.21-.248-.28-.022-.014-.167.107-.184.184-.104.465-.188.935-.278 1.403h-.046z" fill="#A0A4B1" fill-rule="evenodd"/>
</svg>
