<svg width="234" height="9" viewBox="0 0 234 9" xmlns="http://www.w3.org/2000/svg">
  <path d="M232.768 1.628c-.826-.305-1.776-.323-2.72-.29-1.176.043-2.35.081-3.505-.088-1.728-.252-3.486-.273-5.25-.288-9.869-.085-19.735-.194-29.602-.254-9.858-.06-19.714-.254-29.573-.27-4.345-.006-8.696-.02-13.037-.123-3.627-.087-7.223.523-10.855.042-4.045.498-8.202.015-12.282.37-2.177.19-4.462.208-6.667.095-6.83-.348-13.573.455-20.383.288-.463-.012-.937.042-1.394.096-1.617.195-3.259.213-4.905.19-2.35-.031-4.692-.042-7.015.219-.906.102-1.869.079-2.807.081-2.814.007-5.635-.124-8.426.202-.664.079-1.408.026-2.096-.039-1.058-.1-2.087-.073-3.149-.03-4.315.181-8.58.586-12.975.374-2.17-.104-4.432.078-6.658.01a9.422 9.422 0 0 0-2.722.332c-1.313.35-2.706.448-4.12.297-2.48-.263-4.912.09-7.371.072-.43-.003-.913.132-1.27.278-.233.094-.413.334-.377.494.032.164.308.351.572.45.274.101.672.163.999.148 2.8-.12 5.607-.229 8.398-.408 3.015-.194 5.996-.639 9.07-.201.223.031.477.045.7.022 3.59-.383 7.259-.204 10.877-.388 6.184-.314 12.37-.648 18.61-.439.818.029 1.644.034 2.465.02 1.171-.02 2.361-.003 3.505-.116 1.865-.185 3.73-.2 5.611-.192 3.517.018 7.048.183 10.53-.236.665-.08 1.402-.103 2.042.13.08.03.146.1.157.154.011.057-.02.159-.084.171-.426.09-.865.232-1.298.23-4.112-.022-8.155.529-12.288.347-.808-.036-1.646.039-2.445.127a32.338 32.338 0 0 1-4.907.166c-4.952-.209-9.84.206-14.745.39-1.764.066-3.505-.048-5.258.03-3.835.173-7.601.74-11.507.529-.683-.038-1.39.105-2.089.145-1.046.06-2.099.152-3.15.142-4.349-.044-8.672.064-12.98.391-1.959.148-3.945.262-5.944-.052-1.247-.195-2.585-.17-3.847-.01-2.856.361-5.878.075-8.677.68-.596.128-1.386-.015-2.084-.032-3.862-.093-7.733-.413-11.546.216-.643.106-1.394.012-2.094.02-.583.007-1.17.012-1.743.057-.166.014-.313.159-.428.26-.043.036 0 .138.067.17.262.126.577.22.822.355.997.546 1.92.905 3.28.234.712-.353 1.552-.075 2.074.357.198.163.362.337.542.506.232 0 .466.002.698.004 2.487-.551 5.065-.01 7.609-.15 7.15-.393 14.303-.929 21.521-.706 5.903.182 11.775.49 17.709.234 2.474-.106 5-.612 7.43-.264 2.295.329 4.585.44 6.838.346 6.409-.262 12.804-.565 19.243-.573 1.363-.002 2.895.041 3.56-.883a8.032 8.032 0 0 1 2.346-.35c3.165-.01 6.321-.002 9.485-.144 3.134-.14 6.305-.058 9.46-.063 4.101-.007 8.182-.083 12.28-.27 8.055-.364 16.154-.378 24.247-.228 1.394-.457 2.942-.357 4.46-.347 4.34.031 8.685.152 13.02.087 4.427-.065 8.856-.086 13.285-.21 3.856-.107 7.74.008 11.61.066 3.97.06 7.943-.287 11.91.098 2.122.039 4.227.041 6.225-.445a8.491 8.491 0 0 1 1.705-.213c1.448-.043 2.74-.21 3.804-.827.837-.484 2.038-.622 3.224-.667 1.052-.04 2.113-.033 3.17-.028 2.935.016 5.871.048 8.81.06.818.005 1.665.01 2.34-.301.155-.072.262-.221.256-.333-.006-.112-.131-.264-.293-.324" fill="#116DC7" fill-rule="evenodd" fill-opacity=".9"/>
</svg>
