<svg width="712" height="544" viewBox="0 0 712 544" fill="none" xmlns="http://www.w3.org/2000/svg">
<path d="M0 0H712V544H0V0Z" fill="#074E65"/>
<path d="M173.067 225.721C186.826 286.935 271.791 317.812 317.402 332.835C318.357 333.15 319.37 332.693 319.798 331.784C345.238 277.78 352.295 220.877 347.035 183.776C341.723 146.31 308.153 101.152 246.16 109.338C188.455 116.957 159.141 163.765 173.067 225.721Z" stroke="#084458" stroke-width="22"/>
<path d="M627.175 153.668C652.203 190.419 716.054 188.8 750.321 186.809C751.325 186.751 752.106 185.954 752.168 184.951C754.75 142.713 744.542 103.403 731.389 80.304C718.054 56.8852 683.99 35.7775 645.082 57.4426C608.865 77.6091 601.718 116.288 627.175 153.668Z" stroke="#FF3939" stroke-width="17"/>
<path d="M82.4179 -11.0852C64.6226 -2.83022 60.4547 24.676 58.7607 40.25C58.652 41.2491 59.3071 42.1673 60.289 42.3813C78.5435 46.3602 96.3391 44.6928 107.38 40.6114C118.766 36.4024 130.645 22.8112 123.87 3.93036C117.564 -13.6445 100.897 -19.6575 82.4179 -11.0852Z" stroke="#57B8D1" stroke-width="8"/>
</svg>
