<svg width="712" height="544" viewBox="0 0 712 544" fill="none" xmlns="http://www.w3.org/2000/svg">
<path d="M0 0H712V544H0V0Z" fill="#2A3687"/>
<path opacity="0.3" d="M537.323 479.099C558.242 467.743 563.639 442.831 550.46 418.555L388.026 119.338C374.847 95.0614 351.017 86.0163 330.098 97.3725C325.396 99.6773 321.323 103.101 318.132 107.43C314.94 111.759 312.699 116.902 311.546 122.537C310.394 128.173 310.356 134.181 311.434 140.188C312.512 146.195 314.683 152.072 317.813 157.454L480.247 456.671C483.055 462.228 486.801 467.25 491.251 471.427C495.701 475.603 500.76 478.844 506.114 480.947C511.467 483.051 517.001 483.973 522.37 483.655C527.739 483.337 532.829 481.786 537.323 479.099Z" fill="url(#paint0_linear)"/>
<path opacity="0.6" d="M494.112 473.535C511.59 489.692 536.914 486.794 555.665 466.51L616.421 398.693C635.172 378.409 636.075 352.936 618.597 336.779C614.903 333.068 610.351 330.312 605.226 328.681C600.101 327.051 594.511 326.582 588.804 327.302C583.097 328.023 577.395 329.918 572.054 332.87C566.713 335.822 561.845 339.768 557.755 344.461L496.999 412.278C492.641 416.724 489.089 421.885 486.565 427.442C484.041 432.998 482.599 438.831 482.328 444.577C482.057 450.322 482.963 455.858 484.991 460.84C487.018 465.822 490.122 470.143 494.112 473.535Z" fill="url(#paint1_linear)"/>
<circle cx="592.803" cy="365.33" r="38.5011" transform="rotate(83.51 592.803 365.33)" fill="white"/>
<path d="M545.468 474.538C529.274 488.318 504.975 486.361 491.195 470.166" stroke="#FCC929" stroke-width="2.22453"/>
<defs>
<linearGradient id="paint0_linear" x1="546.396" y1="470.385" x2="409.85" y2="96.972" gradientUnits="userSpaceOnUse">
<stop stop-color="#2A3687"/>
<stop offset="1" stop-color="white" stop-opacity="0"/>
</linearGradient>
<linearGradient id="paint1_linear" x1="575.717" y1="383.576" x2="486.313" y2="466.544" gradientUnits="userSpaceOnUse">
<stop stop-color="#D3D7E7"/>
<stop offset="1" stop-color="#DEE3F9" stop-opacity="0"/>
</linearGradient>
</defs>
</svg>
