<svg width="193" height="62" viewBox="0 0 193 62" fill="none" xmlns="http://www.w3.org/2000/svg">
<path d="M68.0815 12.9193C66.4563 12.9193 65.3197 14.0816 65.3197 15.7455V35.1796C65.3197 39.9611 62.266 43.1735 57.7296 43.1735C53.5156 43.1735 50.8963 40.3745 50.8963 35.8675V15.7455C50.9126 15.37 50.8506 14.9952 50.7142 14.6449C50.5778 14.2946 50.3699 13.9765 50.1038 13.7108C49.8377 13.445 49.5192 13.2374 49.1685 13.1012C48.8178 12.9649 48.4425 12.903 48.0665 12.9193C46.4142 12.9193 45.3047 14.0545 45.3047 15.7455V35.8811C45.3047 43.4887 49.7155 48.2193 56.8407 48.2193C60.5424 48.2193 63.7182 46.752 65.8557 44.0715L66.1611 45.8506C66.3647 47.1383 67.2197 47.8838 68.5022 47.8838C70.0358 47.8838 70.918 46.9553 70.918 45.3321V15.7455C70.9343 15.3703 70.8724 14.9958 70.7362 14.6458C70.6 14.2957 70.3924 13.9778 70.1267 13.7121C69.861 13.4464 69.5429 13.2387 69.1926 13.1022C68.8423 12.9657 68.4674 12.9035 68.0917 12.9193" fill="white"/>
<path d="M34.694 0C33.0285 0 31.8555 1.13249 31.8555 2.75178V45.0358C31.8555 46.6551 33.0285 47.7876 34.7077 47.7876C36.3868 47.7876 37.5598 46.6551 37.5598 45.0358V2.75178C37.5564 1.13249 36.4039 0 34.694 0Z" fill="white"/>
<path d="M13.9485 12.5933C5.99697 12.5933 0.857422 17.826 0.857422 25.92V35.3316C0.857422 43.1013 5.99697 48.1111 13.9485 48.1111C20.9311 48.1111 25.0916 44.2938 25.7285 38.3888C25.7969 37.9909 25.7791 37.5831 25.6762 37.1927C25.5734 36.8023 25.3879 36.4384 25.1322 36.1254C24.8939 35.8659 24.6022 35.6607 24.2772 35.5237C23.9521 35.3867 23.6012 35.3212 23.2485 35.3316C21.8933 35.3316 21.07 36.0342 20.8363 37.4226C20.2976 41.1893 18.2241 43.4391 14.0163 43.4391C9.44253 43.4391 6.36965 40.3751 6.36965 35.8146V31.2812H23.1774C24.851 31.2812 25.9352 30.2035 25.9352 28.5314V25.92C25.9352 17.951 21.5748 12.5933 13.9485 12.5933ZM13.9485 17.2652C18.4681 17.2652 20.6296 20.4745 20.6296 25.4404V26.8119H6.37303V25.4404C6.37303 20.4745 9.34428 17.2652 13.9485 17.2652Z" fill="white"/>
<path d="M115.831 0.000197395C115.36 -0.00477047 114.893 0.0840776 114.456 0.261527C114.02 0.438976 113.624 0.701451 113.291 1.03355C112.958 1.36564 112.695 1.76067 112.517 2.19544C112.339 2.63021 112.251 3.09596 112.256 3.56536C112.256 4.50375 112.63 5.40371 113.296 6.06725C113.962 6.73079 114.866 7.10356 115.807 7.10356C116.749 7.10356 117.653 6.73079 118.319 6.06725C118.985 5.40371 119.359 4.50375 119.359 3.56536C119.368 3.09884 119.284 2.63515 119.111 2.20165C118.937 1.76815 118.679 1.37362 118.35 1.04132C118.021 0.709031 117.629 0.445711 117.196 0.266898C116.764 0.0880852 116.299 -0.00259825 115.831 0.000197395Z" fill="white"/>
<path d="M147.503 31.2828C149.17 31.2828 150.249 30.2019 150.249 28.5332V25.9222C150.249 17.9505 145.904 12.5933 138.314 12.5933C130.397 12.5933 125.279 17.8255 125.279 25.9222V35.3328C125.279 43.1018 130.397 48.1111 138.314 48.1111C145.267 48.1111 149.409 44.2941 150.04 38.3897C150.108 37.9919 150.091 37.5841 149.988 37.1937C149.886 36.8034 149.701 36.4395 149.447 36.1266C149.209 35.8671 148.919 35.6619 148.595 35.5249C148.271 35.3879 147.922 35.3224 147.571 35.3328C146.222 35.3328 145.402 36.0354 145.172 37.4237C144.636 41.1899 142.568 43.4396 138.378 43.4396C133.824 43.4396 130.764 40.3759 130.764 35.8158V31.2828H147.503ZM130.764 26.8173V25.4425C130.764 20.4771 133.726 17.2682 138.311 17.2682C142.811 17.2682 144.963 20.4771 144.963 25.4425V26.8173H130.764Z" fill="white"/>
<path d="M101.998 12.9349C101.413 12.8976 100.836 13.088 100.387 13.4662C99.9389 13.8445 99.6541 14.3813 99.5924 14.9645L99.342 16.7168C97.21 14.0512 94.0493 12.5933 90.3675 12.5933C83.0241 12.5933 78.459 17.4711 78.459 25.3223V34.2662C78.459 42.0734 83.0207 46.9242 90.3675 46.9242C93.8429 46.9242 96.7532 45.7132 98.8276 43.413V49.3327C98.8276 53.6828 96.1001 56.2807 91.5316 56.2807C86.6416 56.2807 84.8988 53.7708 84.2931 51.6566C83.887 50.361 83.0376 49.6743 81.8261 49.6743C81.451 49.6594 81.0778 49.7339 80.7371 49.8915C80.3964 50.0491 80.0981 50.2854 79.8667 50.5809C79.5971 50.9633 79.4174 51.4017 79.3412 51.8633C79.265 52.3249 79.2943 52.7978 79.4268 53.2465C80.6079 58.1175 85.1594 61.0266 91.6094 61.0266C99.5044 61.0233 104.398 56.4363 104.398 49.0485V15.4787C104.398 13.9091 103.471 12.9349 101.985 12.9349H101.998ZM98.8208 25.6606V33.9178C98.8208 38.6907 95.7481 41.8975 91.183 41.8975C86.7668 41.8975 84.0258 39.0256 84.0258 34.3981V25.1126C84.0258 20.5561 86.8345 17.6132 91.183 17.6132C95.7481 17.6132 98.8208 20.847 98.8208 25.6606Z" fill="white"/>
<path d="M115.837 12.9184C114.17 12.9184 113.006 14.0511 113.006 15.6708V45.0347C113.006 46.6544 114.17 47.7872 115.837 47.7872C116.204 47.7999 116.569 47.7374 116.91 47.6036C117.251 47.4698 117.561 47.2675 117.82 47.0094C118.079 46.7512 118.282 46.4426 118.417 46.1029C118.551 45.7632 118.614 45.3996 118.601 45.0347V15.6674C118.613 15.3028 118.55 14.9396 118.416 14.6003C118.281 14.261 118.078 13.9528 117.819 13.695C117.56 13.4372 117.25 13.2352 116.909 13.1016C116.568 12.968 116.203 12.9056 115.837 12.9184Z" fill="white"/>
<path d="M192.649 2.83151C192.649 1.16452 191.516 0 189.896 0H162.794C161.174 0 160.041 1.16452 160.041 2.83151C160.028 3.19788 160.09 3.56297 160.224 3.90405C160.358 4.24514 160.561 4.55493 160.819 4.81415C161.077 5.07338 161.386 5.27648 161.726 5.41084C162.066 5.54519 162.429 5.60792 162.794 5.59512H189.896C190.261 5.60742 190.624 5.54434 190.964 5.40981C191.303 5.27528 191.612 5.07215 191.87 4.81304C192.128 4.55392 192.331 4.24433 192.465 3.90347C192.599 3.56261 192.662 3.19775 192.649 2.83151Z" fill="#FFCE34"/>
<path d="M192.649 27.8C192.649 26.133 191.516 24.9685 189.896 24.9685H162.794C161.174 24.9685 160.041 26.133 160.041 27.8C160.028 28.1664 160.09 28.5315 160.224 28.8726C160.358 29.2136 160.561 29.5234 160.819 29.7827C161.077 30.0419 161.386 30.245 161.726 30.3793C162.066 30.5137 162.429 30.5764 162.794 30.5636H189.896C190.261 30.5759 190.624 30.5128 190.964 30.3783C191.303 30.2438 191.612 30.0407 191.87 29.7815C192.128 29.5224 192.331 29.2128 192.465 28.872C192.599 28.5311 192.662 28.1663 192.649 27.8Z" fill="white"/>
<path d="M183.503 15.3169C183.503 13.6499 182.368 12.4854 180.744 12.4854H162.694C161.071 12.4854 159.935 13.6499 159.935 15.3169C159.922 15.6832 159.985 16.0483 160.119 16.3894C160.253 16.7305 160.456 17.0403 160.715 17.2995C160.974 17.5587 161.283 17.7618 161.623 17.8962C161.964 18.0305 162.328 18.0933 162.694 18.0805H180.744C181.11 18.0933 181.474 18.0305 181.815 17.8962C182.155 17.7618 182.465 17.5587 182.723 17.2995C182.982 17.0403 183.185 16.7305 183.319 16.3894C183.453 16.0483 183.516 15.6832 183.503 15.3169Z" fill="#00AF8F"/>
</svg>
