<?xml version="1.0" encoding="UTF-8"?>
<svg width="1097px" height="479px" viewBox="0 0 1097 479" version="1.1" xmlns="http://www.w3.org/2000/svg" xmlns:xlink="http://www.w3.org/1999/xlink">
    <!-- Generator: Sketch 49.1 (51147) - http://www.bohemiancoding.com/sketch -->
    <title>Group 4</title>
    <desc>Created with Sketch.</desc>
    <defs>
        <linearGradient x1="3.88811657%" y1="80.3085865%" x2="118.596292%" y2="23.8758233%" id="linearGradient-1">
            <stop stop-color="#CADBE3" offset="0%"></stop>
            <stop stop-color="#15D0FF" offset="100%"></stop>
        </linearGradient>
        <linearGradient x1="0%" y1="100%" x2="87.4051662%" y2="12.5948338%" id="linearGradient-2">
            <stop stop-color="#0AD0B9" offset="0%"></stop>
            <stop stop-color="#25DDCB" offset="14.9837428%"></stop>
            <stop stop-color="#6CFFFA" offset="33.2257045%"></stop>
            <stop stop-color="#C9D0DF" offset="49.5190571%"></stop>
            <stop stop-color="#CDBA8B" offset="58.7292269%"></stop>
            <stop stop-color="#13E2A5" offset="100%"></stop>
        </linearGradient>
    </defs>
    <g id="Page-1" stroke="none" stroke-width="1" fill="none" fill-rule="evenodd">
        <g id="Artboard-2" transform="translate(-804.000000, -2053.000000)" fill-rule="nonzero">
            <g id="bg-Vid-1-1" transform="translate(-133.000000, 1959.000000)">
                <g id="Group-4" transform="translate(937.000000, 94.000000)">
                    <polygon id="Shape" fill="#F3F6FB" points="170.5 0 0.5 479 1098 479 1098 0"></polygon>
                    <path d="M1097,268.5 L1098,0 L295,0 C578.128214,35.1633004 765.79488,64.3299671 858,87.5 C950.20512,110.670033 1029.87179,171.003366 1097,268.5 Z" id="Shape" fill-opacity="0.390000015" fill="url(#linearGradient-1)" opacity="0.1856"></path>
                    <path d="M606,479 L1097.1,479 L1097.1,0 C1016.83595,131.905609 948.802621,225.072276 893,279.5 C837.197379,333.927724 741.530713,400.427724 606,479 Z" id="Shape" fill-opacity="0.529999971" fill="url(#linearGradient-2)" opacity="0.09442935"></path>
                </g>
            </g>
        </g>
    </g>
</svg>