<svg viewBox="0 0 118 16" xmlns="http://www.w3.org/2000/svg">
  <path d="M7.44 15.36c-5.1 0-7.4-3.14-7.4-6.34C.04 4.5 3.86 1.3 8.58 1.3c1.76 0 3.24.5 4.34 1.08l.12 3.66h-1.06l-1.3-2.86c-.38-.24-1.18-.56-2.26-.56-2.2 0-4.28 1.86-4.28 5.2 0 4 2.08 6.12 4.62 6.12.44 0 .9-.08 1.2-.16V9.94l-1.7-.22V8.64h5.96v1.08l-.96.28v4.14l-.76.3c-1.12.44-2.74.92-5.06.92zm7.74-.36v-1.08l1.36-.26V7.08l-1.36-.26v-1l3.9-1.08h.12l.66 2h.04l.08-.16c.48-.88 1.26-1.84 2.4-1.84 1.06 0 1.74.72 1.66 1.74-.1 1.18-1.16 1.88-1.16 1.88l-2.5-1.22-.38.14v6.38l1.9.26V15h-6.72zm13.1-4.68c.3 2.34 1.16 3.9 2.32 3.74 1.14-.14 1.58-1.88 1.28-4.22-.3-2.34-1.16-3.9-2.32-3.74-1.14.14-1.58 1.88-1.28 4.22zm1.8 5.04c-3.66 0-5.54-2.38-5.54-5.14 0-3.06 2.38-5.44 5.54-5.44 3.3 0 5.54 2.08 5.54 5.1 0 3.1-2.34 5.48-5.54 5.48zM46.84 5.12l2.14 6.48c.08.22.12.48.12.48h.04s.06-.24.14-.48l1.52-4.84-1.44-.48V5.12h4.46v1.16l-1.1.18-3.02 8.7h-2.58l-1.84-4.96c-.1-.24-.2-.58-.2-.58h-.04s-.12.34-.22.58l-2.04 4.96H40l-2.82-8.7-1-.2V5.12h6.2v1.16l-1.54.18 1.3 5.14c.06.22.16.68.16.68h.04s.16-.46.24-.68l2.48-6.48h1.78zm10.9 10.18c-1.9 0-2.56-.98-2.52-2.62l.12-6.28h-1.4V5.34l1.4-.48 2.36-2.82h.98v3.08h2.44v1.4h-2.38v5.38c0 1.26.84 1.42 1.56 1.42.5 0 .86-.04.86-.04l.24 1.08s-1.72.94-3.66.94zm11-.3v-1.1l1.06-.24V9.02c0-1.46-.62-2.22-1.88-2.2-.52.02-.96.18-1.24.34v6.5l1.1.26V15h-5.92v-1.08l1.36-.26V2.06l-1.42-.34V.68l4.88-.6V6.3c.62-.66 1.74-1.56 3.22-1.56 2.2 0 3.36 1.06 3.36 3.34v5.58l1.38.26V15h-5.9zm11.2.32c-2.38 0-4.38-1.7-4.38-4.72 0-3.3 2.62-5.36 5.12-5.36 1.72 0 2.96.94 2.96 2.08 0 .64-.4 1.16-1.14 1.16-.4 0-.74-.06-.74-.06l-.3-1.96c-.04-.04-.42-.3-1.12-.3-1.64 0-2.78 1.58-2.78 3.54 0 2.3 1.44 4.04 3.42 4.04 1.4 0 2.32-1.2 2.32-1.2l.42.32c-.18.26-1.12 2.46-3.78 2.46zm7.86-.02c-1.16 0-2.48-.8-2.48-2.42 0-1.6 1.18-2.34 3.22-2.86l2.12-.54V8.5c-.08-1.58-.76-2.34-1.86-2.34-.54 0-1.04.24-1.2.34l-.08 2c-.04.02-.54.1-.9.1-.66 0-1.02-.32-1.02-.9 0-.98 1.86-2.44 4.02-2.44 2.16 0 3.04.96 3.04 3.02v5.24c0 .44.12.58.7.58h.94v.6s-1.22.54-2.04.54c-1.08 0-1.5-.72-1.54-1.6h-.06c-1.04 1.02-1.56 1.66-2.86 1.66zm1.18-1.46c.88 0 1.44-.62 1.68-.96V10.2l-1.72.58c-1 .34-1.56.72-1.56 1.54 0 1 .76 1.52 1.6 1.52zm9.66 1.54c-1.1 0-2-.36-2.8-.78l-.32-2.9h.72l1.04 2.26c.34.24.76.58 1.66.58 1 0 1.68-.58 1.68-1.46 0-.74-.44-1.3-1.88-1.96l-.88-.4c-1.42-.64-2.08-1.36-2.08-2.64 0-1.6 1.66-2.86 3.58-2.86.84 0 1.7.22 2.54.64l.1 2.48h-.66l-.82-1.8c-.26-.18-.68-.48-1.38-.48-.92 0-1.48.6-1.48 1.34 0 .76.38 1.24 1.58 1.76l.92.4c1.8.78 2.38 1.64 2.38 2.78 0 1.7-1.84 3.04-3.9 3.04zm8.38-.14c-1.64 0-2.12-.96-2.1-2.26l.06-6.42h-1.4V5.7l1.46-.38 1.12-2.46h.72v2.66h2.64v1.12h-2.6v5.54c0 1.56.62 1.68 1.38 1.68.62 0 1.4-.12 1.4-.12l.14.58s-1.24.92-2.82.92zm7.02.14c-1.1 0-2-.36-2.8-.78l-.32-2.9h.72l1.04 2.26c.34.24.76.58 1.66.58 1 0 1.68-.58 1.68-1.46 0-.74-.44-1.3-1.88-1.96l-.88-.4c-1.42-.64-2.08-1.36-2.08-2.64 0-1.6 1.66-2.86 3.58-2.86.84 0 1.7.22 2.54.64l.1 2.48h-.66l-.82-1.8c-.26-.18-.68-.48-1.38-.48-.92 0-1.48.6-1.48 1.34 0 .76.38 1.24 1.58 1.76l.92.4c1.8.78 2.38 1.64 2.38 2.78 0 1.7-1.84 3.04-3.9 3.04z" fill="#2A3048" fill-rule="evenodd" opacity=".6"/>
</svg>
