<?xml version="1.0" encoding="UTF-8"?>
<svg width="17px" height="60px" viewBox="0 0 17 60" version="1.1" xmlns="http://www.w3.org/2000/svg" xmlns:xlink="http://www.w3.org/1999/xlink">
    <!-- Generator: Sketch 48.2 (47327) - http://www.bohemiancoding.com/sketch -->
    <title>modul arrow</title>
    <desc>Created with Sketch.</desc>
    <defs></defs>
    <g id="Growthcasts---Full" stroke="none" stroke-width="1" fill="none" fill-rule="evenodd" transform="translate(-1103.000000, -12306.000000)">
        <g id="ELITE" transform="translate(0.000000, 8140.000000)" fill="#A0A4B1">
            <g id="MODULES" transform="translate(0.000000, 2255.000000)">
                <g id="1" transform="translate(1.000000, 0.000000)">
                    <g id="testimonial" transform="translate(414.000000, 1870.000000)">
                        <path d="M700.272984,61.1754512 C700.204984,61.0070379 700.143984,60.8552288 700.081984,60.7026289 C700.033984,60.8528567 699.944984,61.0015032 699.947984,61.1501497 C699.950984,61.3043309 700.044984,61.45614 700.099984,61.6103212 C700.155984,61.4648374 700.214984,61.320935 700.272984,61.1754512 Z M702.641385,65.1371183 C702.575385,64.9473627 702.468385,64.6403804 702.362385,64.3333981 C701.695385,64.5180935 702.051385,64.9912173 701.981385,65.3361507 C701.936385,65.5503637 701.980385,65.7856605 702.028385,66.0032469 C702.042385,66.0681854 702.221385,66.1609548 702.301385,66.1474611 C702.400385,66.1297506 702.530385,66.0251742 702.551385,65.939995 C702.604385,65.7224087 702.606385,65.4938587 702.641385,65.1371183 Z M700.216614,76.355956 C700.123614,76.4956436 700.002614,76.6286794 699.951614,76.7783447 C699.926614,76.8498515 700.034614,76.9529542 700.082614,77.0410904 C700.137614,76.9604375 700.235614,76.8814475 700.236614,76.799963 C700.239614,76.6386571 700.187614,76.4773512 700.158614,76.3168767 C700.738614,75.8595661 700.779614,75.225983 700.937614,74.6348051 C700.962614,74.540017 700.871614,74.4244422 700.834614,74.3180135 C700.752614,74.3928462 700.617614,74.4593641 700.598614,74.5433429 C700.457614,75.1444986 700.340614,75.7514745 700.216614,76.355956 Z M699.234114,80.3419693 C699.135114,80.3893787 699.001114,80.4255942 698.952114,80.4901237 C698.925114,80.5283146 699.035114,80.6106225 699.084114,80.6718597 C699.114114,80.6349857 699.162114,80.6000871 699.169114,80.5612378 C699.183114,80.4782713 699.175114,80.3933295 699.176114,80.3097046 C699.754114,79.9916666 699.764114,79.5169142 699.931114,79.0895712 C699.957114,79.0243833 699.837114,78.9348323 699.785114,78.8564751 C699.685114,78.9104691 699.511114,78.9565616 699.495114,79.0197741 C699.390114,79.458311 699.317114,79.9007986 699.234114,80.3419693 Z M691.421893,59.8699523 C691.523794,58.6063838 691.607047,57.3382177 691.730926,56.0754154 C692.03663,52.9666843 692.341001,49.8556545 692.957069,46.8013282 C693.177522,45.7086364 693.305397,44.6213085 693.128236,43.4918361 C693.014347,42.764652 693.212155,42.6757655 693.899487,42.5907102 C696.389069,42.2796072 698.327853,43.7569633 700.29461,45.1301075 C702.190768,46.4557433 703.905104,48.0771569 705.644747,49.6525947 C706.11962,50.084001 706.597156,50.4724966 707.166603,50.7284286 C707.673444,50.9560089 708.019774,51.3904803 707.93519,52.0762862 C707.905885,52.3153604 707.813974,52.6402561 707.658126,52.7429354 C707.341766,52.9513591 707.196574,53.2019272 707.155281,53.6095794 C707.110657,54.0394533 707.271834,54.3168406 707.532914,54.5689413 C707.637479,54.6700881 707.748038,54.7903915 707.799988,54.9290852 C707.848607,55.0578175 707.87325,55.2616436 707.815972,55.3635566 C707.761359,55.4593395 707.568879,55.5351996 707.468976,55.4991852 C707.253185,55.4240914 707.044055,55.2945929 706.856238,55.146704 C705.717344,54.2440456 704.581114,53.3390884 703.454208,52.4172734 C702.966016,52.0180501 702.510458,51.5636559 702.022265,51.1636663 C701.503436,50.7368575 700.963294,50.3452969 700.43181,49.938411 C700.101464,50.8288092 700.772146,51.3958442 701.001257,52.0839488 C702.070219,55.2876965 702.690283,58.5979549 702.814163,62.012425 C702.881431,63.8629514 703.034616,65.7150103 702.908738,67.5785632 C702.804839,69.116454 702.684289,70.6428509 702.379918,72.1477925 C702.0549,73.7485169 701.879071,75.3783594 701.446158,76.9614598 C700.463779,80.5575344 699.399479,84.1061007 697.80303,87.4163591 C697.243573,88.5757158 696.730072,89.765723 696.15796,90.9166508 C695.838937,91.5580133 695.440657,92.1480362 695.082338,92.7648784 C694.775303,93.2920677 694.526212,93.8767267 694.161899,94.3433812 C692.532148,96.4291505 691.070235,98.7126157 688.962282,100.244376 C688.4974,100.583065 688.080472,101.006042 687.63224,101.375381 C687.192667,101.73859 686.731115,101.508711 686.597245,100.8957 C686.436068,100.158555 686.364804,100.129437 685.796023,100.230584 C685.707443,100.246675 685.605542,100.366979 685.542936,100.338627 C685.344462,100.248974 685.113353,100.158555 684.992803,99.9800156 C684.914213,99.8643098 684.945516,99.4742816 685.034763,99.4129806 C685.588891,99.0352126 685.564248,98.5210498 685.426382,97.9095716 C685.359114,97.6099625 685.373767,97.2697415 685.417058,96.9601711 C685.441701,96.7785666 685.563582,96.5379599 685.698784,96.4659311 C687.96858,95.2314806 689.530397,93.0093164 691.331315,91.1258407 C691.774218,90.6630176 692.391618,90.1810378 692.023975,89.2469626 C691.975356,89.1228279 692.123878,88.8508044 692.231107,88.6921878 C693.661718,86.5880282 694.801944,84.2877052 695.732374,81.8471559 C696.568229,79.6556423 697.28087,77.4120227 697.628532,75.0473336 C697.997507,72.5408856 698.29322,70.0198787 698.620236,67.5050019 C698.793401,66.1808985 698.745448,64.8560289 698.635554,63.5326918 C698.451733,61.3128265 698.265247,59.0937274 698.052121,56.8776933 C697.992179,56.2493572 697.883618,55.6125922 697.712451,55.0133742 C697.410744,53.9566968 697.047097,52.9230073 696.701433,51.883954 C696.636163,51.6870243 696.543586,51.4992897 696.443017,51.3238154 C696.396396,51.2433577 696.273182,51.133782 696.233887,51.1552374 C696.13465,51.2111747 696.001446,51.3215166 695.988125,51.4280272 C695.8083,52.8448485 695.607828,54.2616697 695.494605,55.6869198 C695.414682,56.6868937 695.467298,57.7006603 695.446651,58.7082968 C695.431999,59.4515724 695.408022,60.1534698 694.767977,60.6683989 C694.371029,60.9879307 694.137922,61.5649272 693.798918,61.9925022 C693.586458,62.2568631 693.204828,62.122767 693.175524,61.7580256 C693.129568,61.1886918 693.002358,60.7718444 692.476203,60.5457967 C692.033299,60.3542308 692.04662,60.2952285 691.986012,60.8231841 C691.96803,60.9795018 691.996002,61.1580412 691.939391,61.2890723 C691.891437,61.3978817 691.755569,61.4699105 691.645676,61.5212501 C691.622365,61.5319778 691.500484,61.387154 691.497153,61.3089951 C691.475175,60.8323792 691.474509,60.3549971 691.466517,59.8783812 C691.451198,59.8753161 691.437212,59.8730173 691.421893,59.8699523 Z" id="modul-arrow" transform="translate(696.447910, 72.048783) scale(-1, 1) rotate(-190.000000) translate(-696.447910, -72.048783) "></path>
                    </g>
                </g>
            </g>
        </g>
    </g>
</svg>
