<svg width="14" height="12" xmlns="http://www.w3.org/2000/svg">
  <path d="M13.5 1.354s-1.351.146-1.95.266a2.633 2.633 0 0 0-4.486 2.399 7.462 7.462 0 0 1-5.424-2.75 2.629 2.629 0 0 0 .814 3.514 2.617 2.617 0 0 1-1.192-.33v.035c0 1.274.907 2.338 2.111 2.579a2.633 2.633 0 0 1-1.188.046 2.639 2.639 0 0 0 2.458 1.829 5.291 5.291 0 0 1-3.896 1.089 7.452 7.452 0 0 0 4.035 1.184c4.841 0 7.488-4.012 7.488-7.489 0-.114-.002-.228-.008-.34.514-.373.885-1.504 1.238-2.032z" stroke="#A0A4B1" fill="none" fill-rule="evenodd" stroke-linejoin="round"/>
</svg>
