<?xml version="1.0" encoding="UTF-8"?>
<svg width="119px" height="60px" viewBox="0 0 119 60" version="1.1" xmlns="http://www.w3.org/2000/svg" xmlns:xlink="http://www.w3.org/1999/xlink">
    <title>Group 30</title>
    <g id="Page-1" stroke="none" stroke-width="1" fill="none" fill-rule="evenodd">
        <g id="proposal-" transform="translate(-1009.000000, -6836.000000)">
            <g id="Group-30" transform="translate(1009.000000, 6836.000000)">
                <g id="Group" fill-rule="nonzero">
                    <g id="double">
                        <g transform="translate(9.895833, 0.000000)" fill="#51ABFF">
                            <path d="M15.0733331,22.8550342 L15.0060415,22.8550342 C14.4228441,23.835177 13.6377825,24.5479975 12.6508332,24.9935169 C11.6638838,25.4390364 10.5984431,25.6617928 9.45447905,25.6617928 C8.19836167,25.6617928 7.08245271,25.4446053 6.10671867,25.0102238 C5.13098464,24.5758423 4.29545481,23.979969 3.60010412,23.2225859 C2.90475343,22.4652028 2.37764065,21.5741773 2.01874997,20.5494825 C1.6598593,19.5247877 1.48041665,18.4221436 1.48041665,17.241517 C1.48041665,16.0608904 1.67107446,14.9582463 2.05239581,13.9335515 C2.43371715,12.9088568 2.96643751,12.0178312 3.65057287,11.2604481 C4.33470823,10.503065 5.15902289,9.9071917 6.12354159,9.47281023 C7.08806029,9.03842875 8.14228584,8.82124127 9.28624988,8.82124127 C10.0488926,8.82124127 10.7218025,8.89920601 11.3049999,9.05513782 C11.8881972,9.21106963 12.4040948,9.41155038 12.8527082,9.65658609 C13.3013215,9.90162179 13.6826371,10.1633605 13.9966665,10.4418102 C14.3106958,10.7202599 14.5686446,10.9931365 14.7705206,11.2604481 L14.8714581,11.2604481 L14.8714581,-7.64445978e-14 L18.9089581,-7.64445978e-14 L18.9089581,25.2608273 L15.0733331,25.2608273 L15.0733331,22.8550342 Z M5.5179166,17.241517 C5.5179166,17.8652443 5.62446067,18.4666865 5.83755201,19.0458618 C6.05064335,19.6250371 6.36466798,20.1373768 6.77963533,20.5828963 C7.19460268,21.0284158 7.69367754,21.384826 8.2768749,21.6521377 C8.86007225,21.9194493 9.52176701,22.0531032 10.261979,22.0531032 C11.0021911,22.0531032 11.6638858,21.9194493 12.2470832,21.6521377 C12.8302805,21.384826 13.3293554,21.0284158 13.7443227,20.5828963 C14.1592901,20.1373768 14.4733147,19.6250371 14.6864061,19.0458618 C14.8994974,18.4666865 15.0060415,17.8652443 15.0060415,17.241517 C15.0060415,16.6177898 14.8994974,16.0163475 14.6864061,15.4371722 C14.4733147,14.8579969 14.1592901,14.3456572 13.7443227,13.9001378 C13.3293554,13.4546183 12.8302805,13.0982081 12.2470832,12.8308964 C11.6638858,12.5635847 11.0021911,12.4299309 10.261979,12.4299309 C9.52176701,12.4299309 8.86007225,12.5635847 8.2768749,12.8308964 C7.69367754,13.0982081 7.19460268,13.4546183 6.77963533,13.9001378 C6.36466798,14.3456572 6.05064335,14.8579969 5.83755201,15.4371722 C5.62446067,16.0163475 5.5179166,16.6177898 5.5179166,17.241517 Z M22.6772914,17.241517 C22.6772914,15.9717866 22.9072023,14.8190222 23.367031,13.7831895 C23.8268596,12.7473567 24.4493013,11.8619001 25.2343747,11.126793 C26.019448,10.3916858 26.9503068,9.82365705 28.0269788,9.42268954 C29.1036509,9.02172202 30.2475977,8.82124127 31.4588538,8.82124127 C32.6701098,8.82124127 33.8140567,9.02172202 34.8907287,9.42268954 C35.9674008,9.82365705 36.8982595,10.3916858 37.6833329,11.126793 C38.4684062,11.8619001 39.0908479,12.7473567 39.5506766,13.7831895 C40.0105053,14.8190222 40.2404162,15.9717866 40.2404162,17.241517 C40.2404162,18.5112475 40.0105053,19.6640118 39.5506766,20.6998446 C39.0908479,21.7356773 38.4684062,22.621134 37.6833329,23.3562411 C36.8982595,24.0913482 35.9674008,24.659377 34.8907287,25.0603445 C33.8140567,25.461312 32.6701098,25.6617928 31.4588538,25.6617928 C30.2475977,25.6617928 29.1036509,25.461312 28.0269788,25.0603445 C26.9503068,24.659377 26.019448,24.0913482 25.2343747,23.3562411 C24.4493013,22.621134 23.8268596,21.7356773 23.367031,20.6998446 C22.9072023,19.6640118 22.6772914,18.5112475 22.6772914,17.241517 Z M26.7147913,17.241517 C26.7147913,17.8652443 26.8213354,18.4666865 27.0344267,19.0458618 C27.2475181,19.6250371 27.5615427,20.1373768 27.9765101,20.5828963 C28.3914774,21.0284158 28.8905523,21.384826 29.4737496,21.6521377 C30.056947,21.9194493 30.7186417,22.0531032 31.4588538,22.0531032 C32.1990658,22.0531032 32.8607606,21.9194493 33.4439579,21.6521377 C34.0271553,21.384826 34.5262301,21.0284158 34.9411975,20.5828963 C35.3561648,20.1373768 35.6701895,19.6250371 35.8832808,19.0458618 C36.0963721,18.4666865 36.2029162,17.8652443 36.2029162,17.241517 C36.2029162,16.6177898 36.0963721,16.0163475 35.8832808,15.4371722 C35.6701895,14.8579969 35.3561648,14.3456572 34.9411975,13.9001378 C34.5262301,13.4546183 34.0271553,13.0982081 33.4439579,12.8308964 C32.8607606,12.5635847 32.1990658,12.4299309 31.4588538,12.4299309 C30.7186417,12.4299309 30.056947,12.5635847 29.4737496,12.8308964 C28.8905523,13.0982081 28.3914774,13.4546183 27.9765101,13.9001378 C27.5615427,14.3456572 27.2475181,14.8579969 27.0344267,15.4371722 C26.8213354,16.0163475 26.7147913,16.6177898 26.7147913,17.241517 Z M58.7456243,25.2608273 L54.9099993,25.2608273 L54.9099993,22.6879652 L54.8427076,22.6879652 C54.4613863,23.4899003 53.8781977,24.186014 53.0931243,24.7763273 C52.308051,25.3666406 51.2426103,25.6617928 49.8967702,25.6617928 C48.8200982,25.6617928 47.9060622,25.4891566 47.1546348,25.143879 C46.4032075,24.7986014 45.7919809,24.330813 45.3209369,23.7404997 C44.8498929,23.1501864 44.513438,22.4763483 44.3115619,21.7189652 C44.1096859,20.9615822 44.0087494,20.170797 44.0087494,19.346586 L44.0087494,9.22220678 L48.0462494,9.22220678 L48.0462494,17.3417584 C48.0462494,17.7872779 48.0686797,18.2829108 48.1135411,18.8286722 C48.1584024,19.3744335 48.2761616,19.8867732 48.4668223,20.3657066 C48.657483,20.8446401 48.9490773,21.2456016 49.341614,21.5686032 C49.7341506,21.8916048 50.2893013,22.0531032 51.0070827,22.0531032 C51.6800027,22.0531032 52.2463686,21.941725 52.7061973,21.7189652 C53.1660259,21.4962055 53.5473416,21.1954844 53.8501556,20.8167928 C54.1529696,20.4381013 54.3716653,20.0037263 54.5062493,19.5136549 C54.6408333,19.0235835 54.7081243,18.5112438 54.7081243,17.9766205 L54.7081243,9.22220678 L58.7456243,9.22220678 L58.7456243,25.2608273 Z M63.3214575,-7.64445978e-14 L67.3589575,-7.64445978e-14 L67.3589575,11.2604481 L67.459895,11.2604481 C67.661771,10.9931365 67.9197198,10.7202599 68.2337491,10.4418102 C68.5477785,10.1633605 68.9290941,9.90162179 69.3777075,9.65658609 C69.8263208,9.41155038 70.3422184,9.21106963 70.9254158,9.05513782 C71.5086131,8.89920601 72.1815231,8.82124127 72.9441658,8.82124127 C74.0881298,8.82124127 75.1423553,9.03842875 76.106874,9.47281023 C77.0713927,9.9071917 77.8957074,10.503065 78.5798428,11.2604481 C79.2639781,12.0178312 79.7966985,12.9088568 80.1780198,13.9335515 C80.5593412,14.9582463 80.749999,16.0608904 80.749999,17.241517 C80.749999,18.4221436 80.5705563,19.5247877 80.2116657,20.5494825 C79.852775,21.5741773 79.3256622,22.4652028 78.6303115,23.2225859 C77.9349608,23.979969 77.0938234,24.5758423 76.106874,25.0102238 C75.1199247,25.4446053 74.0096233,25.6617928 72.7759366,25.6617928 C71.6319725,25.6617928 70.5665318,25.4390364 69.5795825,24.9935169 C68.5926331,24.5479975 67.8075715,23.835177 67.2243742,22.8550342 L67.1570825,22.8550342 L67.1570825,25.2608273 L63.3214575,25.2608273 L63.3214575,-7.64445978e-14 Z M76.712499,17.241517 C76.712499,16.6177898 76.605955,16.0163475 76.3928636,15.4371722 C76.1797723,14.8579969 75.8657477,14.3456572 75.4507803,13.9001378 C75.035813,13.4546183 74.5367381,13.0982081 73.9535407,12.8308964 C73.3703434,12.5635847 72.7086486,12.4299309 71.9684366,12.4299309 C71.2282246,12.4299309 70.5665298,12.5635847 69.9833325,12.8308964 C69.4001351,13.0982081 68.9010602,13.4546183 68.4860929,13.9001378 C68.0711255,14.3456572 67.7571009,14.8579969 67.5440096,15.4371722 C67.3309182,16.0163475 67.2243742,16.6177898 67.2243742,17.241517 C67.2243742,17.8652443 67.3309182,18.4666865 67.5440096,19.0458618 C67.7571009,19.6250371 68.0711255,20.1373768 68.4860929,20.5828963 C68.9010602,21.0284158 69.4001351,21.384826 69.9833325,21.6521377 C70.5665298,21.9194493 71.2282246,22.0531032 71.9684366,22.0531032 C72.7086486,22.0531032 73.3703434,21.9194493 73.9535407,21.6521377 C74.5367381,21.384826 75.035813,21.0284158 75.4507803,20.5828963 C75.8657477,20.1373768 76.1797723,19.6250371 76.3928636,19.0458618 C76.605955,18.4666865 76.712499,17.8652443 76.712499,17.241517 Z M84.5856239,-7.64445978e-14 L88.6231239,-7.64445978e-14 L88.6231239,25.2608273 L84.5856239,25.2608273 L84.5856239,-7.64445978e-14 Z M96.4962488,18.6448963 C96.6308328,19.8477989 97.1018697,20.7833757 97.9093738,21.4516549 C98.7168778,22.1199341 99.6925972,22.4540687 100.836561,22.4540687 C101.845941,22.4540687 102.692686,22.248019 103.376822,21.8359135 C104.060957,21.423808 104.660968,20.9058994 105.176874,20.2821722 L108.070415,22.4540687 C107.128327,23.6124193 106.074102,24.4366179 104.907707,24.9266893 C103.741312,25.4167608 102.518859,25.6617928 101.240311,25.6617928 C100.029055,25.6617928 98.8851083,25.461312 97.8084363,25.0603445 C96.7317642,24.659377 95.8009055,24.0913482 95.0158321,23.3562411 C94.2307588,22.621134 93.6083171,21.7356773 93.1484884,20.6998446 C92.6886597,19.6640118 92.4587488,18.5112475 92.4587488,17.241517 C92.4587488,15.9717866 92.6886597,14.8190222 93.1484884,13.7831895 C93.6083171,12.7473567 94.2307588,11.8619001 95.0158321,11.126793 C95.8009055,10.3916858 96.7317642,9.82365705 97.8084363,9.42268954 C98.8851083,9.02172202 100.029055,8.82124127 101.240311,8.82124127 C102.361845,8.82124127 103.388032,9.01615311 104.318905,9.40598264 C105.249778,9.79581217 106.046054,10.3582721 106.707759,11.0933792 C107.369464,11.8284863 107.885361,12.7362186 108.255467,13.8166033 C108.625573,14.896988 108.810624,16.1388548 108.810624,17.5422412 L108.810624,18.6448963 L96.4962488,18.6448963 Z M104.773124,15.637655 C104.750693,14.4570284 104.380593,13.5270205 103.662811,12.8476033 C102.94503,12.1681861 101.94688,11.8284826 100.668332,11.8284826 C99.457076,11.8284826 98.4981794,12.173755 97.7916134,12.8643102 C97.0850473,13.5548654 96.6532635,14.4793044 96.4962488,15.637655 L104.773124,15.637655 Z"></path>
                            <polygon id="Decoration" points="108.830415 27.7668617 -1.12502598e-14 27.7668617 -1.12502598e-14 26.0961721 108.830415 26.0961721"></polygon>
                        </g>
                        <g fill="#292F47">
                            <path d="M15.0733331,22.8550342 L15.0060415,22.8550342 C14.4228441,23.835177 13.6377825,24.5479975 12.6508332,24.9935169 C11.6638838,25.4390364 10.5984431,25.6617928 9.45447905,25.6617928 C8.19836167,25.6617928 7.08245271,25.4446053 6.10671867,25.0102238 C5.13098464,24.5758423 4.29545481,23.979969 3.60010412,23.2225859 C2.90475343,22.4652028 2.37764065,21.5741773 2.01874997,20.5494825 C1.6598593,19.5247877 1.48041665,18.4221436 1.48041665,17.241517 C1.48041665,16.0608904 1.67107446,14.9582463 2.05239581,13.9335515 C2.43371715,12.9088568 2.96643751,12.0178312 3.65057287,11.2604481 C4.33470823,10.503065 5.15902289,9.9071917 6.12354159,9.47281023 C7.08806029,9.03842875 8.14228584,8.82124127 9.28624988,8.82124127 C10.0488926,8.82124127 10.7218025,8.89920601 11.3049999,9.05513782 C11.8881972,9.21106963 12.4040948,9.41155038 12.8527082,9.65658609 C13.3013215,9.90162179 13.6826371,10.1633605 13.9966665,10.4418102 C14.3106958,10.7202599 14.5686446,10.9931365 14.7705206,11.2604481 L14.8714581,11.2604481 L14.8714581,-7.64445978e-14 L18.9089581,-7.64445978e-14 L18.9089581,25.2608273 L15.0733331,25.2608273 L15.0733331,22.8550342 Z M5.5179166,17.241517 C5.5179166,17.8652443 5.62446067,18.4666865 5.83755201,19.0458618 C6.05064335,19.6250371 6.36466798,20.1373768 6.77963533,20.5828963 C7.19460268,21.0284158 7.69367754,21.384826 8.2768749,21.6521377 C8.86007225,21.9194493 9.52176701,22.0531032 10.261979,22.0531032 C11.0021911,22.0531032 11.6638858,21.9194493 12.2470832,21.6521377 C12.8302805,21.384826 13.3293554,21.0284158 13.7443227,20.5828963 C14.1592901,20.1373768 14.4733147,19.6250371 14.6864061,19.0458618 C14.8994974,18.4666865 15.0060415,17.8652443 15.0060415,17.241517 C15.0060415,16.6177898 14.8994974,16.0163475 14.6864061,15.4371722 C14.4733147,14.8579969 14.1592901,14.3456572 13.7443227,13.9001378 C13.3293554,13.4546183 12.8302805,13.0982081 12.2470832,12.8308964 C11.6638858,12.5635847 11.0021911,12.4299309 10.261979,12.4299309 C9.52176701,12.4299309 8.86007225,12.5635847 8.2768749,12.8308964 C7.69367754,13.0982081 7.19460268,13.4546183 6.77963533,13.9001378 C6.36466798,14.3456572 6.05064335,14.8579969 5.83755201,15.4371722 C5.62446067,16.0163475 5.5179166,16.6177898 5.5179166,17.241517 Z M22.6772914,17.241517 C22.6772914,15.9717866 22.9072023,14.8190222 23.367031,13.7831895 C23.8268596,12.7473567 24.4493013,11.8619001 25.2343747,11.126793 C26.019448,10.3916858 26.9503068,9.82365705 28.0269788,9.42268954 C29.1036509,9.02172202 30.2475977,8.82124127 31.4588538,8.82124127 C32.6701098,8.82124127 33.8140567,9.02172202 34.8907287,9.42268954 C35.9674008,9.82365705 36.8982595,10.3916858 37.6833329,11.126793 C38.4684062,11.8619001 39.0908479,12.7473567 39.5506766,13.7831895 C40.0105053,14.8190222 40.2404162,15.9717866 40.2404162,17.241517 C40.2404162,18.5112475 40.0105053,19.6640118 39.5506766,20.6998446 C39.0908479,21.7356773 38.4684062,22.621134 37.6833329,23.3562411 C36.8982595,24.0913482 35.9674008,24.659377 34.8907287,25.0603445 C33.8140567,25.461312 32.6701098,25.6617928 31.4588538,25.6617928 C30.2475977,25.6617928 29.1036509,25.461312 28.0269788,25.0603445 C26.9503068,24.659377 26.019448,24.0913482 25.2343747,23.3562411 C24.4493013,22.621134 23.8268596,21.7356773 23.367031,20.6998446 C22.9072023,19.6640118 22.6772914,18.5112475 22.6772914,17.241517 Z M26.7147913,17.241517 C26.7147913,17.8652443 26.8213354,18.4666865 27.0344267,19.0458618 C27.2475181,19.6250371 27.5615427,20.1373768 27.9765101,20.5828963 C28.3914774,21.0284158 28.8905523,21.384826 29.4737496,21.6521377 C30.056947,21.9194493 30.7186417,22.0531032 31.4588538,22.0531032 C32.1990658,22.0531032 32.8607606,21.9194493 33.4439579,21.6521377 C34.0271553,21.384826 34.5262301,21.0284158 34.9411975,20.5828963 C35.3561648,20.1373768 35.6701895,19.6250371 35.8832808,19.0458618 C36.0963721,18.4666865 36.2029162,17.8652443 36.2029162,17.241517 C36.2029162,16.6177898 36.0963721,16.0163475 35.8832808,15.4371722 C35.6701895,14.8579969 35.3561648,14.3456572 34.9411975,13.9001378 C34.5262301,13.4546183 34.0271553,13.0982081 33.4439579,12.8308964 C32.8607606,12.5635847 32.1990658,12.4299309 31.4588538,12.4299309 C30.7186417,12.4299309 30.056947,12.5635847 29.4737496,12.8308964 C28.8905523,13.0982081 28.3914774,13.4546183 27.9765101,13.9001378 C27.5615427,14.3456572 27.2475181,14.8579969 27.0344267,15.4371722 C26.8213354,16.0163475 26.7147913,16.6177898 26.7147913,17.241517 Z M58.7456243,25.2608273 L54.9099993,25.2608273 L54.9099993,22.6879652 L54.8427076,22.6879652 C54.4613863,23.4899003 53.8781977,24.186014 53.0931243,24.7763273 C52.308051,25.3666406 51.2426103,25.6617928 49.8967702,25.6617928 C48.8200982,25.6617928 47.9060622,25.4891566 47.1546348,25.143879 C46.4032075,24.7986014 45.7919809,24.330813 45.3209369,23.7404997 C44.8498929,23.1501864 44.513438,22.4763483 44.3115619,21.7189652 C44.1096859,20.9615822 44.0087494,20.170797 44.0087494,19.346586 L44.0087494,9.22220678 L48.0462494,9.22220678 L48.0462494,17.3417584 C48.0462494,17.7872779 48.0686797,18.2829108 48.1135411,18.8286722 C48.1584024,19.3744335 48.2761616,19.8867732 48.4668223,20.3657066 C48.657483,20.8446401 48.9490773,21.2456016 49.341614,21.5686032 C49.7341506,21.8916048 50.2893013,22.0531032 51.0070827,22.0531032 C51.6800027,22.0531032 52.2463686,21.941725 52.7061973,21.7189652 C53.1660259,21.4962055 53.5473416,21.1954844 53.8501556,20.8167928 C54.1529696,20.4381013 54.3716653,20.0037263 54.5062493,19.5136549 C54.6408333,19.0235835 54.7081243,18.5112438 54.7081243,17.9766205 L54.7081243,9.22220678 L58.7456243,9.22220678 L58.7456243,25.2608273 Z M63.3214575,-7.64445978e-14 L67.3589575,-7.64445978e-14 L67.3589575,11.2604481 L67.459895,11.2604481 C67.661771,10.9931365 67.9197198,10.7202599 68.2337491,10.4418102 C68.5477785,10.1633605 68.9290941,9.90162179 69.3777075,9.65658609 C69.8263208,9.41155038 70.3422184,9.21106963 70.9254158,9.05513782 C71.5086131,8.89920601 72.1815231,8.82124127 72.9441658,8.82124127 C74.0881298,8.82124127 75.1423553,9.03842875 76.106874,9.47281023 C77.0713927,9.9071917 77.8957074,10.503065 78.5798428,11.2604481 C79.2639781,12.0178312 79.7966985,12.9088568 80.1780198,13.9335515 C80.5593412,14.9582463 80.749999,16.0608904 80.749999,17.241517 C80.749999,18.4221436 80.5705563,19.5247877 80.2116657,20.5494825 C79.852775,21.5741773 79.3256622,22.4652028 78.6303115,23.2225859 C77.9349608,23.979969 77.0938234,24.5758423 76.106874,25.0102238 C75.1199247,25.4446053 74.0096233,25.6617928 72.7759366,25.6617928 C71.6319725,25.6617928 70.5665318,25.4390364 69.5795825,24.9935169 C68.5926331,24.5479975 67.8075715,23.835177 67.2243742,22.8550342 L67.1570825,22.8550342 L67.1570825,25.2608273 L63.3214575,25.2608273 L63.3214575,-7.64445978e-14 Z M76.712499,17.241517 C76.712499,16.6177898 76.605955,16.0163475 76.3928636,15.4371722 C76.1797723,14.8579969 75.8657477,14.3456572 75.4507803,13.9001378 C75.035813,13.4546183 74.5367381,13.0982081 73.9535407,12.8308964 C73.3703434,12.5635847 72.7086486,12.4299309 71.9684366,12.4299309 C71.2282246,12.4299309 70.5665298,12.5635847 69.9833325,12.8308964 C69.4001351,13.0982081 68.9010602,13.4546183 68.4860929,13.9001378 C68.0711255,14.3456572 67.7571009,14.8579969 67.5440096,15.4371722 C67.3309182,16.0163475 67.2243742,16.6177898 67.2243742,17.241517 C67.2243742,17.8652443 67.3309182,18.4666865 67.5440096,19.0458618 C67.7571009,19.6250371 68.0711255,20.1373768 68.4860929,20.5828963 C68.9010602,21.0284158 69.4001351,21.384826 69.9833325,21.6521377 C70.5665298,21.9194493 71.2282246,22.0531032 71.9684366,22.0531032 C72.7086486,22.0531032 73.3703434,21.9194493 73.9535407,21.6521377 C74.5367381,21.384826 75.035813,21.0284158 75.4507803,20.5828963 C75.8657477,20.1373768 76.1797723,19.6250371 76.3928636,19.0458618 C76.605955,18.4666865 76.712499,17.8652443 76.712499,17.241517 Z M84.5856239,-7.64445978e-14 L88.6231239,-7.64445978e-14 L88.6231239,25.2608273 L84.5856239,25.2608273 L84.5856239,-7.64445978e-14 Z M96.4962488,18.6448963 C96.6308328,19.8477989 97.1018697,20.7833757 97.9093738,21.4516549 C98.7168778,22.1199341 99.6925972,22.4540687 100.836561,22.4540687 C101.845941,22.4540687 102.692686,22.248019 103.376822,21.8359135 C104.060957,21.423808 104.660968,20.9058994 105.176874,20.2821722 L108.070415,22.4540687 C107.128327,23.6124193 106.074102,24.4366179 104.907707,24.9266893 C103.741312,25.4167608 102.518859,25.6617928 101.240311,25.6617928 C100.029055,25.6617928 98.8851083,25.461312 97.8084363,25.0603445 C96.7317642,24.659377 95.8009055,24.0913482 95.0158321,23.3562411 C94.2307588,22.621134 93.6083171,21.7356773 93.1484884,20.6998446 C92.6886597,19.6640118 92.4587488,18.5112475 92.4587488,17.241517 C92.4587488,15.9717866 92.6886597,14.8190222 93.1484884,13.7831895 C93.6083171,12.7473567 94.2307588,11.8619001 95.0158321,11.126793 C95.8009055,10.3916858 96.7317642,9.82365705 97.8084363,9.42268954 C98.8851083,9.02172202 100.029055,8.82124127 101.240311,8.82124127 C102.361845,8.82124127 103.388032,9.01615311 104.318905,9.40598264 C105.249778,9.79581217 106.046054,10.3582721 106.707759,11.0933792 C107.369464,11.8284863 107.885361,12.7362186 108.255467,13.8166033 C108.625573,14.896988 108.810624,16.1388548 108.810624,17.5422412 L108.810624,18.6448963 L96.4962488,18.6448963 Z M104.773124,15.637655 C104.750693,14.4570284 104.380593,13.5270205 103.662811,12.8476033 C102.94503,12.1681861 101.94688,11.8284826 100.668332,11.8284826 C99.457076,11.8284826 98.4981794,12.173755 97.7916134,12.8643102 C97.0850473,13.5548654 96.6532635,14.4793044 96.4962488,15.637655 L104.773124,15.637655 Z"></path>
                            <polygon id="Decoration" points="108.830415 27.7668617 -1.12502598e-14 27.7668617 -1.12502598e-14 26.0961721 108.830415 26.0961721"></polygon>
                        </g>
                    </g>
                </g>
                <text id="Academy" font-family="Poppins-SemiBold, Poppins" font-size="15.1999998" font-weight="500" line-spacing="26.5999997" letter-spacing="0.474999994" fill="#181D33">
                    <tspan x="18.9999998" y="49.2999996">Academy</tspan>
                </text>
            </g>
        </g>
    </g>
</svg>