<?xml version="1.0" encoding="utf-8"?>
<svg xmlns="http://www.w3.org/2000/svg" viewBox="0 0 566.93 180.4"><defs><style>.a{fill:#26358c;}.b{fill:#ffce34;}.c{fill:#00af8f;}</style></defs><title>logo-dark</title><path class="a" d="M198.66,38.24c-4.79,0-8.14,3.43-8.14,8.34v57.35c0,14.11-9,23.59-22.37,23.59-12.42,0-20.14-8.26-20.14-21.56V46.58a8,8,0,0,0-8.34-8.34c-4.87,0-8.14,3.35-8.14,8.34V106c0,22.45,13,36.41,34,36.41,10.91,0,20.27-4.33,26.57-12.24l.9,5.25c.6,3.8,3.12,6,6.9,6,4.52,0,7.12-2.74,7.12-7.53V46.58a8,8,0,0,0-8.33-8.34"/><path class="a" d="M100,0C95.13,0,91.7,3.35,91.7,8.14V133.22c0,4.79,3.43,8.14,8.34,8.14s8.34-3.35,8.34-8.14V8.14C108.37,3.35,105,0,100,0"/><path class="a" d="M38.64,37.22C15.17,37.22,0,52.71,0,76.67v27.86c0,23,15.17,37.83,38.64,37.83,20.61,0,32.89-11.3,34.77-28.78a8.37,8.37,0,0,0-1.76-6.7,7.25,7.25,0,0,0-5.56-2.35c-4,0-6.43,2.08-7.12,6.19-1.59,11.15-7.71,17.81-20.13,17.81-13.5,0-22.57-9.07-22.57-22.57V92.54H65.88c4.94,0,8.14-3.19,8.14-8.14V76.67c0-23.59-12.87-39.45-35.38-39.45m0,13.83c13.34,0,19.72,9.5,19.72,24.2v4.06H16.28V75.25c0-14.7,8.77-24.2,22.36-24.2"/><path class="a" d="M339.78,0a10.46,10.46,0,0,0-10.57,10.58,10.48,10.48,0,0,0,21,0A10.37,10.37,0,0,0,339.78,0"/><path class="a" d="M433.52,92.54c4.94,0,8.14-3.2,8.14-8.14V76.67c0-23.6-12.88-39.46-35.38-39.46-23.47,0-38.64,15.49-38.64,39.46v27.86c0,23,15.17,37.83,38.64,37.83,20.61,0,32.89-11.3,34.76-28.78a8.37,8.37,0,0,0-1.76-6.7,7.25,7.25,0,0,0-5.56-2.35c-4,0-6.43,2.08-7.11,6.19-1.59,11.15-7.72,17.81-20.14,17.81-13.5,0-22.57-9.07-22.57-22.57V92.54ZM383.9,79.32V75.25c0-14.7,8.78-24.2,22.37-24.2,13.34,0,19.72,9.5,19.72,24.2v4.07Z"/><path class="a" d="M298.91,38.24a6.72,6.72,0,0,0-7.11,6l-.74,5.18c-6.3-7.88-15.64-12.19-26.52-12.19-21.7,0-35.19,14.42-35.19,37.63v26.44c0,23.08,13.48,37.42,35.19,37.42,10.27,0,18.87-3.58,25-10.38v17.5c0,12.86-8.06,20.54-21.56,20.54-14.45,0-19.6-7.42-21.39-13.67-1.2-3.83-3.71-5.86-7.29-5.86a7,7,0,0,0-5.79,2.68,9.17,9.17,0,0,0-1.3,7.88c3.49,14.4,16.94,23,36,23C291.54,180.4,306,166.84,306,145V45.76c0-4.64-2.74-7.52-7.13-7.52m-9.35,37.62v24.41c0,14.11-9.08,23.59-22.57,23.59-13.05,0-21.15-8.49-21.15-22.17V74.24c0-13.47,8.3-22.17,21.15-22.17,13.49,0,22.57,9.56,22.57,23.79"/><path class="a" d="M339.78,38.24c-4.91,0-8.34,3.35-8.34,8.14v86.84c0,4.79,3.43,8.14,8.34,8.14a7.87,7.87,0,0,0,8.14-8.14V46.37a7.87,7.87,0,0,0-8.14-8.13"/><path class="b" d="M566.93,8.34c0-4.91-3.35-8.34-8.14-8.34H478.68c-4.79,0-8.14,3.43-8.14,8.34a7.87,7.87,0,0,0,8.14,8.14h80.11a7.88,7.88,0,0,0,8.14-8.14"/><path class="a" d="M566.93,82.17c0-4.91-3.35-8.34-8.14-8.34H478.68c-4.79,0-8.14,3.43-8.14,8.34a7.87,7.87,0,0,0,8.14,8.14h80.11a7.88,7.88,0,0,0,8.14-8.14"/><path class="c" d="M539.87,45.25c0-4.91-3.35-8.34-8.14-8.34H478.47c-4.79,0-8.14,3.43-8.14,8.34a7.87,7.87,0,0,0,8.14,8.14h53.26a7.87,7.87,0,0,0,8.14-8.14"/></svg>