<?xml version="1.0" encoding="UTF-8"?>
<svg width="474px" height="108px" viewBox="0 0 474 108" version="1.1" xmlns="http://www.w3.org/2000/svg" xmlns:xlink="http://www.w3.org/1999/xlink">
    <!-- Generator: Sketch 52.1 (67048) - http://www.bohemiancoding.com/sketch -->
    <title>klooker_logo</title>
    <desc>Created with Sketch.</desc>
    <g id="Page-1" stroke="none" stroke-width="1" fill="none" fill-rule="evenodd">
        <g id="Style_01" transform="translate(-552.000000, -258.000000)" fill="#6C5B7C">
            <g id="klooker_logo" transform="translate(552.000000, 258.000000)">
                <path d="M71.4407767,44.4727755 C71.4407767,31.628154 62.7941752,26.3798141 53.4388351,26.3798141 C40.1145632,26.3798141 31.6097088,34.3904382 27.215534,42.9535191 L26.7902914,42.9535191 L26.7902914,0 L8.50485437,0 L8.50485437,69.057105 L1.70097088,69.4714477 C1.41747573,74.1673305 0.85048544,78.4488712 0,82.3160687 L8.50485437,81.7636122 L8.50485437,104 L26.7902914,104 L26.7902914,79.4156704 C30.9009709,79.1394422 34.7281554,78.5869851 38.1300972,77.7583003 L52.4466021,104 L73,104 L54.9980584,71.1288178 C67.1883499,63.808765 71.4407767,53.1739707 71.4407767,44.4727755 Z M26.9320389,66.7091633 C28.0660195,55.2456838 36.854369,40.7436918 46.7766992,40.7436918 C50.8873788,40.7436918 52.4466021,43.7822044 52.4466021,47.3731739 C52.4466021,57.8698538 42.524272,65.3280214 26.9320389,66.7091633 Z" id="Shape" fill-rule="nonzero"></path>
                <path d="M156.11441,29 C140.508006,29 121,37.6256499 121,68.4315423 C121,95.2668976 133.540861,108 153.745581,108 C173.671615,108 188.999333,94.9930676 188.999333,66.5147317 C189.138677,32.4228769 167.401185,29 156.11441,29 Z M154.999667,94.9930676 C141.622749,94.9930676 139.253919,80.2062394 139.253919,66.3778164 C139.253919,52.1386482 144.270264,42.0069324 155.278353,42.0069324 C166.70447,42.0069324 170.606071,52.2755633 170.606071,68.8422876 C170.606071,84.3136917 166.007756,94.9930676 154.999667,94.9930676 Z" id="Shape" fill-rule="nonzero"></path>
                <path d="M117.640845,91.9687501 C114.978873,92.9531248 112.169014,93.6562497 109.654929,93.6562497 C103.147887,93.6562497 101.077465,90.1406246 101.077465,80.7187498 L101.077465,0 L82,0 L82,84.5156248 C82,95.9062496 83.3309858,108 104.922535,108 C111.87324,108 119.711268,106.03125 124,103.5 L123.704225,102.515625 C121.190141,99.4218748 119.267606,95.9062496 117.640845,91.9687501 Z" id="Shape"></path>
                <path d="M342.467557,44.4727755 C342.467557,31.628154 333.969466,26.3798141 324.774809,26.3798141 C311.679389,26.3798141 303.320611,34.3904382 299.001908,42.9535191 L298.583969,42.9535191 L298.583969,0 L280.612596,0 L280.612596,68.9189905 L272.671756,69.3333332 C272.39313,74.0292161 271.835878,78.3107568 271,82.1779548 L280.612596,81.6254977 L280.612596,104 L298.583969,104 L298.583969,79.4156704 C302.624046,79.1394422 306.385496,78.5869851 309.729008,77.7583003 L323.799618,104 L344,104 L326.307252,71.2669323 C338.288168,63.808765 342.467557,53.1739707 342.467557,44.4727755 Z M298.723283,66.7091633 C299.837787,55.2456838 308.475191,40.7436918 318.227099,40.7436918 C322.267176,40.7436918 323.799618,43.7822044 323.799618,47.3731739 C323.799618,57.8698538 314.04771,65.3280214 298.723283,66.7091633 Z" id="Shape" fill-rule="nonzero"></path>
                <path d="M388.812383,92.7192371 C375.866792,92.7192371 370.238274,83.4090118 369.675422,73.6880413 C383.746717,73.5511266 412.874296,70.5389948 412.874296,47.6741767 C412.874296,34.5303293 403.587242,27 388.671669,27 C366.157598,27 353.352721,43.7036395 351.664165,63.5563254 L347.161351,63.830156 C345.613509,68.4852683 344.487805,71.4974001 339,75.4679371 L351.945591,74.9202771 C353.915572,93.4038124 364.609756,106 387.123828,106 C401.476548,106 411.467167,99.8388212 414,97.64818 L408.371482,85.8734836 C404.43152,88.7487 397.818011,92.7192371 388.812383,92.7192371 Z M387.545966,39.7331022 C393.033771,39.7331022 396.692308,43.0190641 396.692308,48.4956672 C396.692308,59.8596186 377.273921,62.4610048 369.112571,62.3240901 C369.534709,51.3708838 375.30394,39.7331022 387.545966,39.7331022 Z" id="Shape" fill-rule="nonzero"></path>
                <path d="M461.502959,27 C453.834319,27 446.307692,31.6666667 442.899409,40.0392156 L441.053254,29.1960784 L426,29.1960784 L427.420119,41.2745098 L427.420119,104 L445.739645,104 L445.739645,57.0588235 C446.023669,48.4117647 451.420118,42.0980392 459.798816,42.0980392 C463.775148,42.0980392 467.325444,43.3333333 470.733728,45.117647 L474,30.1568627 C470.449704,28.0980392 466.18935,27 461.502959,27 Z" id="Shape"></path>
                <path d="M231.114754,29 C215.508197,29 196,37.6256499 196,68.4315423 C196,95.2668976 208.540983,108 228.745901,108 C248.672131,108 264,94.9930676 264,66.5147317 C264,32.4228769 242.262295,29 231.114754,29 Z M229.860656,94.9930676 C216.483607,94.9930676 214.114754,80.2062394 214.114754,66.3778164 C214.114754,52.1386482 219.131147,42.0069324 230.139344,42.0069324 C241.565574,42.0069324 245.467213,52.2755633 245.467213,68.8422876 C245.606557,84.3136917 240.868852,94.9930676 229.860656,94.9930676 Z" id="Shape" fill-rule="nonzero"></path>
            </g>
        </g>
    </g>
</svg>