<?xml version="1.0" encoding="utf-8"?>
<!-- Generator: Adobe Illustrator 19.2.0, SVG Export Plug-In . SVG Version: 6.00 Build 0)  -->
<svg version="1.1" id="Layer_1" xmlns="http://www.w3.org/2000/svg" xmlns:xlink="http://www.w3.org/1999/xlink" x="0px" y="0px"
	 viewBox="0 0 428.28638 55.44856" style="enable-background:new 0 0 428.28638 55.44856;" xml:space="preserve">
<style type="text/css">
	.st0{fill:#1A58A0;}
</style>
<path class="st0" d="M100.06726,41.37479c0-6.99091-4.48889-10.82092-15.49414-13.21973
	c-10.51538-2.25275-14.06531-4.87695-14.06531-10.39899v-0.14166c0-5.0935,4.76782-8.7904,11.33679-8.7904
	c4.87195,0,9.08887,1.41949,13.27087,4.46729c0.34241,0.245,0.66772,0.34204,1.15454,0.34204
	c1.04114,0,1.88806-0.84705,1.88806-1.88812c0-0.86584-0.6178-1.42377-0.88354-1.62341
	c-4.59863-3.30475-9.17493-4.71912-15.28809-4.71912c-8.9613,0-15.46545,5.34418-15.46545,12.70721v0.14172
	c0,7.30853,4.3335,10.96826,15.98914,13.50305c10.09204,2.1275,13.49988,4.69806,13.49988,10.18585v0.14178
	c0,5.4259-4.8656,9.21552-11.83215,9.21552c-6.31152,0-11.14014-1.81213-16.14587-6.0592l-0.0249-0.02118l-0.02319-0.02313
	c-0.20056-0.20056-0.62817-0.40289-1.13147-0.40289c-1.05811,0-1.88684,0.86023-1.88684,1.95837
	c0,0.61768,0.26331,1.16162,0.70435,1.45508L65.698,48.2236l0.02649,0.02106c5.55603,4.41632,11.35229,6.47327,18.24133,6.47327
	c9.63074,0,16.10144-5.3053,16.10144-13.20142V41.37479z"/>
<path class="st0" d="M169.73901,5.7565c-1.20068,0-1.72327,1.03082-1.92786,1.64532L154.08862,46.8707l-0.77771,2.23706
	l-0.73804-2.25049L139.63269,7.39841c-0.2489-0.74713-0.79871-1.64191-1.99817-1.64191h-0.35376
	c-0.62256,0-1.50696,0.17059-1.99817,1.64539l-12.94031,39.45538l-0.73865,2.25226l-0.77722-2.2392l-13.64758-39.3172
	c-0.27844-0.83362-1.00452-1.79663-2.14429-1.79663c-1.09851,0-2.09888,0.96692-2.09888,2.02863
	c0,0.29248,0.1156,0.64136,0.23804,1.01074l15.83704,43.97607c0.4176,1.25061,1.13794,1.87567,2.14746,1.87567h0.42395
	c1.29724,0,1.8999-1.17065,2.14368-1.86841l12.79675-38.03528l0.7561-2.24744l0.75989,2.24615l12.87109,38.04401
	c0.24121,0.69031,0.84375,1.86096,2.14099,1.86096h0.42407c1.29712,0,1.8999-1.17065,2.14368-1.86853l15.84277-43.99182
	c0.02295-0.06934,0.05469-0.15894,0.08716-0.25031c0.10278-0.28973,0.21924-0.61816,0.21924-0.82214
	C171.76758,6.72647,170.76282,5.7565,169.73901,5.7565z"/>
<path class="st0" d="M181.18665,5.7565c-1.06091,0-1.95703,0.92902-1.95703,2.02863v44.5517
	c0,1.09961,0.89612,2.02863,1.95703,2.02863c1.11853,0,2.02856-0.91003,2.02856-2.02863V7.78512
	C183.21521,6.66653,182.30518,5.7565,181.18665,5.7565z"/>
<path class="st0" d="M207.08813,52.33682c0,1.11859,0.90942,2.02863,2.02734,2.02863c1.11926,0,2.02991-0.91003,2.02991-2.02863
	V10.47317V9.67319h0.80005h14.35498c0.98474,0,1.81665-0.79974,1.81665-1.7464c0-0.96771-0.84888-1.81659-1.81665-1.81659h-34.36865
	c-0.96704,0-1.81531,0.84888-1.81531,1.81659c0,0.94666,0.8313,1.7464,1.81531,1.7464h14.35632h0.80005v0.79999V52.33682z"/>
<path class="st0" d="M269.5741,44.50919c-0.41235,0-0.86157,0.20312-1.20178,0.54333c-4.78223,4.3847-9.3429,6.2453-15.27454,6.2453
	c-11.19495,0-19.96436-9.32867-19.96436-21.23755v-0.1405c0-12.02655,8.58289-21.09576,19.96436-21.09576
	c5.62134,0,10.15784,1.79565,14.70215,5.82135c0.32202,0.21082,0.7981,0.47186,1.35022,0.47186
	c1.06177,0,2.02856-0.93286,2.02856-1.95709c0-0.79266-0.53735-1.38055-0.85779-1.66046
	c-3.7052-3.07788-8.65417-6.23743-17.15283-6.23743c-6.72754,0-12.90723,2.59283-17.40076,7.3009
	c-4.40625,4.61658-6.83276,10.8305-6.83276,17.49713v0.14185c0,14.05707,10.3269,24.65753,24.02148,24.65753
	c7.07837,0,12.41577-2.11554,17.84729-7.07379c0.16772-0.14484,0.65759-0.62555,0.65759-1.38989
	C271.46094,45.42612,270.54395,44.50919,269.5741,44.50919z"/>
<path class="st0" d="M312.16016,52.33682c0,1.11859,0.91003,2.02863,2.02856,2.02863c1.06152,0,1.95837-0.92902,1.95837-2.02863
	V7.78512c0-1.09961-0.89685-2.02863-1.95837-2.02863c-1.11853,0-2.02856,0.91003-2.02856,2.02863v19.51807v0.79999h-0.80005
	h-28.56836h-0.80005v-0.79999V7.78512c0-1.11859-0.91003-2.02863-2.02869-2.02863c-1.06152,0-1.95825,0.92902-1.95825,2.02863
	v44.5517c0,1.09961,0.89673,2.02863,1.95825,2.02863c1.11865,0,2.02869-0.91003,2.02869-2.02863V32.53641v-0.80005h0.80005h28.56836
	h0.80005v0.80005V52.33682z"/>
<path class="st0" d="M374.07666,44.50919c-0.41223,0-0.86145,0.20312-1.20166,0.54333
	c-4.78235,4.38477-9.34302,6.2453-15.27454,6.2453c-11.19495,0-19.96436-9.32867-19.96436-21.23755v-0.1405
	c0-12.02655,8.58289-21.09576,19.96436-21.09576c5.62146,0,10.15796,1.79572,14.70215,5.82135
	c0.3219,0.21088,0.79785,0.47186,1.3501,0.47186c1.06177,0,2.02856-0.93286,2.02856-1.95709
	c0-0.79285-0.53735-1.38062-0.85767-1.6604c-3.70532-3.07794-8.6543-6.23749-17.15295-6.23749
	c-6.72742,0-12.9071,2.59283-17.40076,7.3009c-4.40613,4.61658-6.83276,10.8305-6.83276,17.49713v0.14185
	c0,14.05707,10.32703,24.65753,24.02161,24.65753c7.07825,0,12.41565-2.11554,17.84729-7.07379
	c0.16772-0.14478,0.65747-0.62555,0.65747-1.38989C375.9635,45.42612,375.04651,44.50919,374.07666,44.50919z"/>
<path class="st0" d="M424.30066,52.33682c0,1.08069,0.94788,2.02863,2.02856,2.02863c1.06091,0,1.95715-0.92902,1.95715-2.02863
	V7.8566c0-1.04327-0.91455-1.95844-1.95715-1.95844h-0.63721c-1.03674,0-1.62476,0.60095-1.93555,1.10504l-17.69275,26.61212
	l-0.66626,1.00201l-0.66614-1.00195l-17.6792-26.58905c-0.50574-0.75891-1.1438-1.12817-1.95056-1.12817h-0.63586
	c-1.04333,0-1.95837,0.91516-1.95837,1.95844v44.55042c0,1.09821,0.82874,1.95844,1.88684,1.95844
	c1.11646,0,1.95825-0.84198,1.95825-1.95844V15.49319V12.8937l1.46167,2.14972l15.77014,23.19464
	c0.65955,0.9538,1.31018,1.06476,1.74182,1.06476c0.66394,0,1.14978-0.31018,1.67664-1.07062l15.83667-23.25946l1.4613-2.14618
	V15.423V52.33682z"/>
<path class="st0" d="M327.33484,47.832c-1.52747,0-2.59424,1.03796-2.59424,2.52411v1.41492
	c0,1.5033,1.09106,2.59442,2.59424,2.59442c1.43896,0,2.52405-1.11536,2.52405-2.59442v-1.41492
	C329.85889,48.89352,328.79736,47.832,327.33484,47.832z"/>
<path class="st0" d="M47.41309,13.09895L14.66797,0.31282c-1.39648-0.54688-2.9707-0.37012-4.21387,0.47852
	c-1.2373,0.84961-1.97559,2.25098-1.97559,3.75v18.82617c0,0.5127,0.28125,0.98047,0.73438,1.21973
	c0.4541,0.2373,0.99805,0.20605,1.41992-0.08105c0.37305-0.25488,0.5957-0.67578,0.5957-1.12695V4.54134
	c0-0.59766,0.28516-1.1377,0.77539-1.47852c0.49707-0.33789,1.10547-0.4082,1.66211-0.19043l32.74121,12.78613
	c0.69043,0.27051,1.1377,0.92285,1.1377,1.66406v33.58789c0,0.60059-0.28418,1.13965-0.77539,1.47852
	c-0.49707,0.33594-1.10449,0.40332-1.66211,0.19043L12.36816,39.79329c-0.69238-0.27148-1.13965-0.9248-1.13965-1.66406v-3.9248
	c0-0.52051-0.28906-0.98926-0.75488-1.22461C10.02539,32.75227,9.5,32.78841,9.08984,33.06868l-0.02637,0.01855
	c-0.00488,0.00293-0.00977,0.00684-0.01465,0.01074l-0.00684,0.00586c-0.35352,0.2627-0.56348,0.67871-0.56348,1.1123v3.91309
	c0,1.88184,1.13379,3.53906,2.8877,4.22363l32.7422,12.78712c0.52832,0.20508,1.08301,0.30859,1.64844,0.30859
	c0.92285,0,1.80859-0.27344,2.56152-0.79199c1.2373-0.8457,1.97656-2.24609,1.97656-3.74609V17.32259
	C50.29492,15.4427,49.16406,13.7845,47.41309,13.09895z"/>
<path class="st0" d="M29.38791,30.57079c-1.569,0-2.8454-1.2764-2.8454-2.8453c0-1.5684,1.2764-2.8448,2.8454-2.8448
	c1.5689,0,2.8453,1.2764,2.8453,2.8448C32.2332,29.29439,30.9568,30.57079,29.38791,30.57079z M29.38791,26.81879
	c-0.5004,0-0.9074,0.407-0.9074,0.9067c0,0.5003,0.407,0.9071,0.9074,0.9071c0.5002,0,0.9071-0.4068,0.9071-0.9071
	C30.295,27.22579,29.88811,26.81879,29.38791,26.81879z"/>
<path class="st0" d="M17.8259,13.82229c-1.5691,0-2.8453-1.2762-2.8453-2.8445c0-1.5684,1.2762-2.8448,2.8453-2.8448
	c1.5689,0,2.8453,1.2764,2.8453,2.8448C20.67121,12.54609,19.3948,13.82229,17.8259,13.82229z M17.8259,10.07109
	c-0.5004,0-0.9072,0.407-0.9072,0.9067c0,0.4996,0.4068,0.9066,0.9072,0.9066c0.5002,0,0.9072-0.407,0.9072-0.9066
	C18.7331,10.47809,18.32611,10.07109,17.8259,10.07109z"/>
<path class="st0" d="M40.7473,22.79919c-1.5689,0-2.8453-1.2762-2.8453-2.8454c0-1.5683,1.2764-2.8445,2.8453-2.8445
	c1.5684,0,2.845,1.2762,2.845,2.8445C43.5923,21.52299,42.3157,22.79919,40.7473,22.79919z M40.7473,19.04739
	c-0.5002,0-0.9071,0.4068-0.9071,0.9064c0,0.5004,0.4069,0.9074,0.9071,0.9074c0.4997,0,0.9068-0.407,0.9068-0.9074
	C41.65411,19.45419,41.24701,19.04739,40.7473,19.04739z"/>
<path class="st0" d="M40.7473,35.03679c-1.5689,0-2.8453-1.2762-2.8453-2.8445c0-1.5684,1.2764-2.8448,2.8453-2.8448
	c1.5684,0,2.845,1.2764,2.845,2.8448C43.5923,33.76059,42.3157,35.03679,40.7473,35.03679z M40.7473,31.28559
	c-0.5002,0-0.9071,0.407-0.9071,0.9067c0,0.4996,0.4069,0.9066,0.9071,0.9066c0.4997,0,0.9068-0.407,0.9068-0.9066
	C41.65411,31.69259,41.24701,31.28559,40.7473,31.28559z"/>
<path class="st0" d="M40.7473,46.70329c-1.5689,0-2.8453-1.2764-2.8453-2.8448c0-1.5684,1.2764-2.8446,2.8453-2.8446
	c1.5684,0,2.845,1.2762,2.845,2.8446S42.3157,46.70329,40.7473,46.70329z M40.7473,42.95209c-0.5002,0-0.9071,0.4068-0.9071,0.9064
	c0,0.4999,0.4069,0.9066,0.9071,0.9066c0.4997,0,0.9068-0.4067,0.9068-0.9066C41.65411,43.35889,41.24701,42.95209,40.7473,42.95209
	z"/>
<path class="st0" d="M17.8259,38.06169c-1.5691,0-2.8453-1.2764-2.8453-2.8448s1.2762-2.8446,2.8453-2.8446
	c1.5689,0,2.8453,1.2762,2.8453,2.8446S19.3948,38.06169,17.8259,38.06169z M17.8259,34.31029c-0.5004,0-0.9072,0.407-0.9072,0.9066
	s0.4068,0.9066,0.9072,0.9066c0.5002,0,0.9072-0.407,0.9072-0.9066S18.32611,34.31029,17.8259,34.31029z"/>
<path class="st0" d="M29.38791,42.23719c-1.569,0-2.8454-1.2764-2.8454-2.8447c0-1.569,1.2764-2.8454,2.8454-2.8454
	c1.5689,0,2.8453,1.2764,2.8453,2.8454C32.2332,40.96079,30.9568,42.23719,29.38791,42.23719z M29.38791,38.48529
	c-0.5004,0-0.9074,0.407-0.9074,0.9072c0,0.4996,0.407,0.9066,0.9074,0.9066c0.5002,0,0.9071-0.407,0.9071-0.9066
	C30.295,38.89229,29.88811,38.48529,29.38791,38.48529z"/>
<path class="st0" d="M29.38477,12.69759c-0.69922,0-1.35449,0.28418-1.84375,0.80078
	c-0.18848,0.19824-0.28809,0.45898-0.28125,0.7334c0.00171,0.05951,0.02686,0.11237,0.03833,0.16956l-1.15259,0.81036
	c-0.29858-0.22272-0.64062-0.38251-1.0166-0.44769c-0.63574-0.11426-1.27441,0.0293-1.80176,0.40137l-6.7832,4.76953
	c-0.76758,0.53906-1.2793,1.3457-1.44043,2.27246c-0.0957,0.54999-0.0459,1.09772,0.11084,1.61603L3.03418,32.2972
	C1.13379,33.55891,0,35.66927,0,37.94173c0,2.84766,1.79102,5.41016,4.44043,6.36914l0.42285,0.16406
	c1.75684,0.48828,2.9834,2.10449,2.9834,3.92969c0,2.25098-1.83008,4.08203-4.08008,4.08203
	c-0.74512,0-1.35156,0.60645-1.35156,1.35254c0,0.74512,0.60645,1.35156,1.35156,1.35156c3.74121,0,6.78418-3.04395,6.78418-6.78613
	c0-3.01465-1.99902-5.68457-4.86621-6.50586L5.2959,41.74251c-1.5498-0.60742-2.5918-2.13477-2.5918-3.80078
	c0-1.38965,0.67383-2.63184,1.85938-3.41504l12.42517-8.59161c0.3053,0.15338,0.62683,0.27747,0.97327,0.33771
	c0.20312,0.03613,0.40625,0.05273,0.60938,0.05273c0.72168,0,1.41797-0.2207,2.01465-0.63965l6.78418-4.76855
	c0.84692-0.59631,1.18481-1.64252,0.93384-2.59045l1.43445-1.00848c0.15381,0.09216,0.32349,0.15948,0.5155,0.15948h0.06543
	l0.8418-0.47266l0.05957-0.0459c0.44824-0.47461,0.69434-1.09082,0.69434-1.7373
	C31.91504,13.8304,30.78027,12.69759,29.38477,12.69759z M19.11816,23.59895c-0.21191,0.14844-0.46875,0.20703-0.71973,0.16016
	c-0.25293-0.04297-0.47461-0.18359-0.62305-0.39355c-0.14746-0.21094-0.20508-0.4668-0.16016-0.7207
	c0.04395-0.25391,0.18457-0.47559,0.39453-0.62305l6.66895-4.68848l1.10938,1.57715L19.11816,23.59895z M27.54004,16.96858
	l-0.39624-0.56372l1.94263-1.36578c0.10205-0.07172,0.20447-0.06763,0.25806-0.05762
	c0.05249,0.00909,0.15088,0.03943,0.22205,0.14093c0.07166,0.10187,0.06702,0.2049,0.05811,0.25739
	c-0.00916,0.05237-0.04004,0.15131-0.14148,0.22247L27.54004,16.96858z"/>
</svg>
