<svg width="710" height="683" viewBox="0 0 710 683" fill="none" xmlns="http://www.w3.org/2000/svg">
<circle cx="317.5" cy="656.5" r="26.5" fill="white"/>
<mask id="mask0" mask-type="alpha" maskUnits="userSpaceOnUse" x="0" y="0" width="710" height="683">
<path d="M4.21958e-05 216.119L4.5911e-05 173.622L710 0.621582L710 216.119C710 265.137 686.049 311.062 645.855 339.119L454.167 472.918L454.167 643.154L255.833 682.622L255.833 472.918L64.1452 339.119C23.9505 311.062 3.79105e-05 265.137 4.21958e-05 216.119Z" fill="white"/>
</mask>
<g mask="url(#mask0)">
<path d="M4.21958e-05 216.119L4.5911e-05 173.622L710 0.621582L710 216.119C710 265.137 686.049 311.062 645.855 339.119L454.167 472.918L454.167 643.154L255.833 682.622L255.833 472.918L64.1452 339.119C23.9505 311.062 3.79105e-05 265.137 4.21958e-05 216.119Z" fill="white"/>
<path d="M47.757 232.598L82.9141 180.538L115.135 202.297L109.695 210.352L87.9909 195.695L78.7735 209.344L95.3315 220.526L89.8918 228.581L73.3337 217.399L58.2736 239.7L47.757 232.598Z" fill="#292F47"/>
<path d="M136.496 254.917L147.012 262.019L119.108 303.339L108.592 296.237L112.823 289.972C107.131 292.717 101.303 292.075 95.3356 288.046C90.6616 284.889 87.8738 280.762 86.9722 275.665C86.1043 270.517 87.5339 265.184 91.2612 259.665L107.631 235.424L118.073 242.476L102.711 265.225C100.528 268.457 99.6694 271.497 100.135 274.345C100.601 277.194 102.251 279.575 105.085 281.489C107.919 283.403 110.744 284.044 113.561 283.412C116.426 282.813 118.951 280.898 121.133 277.665L136.496 254.917Z" fill="#292F47"/>
<path d="M167.21 287.43L163.029 293.621C168.72 290.876 174.524 291.501 180.441 295.497C185.165 298.687 187.961 302.856 188.829 308.003C189.731 313.101 188.318 318.409 184.591 323.928L168.17 348.243L157.728 341.192L173.141 318.369C175.324 315.136 176.165 312.121 175.666 309.322C175.201 306.474 173.551 304.093 170.716 302.179C167.882 300.265 165.032 299.607 162.166 300.206C159.384 300.788 156.901 302.696 154.718 305.928L139.306 328.751L128.789 321.649L156.693 280.328L167.21 287.43Z" fill="#292F47"/>
<path d="M217.395 321.321L213.214 327.511C218.905 324.766 224.709 325.391 230.627 329.387C235.35 332.577 238.146 336.746 239.014 341.893C239.916 346.991 238.503 352.299 234.776 357.819L218.356 382.134L207.914 375.082L223.326 352.259C225.509 349.027 226.351 346.011 225.851 343.213C225.386 340.364 223.736 337.983 220.902 336.069C218.067 334.155 215.217 333.497 212.351 334.096C209.569 334.679 207.086 336.586 204.904 339.818L189.491 362.641L178.974 355.539L206.878 314.219L217.395 321.321Z" fill="#292F47"/>
<path d="M246.21 412.812C240.193 408.749 236.605 403.503 235.445 397.072C234.319 390.592 235.921 384.145 240.253 377.73C244.585 371.316 249.933 367.47 256.297 366.194C262.745 364.901 268.978 366.286 274.994 370.349C281.06 374.446 284.757 379.693 286.083 386.091C287.443 392.44 286.008 398.746 281.777 405.012C280.803 406.454 279.797 407.729 278.759 408.838L248.626 388.489C247.061 391.342 246.595 394.176 247.227 396.993C247.86 399.809 249.518 402.123 252.203 403.937C255.833 406.388 259.526 406.71 263.281 404.901L274.618 412.557C270.772 415.68 266.294 417.325 261.184 417.495C256.074 417.664 251.083 416.103 246.21 412.812ZM272.751 394.898C274.449 392.063 274.907 389.186 274.126 386.27C273.394 383.386 271.71 381.055 269.075 379.275C266.439 377.495 263.673 376.822 260.775 377.254C257.926 377.719 255.404 379.202 253.21 381.702L272.751 394.898Z" fill="#292F47"/>
<path d="M275.703 441.861L312.975 386.667L323.492 393.769L286.219 448.963L275.703 441.861Z" fill="#292F47"/>
<path d="M313.841 443.72C316.258 440.139 319.806 438.155 324.485 437.767C329.163 437.379 334.014 438.881 339.036 442.272C344.058 445.664 347.263 449.602 348.651 454.086C350.072 458.521 349.489 462.87 346.901 467.131L336.16 459.878C338.212 456.196 337.25 453.012 333.272 450.325C331.283 448.982 329.473 448.339 327.841 448.396C326.21 448.453 324.925 449.177 323.984 450.57C323.044 451.962 323.126 453.61 324.229 455.514C325.333 457.417 326.902 459.382 328.937 461.408C330.972 463.433 332.898 465.567 334.715 467.807C336.616 470.032 337.799 472.568 338.264 475.417C338.764 478.216 338.056 481.032 336.142 483.866C333.624 487.596 329.984 489.554 325.224 489.742C320.513 489.964 315.696 488.412 310.774 485.088C305.901 481.797 302.67 477.951 301.082 473.548C299.528 469.095 300.062 464.605 302.685 460.078L313.425 467.331C311.473 471.08 312.51 474.315 316.538 477.035C318.477 478.344 320.329 478.979 322.093 478.94C323.891 478.851 325.26 478.11 326.2 476.718C327.174 475.276 327.109 473.603 326.005 471.699C324.935 469.746 323.383 467.756 321.348 465.731C319.313 463.705 317.345 461.58 315.445 459.355C313.594 457.164 312.402 454.694 311.87 451.945C311.37 449.146 312.027 446.405 313.841 443.72Z" fill="#292F47"/>
<path d="M441.685 413.532C433.072 412.677 425.854 408.624 420.03 401.373C414.207 394.122 411.807 386.199 412.83 377.604C413.901 368.972 417.945 361.838 424.962 356.203C430.295 351.919 436.109 349.481 442.405 348.888C448.747 348.258 454.78 349.684 460.503 353.169L448.644 362.693C442.989 360.155 437.518 361.009 432.232 365.254C427.788 368.824 425.346 373.209 424.906 378.411C424.475 383.528 426.214 388.519 430.121 393.384C433.991 398.202 438.489 400.977 443.616 401.707C448.753 402.353 453.543 400.892 457.987 397.322C463.226 393.114 465.24 387.957 464.029 381.85L475.888 372.325C478.055 378.665 478.147 384.863 476.163 390.92C474.188 396.893 470.534 402.021 465.201 406.304C458.137 411.977 450.298 414.387 441.685 413.532Z" fill="#292F47"/>
<path d="M475.576 325.619L481.099 332.496C479.736 325.433 481.534 319.911 486.492 315.928L494.608 326.033L492.152 328.005C489.205 330.372 487.584 332.905 487.289 335.605C486.957 338.257 488.237 341.384 491.13 344.986L506.798 364.494L496.904 372.44L465.682 333.566L475.576 325.619Z" fill="#292F47"/>
<path d="M542.787 333.023C537.126 337.569 531.053 339.445 524.567 338.652C518.044 337.812 512.359 334.374 507.512 328.34C502.665 322.305 500.573 316.059 501.236 309.601C501.907 303.059 505.073 297.515 510.733 292.969C516.441 288.386 522.546 286.406 529.051 287.031C535.517 287.609 541.118 290.845 545.852 296.739C546.941 298.096 547.862 299.434 548.614 300.754L520.265 323.522C522.528 325.86 525.098 327.144 527.975 327.373C530.853 327.601 533.554 326.701 536.08 324.673C539.495 321.93 540.894 318.498 540.277 314.376L550.943 305.809C552.789 310.407 553.037 315.171 551.687 320.103C550.338 325.034 547.371 329.341 542.787 333.023ZM533.522 302.371C531.315 299.911 528.703 298.623 525.685 298.507C522.714 298.353 519.989 299.272 517.51 301.263C515.031 303.254 513.569 305.698 513.125 308.595C512.727 311.453 513.398 314.301 515.137 317.137L533.522 302.371Z" fill="#292F47"/>
<path d="M581.99 270.808C582.395 267.096 581.17 263.463 578.315 259.907C575.459 256.352 572.195 254.395 568.521 254.037C564.809 253.632 561.574 254.537 558.814 256.754C556.054 258.971 554.452 261.912 554.009 265.576C553.613 269.203 554.843 272.795 557.699 276.35C560.554 279.905 563.838 281.885 567.549 282.291C571.26 282.696 574.473 281.809 577.186 279.63C579.946 277.413 581.548 274.472 581.99 270.808ZM564.466 294.694C557.961 293.685 552.361 290.256 547.664 284.409C542.968 278.561 540.866 272.4 541.36 265.924C541.816 259.401 544.711 253.998 550.043 249.715C555.376 245.432 561.212 244.362 567.551 246.505L562.704 240.47L572.528 232.58L603.75 271.455L593.926 279.345L588.685 272.819C589.532 279.911 587.336 285.56 582.097 289.768C576.857 293.976 570.981 295.618 564.466 294.694Z" fill="#292F47"/>
<path d="M622.178 235.649L626.879 231.873L633.529 240.153L627.284 245.169C623.308 248.362 619.511 249.911 615.894 249.815C612.277 249.719 608.777 247.566 605.396 243.356L590.123 224.339L585.983 227.664L579.502 219.595L583.642 216.27L575.921 206.656L585.815 198.71L593.536 208.323L602.237 201.335L608.718 209.405L600.017 216.393L615.29 235.409C616.304 236.672 617.341 237.34 618.4 237.413C619.422 237.439 620.681 236.851 622.178 235.649Z" fill="#292F47"/>
<path d="M611.712 158.462C613.064 160.146 613.625 162.043 613.395 164.152C613.165 166.26 612.208 167.991 610.524 169.344C608.886 170.659 607.013 171.201 604.904 170.971C602.796 170.741 601.065 169.783 599.712 168.099C598.36 166.415 597.799 164.519 598.029 162.41C598.259 160.301 599.193 158.589 600.83 157.274C602.514 155.922 604.411 155.361 606.519 155.591C608.628 155.821 610.359 156.778 611.712 158.462ZM639.933 216.022L608.711 177.148L618.605 169.202L649.827 208.076L639.933 216.022Z" fill="#292F47"/>
<path d="M613.578 145.245L624.104 136.791L658.541 159.116L644.102 120.729L654.628 112.276L671.535 162.647L659.115 172.622L613.578 145.245Z" fill="#292F47"/>
<path d="M666.349 94.7208C660.688 99.2669 654.615 101.143 648.129 100.35C641.606 99.5096 635.921 96.0722 631.074 90.0375C626.227 84.0029 624.135 77.7568 624.797 71.2993C625.469 64.7575 628.635 59.2135 634.295 54.6673C640.003 50.0836 646.108 48.1041 652.613 48.7288C659.079 49.3068 664.68 52.5429 669.414 58.4372C670.503 59.7939 671.424 61.1321 672.176 62.4519L643.827 85.2201C646.09 87.5584 648.66 88.8419 651.537 89.0707C654.414 89.2994 657.116 88.3994 659.642 86.3705C663.057 83.6278 664.456 80.1955 663.839 76.0737L674.505 67.5075C676.35 72.1048 676.599 76.8692 675.249 81.8006C673.9 86.7321 670.933 91.0388 666.349 94.7208ZM657.084 64.0691C654.877 61.6089 652.265 60.3207 649.247 60.2047C646.276 60.0511 643.551 60.97 641.072 62.9612C638.593 64.9525 637.131 67.3963 636.687 70.2926C636.289 73.1514 636.96 75.9987 638.699 78.8346L657.084 64.0691Z" fill="#292F47"/>
<path d="M380.415 561.029C375.071 559.913 370.899 557.142 367.9 552.716C364.972 548.243 364.048 543.422 365.127 538.254C366.206 533.085 368.576 529.075 372.236 526.223C375.896 523.37 379.902 522.092 384.253 522.388C381.843 516.613 381.03 511.846 381.814 508.087C382.612 504.27 384.85 501.182 388.529 498.824C392.221 496.408 396.739 495.757 402.084 496.873C407.429 497.989 411.363 500.282 413.888 503.751C416.412 507.22 417.276 510.863 416.479 514.681C416.074 516.619 415.372 518.219 414.373 519.482L402.479 516.999C403.204 516.169 403.714 515.05 404.008 513.64C404.315 512.172 404.073 510.834 403.283 509.627C402.552 508.433 401.422 507.676 399.895 507.357C398.368 507.038 397.031 507.28 395.882 508.082C394.734 508.885 393.988 510.108 393.645 511.753C393.314 513.338 393.784 515.49 395.056 518.207L418.515 568.34L404.067 565.323L399.233 554.568C397.093 557.186 394.299 559.116 390.853 560.358C387.477 561.553 383.998 561.777 380.415 561.029ZM377.003 546.985C378.339 549.103 380.211 550.413 382.619 550.916C385.027 551.418 387.266 550.967 389.337 549.56C391.48 548.107 392.814 546.118 393.342 543.593C393.869 541.067 393.429 538.769 392.023 536.697C390.687 534.58 388.816 533.27 386.408 532.767C384 532.264 381.76 532.716 379.689 534.122C377.63 535.47 376.337 537.407 375.81 539.932C375.282 542.458 375.68 544.809 377.003 546.985Z" fill="#292F47"/>
<circle cx="317.5" cy="656.5" r="26.5" fill="#359BFA"/>
<circle cx="236.5" cy="195.122" r="14.5" fill="#359BFA"/>
<circle cx="389" cy="288.622" r="20" fill="#359BFA"/>
<circle cx="467.5" cy="106.122" r="8.5" fill="#359BFA"/>
</g>
</svg>
