<svg width="32" height="29" viewBox="0 0 32 29" fill="none" xmlns="http://www.w3.org/2000/svg">
<path fill-rule="evenodd" clip-rule="evenodd" d="M6.2368 28.0754C2.34034 25.1479 0 20.566 0 15.5979C0 6.9834 6.9834 0 15.5979 0C24.2123 0 31.1957 6.9834 31.1957 15.5979C31.1957 20.566 28.8554 25.1479 24.9589 28.0754L24.5805 28.3597H6.61523L6.2368 28.0754ZM23.6185 25.5233C26.5899 23.1198 28.3581 19.5067 28.3581 15.5974C28.3581 8.54916 22.6444 2.83547 15.5962 2.83547C8.54804 2.83547 2.83435 8.54916 2.83435 15.5974C2.83435 19.5067 4.60255 23.1198 7.57402 25.5233H23.6185ZM23.1362 7.90219L20.8129 6.27587L17.0795 11.6093C16.6171 11.4371 16.1167 11.3429 15.5943 11.3429C13.2449 11.3429 11.3403 13.2475 11.3403 15.5968C11.3403 17.9462 13.2449 19.8508 15.5943 19.8508C17.9437 19.8508 19.8482 17.9462 19.8482 15.5968C19.8482 14.809 19.6341 14.0712 19.2608 13.4385L23.1362 7.90219ZM17.0091 15.5965C17.0091 16.3796 16.3742 17.0144 15.5911 17.0144C14.808 17.0144 14.1731 16.3796 14.1731 15.5965C14.1731 14.8133 14.808 14.1785 15.5911 14.1785C16.3742 14.1785 17.0091 14.8133 17.0091 15.5965Z" fill="#359BFA"/>
</svg>
