<svg width="733" height="771" viewBox="0 0 733 771" fill="none" xmlns="http://www.w3.org/2000/svg">
<path opacity="0.1" fill-rule="evenodd" clip-rule="evenodd" d="M485 30H392V355H485V30ZM237 195H144V355H237V195ZM609 302H516V355H609V302ZM640 237H733V355H640V237Z" fill="black"/>
<path d="M465 10H372V664H465V10Z" fill="white"/>
<path d="M620 217.014H713V664H620V217.014Z" fill="white"/>
<path d="M248 393H341V664H248V393Z" fill="white"/>
<path d="M93 437.028H0V664H93V437.028Z" fill="white"/>
<path d="M589 281.971H496V664H589V281.971Z" fill="#292F47"/>
<path d="M217 175.106H124V664H217V175.106Z" fill="#292F47"/>
<path d="M48 438.5L171.5 174.5L294.5 393.5L419.5 8.5L542.5 282.5L666 216" stroke="#BFC5E0"/>
<circle cx="46.5" cy="437.5" r="10.5" fill="#292F47"/>
<circle cx="418.5" cy="10.5" r="10.5" fill="#292F47"/>
<circle cx="294.5" cy="393.5" r="10.5" fill="#292F47"/>
<circle cx="666.5" cy="216.5" r="10.5" fill="#292F47"/>
<path d="M20.6983 744.048L20.6762 710.544L27.4442 710.54L27.4663 744.044L20.6983 744.048ZM41.4175 717.443L41.4202 721.427C43.1142 718.513 45.8653 717.056 49.6733 717.053C52.7133 717.051 55.1939 718.057 57.1153 720.072C59.0366 722.055 59.9984 724.822 60.0007 728.374L60.0111 744.022L53.2911 744.027L53.2814 729.339C53.28 727.259 52.751 725.675 51.6942 724.588C50.6375 723.468 49.1971 722.909 47.3731 722.911C45.5491 722.912 44.0935 723.473 43.0062 724.594C41.951 725.682 41.424 727.267 41.4254 729.347L41.4351 744.035L34.6671 744.039L34.6495 717.447L41.4175 717.443ZM78.3224 717.418L78.326 722.938L74.102 722.941L74.1159 744.013L67.3959 744.017L67.382 722.945L64.502 722.947L64.4984 717.427L67.3784 717.425L67.3774 715.937C67.3753 712.737 68.2218 710.401 69.9168 708.928C71.6118 707.455 74.2833 706.717 77.9313 706.714L77.9351 712.378C76.5271 712.379 75.5353 712.652 74.9596 713.196C74.384 713.741 74.0966 714.653 74.0974 715.933L74.0984 717.421L78.3224 717.418Z" fill="white"/>
<path d="M155.916 717.448L155.919 722.152C157.708 718.759 160.299 717.062 163.691 717.059L163.696 723.971L162.016 723.972C160 723.974 158.48 724.487 157.457 725.511C156.434 726.504 155.923 728.232 155.924 730.696L155.933 744.04L149.165 744.045L149.148 717.453L155.916 717.448ZM185.464 736.485C186.871 735.076 187.573 733.156 187.572 730.724C187.57 728.292 186.865 726.388 185.456 725.013C184.047 723.606 182.399 722.903 180.511 722.904C178.623 722.905 176.975 723.595 175.568 724.972C174.193 726.348 173.506 728.253 173.508 730.685C173.509 733.117 174.215 735.036 175.623 736.443C177.032 737.851 178.665 738.553 180.521 738.552C182.409 738.551 184.056 737.862 185.464 736.485ZM170.202 740.575C167.833 737.985 166.646 734.689 166.644 730.689C166.641 726.689 167.823 723.425 170.189 720.895C172.556 718.333 175.563 717.052 179.211 717.049C182.859 717.047 185.644 718.549 187.566 721.556L187.563 717.428L194.283 717.423L194.3 744.015L187.58 744.02L187.578 739.556C185.564 742.789 182.765 744.407 179.181 744.409C175.597 744.411 172.604 743.133 170.202 740.575Z" fill="white"/>
<path d="M265.163 725.234C265.161 722.93 266.136 720.993 268.087 719.424C270.038 717.855 272.629 717.069 275.861 717.067C279.093 717.065 281.686 717.847 283.639 719.414C285.592 720.948 286.633 723.044 286.763 725.7L279.851 725.704C279.658 723.464 278.281 722.345 275.721 722.347C274.441 722.348 273.449 722.604 272.745 723.117C272.042 723.629 271.69 724.334 271.691 725.23C271.691 726.126 272.22 726.829 273.276 727.341C274.332 727.852 275.613 728.251 277.117 728.538C278.621 728.825 280.109 729.192 281.582 729.639C283.086 730.054 284.366 730.821 285.423 731.94C286.48 733.028 287.009 734.483 287.01 736.307C287.012 738.707 285.989 740.66 283.942 742.165C281.927 743.671 279.335 744.425 276.167 744.427C273.031 744.429 270.455 743.694 268.438 742.224C266.421 740.721 265.316 738.578 265.122 735.794L272.034 735.789C272.291 738.029 273.716 739.148 276.308 739.147C277.556 739.146 278.564 738.873 279.331 738.329C280.099 737.752 280.483 737.016 280.482 736.12C280.481 735.192 279.953 734.472 278.897 733.961C277.84 733.417 276.56 733.002 275.056 732.715C273.552 732.428 272.047 732.077 270.543 731.662C269.071 731.247 267.806 730.512 266.75 729.457C265.693 728.37 265.164 726.962 265.163 725.234ZM303.089 738.361L306.305 738.359L306.309 744.023L302.037 744.026C299.317 744.027 297.22 743.405 295.747 742.158C294.274 740.911 293.537 738.847 293.535 735.967L293.527 722.959L290.695 722.961L290.691 717.441L293.523 717.439L293.519 710.863L300.287 710.859L300.291 717.435L306.243 717.431L306.247 722.951L300.295 722.955L300.303 735.963C300.304 736.827 300.512 737.451 300.928 737.834C301.345 738.186 302.065 738.362 303.089 738.361ZM318.32 717.423L318.323 722.127C320.113 718.734 322.704 717.036 326.096 717.034L326.1 723.946L324.42 723.947C322.404 723.948 320.885 724.461 319.861 725.486C318.838 726.478 318.327 728.207 318.329 730.671L318.337 744.015L311.569 744.019L311.552 717.427L318.32 717.423Z" fill="white"/>
<path d="M410.05 717.444L416.818 717.439L416.836 744.031L410.068 744.036L410.065 740.004C408.371 742.917 405.604 744.375 401.764 744.377C398.756 744.379 396.291 743.389 394.37 741.406C392.448 739.391 391.487 736.608 391.484 733.056L391.474 717.456L398.194 717.452L398.204 732.092C398.205 734.172 398.734 735.771 399.791 736.891C400.848 738.01 402.288 738.569 404.112 738.568C405.936 738.566 407.376 738.005 408.431 736.885C409.518 735.764 410.061 734.164 410.06 732.084L410.05 717.444ZM425.802 740.665C423.369 738.171 422.15 734.86 422.148 730.732C422.145 726.604 423.359 723.291 425.789 720.793C428.219 718.296 431.371 717.046 435.243 717.043C438.475 717.041 441.179 717.823 443.356 719.39C445.533 720.956 446.991 723.179 447.729 726.059L440.433 726.064C439.567 723.856 437.838 722.753 435.246 722.755C433.294 722.756 431.759 723.477 430.64 724.918C429.553 726.327 429.01 728.263 429.012 730.727C429.013 733.191 429.559 735.143 430.647 736.582C431.768 737.989 433.305 738.692 435.257 738.691C437.817 738.689 439.544 737.568 440.439 735.328L447.735 735.323C446.968 738.107 445.482 740.316 443.275 741.95C441.1 743.583 438.429 744.401 435.261 744.403C431.389 744.406 428.236 743.16 425.802 740.665Z" fill="white"/>
<path d="M530.515 738.374L533.731 738.372L533.734 744.036L529.462 744.038C526.742 744.04 524.646 743.418 523.173 742.171C521.7 740.924 520.963 738.86 520.961 735.98L520.952 722.972L518.12 722.974L518.117 717.454L520.949 717.452L520.944 710.876L527.712 710.872L527.717 717.448L533.669 717.444L533.672 722.964L527.72 722.968L527.729 735.976C527.73 736.84 527.938 737.463 528.354 737.847C528.77 738.199 529.491 738.374 530.515 738.374ZM557.314 717.428L564.082 717.424L564.099 744.016L557.331 744.02L557.329 739.988C555.634 742.901 552.867 744.359 549.027 744.362C546.019 744.363 543.555 743.373 541.633 741.39C539.712 739.376 538.75 736.592 538.748 733.04L538.738 717.44L545.458 717.436L545.467 732.076C545.469 734.156 545.998 735.756 547.054 736.875C548.111 737.994 549.552 738.553 551.376 738.552C553.2 738.551 554.639 737.99 555.694 736.869C556.782 735.748 557.325 734.148 557.323 732.068L557.314 717.428Z" fill="white"/>
<path d="M651.312 717.447L651.315 722.151C653.105 718.758 655.696 717.061 659.088 717.058L659.092 723.97L657.412 723.971C655.396 723.973 653.877 724.486 652.853 725.51C651.83 726.503 651.319 728.231 651.321 730.695L651.33 744.039L644.562 744.044L644.544 717.452L651.312 717.447ZM675.153 744.408C671.281 744.41 668.128 743.164 665.695 740.67C663.261 738.144 662.043 734.816 662.04 730.688C662.037 726.56 663.251 723.264 665.682 720.798C668.144 718.3 671.311 717.05 675.183 717.048C679.087 717.045 682.288 718.259 684.786 720.689C687.283 723.088 688.533 726.303 688.536 730.335C688.537 731.263 688.473 732.127 688.346 732.927L668.954 732.94C669.115 734.668 669.756 736.059 670.876 737.115C671.997 738.17 673.421 738.697 675.149 738.696C677.485 738.694 679.213 737.733 680.332 735.812L687.628 735.808C686.861 738.336 685.375 740.401 683.168 742.002C680.961 743.604 678.289 744.406 675.153 744.408ZM681.527 728.564C681.43 726.804 680.773 725.396 679.556 724.341C678.371 723.286 676.931 722.759 675.235 722.76C673.539 722.761 672.115 723.29 670.964 724.347C669.845 725.403 669.174 726.812 668.951 728.572L681.527 728.564Z" fill="white"/>
</svg>
