<?xml version="1.0" encoding="UTF-8" standalone="no"?>
<svg
   xmlns:dc="http://purl.org/dc/elements/1.1/"
   xmlns:cc="http://creativecommons.org/ns#"
   xmlns:rdf="http://www.w3.org/1999/02/22-rdf-syntax-ns#"
   xmlns:svg="http://www.w3.org/2000/svg"
   xmlns="http://www.w3.org/2000/svg"
   style="fill:none"
   id="svg20"
   version="1.1"
   viewBox="0 0 710.87384 721.97333"
   height="721.97333"
   width="710.87384">
  <metadata
     id="metadata26">
    <rdf:RDF>
      <cc:Work
         rdf:about="">
        <dc:format>image/svg+xml</dc:format>
        <dc:type
           rdf:resource="http://purl.org/dc/dcmitype/StillImage" />
        <dc:title></dc:title>
      </cc:Work>
    </rdf:RDF>
  </metadata>
  <defs
     id="defs24" />
  <path
     style="fill:#ffffff;fill-opacity:0.6;stroke:#292f47"
     id="path2"
     d="m 334.26014,559.86661 c 128.171,-47.578 193.505,-190.05 145.928,-318.221 -47.577,-128.172 -190.05,-193.506003 -318.221,-145.929003 C 33.796142,143.29461 -31.538557,285.76661 16.038842,413.93761 c 47.5773,128.172 190.050298,193.506 318.221298,145.929 z" />
  <path
     style="fill:#ffffff;fill-opacity:0.6;stroke:#292f47"
     id="path4"
     d="m 548.90614,480.18861 c 128.172,-47.578 193.506,-190.05 145.929,-318.221 -47.578,-128.172003 -190.05,-193.506106 -318.222,-145.928703 -128.171,47.5777 -193.505,190.049703 -145.928,318.220703 47.578,128.172 190.05,193.506 318.221,145.929 z" />
  <path
     style="fill:#ffffff;fill-opacity:0.6;stroke:#292f47"
     id="path6"
     d="m 510.81714,705.93461 c 128.171,-47.577 193.505,-190.05 145.928,-318.221 -47.578,-128.171 -190.05,-193.506 -318.221,-145.928 -128.172,47.577 -193.506,190.049 -145.929,318.221 47.578,128.171 190.05,193.505 318.222,145.928 z" />
  <path
     style="fill:#ffffff;fill-opacity:0.6"
     id="path8"
     d="m 334.08614,559.39761 c 127.912,-47.481 193.115,-189.666 145.633,-317.578 -47.481,-127.913 -189.666,-193.115003 -317.578,-145.634003 C 34.229142,143.66661 -30.973657,285.85161 16.507542,413.76361 c 30.6106,82.465 100.582598,138.865 180.716598,155.81 44.163,9.339 91.414,6.694 136.862,-10.176 z" />
  <path
     style="fill:#5cb0ff"
     id="path10"
     d="m 476.02514,232.45361 c -44.391,-9.539 -91.935,-6.964 -137.656,10.007 -45.582,16.92 -83.2,45.867 -110.594,81.907 1.063,3.273 2.198,6.537 3.407,9.793 33.104,89.182 112.245,147.88 200.487,159.158 59.51,-66.124 81.182,-162.244 48.077,-251.426 -1.182,-3.185 -2.423,-6.332 -3.721,-9.439 z" />
  <path
     style="fill:#292f47"
     id="path12"
     d="m 248.34614,309.22161 c -1.44,1.76 -3.547,3.174 -6.32,4.24 -2.72,1.014 -5.92,1.52 -9.6,1.52 h -9.28 v 22.24 h -11.28 v -55.84 h 20.56 c 6.453,0 11.413,1.627 14.88,4.88 3.52,3.2 5.28,6.987 5.28,11.36 0,4.374 -1.414,8.24 -4.24,11.6 z m -25.2,-2.88 h 9.28 c 2.826,0 4.986,-0.72 6.48,-2.16 1.493,-1.493 2.24,-3.493 2.24,-6 0,-2.506 -0.747,-4.48 -2.24,-5.92 -1.494,-1.493 -3.654,-2.24 -6.48,-2.24 h -9.28 z m 49.218,-13.44 v 7.84 c 2.987,-5.653 7.307,-8.48 12.96,-8.48 v 11.52 h -2.8 c -3.36,0 -5.893,0.854 -7.6,2.56 -1.706,1.654 -2.56,4.534 -2.56,8.64 v 22.24 h -11.28 v -44.32 z m 40.666,35.44 c 3.147,0 5.84,-1.146 8.08,-3.44 2.293,-2.346 3.44,-5.626 3.44,-9.84 0,-4.266 -1.12,-7.546 -3.36,-9.84 -2.24,-2.293 -4.96,-3.44 -8.16,-3.44 -3.147,0 -5.813,1.147 -8,3.44 -2.187,2.294 -3.28,5.574 -3.28,9.84 0,4.267 1.093,7.547 3.28,9.84 2.187,2.294 4.853,3.44 8,3.44 z m -16.24,3.2 c -4.32,-4.213 -6.48,-9.733 -6.48,-16.56 0,-6.826 2.187,-12.32 6.56,-16.48 4.373,-4.16 9.787,-6.24 16.24,-6.24 6.507,0 11.947,2.08 16.32,6.24 4.373,4.16 6.56,9.654 6.56,16.48 0,6.827 -2.213,12.347 -6.64,16.56 -4.373,4.214 -9.813,6.32 -16.32,6.32 -6.507,0 -11.92,-2.106 -16.24,-6.32 z m 76.363,-6.88 c 2.346,-2.346 3.52,-5.546 3.52,-9.6 0,-4.053 -1.174,-7.226 -3.52,-9.52 -2.347,-2.346 -5.094,-3.52 -8.24,-3.52 -3.147,0 -5.894,1.147 -8.24,3.44 -2.294,2.294 -3.44,5.467 -3.44,9.52 0,4.054 1.173,7.254 3.52,9.6 2.346,2.347 5.066,3.52 8.16,3.52 3.146,0 5.893,-1.146 8.24,-3.44 z m -25.44,6.8 c -3.947,-4.32 -5.92,-9.813 -5.92,-16.48 0,-6.666 1.973,-12.106 5.92,-16.32 3.946,-4.266 8.96,-6.4 15.04,-6.4 6.08,0 10.72,2.507 13.92,7.52 v -21.76 h 11.2 v 59.2 h -11.2 v -7.44 c -3.36,5.387 -8.027,8.08 -14,8.08 -5.974,0 -10.96,-2.133 -14.96,-6.4 z m 82.681,-38.56 h 11.28 v 44.32 h -11.28 v -6.72 c -2.826,4.854 -7.44,7.28 -13.84,7.28 -5.013,0 -9.12,-1.653 -12.32,-4.96 -3.2,-3.36 -4.8,-8 -4.8,-13.92 v -26 h 11.2 v 24.4 c 0,3.467 0.88,6.134 2.64,8 1.76,1.867 4.16,2.8 7.2,2.8 3.04,0 5.44,-0.933 7.2,-2.8 1.814,-1.866 2.72,-4.533 2.72,-8 z m 26.229,38.72 c -4.054,-4.16 -6.08,-9.68 -6.08,-16.56 0,-6.88 2.026,-12.4 6.08,-16.56 4.053,-4.16 9.306,-6.24 15.76,-6.24 5.386,0 9.893,1.307 13.52,3.92 3.626,2.614 6.053,6.32 7.28,11.12 h -12.16 c -1.44,-3.68 -4.32,-5.52 -8.64,-5.52 -3.254,0 -5.814,1.2 -7.68,3.6 -1.814,2.347 -2.72,5.574 -2.72,9.68 0,4.107 0.906,7.36 2.72,9.76 1.866,2.347 4.426,3.52 7.68,3.52 4.266,0 7.146,-1.866 8.64,-5.6 h 12.16 c -1.28,4.64 -3.76,8.32 -7.44,11.04 -3.627,2.72 -8.08,4.08 -13.36,4.08 -6.454,0 -11.707,-2.08 -15.76,-6.24 z m 62.208,-3.84 h 5.36 v 9.44 h -7.12 c -4.533,0 -8.026,-1.04 -10.48,-3.12 -2.453,-2.08 -3.68,-5.52 -3.68,-10.32 v -21.68 h -4.72 v -9.2 h 4.72 v -10.96 h 11.28 v 10.96 h 9.92 v 9.2 h -9.92 v 21.68 c 0,1.44 0.347,2.48 1.04,3.12 0.694,0.587 1.894,0.88 3.6,0.88 z m -296.202,34.6 v 55.84 h -11.2 v -35.28 l -15.2,35.28 h -8.08 l -15.12,-35.12 v 35.12 h -11.28 v -55.84 h 12.56 l 17.92,41.36 17.92,-41.36 z m 40.25,43.28 c 2.347,-2.346 3.52,-5.546 3.52,-9.6 0,-4.053 -1.173,-7.226 -3.52,-9.52 -2.347,-2.346 -5.093,-3.52 -8.24,-3.52 -3.147,0 -5.893,1.147 -8.24,3.44 -2.293,2.294 -3.44,5.467 -3.44,9.52 0,4.054 1.173,7.254 3.52,9.6 2.347,2.347 5.067,3.52 8.16,3.52 3.147,0 5.893,-1.146 8.24,-3.44 z m -25.44,6.8 c -3.947,-4.32 -5.92,-9.813 -5.92,-16.48 0,-6.666 1.973,-12.106 5.92,-16.32 3.947,-4.266 8.96,-6.4 15.04,-6.4 6.08,0 10.72,2.507 13.92,7.52 v -6.88 h 11.2 v 44.32 h -11.2 v -7.44 c -3.36,5.387 -8.027,8.08 -14,8.08 -5.973,0 -10.96,-2.133 -14.96,-6.4 z m 63.402,-38.56 v 7.84 c 2.987,-5.653 7.307,-8.48 12.96,-8.48 v 11.52 h -2.8 c -3.36,0 -5.893,0.854 -7.6,2.56 -1.707,1.654 -2.56,4.534 -2.56,8.64 v 22.24 h -11.28 v -44.32 z m 32.266,44.32 h -11.28 v -59.2 h 11.28 v 33.84 l 14.96,-18.96 h 15.28 l -19.68,22.4 19.68,21.92 h -15.04 l -15.2,-18.48 z m 55.408,0.64 c -6.453,0 -11.706,-2.08 -15.76,-6.24 -4.053,-4.213 -6.08,-9.76 -6.08,-16.64 0,-6.88 2.027,-12.373 6.08,-16.48 4.107,-4.16 9.387,-6.24 15.84,-6.24 6.507,0 11.84,2.027 16,6.08 4.16,4 6.24,9.36 6.24,16.08 0,1.547 -0.106,2.987 -0.32,4.32 h -32.32 c 0.267,2.88 1.334,5.2 3.2,6.96 1.867,1.76 4.24,2.64 7.12,2.64 3.894,0 6.774,-1.6 8.64,-4.8 h 12.16 c -1.28,4.214 -3.76,7.654 -7.44,10.32 -3.68,2.667 -8.133,4 -13.36,4 z m 10.64,-26.4 c -0.16,-2.933 -1.253,-5.28 -3.28,-7.04 -1.973,-1.76 -4.373,-2.64 -7.2,-2.64 -2.826,0 -5.2,0.88 -7.12,2.64 -1.866,1.76 -2.986,4.107 -3.36,7.04 z m 37.762,16.32 h 5.36 v 9.44 h -7.12 c -4.533,0 -8.026,-1.04 -10.48,-3.12 -2.453,-2.08 -3.68,-5.52 -3.68,-10.32 v -21.68 h -4.72 v -9.2 h 4.72 v -10.96 h 11.28 v 10.96 h 9.92 v 9.2 h -9.92 v 21.68 c 0,1.44 0.347,2.48 1.04,3.12 0.694,0.587 1.894,0.88 3.6,0.88 z m 26.608,-46.16 c 0,1.92 -0.666,3.547 -2,4.88 -1.333,1.334 -2.96,2 -4.88,2 -1.866,0 -3.466,-0.666 -4.8,-2 -1.333,-1.333 -2,-2.96 -2,-4.88 0,-1.92 0.667,-3.546 2,-4.88 1.334,-1.333 2.934,-2 4.8,-2 1.92,0 3.547,0.667 4.88,2 1.334,1.334 2,2.96 2,4.88 z m -12.48,55.6 v -44.32 h 11.28 v 44.32 z m 34.562,-44.32 v 6.64 c 2.826,-4.853 7.413,-7.28 13.76,-7.28 5.066,0 9.2,1.68 12.4,5.04 3.2,3.307 4.8,7.92 4.8,13.84 v 26.08 h -11.2 v -24.48 c 0,-3.466 -0.88,-6.106 -2.64,-7.92 -1.76,-1.866 -4.16,-2.8 -7.2,-2.8 -3.04,0 -5.467,0.934 -7.28,2.8 -1.76,1.814 -2.64,4.454 -2.64,7.92 v 24.48 h -11.28 v -44.32 z m 45.348,38.56 c -3.947,-4.32 -5.92,-9.813 -5.92,-16.48 0,-6.666 1.973,-12.106 5.92,-16.32 3.946,-4.266 8.96,-6.4 15.04,-6.4 6.08,0 10.72,2.507 13.92,7.52 v -6.88 h 11.2 v 44.64 c 0,6.347 -1.867,11.52 -5.6,15.52 -3.734,4.054 -8.987,6.08 -15.76,6.08 -6.72,0 -12.08,-1.413 -16.08,-4.24 -3.947,-2.773 -6.187,-6.746 -6.72,-11.92 h 11.04 c 0.693,1.974 2.026,3.52 4,4.64 1.973,1.174 4.453,1.76 7.44,1.76 2.986,0 5.466,-0.986 7.44,-2.96 2.026,-1.973 3.04,-4.933 3.04,-8.88 v -7.76 c -3.36,5.387 -8.027,8.08 -14,8.08 -5.974,0 -10.96,-2.133 -14.96,-6.4 z m 25.44,-6.8 c 2.346,-2.346 3.52,-5.546 3.52,-9.6 0,-4.053 -1.174,-7.226 -3.52,-9.52 -2.347,-2.346 -5.094,-3.52 -8.24,-3.52 -3.147,0 -5.894,1.147 -8.24,3.44 -2.294,2.294 -3.44,5.467 -3.44,9.52 0,4.054 1.173,7.254 3.52,9.6 2.346,2.347 5.066,3.52 8.16,3.52 3.146,0 5.893,-1.146 8.24,-3.44 z" />
  <path
     style="fill:#353c58"
     id="path14"
     d="m 98.552142,335.83561 c 0.222,-1.386 0.729,-2.387 1.519998,-3.001 0.793,-0.627 1.717,-0.855 2.771,-0.686 1.055,0.169 1.869,0.664 2.442,1.485 0.564,0.807 0.73,1.928 0.501,3.361 l -0.382,2.382 5.083,0.814 -0.259,1.618 -12.316998,-1.974 z m 5.571998,3.336 0.382,-2.382 c 0.142,-0.888 0.046,-1.578 -0.288,-2.069 -0.345,-0.505 -0.884,-0.817 -1.619,-0.934 -1.552,-0.249 -2.469,0.503 -2.749998,2.257 l -0.381,2.382 z m -1.748,-10.819 1.653,0.265 c -1.115,-0.775 -1.561,-1.861 -1.337,-3.259 l 1.688,0.27 -0.068,0.427 c -0.133,0.829 -0.015,1.499 0.353,2.007 0.358,0.495 1.07,0.828 2.137,0.999 l 5.332,0.854 -0.259,1.618 -9.758,-1.564 z m 10.04,-7.71 c 0.147,-0.912 -0.053,-1.752 -0.598,-2.52 -0.556,-0.782 -1.414,-1.266 -2.575,-1.452 -1.161,-0.186 -2.119,-0.011 -2.873,0.524 -0.754,0.535 -1.206,1.265 -1.354,2.19 -0.146,0.912 0.058,1.728 0.61,2.449 0.553,0.72 1.416,1.175 2.589,1.363 1.162,0.186 2.116,0.035 2.862,-0.453 0.747,-0.488 1.193,-1.188 1.339,-2.101 z m -0.608,3.457 c -1.067,0.741 -2.353,0.991 -3.857,0.75 -1.505,-0.242 -2.645,-0.904 -3.419,-1.988 -0.786,-1.086 -1.066,-2.334 -0.84,-3.744 0.226,-1.41 0.882,-2.508 1.968,-3.295 1.074,-0.787 2.364,-1.061 3.868,-0.82 1.493,0.239 2.629,0.926 3.408,2.059 0.768,1.12 1.039,2.385 0.813,3.795 -0.226,1.41 -0.873,2.491 -1.941,3.243 z m 1.755,-17.325 c -0.559,-0.758 -1.39,-1.225 -2.492,-1.402 -1.101,-0.177 -2.036,0.008 -2.804,0.553 -0.766,0.534 -1.223,1.257 -1.369,2.169 -0.144,0.901 0.051,1.728 0.587,2.482 0.537,0.742 1.357,1.202 2.459,1.379 1.102,0.176 2.049,-0.006 2.84,-0.548 0.792,-0.542 1.26,-1.263 1.404,-2.163 0.144,-0.901 -0.064,-1.724 -0.625,-2.47 z m 1.963,2.994 c -0.213,1.327 -0.864,2.359 -1.954,3.096 -1.103,0.735 -2.394,0.984 -3.875,0.746 -1.493,-0.239 -2.626,-0.87 -3.398,-1.893 -0.781,-1.037 -1.065,-2.225 -0.85,-3.564 0.132,-0.829 0.444,-1.52 0.934,-2.074 0.491,-0.565 1.077,-0.958 1.756,-1.177 l -5.35,-0.857 0.262,-1.635 13.152,2.107 -0.262,1.635 -1.99,-0.319 c 0.588,0.423 1.034,0.98 1.336,1.673 0.292,0.679 0.372,1.433 0.239,2.262 z m -7.551,-16.357 0.259,-1.618 9.758,1.564 -0.26,1.617 -1.564,-0.25 c 1.045,0.836 1.45,1.988 1.215,3.457 -0.173,1.079 -0.673,1.922 -1.5,2.531 -0.838,0.607 -1.915,0.805 -3.23,0.594 l -5.794,-0.928 0.256,-1.6 5.527,0.886 c 0.972,0.156 1.756,0.038 2.354,-0.352 0.587,-0.404 0.947,-1.021 1.08,-1.85 0.133,-0.83 -0.017,-1.522 -0.451,-2.078 -0.443,-0.569 -1.151,-0.932 -2.123,-1.087 z m 11.259,-6.781 c -0.224,1.398 -0.869,2.462 -1.934,3.19 -1.064,0.729 -2.349,0.973 -3.854,0.732 -1.516,-0.243 -2.667,-0.877 -3.45,-1.902 -0.784,-1.025 -1.064,-2.237 -0.84,-3.635 0.188,-1.173 0.613,-2.083 1.276,-2.73 0.665,-0.659 1.524,-1.056 2.579,-1.191 l -0.279,1.742 c -0.599,0.098 -1.096,0.353 -1.49,0.763 -0.394,0.411 -0.645,0.954 -0.753,1.63 -0.148,0.924 0.058,1.723 0.619,2.396 0.55,0.659 1.418,1.084 2.603,1.274 1.173,0.188 2.13,0.056 2.871,-0.397 0.731,-0.466 1.17,-1.161 1.319,-2.086 0.222,-1.386 -0.239,-2.377 -1.383,-2.974 l 0.279,-1.742 c 0.912,0.45 1.592,1.1 2.039,1.95 0.449,0.837 0.582,1.831 0.398,2.98 z m 0.09,-10.005 0.213,-1.333 1.315,0.211 -0.262,1.635 c -0.271,1.695 -1.242,2.408 -2.913,2.14 l -5.936,-0.951 -0.202,1.262 -1.316,-0.211 0.203,-1.262 -2.418,-0.387 0.262,-1.635 2.418,0.387 0.404,-2.524 1.315,0.211 -0.404,2.524 5.936,0.951 c 0.439,0.07 0.761,0.031 0.967,-0.118 0.206,-0.15 0.345,-0.449 0.418,-0.9 z" />
  <path
     style="fill:#353c58"
     id="path16"
     d="m 525.71414,122.02261 -7.988,9.58 -1.272,-1.06 5.821,-6.981 -9.028,4.307 -0.816,-0.681 2.6,-9.667 -5.821,6.982 -1.258,-1.049 7.988,-9.581 1.286,1.072 -2.939,10.861 10.142,-4.855 z m 0.689,13.886 c 0.937,-0.093 1.763,-0.569 2.478,-1.426 0.714,-0.857 1.033,-1.755 0.957,-2.693 -0.067,-0.932 -0.456,-1.693 -1.166,-2.285 -0.7,-0.584 -1.511,-0.838 -2.433,-0.763 -0.913,0.082 -1.726,0.552 -2.441,1.409 -0.715,0.857 -1.042,1.765 -0.98,2.722 0.061,0.957 0.442,1.728 1.142,2.312 0.7,0.584 1.515,0.825 2.443,0.724 z m -3.577,0.158 c -1.032,-0.861 -1.587,-1.948 -1.663,-3.261 -0.069,-1.323 0.377,-2.561 1.338,-3.713 0.968,-1.161 2.089,-1.812 3.363,-1.953 1.29,-0.143 2.456,0.22 3.498,1.089 0.645,0.538 1.08,1.158 1.306,1.862 0.235,0.712 0.273,1.415 0.115,2.111 l 1.268,-1.52 1.272,1.06 -6.329,7.59 -1.272,-1.061 1.291,-1.548 c -0.664,0.29 -1.37,0.388 -2.12,0.294 -0.733,-0.095 -1.422,-0.412 -2.067,-0.95 z m 13.827,-1.548 -1.072,1.286 c 1.236,-0.563 2.397,-0.392 3.485,0.515 l -1.096,1.313 -0.331,-0.276 c -0.645,-0.538 -1.281,-0.779 -1.906,-0.722 -0.608,0.055 -1.259,0.497 -1.95,1.327 l -3.458,4.147 -1.258,-1.049 6.328,-7.59 z m -1.239,11.834 -1.258,-1.049 8.531,-10.23 1.258,1.049 -5.003,6 5.704,-0.939 1.77,1.476 -6.728,0.788 0.399,6.801 -1.701,-1.418 -0.194,-5.81 z m 8.906,7.637 c -1.088,-0.907 -1.673,-2.004 -1.755,-3.292 -0.083,-1.287 0.368,-2.521 1.351,-3.701 0.984,-1.179 2.117,-1.836 3.4,-1.969 1.291,-0.142 2.485,0.244 3.581,1.158 1.106,0.922 1.707,2.001 1.802,3.236 0.111,1.234 -0.271,2.376 -1.147,3.427 -0.223,0.267 -0.449,0.501 -0.678,0.7 l -6.041,-5.037 c -0.593,0.786 -0.858,1.581 -0.793,2.385 0.081,0.802 0.462,1.487 1.144,2.056 0.516,0.43 1.046,0.676 1.588,0.738 0.552,0.069 1.068,-0.016 1.549,-0.255 l 1.355,1.129 c -0.793,0.464 -1.665,0.667 -2.616,0.608 -0.942,-0.051 -1.855,-0.445 -2.74,-1.183 z m 6.057,-2.402 c 0.598,-0.736 0.852,-1.509 0.761,-2.318 -0.082,-0.819 -0.46,-1.509 -1.133,-2.07 -0.663,-0.553 -1.397,-0.798 -2.201,-0.734 -0.795,0.055 -1.528,0.437 -2.196,1.145 z m 2.66,7.725 1.036,0.865 -0.853,1.023 -1.271,-1.061 c -1.318,-1.099 -1.436,-2.298 -0.352,-3.597 l 3.85,-4.618 -0.981,-0.818 0.853,-1.023 0.981,0.818 1.568,-1.88 1.272,1.061 -1.568,1.88 1.963,1.637 -0.853,1.023 -1.963,-1.637 -3.85,4.617 c -0.284,0.341 -0.415,0.638 -0.392,0.892 0.023,0.253 0.209,0.526 0.56,0.818 z m 10.367,-4.972 c -0.304,0.028 -0.576,-0.058 -0.816,-0.258 -0.239,-0.2 -0.373,-0.452 -0.4,-0.756 -0.019,-0.297 0.072,-0.565 0.272,-0.804 0.2,-0.24 0.452,-0.373 0.756,-0.401 0.304,-0.028 0.571,0.055 0.802,0.247 0.239,0.2 0.373,0.452 0.401,0.756 0.027,0.304 -0.059,0.576 -0.259,0.816 -0.2,0.239 -0.452,0.373 -0.756,0.4 z m -8.795,8.018 6.329,-7.59 1.258,1.049 -6.329,7.59 z m 10.922,-3.76 -1.026,1.23 c 1.269,-0.473 2.47,-0.236 3.604,0.709 0.839,0.699 1.305,1.564 1.398,2.595 0.101,1.022 -0.279,2.049 -1.139,3.081 l -3.747,4.493 -1.244,-1.037 3.574,-4.286 c 0.637,-0.765 0.937,-1.499 0.899,-2.203 -0.038,-0.703 -0.384,-1.328 -1.039,-1.874 -0.645,-0.538 -1.322,-0.766 -2.03,-0.685 -0.699,0.089 -1.368,0.516 -2.005,1.281 l -3.574,4.286 -1.258,-1.049 6.329,-7.59 z m 4.114,16.509 c -1.032,-0.861 -1.586,-1.948 -1.663,-3.262 -0.068,-1.323 0.378,-2.56 1.338,-3.712 0.969,-1.162 2.09,-1.813 3.363,-1.954 1.291,-0.142 2.457,0.221 3.498,1.089 0.646,0.538 1.081,1.159 1.307,1.863 0.235,0.711 0.273,1.415 0.114,2.111 l 1.268,-1.521 1.272,1.061 -6.49,7.783 c -0.868,1.041 -1.912,1.609 -3.13,1.702 -1.226,0.103 -2.355,-0.276 -3.388,-1.137 -1.032,-0.861 -1.689,-1.815 -1.972,-2.863 -0.273,-1.04 -0.133,-1.986 0.421,-2.837 l 1.23,1.026 c -0.241,0.533 -0.26,1.127 -0.056,1.781 0.204,0.655 0.634,1.255 1.288,1.801 0.654,0.545 1.379,0.782 2.173,0.71 0.796,-0.055 1.517,-0.469 2.162,-1.244 l 1.453,-1.742 c -0.664,0.291 -1.371,0.389 -2.121,0.295 -0.733,-0.096 -1.422,-0.412 -2.067,-0.95 z m 3.577,-0.158 c 0.937,-0.094 1.763,-0.569 2.478,-1.426 0.715,-0.857 1.034,-1.755 0.957,-2.694 -0.067,-0.931 -0.455,-1.692 -1.165,-2.284 -0.7,-0.584 -1.512,-0.839 -2.434,-0.764 -0.912,0.083 -1.726,0.553 -2.441,1.41 -0.714,0.857 -1.041,1.764 -0.98,2.721 0.061,0.958 0.442,1.728 1.143,2.312 0.7,0.584 1.514,0.826 2.442,0.725 z" />
  <path
     style="fill:#353c58"
     id="path18"
     d="m 494.32314,602.22061 c -0.159,-0.427 -0.409,-0.738 -0.749,-0.931 -0.341,-0.194 -0.722,-0.289 -1.143,-0.286 -0.422,0.002 -0.876,0.037 -1.364,0.102 -0.498,0.07 -0.998,0.121 -1.498,0.153 -0.507,0.048 -0.984,0.039 -1.43,-0.025 -0.447,-0.065 -0.863,-0.256 -1.25,-0.573 -0.387,-0.318 -0.69,-0.774 -0.912,-1.371 -0.338,-0.911 -0.284,-1.834 0.163,-2.767 0.447,-0.934 1.267,-1.623 2.459,-2.065 1.182,-0.439 2.244,-0.526 3.187,-0.261 0.947,0.275 1.594,0.88 1.94,1.814 l -1.637,0.607 c -0.241,-0.512 -0.608,-0.862 -1.1,-1.051 -0.504,-0.184 -1.127,-0.138 -1.869,0.138 -0.743,0.275 -1.262,0.686 -1.559,1.231 -0.297,0.545 -0.351,1.071 -0.163,1.577 0.192,0.518 0.456,0.868 0.792,1.05 0.341,0.194 0.722,0.289 1.143,0.286 0.422,-0.003 0.88,-0.045 1.374,-0.126 0.488,-0.066 0.988,-0.117 1.499,-0.153 0.5,-0.032 0.973,-0.016 1.42,0.049 0.45,0.076 0.869,0.273 1.255,0.59 0.391,0.329 0.699,0.797 0.925,1.404 0.367,0.99 0.313,1.913 -0.163,2.768 -0.483,0.87 -1.288,1.514 -2.413,1.932 -1.136,0.422 -2.134,0.492 -2.994,0.209 -0.867,-0.267 -1.522,-0.843 -1.966,-1.728 l 1.704,-0.632 c 0.217,0.444 0.582,0.757 1.097,0.937 0.503,0.184 1.087,0.153 1.751,-0.093 0.652,-0.243 1.124,-0.61 1.415,-1.102 0.295,-0.481 0.324,-1.042 0.086,-1.683 z m -17.349,-0.914 c -0.385,0.86 -0.383,1.813 0.005,2.859 0.389,1.047 1.009,1.77 1.862,2.17 0.841,0.405 1.695,0.446 2.561,0.125 0.855,-0.318 1.479,-0.895 1.872,-1.732 0.382,-0.833 0.379,-1.773 -0.009,-2.819 -0.389,-1.046 -1.013,-1.781 -1.874,-2.204 -0.861,-0.423 -1.719,-0.475 -2.574,-0.158 -0.855,0.318 -1.469,0.904 -1.843,1.759 z m 1.641,-3.182 c 1.26,-0.467 2.479,-0.408 3.657,0.179 1.182,0.598 2.034,1.6 2.556,3.006 0.526,1.418 0.534,2.714 0.023,3.89 -0.518,1.19 -1.413,2.022 -2.684,2.493 -0.788,0.293 -1.543,0.362 -2.266,0.208 -0.734,-0.15 -1.363,-0.467 -1.888,-0.95 l 0.689,1.856 -1.553,0.576 -3.439,-9.264 1.553,-0.576 0.701,1.89 c 0.079,-0.721 0.345,-1.383 0.799,-1.987 0.447,-0.588 1.065,-1.028 1.852,-1.321 z m -7.435,2.933 4.636,12.487 -1.536,0.57 -4.635,-12.487 z m -8.008,2.8 c 1.328,-0.493 2.571,-0.455 3.729,0.113 1.158,0.569 2.005,1.573 2.539,3.013 0.535,1.44 0.541,2.75 0.019,3.929 -0.518,1.191 -1.447,2.035 -2.786,2.532 -1.35,0.501 -2.584,0.485 -3.703,-0.046 -1.126,-0.517 -1.927,-1.416 -2.403,-2.699 -0.121,-0.326 -0.212,-0.638 -0.271,-0.936 l 7.374,-2.737 c -0.387,-0.906 -0.945,-1.531 -1.675,-1.875 -0.736,-0.328 -1.52,-0.338 -2.353,-0.029 -0.63,0.234 -1.106,0.571 -1.429,1.011 -0.335,0.444 -0.518,0.934 -0.549,1.471 l -1.654,0.614 c -0.008,-0.919 0.25,-1.776 0.774,-2.572 0.512,-0.792 1.308,-1.388 2.388,-1.789 z m -0.927,6.45 c 0.341,0.884 0.885,1.489 1.633,1.813 0.752,0.335 1.538,0.35 2.359,0.046 0.81,-0.301 1.387,-0.816 1.731,-1.545 0.348,-0.718 0.381,-1.543 0.099,-2.475 z m -2.646,2.614 c 0.289,0.776 0.21,1.547 -0.235,2.314 -0.452,0.782 -1.19,1.364 -2.214,1.744 -1.035,0.384 -1.943,0.42 -2.724,0.108 -0.777,-0.3 -1.363,-0.895 -1.757,-1.786 l 1.586,-0.588 c 0.215,0.509 0.543,0.86 0.987,1.054 0.443,0.194 0.957,0.182 1.542,-0.035 0.574,-0.213 0.977,-0.522 1.21,-0.929 0.226,-0.391 0.258,-0.806 0.095,-1.245 -0.159,-0.427 -0.468,-0.69 -0.927,-0.789 -0.47,-0.094 -0.99,-0.099 -1.561,-0.015 -0.577,0.099 -1.158,0.173 -1.741,0.223 -0.59,0.066 -1.143,-0.029 -1.661,-0.285 -0.524,-0.241 -0.92,-0.721 -1.187,-1.441 -0.264,-0.709 -0.161,-1.432 0.308,-2.169 0.462,-0.722 1.21,-1.275 2.245,-1.659 1.035,-0.384 1.964,-0.434 2.786,-0.151 0.811,0.288 1.413,0.877 1.808,1.768 l -1.587,0.588 c -0.214,-0.509 -0.549,-0.858 -1.003,-1.048 -0.462,-0.174 -0.99,-0.151 -1.587,0.071 -0.607,0.225 -1.032,0.53 -1.273,0.914 -0.253,0.388 -0.306,0.779 -0.16,1.173 0.15,0.405 0.404,0.675 0.762,0.811 0.358,0.136 0.756,0.174 1.194,0.114 0.439,-0.06 0.923,-0.119 1.452,-0.174 0.519,-0.052 1.006,-0.085 1.461,-0.101 0.459,-0.004 0.888,0.118 1.288,0.367 0.399,0.248 0.697,0.637 0.893,1.166 z" />
</svg>
