<?xml version="1.0" encoding="UTF-8" standalone="no"?>
<svg
   xmlns:dc="http://purl.org/dc/elements/1.1/"
   xmlns:cc="http://creativecommons.org/ns#"
   xmlns:rdf="http://www.w3.org/1999/02/22-rdf-syntax-ns#"
   xmlns:svg="http://www.w3.org/2000/svg"
   xmlns="http://www.w3.org/2000/svg"
   style="fill:none"
   id="svg20"
   version="1.1"
   viewBox="0 0 336.54477 341.79901"
   height="341.79901"
   width="336.54477">
  <metadata
     id="metadata26">
    <rdf:RDF>
      <cc:Work
         rdf:about="">
        <dc:format>image/svg+xml</dc:format>
        <dc:type
           rdf:resource="http://purl.org/dc/dcmitype/StillImage" />
        <dc:title></dc:title>
      </cc:Work>
    </rdf:RDF>
  </metadata>
  <defs
     id="defs24" />
  <path
     style="fill:#ffffff;fill-opacity:0.6;stroke:#292f47;stroke-width:0.473423"
     id="path2"
     d="m 158.24675,265.05386 c 60.679,-22.524 91.61,-89.974 69.086,-150.653 -22.525,-60.679504 -89.974,-91.610204 -150.653695,-69.086004 -60.6793,22.524 -91.6101,89.974004 -69.0859002,150.653004 22.5243002,60.68 89.9736002,91.61 150.6535952,69.086 z" />
  <path
     style="fill:#ffffff;fill-opacity:0.6;stroke:#292f47;stroke-width:0.473423"
     id="path4"
     d="m 259.86575,227.33186 c 60.679,-22.524 91.61,-89.974 69.086,-150.653004 -22.525,-60.6791 -89.974,-91.6099 -150.654,-69.0856995 -60.679,22.5242995 -91.609995,89.9736995 -69.085,150.6537035 22.524,60.679 89.974,91.61 150.653,69.085 z" />
  <path
     style="fill:#ffffff;fill-opacity:0.6;stroke:#292f47;stroke-width:0.473423"
     id="path6"
     d="m 241.83275,334.20586 c 60.679,-22.524 91.61,-89.974 69.086,-150.653 -22.525,-60.679 -89.974,-91.610004 -150.654,-69.086 -60.678995,22.524 -91.609895,89.974 -69.085995,150.653 22.524995,60.68 89.973995,91.61 150.653995,69.086 z" />
  <path
     style="fill:#ffffff;fill-opacity:0.6"
     id="path8"
     d="m 158.16375,264.83186 c 60.557,-22.479 91.425,-89.792 68.947,-150.349 -22.479,-60.556504 -89.793,-91.424804 -150.349295,-68.946104 -60.5568,22.4791 -91.42508,89.792104 -68.9463002,150.349104 14.4918002,39.04 47.6183002,65.741 85.5556002,73.764 20.907995,4.421 43.276995,3.169 64.792995,-4.818 z" />
  <path
     style="fill:#5cb0ff"
     id="path10"
     d="m 225.36275,110.04886 c -21.016,-4.516 -43.525,-3.297 -65.17,4.738 -21.579,8.01 -39.389,21.714 -52.358,38.777 0.504,1.549 1.041,3.094 1.613,4.635 15.673,42.221 53.14,70.01 94.915,75.35 28.174,-31.305 38.434,-76.81 22.762,-119.031 -0.56,-1.508 -1.148,-2.998 -1.762,-4.469 z" />
  <path
     style="fill:#292f47"
     id="path12"
     d="m 117.57275,146.09386 c -0.682,0.833 -1.679,1.502 -2.992,2.007 -1.288,0.48 -2.803,0.72 -4.545,0.72 h -4.393 v 10.529 h -5.341 v -26.436 h 9.734 c 3.055,0 5.403,0.77 7.044,2.31 1.667,1.515 2.5,3.308 2.5,5.378 0,2.071 -0.669,3.901 -2.007,5.492 z m -11.93,-1.363 h 4.393 c 1.338,0 2.361,-0.341 3.068,-1.023 0.707,-0.707 1.06,-1.654 1.06,-2.841 0,-1.186 -0.353,-2.121 -1.06,-2.802 -0.707,-0.707 -1.73,-1.061 -3.068,-1.061 h -4.393 z m 23.301,-6.363 v 3.711 c 1.414,-2.676 3.459,-4.014 6.135,-4.014 v 5.454 h -1.325 c -1.591,0 -2.79,0.404 -3.598,1.212 -0.808,0.782 -1.212,2.146 -1.212,4.09 v 10.529 h -5.34 v -20.982 z m 19.252,16.778 c 1.49,0 2.765,-0.543 3.825,-1.629 1.086,-1.111 1.629,-2.664 1.629,-4.658 0,-2.02 -0.531,-3.573 -1.591,-4.659 -1.06,-1.085 -2.348,-1.628 -3.863,-1.628 -1.49,0 -2.752,0.543 -3.787,1.628 -1.036,1.086 -1.553,2.639 -1.553,4.659 0,2.02 0.517,3.573 1.553,4.658 1.035,1.086 2.297,1.629 3.787,1.629 z m -7.689,1.515 c -2.045,-1.995 -3.067,-4.608 -3.067,-7.84 0,-3.232 1.035,-5.833 3.105,-7.802 2.071,-1.97 4.634,-2.954 7.689,-2.954 3.08,0 5.656,0.984 7.726,2.954 2.07,1.969 3.106,4.57 3.106,7.802 0,3.232 -1.048,5.845 -3.144,7.84 -2.07,1.994 -4.646,2.992 -7.726,2.992 -3.081,0 -5.643,-0.998 -7.689,-2.992 z m 36.152,-3.257 c 1.111,-1.111 1.667,-2.626 1.667,-4.545 0,-1.919 -0.556,-3.421 -1.667,-4.507 -1.111,-1.111 -2.411,-1.667 -3.901,-1.667 -1.489,0 -2.79,0.543 -3.901,1.629 -1.085,1.086 -1.628,2.588 -1.628,4.507 0,1.919 0.555,3.434 1.666,4.545 1.111,1.111 2.399,1.666 3.863,1.666 1.49,0 2.79,-0.543 3.901,-1.628 z m -12.044,3.219 c -1.868,-2.045 -2.802,-4.646 -2.802,-7.802 0,-3.156 0.934,-5.732 2.802,-7.726 1.869,-2.02 4.242,-3.03 7.121,-3.03 2.878,0 5.075,1.186 6.59,3.56 v -10.302 h 5.302 v 28.027 h -5.302 v -3.522 c -1.591,2.55 -3.8,3.825 -6.628,3.825 -2.828,0 -5.189,-1.01 -7.083,-3.03 z m 39.144,-18.255 h 5.34 v 20.982 h -5.34 v -3.182 c -1.338,2.298 -3.522,3.447 -6.552,3.447 -2.374,0 -4.318,-0.783 -5.833,-2.348 -1.515,-1.591 -2.272,-3.788 -2.272,-6.59 v -12.309 h 5.302 v 11.551 c 0,1.641 0.417,2.904 1.25,3.788 0.833,0.883 1.969,1.325 3.409,1.325 1.439,0 2.575,-0.442 3.408,-1.325 0.859,-0.884 1.288,-2.147 1.288,-3.788 z m 12.417,18.331 c -1.919,-1.97 -2.878,-4.583 -2.878,-7.84 0,-3.257 0.959,-5.871 2.878,-7.84 1.919,-1.97 4.406,-2.954 7.461,-2.954 2.55,0 4.684,0.618 6.401,1.856 1.717,1.237 2.866,2.992 3.446,5.264 h -5.757 c -0.681,-1.742 -2.045,-2.613 -4.09,-2.613 -1.54,0 -2.752,0.568 -3.636,1.704 -0.858,1.111 -1.288,2.639 -1.288,4.583 0,1.944 0.43,3.484 1.288,4.62 0.884,1.111 2.096,1.667 3.636,1.667 2.02,0 3.383,-0.884 4.09,-2.651 h 5.757 c -0.606,2.196 -1.78,3.939 -3.522,5.226 -1.717,1.288 -3.825,1.932 -6.325,1.932 -3.055,0 -5.542,-0.985 -7.461,-2.954 z m 29.451,-1.818 h 2.538 v 4.469 h -3.371 c -2.146,0 -3.8,-0.493 -4.962,-1.477 -1.161,-0.985 -1.742,-2.614 -1.742,-4.886 v -10.264 h -2.234 v -4.355 h 2.234 v -5.189 h 5.34 v 5.189 h 4.697 v 4.355 h -4.697 v 10.264 c 0,0.682 0.164,1.174 0.493,1.477 0.328,0.278 0.896,0.417 1.704,0.417 z m -140.229,17.033 v 26.436 h -5.303 v -16.703 l -7.195995,16.703 h -3.825 l -7.158,-16.627 v 16.627 h -5.3403 v -26.436 h 5.9463 l 8.484,19.581 8.483,-19.581 z m 19.055,20.49 c 1.111,-1.111 1.667,-2.626 1.667,-4.545 0,-1.919 -0.556,-3.421 -1.667,-4.507 -1.111,-1.111 -2.411,-1.667 -3.901,-1.667 -1.489,0 -2.79,0.543 -3.901,1.629 -1.085,1.086 -1.628,2.588 -1.628,4.507 0,1.919 0.555,3.434 1.666,4.545 1.111,1.111 2.399,1.666 3.863,1.666 1.49,0 2.79,-0.543 3.901,-1.628 z m -12.044,3.219 c -1.868,-2.045 -2.802,-4.646 -2.802,-7.802 0,-3.156 0.934,-5.732 2.802,-7.726 1.869,-2.02 4.242,-3.03 7.121,-3.03 2.878,0 5.075,1.186 6.59,3.56 v -3.257 h 5.302 v 20.982 h -5.302 v -3.522 c -1.591,2.55 -3.8,3.825 -6.628,3.825 -2.828,0 -5.189,-1.01 -7.083,-3.03 z m 30.016,-18.255 v 3.711 c 1.414,-2.676 3.459,-4.014 6.136,-4.014 v 5.454 h -1.326 c -1.59,0 -2.79,0.404 -3.598,1.212 -0.808,0.782 -1.212,2.146 -1.212,4.09 v 10.529 h -5.34 v -20.982 z m 15.276,20.982 h -5.341 v -28.027 h 5.341 v 16.021 l 7.082,-8.976 h 7.234 l -9.317,10.604 9.317,10.378 h -7.12 l -7.196,-8.749 z m 26.231,0.303 c -3.055,0 -5.542,-0.985 -7.461,-2.954 -1.919,-1.995 -2.878,-4.621 -2.878,-7.878 0,-3.257 0.959,-5.858 2.878,-7.802 1.944,-1.97 4.444,-2.954 7.499,-2.954 3.081,0 5.606,0.959 7.575,2.878 1.969,1.894 2.954,4.431 2.954,7.613 0,0.732 -0.05,1.414 -0.151,2.045 h -15.301 c 0.126,1.363 0.631,2.462 1.515,3.295 0.883,0.833 2.007,1.25 3.37,1.25 1.844,0 3.207,-0.758 4.091,-2.273 h 5.757 c -0.606,1.995 -1.78,3.624 -3.523,4.886 -1.742,1.263 -3.85,1.894 -6.325,1.894 z m 5.038,-12.499 c -0.076,-1.388 -0.594,-2.499 -1.553,-3.332 -0.934,-0.834 -2.071,-1.25 -3.409,-1.25 -1.338,0 -2.462,0.416 -3.371,1.25 -0.883,0.833 -1.414,1.944 -1.59,3.332 z m 17.877,7.727 h 2.538 v 4.469 h -3.371 c -2.146,0 -3.8,-0.493 -4.962,-1.477 -1.161,-0.985 -1.742,-2.614 -1.742,-4.886 v -10.264 h -2.234 v -4.355 h 2.234 v -5.189 h 5.34 v 5.189 h 4.697 v 4.355 h -4.697 v 10.264 c 0,0.682 0.164,1.174 0.493,1.477 0.328,0.278 0.896,0.417 1.704,0.417 z m 12.597,-21.853 c 0,0.908 -0.316,1.679 -0.947,2.31 -0.631,0.631 -1.401,0.947 -2.31,0.947 -0.884,0 -1.641,-0.316 -2.273,-0.947 -0.631,-0.631 -0.947,-1.402 -0.947,-2.31 0,-0.909 0.316,-1.68 0.947,-2.311 0.632,-0.631 1.389,-0.947 2.273,-0.947 0.909,0 1.679,0.316 2.31,0.947 0.631,0.631 0.947,1.402 0.947,2.311 z m -5.908,26.322 v -20.982 h 5.34 v 20.982 z m 16.362,-20.982 v 3.143 c 1.338,-2.297 3.509,-3.446 6.514,-3.446 2.399,0 4.355,0.795 5.87,2.386 1.515,1.565 2.273,3.749 2.273,6.552 v 12.347 h -5.302 v -11.59 c 0,-1.641 -0.417,-2.891 -1.25,-3.749 -0.834,-0.884 -1.97,-1.326 -3.409,-1.326 -1.439,0 -2.588,0.442 -3.447,1.326 -0.833,0.858 -1.249,2.108 -1.249,3.749 v 11.59 h -5.341 v -20.982 z m 21.469,18.255 c -1.869,-2.045 -2.803,-4.646 -2.803,-7.802 0,-3.156 0.934,-5.732 2.803,-7.726 1.868,-2.02 4.241,-3.03 7.12,-3.03 2.878,0 5.075,1.186 6.59,3.56 v -3.257 h 5.302 v 21.133 c 0,3.005 -0.884,5.454 -2.651,7.348 -1.767,1.919 -4.254,2.878 -7.461,2.878 -3.182,0 -5.719,-0.669 -7.613,-2.007 -1.868,-1.313 -2.929,-3.194 -3.181,-5.643 h 5.226 c 0.329,0.934 0.96,1.666 1.894,2.196 0.934,0.556 2.108,0.834 3.522,0.834 1.414,0 2.588,-0.467 3.523,-1.402 0.959,-0.934 1.439,-2.335 1.439,-4.204 v -3.673 c -1.591,2.55 -3.8,3.825 -6.628,3.825 -2.828,0 -5.189,-1.01 -7.082,-3.03 z m 12.043,-3.219 c 1.111,-1.111 1.667,-2.626 1.667,-4.545 0,-1.919 -0.556,-3.421 -1.667,-4.507 -1.111,-1.111 -2.411,-1.667 -3.901,-1.667 -1.489,0 -2.79,0.543 -3.901,1.629 -1.085,1.086 -1.628,2.588 -1.628,4.507 0,1.919 0.555,3.434 1.666,4.545 1.111,1.111 2.399,1.666 3.863,1.666 1.49,0 2.79,-0.543 3.901,-1.628 z" />
  <path
     style="fill:#353c58"
     id="path14"
     d="m 47.424555,171.15086 c 0.1915,-1.195 0.6283,-2.058 1.3105,-2.588 0.6839,-0.54 1.4804,-0.737 2.3897,-0.592 0.9092,0.146 1.611,0.573 2.1053,1.281 0.4858,0.696 0.6296,1.662 0.4315,2.898 l -0.329,2.054 4.3828,0.702 -0.2234,1.395 -10.6199,-1.702 z m 4.8046,2.876 0.3291,-2.054 c 0.1227,-0.766 0.0399,-1.361 -0.2485,-1.784 -0.297,-0.435 -0.7622,-0.704 -1.3956,-0.805 -1.3384,-0.215 -2.1287,0.434 -2.371,1.946 l -0.329,2.054 z m -1.5074,-9.329 1.4252,0.229 c -0.9618,-0.668 -1.3462,-1.604 -1.153,-2.81 l 1.4558,0.233 -0.0589,0.368 c -0.1146,0.715 -0.0132,1.292 0.3043,1.731 0.3088,0.427 0.923,0.714 1.8424,0.861 l 4.5974,0.737 -0.2235,1.394 -8.4131,-1.348 z m 8.657,-6.647 c 0.126,-0.787 -0.0461,-1.511 -0.5163,-2.173 -0.4788,-0.674 -1.2188,-1.091 -2.22,-1.252 -1.0012,-0.16 -1.827,-0.01 -2.4773,0.452 -0.6503,0.462 -1.0393,1.091 -1.167,1.888 -0.126,0.787 0.0494,1.491 0.5261,2.112 0.4768,0.621 1.2209,1.013 2.2323,1.175 1.0012,0.16 1.8237,0.03 2.4675,-0.391 0.6437,-0.42 1.0286,-1.024 1.1547,-1.811 z m -0.5248,2.981 c -0.9197,0.639 -2.0283,0.854 -3.3257,0.646 -1.2975,-0.208 -2.28,-0.779 -2.9476,-1.714 -0.6777,-0.936 -0.9192,-2.013 -0.7244,-3.228 0.1948,-1.216 0.7604,-2.163 1.6968,-2.841 0.9262,-0.679 2.038,-0.915 3.3355,-0.707 1.2873,0.206 2.2665,0.798 2.9377,1.776 0.6627,0.965 0.8966,2.056 0.7018,3.271 -0.1948,1.216 -0.7529,2.148 -1.6741,2.797 z m 1.5134,-14.938 c -0.4821,-0.654 -1.1982,-1.057 -2.1483,-1.209 -0.9501,-0.152 -1.7563,0.007 -2.4184,0.477 -0.6605,0.46 -1.0538,1.083 -1.1799,1.87 -0.1244,0.776 0.0443,1.49 0.5059,2.14 0.4633,0.64 1.17,1.036 2.1201,1.188 0.9501,0.153 1.7665,-0.005 2.4491,-0.472 0.6825,-0.467 1.086,-1.088 1.2105,-1.865 0.1244,-0.776 -0.0553,-1.486 -0.539,-2.129 z m 1.6925,2.581 c -0.1833,1.145 -0.745,2.034 -1.6851,2.67 -0.9503,0.633 -2.064,0.848 -3.341,0.643 -1.2873,-0.206 -2.2637,-0.75 -2.9292,-1.632 -0.6741,-0.894 -0.9187,-1.919 -0.7337,-3.073 0.1146,-0.715 0.383,-1.311 0.8053,-1.789 0.4239,-0.487 0.9287,-0.825 1.5144,-1.014 l -4.6127,-0.739 0.2259,-1.41 11.3401,1.817 -0.2259,1.41 -1.7163,-0.275 c 0.5075,0.364 0.8915,0.845 1.1521,1.442 0.252,0.585 0.3207,1.235 0.2061,1.95 z m -6.5107,-14.103 0.2234,-1.395 8.4132,1.348 -0.2235,1.395 -1.3485,-0.216 c 0.9009,0.72 1.2499,1.714 1.0469,2.981 -0.1489,0.93 -0.5798,1.657 -1.2927,2.182 -0.723,0.523 -1.6516,0.694 -2.7856,0.512 l -4.9958,-0.8 0.221,-1.379 4.7659,0.763 c 0.8378,0.135 1.5142,0.033 2.0292,-0.303 0.5064,-0.349 0.8169,-0.881 0.9315,-1.596 0.1146,-0.715 -0.0151,-1.312 -0.3889,-1.791 -0.3824,-0.491 -0.9925,-0.803 -1.8302,-0.938 z m 9.7074,-5.847 c -0.1931,1.206 -0.7487,2.123 -1.6667,2.751 -0.918,0.628 -2.0258,0.838 -3.3233,0.63 -1.3077,-0.209 -2.2994,-0.756 -2.9751,-1.639 -0.6757,-0.884 -0.917,-1.929 -0.7239,-3.134 0.1621,-1.012 0.5289,-1.796 1.1003,-2.355 0.5731,-0.568 1.3143,-0.91 2.2236,-1.026 l -0.2406,1.501 c -0.5166,0.085 -0.9447,0.305 -1.2844,0.659 -0.3397,0.354 -0.5562,0.823 -0.6495,1.405 -0.1277,0.797 0.0501,1.485 0.5334,2.066 0.4748,0.568 1.223,0.935 2.2446,1.098 1.0114,0.162 1.8365,0.048 2.4754,-0.342 0.6302,-0.402 1.0092,-1.001 1.1369,-1.798 0.1915,-1.195 -0.2059,-2.05 -1.1923,-2.565 l 0.2406,-1.501 c 0.7866,0.388 1.3727,0.948 1.7583,1.68 0.3873,0.722 0.5015,1.579 0.3427,2.57 z m 0.0777,-8.626 0.1841,-1.15 1.1341,0.182 -0.226,1.41 c -0.234,1.461 -1.0713,2.076 -2.5118,1.845 l -5.1184,-0.82 -0.1744,1.088 -1.134,-0.182 0.1743,-1.088 -2.0841,-0.334 0.2259,-1.41 2.0842,0.334 0.3486,-2.176 1.1341,0.182 -0.3487,2.176 5.1184,0.82 c 0.378,0.061 0.6559,0.027 0.8337,-0.102 0.1778,-0.129 0.2978,-0.387 0.36,-0.775 z" />
  <path
     style="fill:#353c58"
     id="path16"
     d="m 238.25475,52.395956 -6.888,8.2603 -1.097,-0.9144 5.02,-6.0195 -7.785,3.7136 -0.703,-0.5864 2.242,-8.3353 -5.02,6.0194 -1.084,-0.9044 6.888,-8.2604 1.108,0.9243 -2.534,9.3646 8.744,-4.1862 z m 0.593,11.9728 c 0.809,-0.0805 1.521,-0.4903 2.137,-1.2294 0.616,-0.739 0.891,-1.5132 0.825,-2.3227 -0.058,-0.8028 -0.393,-1.4593 -1.004,-1.9695 -0.604,-0.5036 -1.304,-0.7231 -2.099,-0.6584 -0.787,0.0713 -1.488,0.4765 -2.104,1.2155 -0.617,0.739 -0.898,1.5212 -0.846,2.3465 0.053,0.8254 0.381,1.4898 0.985,1.9934 0.604,0.5036 1.306,0.7118 2.106,0.6246 z m -3.084,0.1362 c -0.89,-0.7421 -1.368,-1.6796 -1.433,-2.8122 -0.06,-1.1407 0.325,-2.2076 1.153,-3.201 0.835,-1.0012 1.802,-1.5626 2.9,-1.6842 1.113,-0.1228 2.118,0.1901 3.016,0.9389 0.556,0.4638 0.932,0.9991 1.126,1.6059 0.203,0.6135 0.236,1.2202 0.099,1.8203 l 1.093,-1.3112 1.097,0.9144 -5.457,6.544 -1.096,-0.914 1.113,-1.3355 c -0.573,0.2502 -1.182,0.3348 -1.828,0.2538 -0.632,-0.0823 -1.226,-0.3554 -1.783,-0.8192 z m 11.923,-1.3345 -0.925,1.1086 c 1.066,-0.4859 2.067,-0.3379 3.005,0.444 l -0.945,1.1324 -0.286,-0.2386 c -0.556,-0.4638 -1.104,-0.6713 -1.643,-0.6224 -0.524,0.0475 -1.085,0.4289 -1.681,1.1444 l -2.982,3.576 -1.085,-0.905 5.457,-6.5439 z m -1.069,10.2034 -1.084,-0.905 7.355,-8.8202 1.085,0.9044 -4.314,5.1728 4.918,-0.809 1.526,1.272 -5.801,0.68 0.344,5.864 -1.466,-1.222 -0.167,-5.01 z m 7.679,6.585 c -0.938,-0.782 -1.442,-1.728 -1.513,-2.839 -0.072,-1.11 0.317,-2.173 1.165,-3.191 0.848,-1.017 1.825,-1.583 2.932,-1.698 1.112,-0.122 2.142,0.21 3.087,0.999 0.954,0.795 1.472,1.725 1.553,2.79 0.097,1.064 -0.233,2.049 -0.988,2.955 -0.192,0.23 -0.387,0.432 -0.584,0.604 l -5.209,-4.344 c -0.512,0.678 -0.74,1.364 -0.685,2.057 0.07,0.691 0.399,1.282 0.987,1.773 0.445,0.371 0.902,0.583 1.369,0.636 0.476,0.06 0.921,-0.014 1.336,-0.22 l 1.168,0.974 c -0.684,0.4 -1.436,0.574 -2.256,0.524 -0.812,-0.044 -1.599,-0.384 -2.362,-1.02 z m 5.223,-2.071 c 0.515,-0.635 0.734,-1.301 0.656,-1.999 -0.071,-0.706 -0.397,-1.301 -0.977,-1.785 -0.572,-0.477 -1.205,-0.688 -1.897,-0.633 -0.687,0.048 -1.318,0.377 -1.894,0.987 z m 2.293,6.66 0.894,0.746 -0.736,0.882 -1.096,-0.914 c -1.137,-0.948 -1.238,-1.982 -0.303,-3.102 l 3.319,-3.982 -0.846,-0.705 0.736,-0.882 0.846,0.705 1.352,-1.621 1.096,0.915 -1.351,1.621 1.692,1.411 -0.735,0.882 -1.693,-1.411 -3.32,3.981 c -0.245,0.294 -0.358,0.55 -0.338,0.769 0.02,0.218 0.181,0.454 0.483,0.705 z m 8.939,-4.286 c -0.262,0.023 -0.497,-0.051 -0.703,-0.223 -0.207,-0.172 -0.322,-0.39 -0.346,-0.652 -0.016,-0.256 0.062,-0.487 0.235,-0.693 0.172,-0.207 0.389,-0.322 0.652,-0.346 0.262,-0.024 0.492,0.047 0.691,0.213 0.207,0.172 0.322,0.389 0.346,0.652 0.023,0.262 -0.051,0.496 -0.223,0.703 -0.172,0.207 -0.39,0.322 -0.652,0.346 z m -7.583,6.913 5.457,-6.544 1.084,0.904 -5.456,6.544 z m 9.416,-3.242 -0.884,1.06 c 1.094,-0.407 2.13,-0.204 3.108,0.611 0.723,0.603 1.125,1.349 1.205,2.238 0.087,0.881 -0.24,1.767 -0.982,2.657 l -3.231,3.874 -1.072,-0.895 3.081,-3.695 c 0.55,-0.66 0.808,-1.293 0.775,-1.899 -0.033,-0.607 -0.331,-1.146 -0.895,-1.616 -0.557,-0.464 -1.14,-0.661 -1.751,-0.591 -0.603,0.077 -1.179,0.445 -1.729,1.104 l -3.081,3.695 -1.085,-0.904 5.457,-6.544 z m 3.548,14.234 c -0.89,-0.742 -1.368,-1.68 -1.434,-2.812 -0.059,-1.141 0.326,-2.208 1.154,-3.201 0.835,-1.002 1.801,-1.563 2.9,-1.685 1.113,-0.122 2.118,0.19 3.016,0.939 0.556,0.464 0.932,0.999 1.126,1.606 0.203,0.614 0.235,1.22 0.099,1.82 l 1.093,-1.311 1.097,0.915 -5.596,6.710004 c -0.749,0.898 -1.648,1.388 -2.699,1.468 -1.057,0.089 -2.031,-0.238 -2.921,-0.98 -0.89,-0.743 -1.457,-1.565 -1.7,-2.469004 -0.236,-0.897 -0.115,-1.712 0.362,-2.446 l 1.061,0.885 c -0.208,0.459 -0.224,0.971 -0.048,1.536 0.176,0.564 0.546,1.081004 1.11,1.552004 0.565,0.47 1.189,0.675 1.874,0.613 0.686,-0.048 1.308,-0.405 1.864,-1.073 l 1.253,-1.502004 c -0.573,0.25 -1.182,0.335 -1.829,0.254 -0.631,-0.082 -1.225,-0.355 -1.782,-0.819 z m 3.084,-0.136 c 0.808,-0.081 1.521,-0.491 2.137,-1.23 0.616,-0.739 0.891,-1.513 0.825,-2.323 -0.058,-0.802 -0.393,-1.459 -1.005,-1.969 -0.604,-0.504 -1.303,-0.723 -2.098,-0.658 -0.787,0.071 -1.488,0.476 -2.105,1.215 -0.616,0.739 -0.898,1.521 -0.845,2.347 0.053,0.825 0.381,1.489 0.985,1.993 0.604,0.504 1.306,0.712 2.106,0.625 z" />
  <path
     style="fill:#353c58"
     id="path18"
     d="m 240.33875,278.51986 c -0.136,-0.369 -0.352,-0.637 -0.645,-0.803 -0.294,-0.167 -0.623,-0.25 -0.986,-0.247 -0.363,0.002 -0.755,0.032 -1.175,0.089 -0.431,0.06 -0.861,0.104 -1.292,0.132 -0.438,0.04 -0.849,0.033 -1.234,-0.023 -0.385,-0.056 -0.744,-0.22 -1.077,-0.494 -0.333,-0.273 -0.596,-0.667 -0.786,-1.181 -0.292,-0.786 -0.245,-1.581 0.14,-2.387 0.386,-0.805 1.092,-1.398 2.121,-1.78 1.018,-0.378 1.934,-0.453 2.747,-0.225 0.816,0.237 1.374,0.759 1.673,1.564 l -1.411,0.524 c -0.208,-0.442 -0.525,-0.744 -0.949,-0.906 -0.434,-0.159 -0.972,-0.12 -1.612,0.118 -0.64,0.238 -1.088,0.592 -1.344,1.062 -0.256,0.47 -0.303,0.923 -0.141,1.36 0.166,0.446 0.394,0.748 0.684,0.905 0.294,0.167 0.622,0.249 0.986,0.247 0.363,-0.003 0.758,-0.039 1.184,-0.109 0.421,-0.057 0.851,-0.101 1.292,-0.132 0.431,-0.028 0.839,-0.014 1.224,0.042 0.389,0.066 0.75,0.235 1.083,0.509 0.337,0.283 0.603,0.687 0.797,1.21 0.317,0.854 0.27,1.65 -0.14,2.387 -0.417,0.75 -1.11,1.306 -2.08,1.666 -0.98,0.364 -1.841,0.424 -2.582,0.18 -0.748,-0.23 -1.313,-0.727 -1.695,-1.49 l 1.469,-0.545 c 0.186,0.383 0.502,0.653 0.946,0.808 0.434,0.159 0.937,0.132 1.509,-0.081 0.563,-0.208 0.97,-0.525 1.221,-0.949 0.254,-0.415 0.279,-0.898 0.073,-1.451 z m -14.958,-0.788 c -0.332,0.741 -0.33,1.563 0.004,2.465 0.335,0.902 0.87,1.526 1.605,1.871 0.726,0.349 1.462,0.384 2.209,0.107 0.737,-0.274 1.275,-0.771 1.614,-1.493 0.33,-0.718 0.327,-1.529 -0.008,-2.431 -0.335,-0.902 -0.873,-1.535 -1.616,-1.9 -0.742,-0.364 -1.482,-0.41 -2.219,-0.136 -0.737,0.274 -1.267,0.779 -1.589,1.517 z m 1.415,-2.744 c 1.086,-0.403 2.137,-0.352 3.153,0.154 1.019,0.516 1.754,1.38 2.204,2.593 0.453,1.222 0.46,2.339 0.019,3.353 -0.446,1.026 -1.218,1.743 -2.314,2.15 -0.679,0.252 -1.33,0.312 -1.953,0.179 -0.633,-0.129 -1.176,-0.402 -1.628,-0.819 l 0.594,1.6 -1.339,0.497 -2.965,-7.988 1.338,-0.497 0.605,1.63 c 0.068,-0.621 0.297,-1.192 0.689,-1.713 0.386,-0.507 0.918,-0.887 1.597,-1.139 z m -6.41,2.529 3.996,10.767 -1.324,0.491 -3.996,-10.767 z m -6.905,2.414 c 1.144,-0.425 2.216,-0.392 3.215,0.098 0.998,0.49 1.728,1.356 2.189,2.597 0.461,1.242 0.466,2.371 0.016,3.388 -0.447,1.027 -1.247,1.754 -2.401,2.183 -1.164,0.432 -2.229,0.419 -3.194,-0.04 -0.971,-0.445 -1.661,-1.221 -2.072,-2.326 -0.104,-0.282 -0.182,-0.551 -0.233,-0.808 l 6.358,-2.36 c -0.334,-0.781 -0.815,-1.32 -1.444,-1.616 -0.635,-0.283 -1.311,-0.291 -2.029,-0.025 -0.543,0.202 -0.954,0.492 -1.233,0.872 -0.288,0.382 -0.446,0.805 -0.473,1.268 l -1.426,0.529 c -0.007,-0.792 0.216,-1.531 0.667,-2.218 0.442,-0.682 1.129,-1.196 2.06,-1.542 z m -0.8,5.561 c 0.294,0.763 0.764,1.284 1.408,1.563 0.648,0.29 1.326,0.303 2.035,0.04 0.698,-0.259 1.195,-0.703 1.492,-1.332 0.3,-0.619 0.328,-1.33 0.085,-2.134 z m -2.281,2.254 c 0.249,0.669 0.181,1.335 -0.203,1.996 -0.389,0.674 -1.026,1.175 -1.908,1.503 -0.893,0.331 -1.676,0.362 -2.349,0.094 -0.67,-0.259 -1.176,-0.773 -1.516,-1.54 l 1.368,-0.508 c 0.185,0.439 0.469,0.742 0.851,0.909 0.382,0.167 0.825,0.157 1.33,-0.03 0.494,-0.183 0.842,-0.45 1.043,-0.801 0.195,-0.337 0.222,-0.695 0.082,-1.073 -0.137,-0.369 -0.403,-0.596 -0.799,-0.681 -0.406,-0.081 -0.854,-0.085 -1.346,-0.013 -0.498,0.085 -0.998,0.15 -1.501,0.193 -0.509,0.056 -0.986,-0.026 -1.433,-0.246 -0.452,-0.208 -0.793,-0.622 -1.024,-1.243 -0.226,-0.611 -0.138,-1.234 0.266,-1.87 0.399,-0.622 1.044,-1.099 1.936,-1.43 0.893,-0.331 1.693,-0.375 2.402,-0.13 0.699,0.248 1.219,0.756 1.559,1.524 l -1.368,0.507 c -0.185,-0.439 -0.473,-0.74 -0.865,-0.904 -0.398,-0.15 -0.854,-0.13 -1.368,0.061 -0.524,0.195 -0.89,0.457 -1.098,0.789 -0.218,0.334 -0.264,0.671 -0.138,1.011 0.13,0.349 0.349,0.582 0.657,0.7 0.309,0.117 0.652,0.149 1.03,0.097 0.378,-0.052 0.795,-0.102 1.252,-0.15 0.447,-0.044 0.867,-0.073 1.259,-0.086 0.396,-0.004 0.766,0.101 1.111,0.316 0.344,0.214 0.601,0.549 0.77,1.005 z" />
</svg>
