<svg width="921" height="903" viewBox="0 0 921 903" fill="none" xmlns="http://www.w3.org/2000/svg">
<path d="M405.725 630.689C533.896 583.111 599.23 440.639 551.653 312.468C504.076 184.296 361.603 118.962 233.432 166.539C105.261 214.117 39.9263 356.589 87.5037 484.76C135.081 612.932 277.554 678.266 405.725 630.689Z" fill="white" fill-opacity="0.6" stroke="#292F47"/>
<path d="M620.371 551.011C748.543 503.433 813.877 360.961 766.3 232.79C718.722 104.618 576.25 39.2839 448.078 86.8613C319.907 134.439 254.573 276.911 302.15 405.082C349.728 533.254 492.2 598.588 620.371 551.011Z" fill="white" fill-opacity="0.6" stroke="#292F47"/>
<path d="M582.282 776.757C710.453 729.18 775.787 586.707 728.21 458.536C680.632 330.365 538.16 265.03 409.989 312.608C281.817 360.185 216.483 502.657 264.06 630.829C311.638 759 454.11 824.334 582.282 776.757Z" fill="white" fill-opacity="0.6" stroke="#292F47"/>
<path d="M405.551 630.22C533.463 582.739 598.666 440.554 551.184 312.642C503.703 184.729 361.518 119.527 233.606 167.008C105.694 214.489 40.4912 356.674 87.9724 484.586C118.583 567.051 188.555 623.451 268.689 640.396C312.852 649.735 360.103 647.09 405.551 630.22Z" fill="white" fill-opacity="0.6"/>
<path d="M547.49 303.276C503.099 293.737 455.555 296.312 409.834 313.283C364.252 330.203 326.634 359.15 299.24 395.19C300.303 398.463 301.438 401.727 302.647 404.983C335.751 494.165 414.892 552.863 503.134 564.141C562.644 498.017 584.316 401.897 551.211 312.715C550.029 309.53 548.788 306.383 547.49 303.276Z" fill="#5CB0FF"/>
<path d="M319.811 380.044C318.371 381.804 316.264 383.218 313.491 384.284C310.771 385.298 307.571 385.804 303.891 385.804H294.611V408.044H283.331V352.204H303.891C310.344 352.204 315.304 353.831 318.771 357.084C322.291 360.284 324.051 364.071 324.051 368.444C324.051 372.818 322.637 376.684 319.811 380.044ZM294.611 377.164H303.891C306.717 377.164 308.877 376.444 310.371 375.004C311.864 373.511 312.611 371.511 312.611 369.004C312.611 366.498 311.864 364.524 310.371 363.084C308.877 361.591 306.717 360.844 303.891 360.844H294.611V377.164ZM343.829 363.724V371.564C346.816 365.911 351.136 363.084 356.789 363.084V374.604H353.989C350.629 374.604 348.096 375.458 346.389 377.164C344.683 378.818 343.829 381.698 343.829 385.804V408.044H332.549V363.724H343.829ZM384.495 399.164C387.642 399.164 390.335 398.018 392.575 395.724C394.868 393.378 396.015 390.098 396.015 385.884C396.015 381.618 394.895 378.338 392.655 376.044C390.415 373.751 387.695 372.604 384.495 372.604C381.348 372.604 378.682 373.751 376.495 376.044C374.308 378.338 373.215 381.618 373.215 385.884C373.215 390.151 374.308 393.431 376.495 395.724C378.682 398.018 381.348 399.164 384.495 399.164ZM368.255 402.364C363.935 398.151 361.775 392.631 361.775 385.804C361.775 378.978 363.962 373.484 368.335 369.324C372.708 365.164 378.122 363.084 384.575 363.084C391.082 363.084 396.522 365.164 400.895 369.324C405.268 373.484 407.455 378.978 407.455 385.804C407.455 392.631 405.242 398.151 400.815 402.364C396.442 406.578 391.002 408.684 384.495 408.684C377.988 408.684 372.575 406.578 368.255 402.364ZM444.618 395.484C446.964 393.138 448.138 389.938 448.138 385.884C448.138 381.831 446.964 378.658 444.618 376.364C442.271 374.018 439.524 372.844 436.378 372.844C433.231 372.844 430.484 373.991 428.138 376.284C425.844 378.578 424.698 381.751 424.698 385.804C424.698 389.858 425.871 393.058 428.218 395.404C430.564 397.751 433.284 398.924 436.378 398.924C439.524 398.924 442.271 397.778 444.618 395.484ZM419.178 402.284C415.231 397.964 413.258 392.471 413.258 385.804C413.258 379.138 415.231 373.698 419.178 369.484C423.124 365.218 428.138 363.084 434.218 363.084C440.298 363.084 444.938 365.591 448.138 370.604V348.844H459.338V408.044H448.138V400.604C444.778 405.991 440.111 408.684 434.138 408.684C428.164 408.684 423.178 406.551 419.178 402.284ZM501.859 363.724H513.139V408.044H501.859V401.324C499.033 406.178 494.419 408.604 488.019 408.604C483.006 408.604 478.899 406.951 475.699 403.644C472.499 400.284 470.899 395.644 470.899 389.724V363.724H482.099V388.124C482.099 391.591 482.979 394.258 484.739 396.124C486.499 397.991 488.899 398.924 491.939 398.924C494.979 398.924 497.379 397.991 499.139 396.124C500.953 394.258 501.859 391.591 501.859 388.124V363.724ZM528.088 402.444C524.034 398.284 522.008 392.764 522.008 385.884C522.008 379.004 524.034 373.484 528.088 369.324C532.141 365.164 537.394 363.084 543.848 363.084C549.234 363.084 553.741 364.391 557.368 367.004C560.994 369.618 563.421 373.324 564.648 378.124H552.488C551.048 374.444 548.168 372.604 543.848 372.604C540.594 372.604 538.034 373.804 536.168 376.204C534.354 378.551 533.448 381.778 533.448 385.884C533.448 389.991 534.354 393.244 536.168 395.644C538.034 397.991 540.594 399.164 543.848 399.164C548.114 399.164 550.994 397.298 552.488 393.564H564.648C563.368 398.204 560.888 401.884 557.208 404.604C553.581 407.324 549.128 408.684 543.848 408.684C537.394 408.684 532.141 406.604 528.088 402.444ZM590.296 398.604H595.656V408.044H588.536C584.003 408.044 580.51 407.004 578.056 404.924C575.603 402.844 574.376 399.404 574.376 394.604V372.924H569.656V363.724H574.376V352.764H585.656V363.724H595.576V372.924H585.656V394.604C585.656 396.044 586.003 397.084 586.696 397.724C587.39 398.311 588.59 398.604 590.296 398.604ZM294.094 433.204V489.044H282.894V453.764L267.694 489.044H259.614L244.494 453.924V489.044H233.214V433.204H245.774L263.694 474.564L281.614 433.204H294.094ZM334.344 476.484C336.691 474.138 337.864 470.938 337.864 466.884C337.864 462.831 336.691 459.658 334.344 457.364C331.997 455.018 329.251 453.844 326.104 453.844C322.957 453.844 320.211 454.991 317.864 457.284C315.571 459.578 314.424 462.751 314.424 466.804C314.424 470.858 315.597 474.058 317.944 476.404C320.291 478.751 323.011 479.924 326.104 479.924C329.251 479.924 331.997 478.778 334.344 476.484ZM308.904 483.284C304.957 478.964 302.984 473.471 302.984 466.804C302.984 460.138 304.957 454.698 308.904 450.484C312.851 446.218 317.864 444.084 323.944 444.084C330.024 444.084 334.664 446.591 337.864 451.604V444.724H349.064V489.044H337.864V481.604C334.504 486.991 329.837 489.684 323.864 489.684C317.891 489.684 312.904 487.551 308.904 483.284ZM372.306 444.724V452.564C375.293 446.911 379.613 444.084 385.266 444.084V455.604H382.466C379.106 455.604 376.573 456.458 374.866 458.164C373.159 459.818 372.306 462.698 372.306 466.804V489.044H361.026V444.724H372.306ZM404.572 489.044H393.292V429.844H404.572V463.684L419.532 444.724H434.812L415.132 467.124L434.812 489.044H419.772L404.572 470.564V489.044ZM459.98 489.684C453.527 489.684 448.274 487.604 444.22 483.444C440.167 479.231 438.14 473.684 438.14 466.804C438.14 459.924 440.167 454.431 444.22 450.324C448.327 446.164 453.607 444.084 460.06 444.084C466.567 444.084 471.9 446.111 476.06 450.164C480.22 454.164 482.3 459.524 482.3 466.244C482.3 467.791 482.194 469.231 481.98 470.564H449.66C449.927 473.444 450.994 475.764 452.86 477.524C454.727 479.284 457.1 480.164 459.98 480.164C463.874 480.164 466.754 478.564 468.62 475.364H480.78C479.5 479.578 477.02 483.018 473.34 485.684C469.66 488.351 465.207 489.684 459.98 489.684ZM470.62 463.284C470.46 460.351 469.367 458.004 467.34 456.244C465.367 454.484 462.967 453.604 460.14 453.604C457.314 453.604 454.94 454.484 453.02 456.244C451.154 458.004 450.034 460.351 449.66 463.284H470.62ZM508.382 479.604H513.742V489.044H506.622C502.089 489.044 498.596 488.004 496.142 485.924C493.689 483.844 492.462 480.404 492.462 475.604V453.924H487.742V444.724H492.462V433.764H503.742V444.724H513.662V453.924H503.742V475.604C503.742 477.044 504.089 478.084 504.782 478.724C505.476 479.311 506.676 479.604 508.382 479.604ZM534.99 433.444C534.99 435.364 534.324 436.991 532.99 438.324C531.657 439.658 530.03 440.324 528.11 440.324C526.244 440.324 524.644 439.658 523.31 438.324C521.977 436.991 521.31 435.364 521.31 433.444C521.31 431.524 521.977 429.898 523.31 428.564C524.644 427.231 526.244 426.564 528.11 426.564C530.03 426.564 531.657 427.231 532.99 428.564C534.324 429.898 534.99 431.524 534.99 433.444ZM522.51 489.044V444.724H533.79V489.044H522.51ZM557.072 444.724V451.364C559.898 446.511 564.485 444.084 570.832 444.084C575.898 444.084 580.032 445.764 583.232 449.124C586.432 452.431 588.032 457.044 588.032 462.964V489.044H576.832V464.564C576.832 461.098 575.952 458.458 574.192 456.644C572.432 454.778 570.032 453.844 566.992 453.844C563.952 453.844 561.525 454.778 559.712 456.644C557.952 458.458 557.072 461.098 557.072 464.564V489.044H545.792V444.724H557.072ZM602.42 483.284C598.473 478.964 596.5 473.471 596.5 466.804C596.5 460.138 598.473 454.698 602.42 450.484C606.366 446.218 611.38 444.084 617.46 444.084C623.54 444.084 628.18 446.591 631.38 451.604V444.724H642.58V489.364C642.58 495.711 640.713 500.884 636.98 504.884C633.246 508.938 627.993 510.964 621.22 510.964C614.5 510.964 609.14 509.551 605.14 506.724C601.193 503.951 598.953 499.978 598.42 494.804H609.46C610.153 496.778 611.486 498.324 613.46 499.444C615.433 500.618 617.913 501.204 620.9 501.204C623.886 501.204 626.366 500.218 628.34 498.244C630.366 496.271 631.38 493.311 631.38 489.364V481.604C628.02 486.991 623.353 489.684 617.38 489.684C611.406 489.684 606.42 487.551 602.42 483.284ZM627.86 476.484C630.206 474.138 631.38 470.938 631.38 466.884C631.38 462.831 630.206 459.658 627.86 457.364C625.513 455.018 622.766 453.844 619.62 453.844C616.473 453.844 613.726 454.991 611.38 457.284C609.086 459.578 607.94 462.751 607.94 466.804C607.94 470.858 609.113 474.058 611.46 476.404C613.806 478.751 616.526 479.924 619.62 479.924C622.766 479.924 625.513 478.778 627.86 476.484Z" fill="#292F47"/>
<path d="M170.017 406.658C170.239 405.272 170.746 404.271 171.537 403.657C172.33 403.03 173.254 402.802 174.308 402.971C175.363 403.14 176.177 403.635 176.75 404.456C177.314 405.263 177.48 406.384 177.251 407.817L176.869 410.199L181.952 411.013L181.693 412.631L169.376 410.657L170.017 406.658ZM175.589 409.994L175.971 407.612C176.113 406.724 176.017 406.034 175.683 405.543C175.338 405.038 174.799 404.726 174.064 404.609C172.512 404.36 171.595 405.112 171.314 406.866L170.933 409.248L175.589 409.994ZM173.841 399.175L175.494 399.44C174.379 398.665 173.933 397.579 174.157 396.181L175.845 396.451L175.777 396.878C175.644 397.707 175.762 398.377 176.13 398.885C176.488 399.38 177.2 399.713 178.267 399.884L183.599 400.738L183.34 402.356L173.582 400.792L173.841 399.175ZM183.881 391.465C184.028 390.553 183.828 389.713 183.283 388.945C182.727 388.163 181.869 387.679 180.708 387.493C179.547 387.307 178.589 387.482 177.835 388.017C177.081 388.552 176.629 389.282 176.481 390.207C176.335 391.119 176.539 391.935 177.091 392.656C177.644 393.376 178.507 393.831 179.68 394.019C180.842 394.205 181.796 394.054 182.542 393.566C183.289 393.078 183.735 392.378 183.881 391.465ZM183.273 394.922C182.206 395.663 180.92 395.913 179.416 395.672C177.911 395.43 176.771 394.768 175.997 393.684C175.211 392.598 174.931 391.35 175.157 389.94C175.383 388.53 176.039 387.432 177.125 386.645C178.199 385.858 179.489 385.584 180.993 385.825C182.486 386.064 183.622 386.751 184.401 387.884C185.169 389.004 185.44 390.269 185.214 391.679C184.988 393.089 184.341 394.17 183.273 394.922ZM185.028 377.597C184.469 376.839 183.638 376.372 182.536 376.195C181.435 376.018 180.5 376.203 179.732 376.748C178.966 377.282 178.509 378.005 178.363 378.917C178.219 379.818 178.414 380.645 178.95 381.399C179.487 382.141 180.307 382.601 181.409 382.778C182.511 382.954 183.458 382.772 184.249 382.23C185.041 381.688 185.509 380.967 185.653 380.067C185.797 379.166 185.589 378.343 185.028 377.597ZM186.991 380.591C186.778 381.918 186.127 382.95 185.037 383.687C183.934 384.422 182.643 384.671 181.162 384.433C179.669 384.194 178.536 383.563 177.764 382.54C176.983 381.503 176.699 380.315 176.914 378.976C177.046 378.147 177.358 377.456 177.848 376.902C178.339 376.337 178.925 375.944 179.604 375.725L174.254 374.868L174.516 373.233L187.668 375.34L187.406 376.975L185.416 376.656C186.004 377.079 186.45 377.636 186.752 378.329C187.044 379.008 187.124 379.762 186.991 380.591ZM179.44 364.234L179.699 362.616L189.457 364.18L189.197 365.797L187.633 365.547C188.678 366.383 189.083 367.535 188.848 369.004C188.675 370.083 188.175 370.926 187.348 371.535C186.51 372.142 185.433 372.34 184.118 372.129L178.324 371.201L178.58 369.601L184.107 370.487C185.079 370.643 185.863 370.525 186.461 370.135C187.048 369.731 187.408 369.114 187.541 368.285C187.674 367.455 187.524 366.763 187.09 366.207C186.647 365.638 185.939 365.275 184.967 365.12L179.44 364.234ZM190.699 357.453C190.475 358.851 189.83 359.915 188.765 360.643C187.701 361.372 186.416 361.616 184.911 361.375C183.395 361.132 182.244 360.498 181.461 359.473C180.677 358.448 180.397 357.236 180.621 355.838C180.809 354.665 181.234 353.755 181.897 353.108C182.562 352.449 183.421 352.052 184.476 351.917L184.197 353.659C183.598 353.757 183.101 354.012 182.707 354.422C182.313 354.833 182.062 355.376 181.954 356.052C181.806 356.976 182.012 357.775 182.573 358.448C183.123 359.107 183.991 359.532 185.176 359.722C186.349 359.91 187.306 359.778 188.047 359.325C188.778 358.859 189.217 358.164 189.366 357.239C189.588 355.853 189.127 354.862 187.983 354.265L188.262 352.523C189.174 352.973 189.854 353.623 190.301 354.473C190.75 355.31 190.883 356.304 190.699 357.453ZM190.789 347.448L191.002 346.115L192.317 346.326L192.055 347.961C191.784 349.656 190.813 350.369 189.142 350.101L183.206 349.15L183.004 350.412L181.688 350.201L181.891 348.939L179.473 348.552L179.735 346.917L182.153 347.304L182.557 344.78L183.872 344.991L183.468 347.515L189.404 348.466C189.843 348.536 190.165 348.497 190.371 348.348C190.577 348.198 190.716 347.899 190.789 347.448Z" fill="#353C58"/>
<path d="M597.179 192.845L589.191 202.425L587.919 201.365L593.74 194.384L584.712 198.691L583.896 198.01L586.496 188.343L580.675 195.325L579.417 194.276L587.405 184.695L588.691 185.767L585.752 196.628L595.894 191.773L597.179 192.845ZM597.868 206.731C598.805 206.638 599.631 206.162 600.346 205.305C601.06 204.448 601.379 203.55 601.303 202.612C601.236 201.68 600.847 200.919 600.137 200.327C599.437 199.743 598.626 199.489 597.704 199.564C596.791 199.646 595.978 200.116 595.263 200.973C594.548 201.83 594.221 202.738 594.283 203.695C594.344 204.652 594.725 205.423 595.425 206.007C596.125 206.591 596.94 206.832 597.868 206.731ZM594.291 206.889C593.259 206.028 592.704 204.941 592.628 203.628C592.559 202.305 593.005 201.067 593.966 199.915C594.934 198.754 596.055 198.103 597.329 197.962C598.619 197.819 599.785 198.182 600.827 199.051C601.472 199.589 601.907 200.209 602.133 200.913C602.368 201.625 602.406 202.328 602.248 203.024L603.516 201.504L604.788 202.564L598.459 210.154L597.187 209.093L598.478 207.545C597.814 207.835 597.108 207.933 596.358 207.839C595.625 207.744 594.936 207.427 594.291 206.889ZM608.118 205.341L607.046 206.627C608.282 206.064 609.443 206.235 610.531 207.142L609.435 208.455L609.104 208.179C608.459 207.641 607.823 207.4 607.198 207.457C606.59 207.512 605.939 207.954 605.248 208.784L601.79 212.931L600.532 211.882L606.86 204.292L608.118 205.341ZM606.879 217.175L605.621 216.126L614.152 205.896L615.41 206.945L610.407 212.945L616.111 212.006L617.881 213.482L611.153 214.27L611.552 221.071L609.851 219.653L609.657 213.843L606.879 217.175ZM615.785 224.812C614.697 223.905 614.112 222.808 614.03 221.52C613.947 220.233 614.398 218.999 615.381 217.819C616.365 216.64 617.498 215.983 618.781 215.85C620.072 215.708 621.266 216.094 622.362 217.008C623.468 217.93 624.069 219.009 624.164 220.244C624.275 221.478 623.893 222.62 623.017 223.671C622.794 223.938 622.568 224.172 622.339 224.371L616.298 219.334C615.705 220.12 615.44 220.915 615.505 221.719C615.586 222.521 615.967 223.206 616.649 223.775C617.165 224.205 617.695 224.451 618.237 224.513C618.789 224.582 619.305 224.497 619.786 224.258L621.141 225.387C620.348 225.851 619.476 226.054 618.525 225.995C617.583 225.944 616.67 225.55 615.785 224.812ZM621.842 222.41C622.44 221.674 622.694 220.901 622.603 220.092C622.521 219.273 622.143 218.583 621.47 218.022C620.807 217.469 620.073 217.224 619.269 217.288C618.474 217.343 617.741 217.725 617.073 218.433L621.842 222.41ZM624.502 230.135L625.538 231L624.685 232.023L623.414 230.962C622.096 229.863 621.978 228.664 623.062 227.365L626.912 222.747L625.931 221.929L626.784 220.906L627.765 221.724L629.333 219.844L630.605 220.905L629.037 222.785L631 224.422L630.147 225.445L628.184 223.808L624.334 228.425C624.05 228.766 623.919 229.063 623.942 229.317C623.965 229.57 624.151 229.843 624.502 230.135ZM634.869 225.163C634.565 225.191 634.293 225.105 634.053 224.905C633.814 224.705 633.68 224.453 633.653 224.149C633.634 223.852 633.725 223.584 633.925 223.345C634.125 223.105 634.377 222.972 634.681 222.944C634.985 222.916 635.252 222.999 635.483 223.191C635.722 223.391 635.856 223.643 635.884 223.947C635.911 224.251 635.825 224.523 635.625 224.763C635.425 225.002 635.173 225.136 634.869 225.163ZM626.074 233.181L632.403 225.591L633.661 226.64L627.332 234.23L626.074 233.181ZM636.996 229.421L635.97 230.651C637.239 230.178 638.44 230.415 639.574 231.36C640.413 232.059 640.879 232.924 640.972 233.955C641.073 234.977 640.693 236.004 639.833 237.036L636.086 241.529L634.842 240.492L638.416 236.206C639.053 235.441 639.353 234.707 639.315 234.003C639.277 233.3 638.931 232.675 638.276 232.129C637.631 231.591 636.954 231.363 636.246 231.444C635.547 231.533 634.878 231.96 634.241 232.725L630.667 237.011L629.409 235.962L635.738 228.372L636.996 229.421ZM641.11 245.93C640.078 245.069 639.524 243.982 639.447 242.668C639.379 241.345 639.825 240.108 640.785 238.956C641.754 237.794 642.875 237.143 644.148 237.002C645.439 236.86 646.605 237.223 647.646 238.091C648.292 238.629 648.727 239.25 648.953 239.954C649.188 240.665 649.226 241.369 649.067 242.065L650.335 240.544L651.607 241.605L645.117 249.388C644.249 250.429 643.205 250.997 641.987 251.09C640.761 251.193 639.632 250.814 638.599 249.953C637.567 249.092 636.91 248.138 636.627 247.09C636.354 246.05 636.494 245.104 637.048 244.253L638.278 245.279C638.037 245.812 638.018 246.406 638.222 247.06C638.426 247.715 638.856 248.315 639.51 248.861C640.164 249.406 640.889 249.643 641.683 249.571C642.479 249.516 643.2 249.102 643.845 248.327L645.298 246.585C644.634 246.876 643.927 246.974 643.177 246.88C642.444 246.784 641.755 246.468 641.11 245.93ZM644.687 245.772C645.624 245.678 646.45 245.203 647.165 244.346C647.88 243.489 648.199 242.591 648.122 241.652C648.055 240.721 647.667 239.96 646.957 239.368C646.257 238.784 645.445 238.529 644.523 238.604C643.611 238.687 642.797 239.157 642.082 240.014C641.368 240.871 641.041 241.778 641.102 242.735C641.163 243.693 641.544 244.463 642.245 245.047C642.945 245.631 643.759 245.873 644.687 245.772Z" fill="#353C58"/>
<path d="M565.788 673.043C565.629 672.616 565.379 672.305 565.039 672.112C564.698 671.918 564.317 671.823 563.896 671.826C563.474 671.828 563.02 671.863 562.532 671.928C562.034 671.998 561.534 672.049 561.034 672.081C560.527 672.129 560.05 672.12 559.604 672.056C559.157 671.991 558.741 671.8 558.354 671.483C557.967 671.165 557.664 670.709 557.442 670.112C557.104 669.201 557.158 668.278 557.605 667.345C558.052 666.411 558.872 665.722 560.064 665.28C561.246 664.841 562.308 664.754 563.251 665.019C564.198 665.294 564.845 665.899 565.191 666.833L563.554 667.44C563.313 666.928 562.946 666.578 562.454 666.389C561.95 666.205 561.327 666.251 560.585 666.527C559.842 666.802 559.323 667.213 559.026 667.758C558.729 668.303 558.675 668.829 558.863 669.335C559.055 669.853 559.319 670.203 559.655 670.385C559.996 670.579 560.377 670.674 560.798 670.671C561.22 670.668 561.678 670.626 562.172 670.545C562.66 670.479 563.16 670.428 563.671 670.392C564.171 670.36 564.644 670.376 565.091 670.441C565.541 670.517 565.96 670.714 566.346 671.031C566.737 671.36 567.045 671.828 567.271 672.435C567.638 673.425 567.584 674.348 567.108 675.203C566.625 676.073 565.82 676.717 564.695 677.135C563.559 677.557 562.561 677.627 561.701 677.344C560.834 677.077 560.179 676.501 559.735 675.616L561.439 674.984C561.656 675.428 562.021 675.741 562.536 675.921C563.039 676.105 563.623 676.074 564.287 675.828C564.939 675.585 565.411 675.218 565.702 674.726C565.997 674.245 566.026 673.684 565.788 673.043ZM548.439 672.129C548.054 672.989 548.056 673.942 548.444 674.988C548.833 676.035 549.453 676.758 550.306 677.158C551.147 677.563 552.001 677.604 552.867 677.283C553.722 676.965 554.346 676.388 554.739 675.551C555.121 674.718 555.118 673.778 554.73 672.732C554.341 671.686 553.717 670.951 552.856 670.528C551.995 670.105 551.137 670.053 550.282 670.37C549.427 670.688 548.813 671.274 548.439 672.129ZM550.08 668.947C551.34 668.48 552.559 668.539 553.737 669.126C554.919 669.724 555.771 670.726 556.293 672.132C556.819 673.55 556.827 674.846 556.316 676.022C555.798 677.212 554.903 678.044 553.632 678.515C552.844 678.808 552.089 678.877 551.366 678.723C550.632 678.573 550.003 678.256 549.478 677.773L550.167 679.629L548.614 680.205L545.175 670.941L546.728 670.365L547.429 672.255C547.508 671.534 547.774 670.872 548.228 670.268C548.675 669.68 549.293 669.24 550.08 668.947ZM542.645 671.88L547.281 684.367L545.745 684.937L541.11 672.45L542.645 671.88ZM534.637 674.68C535.965 674.187 537.208 674.225 538.366 674.793C539.524 675.362 540.371 676.366 540.905 677.806C541.44 679.246 541.446 680.556 540.924 681.735C540.406 682.926 539.477 683.77 538.138 684.267C536.788 684.768 535.554 684.752 534.435 684.221C533.309 683.704 532.508 682.805 532.032 681.522C531.911 681.196 531.82 680.884 531.761 680.586L539.135 677.849C538.748 676.943 538.19 676.318 537.46 675.974C536.724 675.646 535.94 675.636 535.107 675.945C534.477 676.179 534.001 676.516 533.678 676.956C533.343 677.4 533.16 677.89 533.129 678.427L531.475 679.041C531.467 678.122 531.725 677.265 532.249 676.469C532.761 675.677 533.557 675.081 534.637 674.68ZM533.71 681.13C534.051 682.014 534.595 682.619 535.343 682.943C536.095 683.278 536.881 683.293 537.702 682.989C538.512 682.688 539.089 682.173 539.433 681.444C539.781 680.726 539.814 679.901 539.532 678.969L533.71 681.13ZM531.064 683.744C531.353 684.52 531.274 685.291 530.829 686.058C530.377 686.84 529.639 687.422 528.615 687.802C527.58 688.186 526.672 688.222 525.891 687.91C525.114 687.61 524.528 687.015 524.134 686.124L525.72 685.536C525.935 686.045 526.263 686.396 526.707 686.59C527.15 686.784 527.664 686.772 528.249 686.555C528.823 686.342 529.226 686.033 529.459 685.626C529.685 685.235 529.717 684.82 529.554 684.381C529.395 683.954 529.086 683.691 528.627 683.592C528.157 683.498 527.637 683.493 527.066 683.577C526.489 683.676 525.908 683.75 525.325 683.8C524.735 683.866 524.182 683.771 523.664 683.515C523.14 683.274 522.744 682.794 522.477 682.074C522.213 681.365 522.316 680.642 522.785 679.905C523.247 679.183 523.995 678.63 525.03 678.246C526.065 677.862 526.994 677.812 527.816 678.095C528.627 678.383 529.229 678.972 529.624 679.863L528.037 680.451C527.823 679.942 527.488 679.593 527.034 679.403C526.572 679.229 526.044 679.252 525.447 679.474C524.84 679.699 524.415 680.004 524.174 680.388C523.921 680.776 523.868 681.167 524.014 681.561C524.164 681.966 524.418 682.236 524.776 682.372C525.134 682.508 525.532 682.546 525.97 682.486C526.409 682.426 526.893 682.367 527.422 682.312C527.941 682.26 528.428 682.227 528.883 682.211C529.342 682.207 529.771 682.329 530.171 682.578C530.57 682.826 530.868 683.215 531.064 683.744Z" fill="#353C58"/>
</svg>
