<svg width="709" height="347" viewBox="0 0 709 347" fill="none" xmlns="http://www.w3.org/2000/svg">
<path d="M356.308 14.0563L357.438 2.75617L338.229 0.863558L330.896 76.308L350.105 78.2006L354.228 36.5031C354.791 30.5943 356.765 26.227 360.12 23.4014C363.445 20.5759 367.725 19.4172 372.9 19.9255C378.075 20.4339 382.015 22.4125 384.687 25.8314C387.36 29.2502 388.43 33.9291 387.836 39.8381L383.713 81.5356L402.77 83.4294L406.893 41.7318C407.456 35.8231 409.43 31.4557 412.785 28.6301C416.11 25.8047 420.39 24.6459 425.565 25.1543C430.74 25.6626 434.679 27.6413 437.352 31.0601C440.024 34.4789 441.094 39.1578 440.501 45.0668L436.378 86.7643L455.434 88.6581L459.81 44.2195C460.797 34.0465 458.849 25.8742 453.904 19.7031C448.96 13.532 441.997 9.99378 433.017 9.1188C427.294 8.55376 422.007 9.38541 417.158 11.6746C412.308 13.9334 408.318 17.3118 405.219 21.779C403.233 16.6201 400.129 12.5046 395.908 9.43237C391.657 6.36039 386.684 4.54177 380.961 3.97673C370.154 2.90263 361.936 6.25236 356.308 14.0563Z" fill="#353C58"/>
<path d="M284.927 14.9663L288.16 27.9984C290.786 17.3869 296.82 10.8885 306.202 8.59514L310.941 27.7333L306.296 28.8948C300.71 30.2766 296.865 32.7104 294.701 36.1965C292.568 39.6824 292.334 44.8582 293.998 51.6631L303.132 88.6333L284.399 93.2806L266.194 19.6137L284.927 14.9663Z" fill="#353C58"/>
<path fill-rule="evenodd" clip-rule="evenodd" d="M187.267 97.4296C192.76 107.766 200.476 114.373 210.384 117.249C220.323 120.126 230.17 118.955 239.956 113.767C249.772 108.549 256.315 100.981 259.585 91.0647C262.856 81.1482 261.744 71.0217 256.251 60.7156C250.788 50.3788 243.042 43.8639 233.104 41.0788C223.166 38.2936 213.29 39.5255 203.504 44.7438C193.719 49.962 187.205 57.4684 183.934 67.2631C180.663 77.0579 181.774 87.1235 187.267 97.4296ZM241.824 87.548C240.283 92.8859 237.119 96.8058 232.362 99.3378C227.606 101.87 222.651 102.303 217.527 100.577C212.374 98.8816 208.084 94.8055 204.658 88.3489C201.232 81.8923 200.245 76.0563 201.696 70.8407C203.146 65.6252 206.28 61.736 211.067 59.1733C215.853 56.6107 220.869 56.1768 226.084 57.8414C231.328 59.5057 235.648 63.5511 239.043 69.9471C242.469 76.3428 243.396 82.2098 241.824 87.548Z" fill="#353C58"/>
<path d="M153.989 77.505L164.361 89.3566L155.296 97.3085L194.882 142.538L180.468 155.157L140.852 109.928L134.657 115.332L124.285 103.48L130.48 98.0761L127.687 94.8713C121.673 88.0083 119.098 81.3931 119.992 75.0557C120.887 68.7183 125.217 62.1112 133.043 55.2644L143.691 67.4182C140.67 70.0587 139.046 72.5059 138.85 74.7596C138.624 77.0136 139.738 79.5008 142.131 82.2521L144.924 85.457L153.989 77.505Z" fill="#353C58"/>
<path d="M109.572 140.328L99.1346 131.885L87.0207 146.891L145.972 194.59L158.116 179.584L128.518 155.644C123.04 151.243 120.117 146.973 119.721 142.898C119.325 138.823 120.935 134.55 124.551 130.078L127.565 126.342L112.23 113.95C106.143 121.484 105.267 130.256 109.572 140.328Z" fill="#353C58"/>
<path fill-rule="evenodd" clip-rule="evenodd" d="M123.327 236.734C118.628 246.722 111.56 253.35 102.124 256.557C92.6887 259.794 82.6435 258.897 71.9889 253.865C61.3343 248.833 54.3137 241.674 50.8658 232.326C47.4487 223.008 48.1046 213.295 52.804 203.276C57.5335 193.227 64.5088 186.477 73.7902 182.967C83.0717 179.457 92.9023 180.143 103.282 185.056C105.664 186.194 107.833 187.395 109.728 188.689L86.1705 238.752C90.8072 240.452 95.1878 240.479 99.282 238.865C103.376 237.252 106.456 234.215 108.551 229.755C111.395 223.738 111.017 218.11 107.419 212.872L116.279 194.026C121.853 199.066 125.4 205.431 126.828 213.09C128.316 220.778 127.129 228.64 123.327 236.734ZM76.969 200.9C72.7851 202.728 69.6753 205.795 67.61 210.193C65.5444 214.562 65.1817 218.856 66.5219 223.076C67.8621 227.296 70.6872 230.775 74.9361 233.482L90.2021 201.012C85.564 199.13 81.1529 199.073 76.969 200.9Z" fill="#353C58"/>
<path fill-rule="evenodd" clip-rule="evenodd" d="M57.1066 272.97C59.7141 275.841 61.5691 279.754 62.6105 284.676C63.6823 289.598 63.7552 295.168 62.7988 301.384L60.4548 317.106L98.0956 322.724L95.2299 341.828L0.762247 327.697L5.97218 292.9C7.59219 281.961 11.6073 273.956 17.9259 268.856C24.2446 263.755 31.1344 261.755 38.5347 262.855C45.9349 263.955 52.1358 267.347 57.1066 272.97ZM45.8673 314.904L48.2113 299.182C48.9353 294.398 48.2369 290.568 46.1158 287.663C44.0251 284.757 40.848 282.986 36.5845 282.349C32.3514 281.711 28.7981 282.469 25.9247 284.621C23.0514 286.774 21.2832 290.257 20.5592 295.041L18.2153 310.763L45.8673 314.904Z" fill="#353C58"/>
<path fill-rule="evenodd" clip-rule="evenodd" d="M473.982 91.0127C471.627 81.2914 473.224 71.4181 478.806 61.4536C484.358 51.4893 491.852 44.9798 501.289 41.9556C510.726 38.9009 519.981 39.926 529.055 45.0003C538.128 50.0747 542.962 57.7075 543.587 67.8682L549.319 57.5981L566.059 66.9358L529.088 133.171L512.348 123.834L518.56 112.708C509.048 117.954 499.832 118.086 490.912 113.101C481.991 108.087 476.338 100.734 473.982 91.0127ZM517.626 102.032C523.06 100.53 527.472 96.7526 530.863 90.6701C534.254 84.618 535.153 78.8588 533.591 73.4532C532.029 68.0172 528.895 63.9932 524.191 61.3812C519.486 58.7388 514.463 58.1989 509.06 59.6706C503.656 61.1422 499.305 64.9494 495.914 71.0015C492.522 77.0536 491.623 82.8128 493.156 88.2794C494.718 93.7459 497.821 97.7701 502.465 100.383C507.109 102.995 512.163 103.565 517.626 102.032Z" fill="#353C58"/>
<path d="M600.325 112.358L608.692 104.655L595.595 90.4195L539.803 141.825L552.87 156.029L583.681 127.642C588.03 123.621 592.426 121.67 596.808 121.789C601.219 121.877 605.158 123.856 608.686 127.694C612.213 131.502 613.826 135.599 613.555 139.953C613.284 144.307 610.943 148.495 606.593 152.515L575.783 180.903L588.758 195.017L621.592 164.788C629.054 157.944 633.013 150.548 633.5 142.662C633.987 134.745 631.286 127.613 625.428 121.236C618.066 113.257 609.709 110.277 600.325 112.358Z" fill="#353C58"/>
<path d="M606.396 206.966C609.823 197.626 616.856 190.42 627.464 185.348C638.072 180.276 648.103 179.316 657.527 182.532C666.951 185.716 674.028 192.297 678.788 202.274C682.776 210.583 684.053 218.517 682.711 226.045C681.339 233.573 677.434 240.055 670.905 245.492L661.94 226.72C666.557 221.785 667.273 215.967 664.089 209.295C661.677 204.261 657.974 201.215 652.946 200.128C647.919 199.04 642.238 199.996 635.903 203.027C629.569 206.058 625.248 209.865 622.941 214.448C620.633 219.031 620.67 223.84 623.081 228.874C626.234 235.454 631.246 238.52 638.087 238.072L647.052 256.843C638.941 258.305 631.45 257.206 624.547 253.576C617.645 249.946 612.246 244.052 608.351 235.895C603.621 225.948 602.969 216.305 606.396 206.966Z" fill="#353C58"/>
<path fill-rule="evenodd" clip-rule="evenodd" d="M636.912 279.229C630.919 287.188 628.801 296.639 630.527 307.552C631.933 316.398 635.364 323.555 640.851 329.052C646.368 334.549 652.842 337.817 660.303 338.856L657.043 318.307C651.124 316.008 647.653 311.591 646.599 304.995C645.832 300.131 646.682 295.894 649.148 292.253C651.615 288.613 655.246 286.181 660.043 284.957L668.734 339.614C671.046 339.596 673.509 339.395 676.121 338.979C687.484 337.157 695.994 332.192 701.681 324.084C707.369 315.975 709.364 306.433 707.608 295.49C705.882 284.516 700.951 276.153 692.876 270.371C684.801 264.589 674.961 262.625 663.325 264.479C651.688 266.333 642.904 271.24 636.912 279.229ZM691.536 298.108C692.303 302.881 691.454 307.209 689.019 311.063C686.584 314.916 682.892 317.379 678.003 318.421L672.378 282.976C677.427 282.816 681.695 284.122 685.184 286.835C688.642 289.578 690.77 293.336 691.536 298.108Z" fill="#353C58"/>
<ellipse cx="368.5" cy="311.5" rx="27.5" ry="26.5" fill="#359BFA"/>
<path d="M368.426 312.655L653.374 221.297" stroke="#359BFA" stroke-width="4" stroke-linecap="round"/>
<path d="M136.943 345.46L115 344.709M149.264 286.141L128.28 279.849M173.841 234.066L155.119 222.647M210.089 188.734L194.846 172.906M256.579 154.045L245.852 134.888M309.323 131.297L303.807 110.07M366.825 124.008L366.854 102M429.877 110.218L424.292 131.455M488.756 134.18L477.978 153.308M539.65 172.321L524.363 188.117M579.232 222.16L560.474 233.541M604.908 280.422L583.915 286.66M619 345.305L597.06 346M141.558 314.842L119.886 311.419M158.795 260.077L138.74 251.273M189.683 211.301L172.47 197.664M231.15 170.719L217.947 153.144M280.505 140.95L272.198 120.641M336.5 125.978L333.604 104.197M397.162 103.893L394.453 125.715M458.71 119.755L450.595 140.136M514.232 150.728L501.197 168.417M560.11 194.809L543.016 208.622M593.334 249.107L573.352 258.103M613.726 310.076L592.117 313.706" stroke="black" stroke-miterlimit="10"/>
</svg>
