<svg width="457" height="475" viewBox="0 0 457 475" fill="none" xmlns="http://www.w3.org/2000/svg">
<path fill-rule="evenodd" clip-rule="evenodd" d="M348.931 230.271H87.5859V325.364H87.5869C87.5863 325.472 87.586 325.579 87.586 325.687C87.586 373.74 146.09 412.695 218.259 412.695C290.427 412.695 348.931 373.74 348.931 325.687C348.931 325.579 348.931 325.472 348.93 325.364H348.931V230.271Z" fill="url(#paint0_radial)"/>
<path opacity="0.14" d="M238.742 103.67L457 248.631L246.558 388.4C241.822 391.546 235.662 391.546 230.926 388.4L20.4841 248.631L238.742 103.67Z" fill="#292F47"/>
<path d="M218.258 73.2974L436.516 218.258L226.074 358.028C221.338 361.173 215.178 361.173 210.442 358.028L-0.000311779 218.258L218.258 73.2974Z" fill="white"/>
<path d="M223.529 219.401C224.822 218.5 226.537 218.487 227.844 219.368L330.5 288.599L323.789 293.276L223.578 225.694C221.356 224.195 221.331 220.933 223.529 219.401Z" fill="#51ABFF"/>
<path d="M329.062 442.463C329.962 441.836 330.499 440.808 330.499 439.71L330.499 288.6L323.788 293.277L323.788 439.71C323.788 442.422 326.837 444.013 329.062 442.463Z" fill="#287DCD"/>
<path d="M319.971 355.641C319.971 351.545 323.291 348.225 327.387 348.225C331.483 348.225 334.804 351.545 334.804 355.641V474.659H319.971V355.641Z" fill="#287DCD"/>
<defs>
<radialGradient id="paint0_radial" cx="0" cy="0" r="1" gradientUnits="userSpaceOnUse" gradientTransform="translate(218.259 96.4152) rotate(90) scale(316.086 284.088)">
<stop stop-color="#292F47" stop-opacity="0"/>
<stop offset="1" stop-color="white"/>
</radialGradient>
</defs>
</svg>
