<?xml version="1.0" encoding="UTF-8"?>
<svg width="10px" height="13px" viewBox="0 0 10 13" version="1.1" xmlns="http://www.w3.org/2000/svg" xmlns:xlink="http://www.w3.org/1999/xlink">
    <!-- Generator: Sketch 48.2 (47327) - http://www.bohemiancoding.com/sketch -->
    <title>arrow-down</title>
    <desc>Created with Sketch.</desc>
    <defs></defs>
    <g id="Growthcasts---Full" stroke="none" stroke-width="1" fill="none" fill-rule="evenodd" transform="translate(-491.000000, -577.000000)">
        <g id="HERO" transform="translate(0.000000, -1.000000)" fill="#108DFF">
            <g id="CTA" transform="translate(315.000000, 549.000000)">
                <g id="arrow-down" transform="translate(176.000000, 29.000000)">
                    <path d="M7.82290404,6.04385528 C7.41862198,6.04385528 7.09088662,5.6831613 7.09088662,5.23822274 L7.09088662,0.85934137 C7.09088662,0.384740237 6.74130223,0 6.31006804,0 L3.7114062,0 C3.50432024,0 3.30571598,0.0905374916 3.15928409,0.25169526 C3.0128522,0.412853028 2.93058762,0.631429868 2.93058762,0.85934137 L2.93058762,5.23822274 C2.93058762,5.6831613 2.60285226,6.04385528 2.1985702,6.04385528 L0.539330719,6.04385528 C0.330147624,6.04277835 0.139448481,6.1755342 0.050706069,6.38401297 C-0.0380363426,6.59249173 -0.00865672493,6.83871697 0.125984883,7.01491102 L4.44147157,12.7118072 C4.57971564,12.894415 4.78452246,13 5.00048888,13 C5.21645529,13 5.42126212,12.894415 5.55950618,12.7118072 L9.87401685,7.01437394 C10.0086003,6.83825417 10.0380159,6.59215513 9.94939718,6.38372088 C9.86077847,6.17528664 9.67025384,6.04245167 9.46115902,6.04331819 L7.82290404,6.04331819 L7.82290404,6.04385528 Z"></path>
                </g>
            </g>
        </g>
    </g>
</svg>