<svg width="125" height="6" xmlns="http://www.w3.org/2000/svg">
  <path d="M124.884 1.553c-.44-.24-.95-.256-1.456-.232-.631.03-1.262.057-1.88-.078-.925-.2-1.868-.221-2.814-.238-5.294-.091-10.586-.2-15.88-.273C97.567.66 92.282.483 86.993.446 84.66.43 82.326.408 79.998.316c-1.945-.076-3.88.388-5.824.005-2.175.377-4.4-.01-6.592.256-1.17.143-2.396.15-3.578.057-3.662-.288-7.286.319-10.938.171-.248-.01-.503.03-.749.072-.869.147-1.75.157-2.633.135-1.26-.03-2.517-.045-3.766.151-.486.078-1.003.057-1.506.057-1.51-.002-3.022-.112-4.522.135-.357.06-.756.017-1.124-.036-.567-.08-1.12-.062-1.69-.03-2.316.129-4.608.432-6.964.256-1.163-.087-2.378.05-3.572-.009a3.604 3.604 0 0 0-1.463.25 4.267 4.267 0 0 1-2.214.222c-1.327-.212-2.635.056-3.955.037-.23-.004-.49.1-.683.212-.126.073-.225.259-.207.384.016.127.162.274.303.351.146.08.359.129.534.118 1.504-.087 3.01-.164 4.51-.296 1.619-.144 3.222-.481 4.867-.133.12.025.256.036.376.019 1.93-.289 3.896-.14 5.839-.274 3.32-.228 6.642-.472 9.987-.293.44.024.882.03 1.323.021.629-.012 1.267.004 1.882-.08 1.002-.14 2.003-.147 3.012-.135 1.886.023 3.779.16 5.65-.157.358-.06.754-.076 1.095.107a.178.178 0 0 1 .083.12c.006.044-.012.123-.047.133-.229.069-.465.178-.698.175-2.206-.028-4.38.39-6.596.238-.432-.03-.883.026-1.312.092-.874.135-1.755.176-2.634.117-2.655-.175-5.281.135-7.914.266-.947.047-1.88-.047-2.821.01-2.06.124-4.085.555-6.179.38-.366-.03-.746.08-1.122.109-.562.043-1.127.112-1.69.102-2.334-.046-4.654.027-6.969.27-1.051.11-2.118.194-3.187-.055-.668-.156-1.386-.139-2.065-.018-1.535.273-3.154.043-4.66.506-.322.099-.744-.015-1.119-.03-2.07-.082-4.145-.34-6.196.139-.346.08-.748.005-1.124.01-.312.004-.627.006-.935.04-.09.01-.17.122-.232.2-.024.028-.002.108.034.133.14.099.308.173.438.278.53.427 1.022.709 1.758.19.385-.272.833-.054 1.11.284.104.127.19.262.286.395.124 0 .25.002.374.005 1.339-.423 2.718.004 4.084-.098 3.839-.287 7.682-.685 11.552-.493 3.165.156 6.313.411 9.499.227 1.328-.076 2.687-.463 3.988-.186 1.229.262 2.456.354 3.666.287 3.44-.188 6.874-.406 10.329-.397.73.003 1.553.04 1.917-.677a3.11 3.11 0 0 1 1.262-.266c1.698.001 3.391.015 5.09-.088 1.682-.1 3.383-.028 5.076-.024 2.2.005 4.39-.044 6.59-.178 4.325-.263 8.67-.252 13.011-.116.752-.35 1.581-.27 2.396-.258 2.328.036 4.658.14 6.984.102 2.376-.04 4.752-.045 7.13-.13 2.069-.073 4.152.026 6.227.082 2.13.056 4.264-.203 6.39.106 1.137.036 2.267.044 3.343-.33.283-.098.607-.149.917-.16.777-.03 1.471-.158 2.048-.634.453-.375 1.099-.479 1.735-.51.565-.029 1.134-.02 1.701-.014 1.575.02 3.15.052 4.726.07.439.005.893.012 1.258-.23a.335.335 0 0 0 .14-.258.333.333 0 0 0-.154-.252" fill="#116DC7" fill-rule="evenodd" fill-opacity=".9"/>
</svg>
