<svg width="497" height="8" viewBox="0 0 497 8" xmlns="http://www.w3.org/2000/svg">
  <path d="M490.613 4.557c-2.506.009-5.013.014-7.475-.189-3.686-.301-7.434-.372-11.198-.438-21.047-.366-42.09-.755-63.135-1.097-21.025-.34-42.046-.816-63.072-1.113-9.268-.13-18.548-.267-27.806-.494-7.736-.19-15.405.317-23.152-.268-8.627.383-17.493-.219-26.193.02-4.644.13-9.517.081-14.22-.094-14.57-.543-28.949.068-43.473-.293-.987-.025-1.999.015-2.972.056-3.449.149-6.95.12-10.461.05-5.014-.098-10.007-.176-14.963.019-1.931.077-3.985.026-5.985.001-6.002-.073-12.02-.285-17.971-.038-1.416.06-3.004-.014-4.47-.099-2.257-.13-4.453-.132-6.717-.119-9.202.058-18.298.34-27.673.004-4.626-.166-9.451-.049-14.2-.18-2.03-.056-3.98.05-5.805.254-2.8.314-5.772.371-8.788.18C85.597.385 80.41.67 75.164.581c-.917-.015-1.947.106-2.708.241-.497.089-.88.323-.804.484.07.165.658.36 1.222.467.584.109 1.432.182 2.13.176 5.973-.04 11.959-.069 17.91-.169 6.43-.108 12.788-.468 19.343.058.477.037 1.02.059 1.495.041 7.658-.28 15.48.004 23.198-.078 13.189-.137 26.383-.295 39.689.092 1.747.052 3.508.081 5.259.09 2.498.014 5.036.064 7.476-.016 3.977-.132 7.955-.094 11.966-.032 7.502.119 15.032.384 22.458.064 1.419-.061 2.99-.063 4.355.189.171.031.312.103.336.157.024.058-.043.159-.18.17-.908.078-1.843.207-2.767.193-8.77-.14-17.393.296-26.209-.004-1.722-.059-3.509-.008-5.213.057-3.466.132-6.966.144-10.465.027-10.563-.35-20.987-.075-31.448-.03-3.763.016-7.476-.149-11.214-.12-8.18.064-16.212.524-24.541.2-1.457-.056-2.965.067-4.456.087-2.232.03-4.476.091-6.717.051-9.277-.167-18.496-.183-27.686.022-4.176.092-8.411.15-12.675-.221-2.661-.232-5.514-.243-8.207-.12-6.089.28-12.535-.093-18.504.432-1.27.112-2.955-.054-4.445-.09-8.236-.204-16.493-.634-24.625-.114-1.371.088-2.973-.027-4.466-.04-1.243-.009-2.494-.02-3.717.008-.354.01-.667.15-.914.247-.092.035 0 .14.144.172.558.134 1.23.237 1.754.379 2.127.574 4.096.96 6.995.328 1.52-.333 3.31-.032 4.425.416.421.168.772.347 1.155.521l1.49.024c5.302-.48 10.802.134 16.228.066 15.248-.188 30.505-.52 45.9-.092 12.588.35 25.114.826 37.769.739 5.276-.036 10.663-.47 15.847-.052 4.895.394 9.778.57 14.585.54 13.667-.079 27.305-.2 41.04-.025 2.907.038 6.175.125 7.59-.78a35.34 35.34 0 0 1 5.005-.283c6.75.08 13.481.177 20.228.125 6.684-.05 13.447.122 20.176.207 8.748.11 17.451.15 26.192.08 17.178-.135 34.451.083 51.714.463 2.97-.417 6.273-.274 9.511-.22 9.257.155 18.523.4 27.767.458 9.443.06 18.89.166 28.335.17 8.224.001 16.507.227 24.761.396 8.469.173 16.942-.06 25.405.437 4.523.1 9.014.162 13.274-.268a37.761 37.761 0 0 1 3.636-.164c3.088-.002 5.844-.133 8.113-.718 1.784-.461 4.345-.565 6.875-.576 2.243-.01 4.507.027 6.76.063 6.261.099 12.523.214 18.79.311 1.745.028 3.55.058 4.991-.235.33-.067.56-.214.546-.326-.013-.112-.28-.268-.625-.332-1.763-.328-3.789-.374-5.803-.367z" fill="#116DC7" fill-rule="evenodd" fill-opacity=".9"/>
</svg>
