<svg viewBox="0 0 605 9" xmlns="http://www.w3.org/2000/svg">
  <path d="M604.252 6.864c-2.147-.335-4.612-.388-7.064-.389-3.05 0-6.101-.006-9.1-.217-4.488-.316-9.05-.4-13.632-.48-25.62-.446-51.236-.916-76.854-1.337-25.594-.42-51.183-.976-76.778-1.352-11.281-.165-22.578-.338-33.849-.6-9.417-.22-18.75.258-28.182-.356-10.5.35-21.293-.285-31.883-.079-5.652.111-11.584.045-17.31-.149-17.736-.598-35.237-.041-52.918-.457-1.202-.03-2.432.007-3.617.045-4.198.135-8.46.093-12.733.01-6.104-.117-12.182-.214-18.214-.038-2.35.07-4.85.01-7.285-.021-7.306-.096-14.631-.33-21.875-.106-1.724.054-3.657-.026-5.442-.116-2.747-.14-5.42-.15-8.176-.145-11.202.023-22.272.271-33.685-.1C140.024.791 134.15.89 128.37.742a61.862 61.862 0 0 0-7.066.231c-3.407.303-7.024.35-10.696.147-6.438-.354-12.75-.09-19.136-.197-1.117-.02-2.37.098-3.295.23-.605.087-1.07.32-.978.481.087.165.803.363 1.49.471a18.2 18.2 0 0 0 2.593.185c7.27-.018 14.557-.024 21.801-.101 7.826-.084 15.564-.42 23.545.13.58.04 1.241.063 1.82.048 9.32-.251 18.843.062 28.237.01 16.053-.087 32.113-.195 48.31.242 2.128.06 4.271.095 6.402.11 3.042.024 6.131.084 9.1.013 4.84-.118 9.684-.064 14.567.013 9.132.147 18.298.44 27.336.149 1.727-.056 3.64-.051 5.302.205.209.032.38.104.41.16.03.057-.053.158-.219.168-1.105.075-2.242.2-3.368.183-10.675-.174-21.17.23-31.901-.104-2.097-.065-4.272-.021-6.346.038-4.219.119-8.478.117-12.739-.013-12.859-.39-25.546-.154-38.28-.15-4.58.002-9.1-.176-13.65-.161-9.956.032-19.731.461-29.872.107-1.773-.063-3.608.055-5.423.069-2.716.021-5.448.074-8.176.026-11.293-.203-22.515-.253-33.7-.084-5.083.077-10.238.118-15.43-.269-3.24-.241-6.712-.264-9.99-.15-7.41.256-15.258-.141-22.522.362-1.546.106-3.598-.066-5.412-.109-10.025-.233-20.077-.695-29.974-.206-1.669.083-3.62-.038-5.437-.056-1.513-.014-3.035-.031-4.524-.007-.43.008-.811.147-1.111.244-.112.034 0 .139.175.172.68.136 1.5.242 2.137.386 2.592.582 4.99.975 8.516.354 1.848-.327 4.03-.019 5.387.433.514.17.942.35 1.41.526.602.009 1.21.019 1.813.03 6.452-.461 13.148.174 19.753.127 18.56-.13 37.13-.405 55.87.082 15.325.398 30.574.92 45.977.882 6.422-.016 12.978-.43 19.29.008 5.96.413 11.905.607 17.755.596 16.636-.028 33.236-.096 49.955.13 3.539.05 7.517.148 9.237-.752a52.205 52.205 0 0 1 6.09-.264c8.217.106 16.411.23 24.624.203 8.135-.026 16.368.173 24.56.283 10.648.143 21.242.216 31.881.18 20.91-.07 41.936.213 62.95.658 3.615-.405 7.635-.25 11.577-.184 11.268.19 22.548.47 33.8.564 11.495.096 22.995.238 34.491.276 10.01.034 20.094.29 30.142.491 10.309.205 20.622.004 30.925.533 5.507.117 10.974.197 16.157-.217a55.838 55.838 0 0 1 4.426-.15c3.758.01 7.112-.111 9.872-.688 2.17-.454 5.287-.548 8.366-.55 2.731 0 5.486.045 8.229.089 7.622.123 15.244.262 22.873.382 2.124.035 4.323.071 6.075-.216.4-.066.68-.211.664-.324-.017-.112-.343-.269-.764-.334" fill="#116DC7" fill-rule="evenodd" fill-opacity=".9"/>
</svg>
