<?xml version="1.0" encoding="UTF-8"?>
<svg width="497px" height="8px" viewBox="0 0 497 8" version="1.1" xmlns="http://www.w3.org/2000/svg" xmlns:xlink="http://www.w3.org/1999/xlink">
    <!-- Generator: Sketch 48.2 (47327) - http://www.bohemiancoding.com/sketch -->
    <title>Underline</title>
    <desc>Created with Sketch.</desc>
    <defs></defs>
    <g id="Growthcasts---Full" stroke="none" stroke-width="1" fill="none" fill-rule="evenodd" transform="translate(-744.000000, -1006.000000)" fill-opacity="0.900000036">
        <g id="INTRO" transform="translate(-5.000000, 874.000000)" fill="#116DC7">
            <path d="M1239.57746,132.332046 C1237.07148,132.38446 1234.56549,132.432944 1232.09993,132.273734 C1228.40915,132.036557 1224.66028,132.031315 1220.89625,132.031315 C1199.84546,132.032626 1178.79972,132.010349 1157.75146,132.035902 C1136.72341,132.062764 1115.69788,131.954003 1094.66983,132.024108 C1085.40122,132.056212 1076.11998,132.080454 1066.85894,132.014936 C1059.12121,131.9599 1051.46178,132.600672 1043.70636,132.151214 C1035.08698,132.684536 1026.21246,132.237699 1017.51729,132.628845 C1012.87667,132.838504 1008.00364,132.87585 1003.29733,132.782158 C988.721186,132.493876 974.354711,133.355446 959.82656,133.247995 C958.838817,133.240133 957.828339,133.297789 956.855754,133.356101 C953.410023,133.565105 949.908716,133.597209 946.397304,133.589347 C941.382806,133.578209 936.388517,133.587381 931.437173,133.868456 C929.50716,133.979182 927.453363,133.964113 925.452616,133.974596 C919.450375,134.006045 913.430451,133.89925 907.483786,134.250429 C906.069117,134.334293 904.48014,134.28843 903.01242,134.229463 C900.754001,134.138393 898.558737,134.174428 896.295266,134.227498 C887.094861,134.445675 878.005609,134.88727 868.625845,134.714301 C863.997855,134.628471 859.175347,134.830269 854.426099,134.78244 C852.395038,134.761474 850.447341,134.901684 848.625954,135.137551 C845.831982,135.499868 842.861176,135.609284 839.842372,135.47104 C834.549992,135.229277 829.368765,135.602733 824.121857,135.607319 C823.204848,135.607974 822.176686,135.746873 821.418827,135.895601 C820.923693,135.992568 820.544764,136.233676 820.623076,136.393542 C820.696335,136.556683 821.287465,136.7421 821.853333,136.838413 C822.43941,136.937346 823.288212,136.995657 823.985442,136.977967 C829.957368,136.832516 835.941926,136.700169 841.891117,136.496406 C848.317758,136.275608 854.668614,135.805185 861.23167,136.215986 C861.709121,136.24547 862.252253,136.257263 862.727178,136.231711 C870.379025,135.817633 878.205179,135.96505 885.92018,135.748839 C899.104395,135.38128 912.293663,134.99341 925.604188,135.148034 C927.352315,135.169655 929.113073,135.167689 930.863727,135.146068 C933.362134,135.116585 935.900961,135.122481 938.33874,134.999962 C942.312446,134.798165 946.291204,134.766716 950.302802,134.758853 C957.805603,134.746405 965.338719,134.880063 972.758155,134.430605 C974.175351,134.344776 975.746645,134.315948 977.115843,134.543297 C977.287624,134.572125 977.429091,134.64092 977.454353,134.6953 C977.479615,134.752302 977.413934,134.854511 977.277519,134.867614 C976.370615,134.961961 975.438449,135.107412 974.513861,135.109378 C965.74291,135.122481 957.128583,135.708873 948.309634,135.562766 C946.586769,135.533938 944.800748,135.615836 943.098092,135.710838 C939.634678,135.903463 936.135897,135.976188 932.63459,135.920498 C922.067514,135.754736 911.649483,136.212055 901.191033,136.439405 C897.429528,136.520648 893.713494,136.42106 889.977251,136.515406 C881.799955,136.721135 873.776758,137.321285 865.442839,137.143729 C863.985224,137.11228 862.479611,137.261663 860.989156,137.307526 C858.758525,137.37632 856.515263,137.477219 854.274528,137.476564 C844.995811,137.470667 835.777723,137.616118 826.592476,137.981057 C822.419201,138.146163 818.185297,138.277201 813.916026,137.981057 C811.25089,137.796294 808.398815,137.834295 805.708417,138.004643 C799.625337,138.390548 793.173434,138.130439 787.214138,138.760072 C785.945988,138.89373 784.258489,138.756796 782.768034,138.746314 C774.53011,138.687347 766.266924,138.401031 758.145205,139.063423 C756.776007,139.174805 755.171873,139.087665 753.678891,139.101424 C752.436003,139.113873 751.185536,139.1237 749.962857,139.173495 C749.60919,139.189219 749.298468,139.335325 749.053427,139.436879 C748.962484,139.47357 749.055953,139.575779 749.199946,139.606572 C749.760762,139.730402 750.435256,139.822128 750.960705,139.954476 C753.097866,140.491728 755.073351,140.842908 757.960793,140.160204 C759.473984,139.801162 761.270109,140.071099 762.39174,140.498935 C762.816141,140.660111 763.169808,140.832425 763.556316,141.000152 C764.05145,140.998842 764.551637,140.998187 765.046772,140.998187 C770.339151,140.424899 775.848784,140.943151 781.272526,140.780665 C796.515591,140.326621 811.763707,139.727782 827.163396,139.887647 C839.756481,140.018029 852.288938,140.274862 864.940126,139.966924 C870.214822,139.839163 875.593093,139.311739 880.784425,139.638676 C885.685244,139.947269 890.570907,140.037685 895.375731,139.924993 C909.039923,139.606572 922.673801,139.248186 936.408726,139.183322 C939.316378,139.170219 942.585275,139.199702 943.984787,138.269994 C945.533345,138.040023 947.198108,137.909641 948.984128,137.899814 C955.734123,137.862468 962.466434,137.842157 969.211377,137.672464 C975.893164,137.504737 982.658316,137.559772 989.388101,137.527013 C998.136317,137.483771 1006.83906,137.372389 1015.57717,137.150281 C1032.75025,136.715238 1050.02438,136.631374 1067.29092,136.709996 C1070.25415,136.241539 1073.55841,136.327368 1076.797,136.324092 C1086.0555,136.31754 1095.32412,136.400094 1104.56747,136.297885 C1114.01038,136.19371 1123.45836,136.134088 1132.90128,135.972257 C1141.12404,135.830737 1149.40996,135.91198 1157.66557,135.936877 C1166.13591,135.961774 1174.60371,135.580456 1183.07405,135.930325 C1187.59846,135.950636 1192.09004,135.934912 1196.34163,135.431074 C1197.4582,135.298726 1198.74404,135.226001 1199.9743,135.203724 C1203.06131,135.147379 1205.81486,134.968513 1208.07328,134.343466 C1209.84919,133.851421 1212.40823,133.703349 1214.93695,133.647658 C1217.18021,133.599175 1219.44369,133.596554 1221.69705,133.592623 C1227.95949,133.582795 1234.22193,133.588692 1240.48942,133.576243 C1242.23502,133.573622 1244.04125,133.571657 1245.47613,133.253892 C1245.80454,133.181166 1246.03189,133.030474 1246.01674,132.918437 C1246.00158,132.807055 1245.73128,132.655707 1245.38519,132.597396 C1243.61685,132.299942 1241.59084,132.290114 1239.57746,132.332046 Z" id="Underline" transform="translate(997.517452, 136.500152) rotate(1.000000) translate(-997.517452, -136.500152) "></path>
        </g>
    </g>
</svg>