<?xml version="1.0" encoding="UTF-8"?>
<svg width="125px" height="6px" viewBox="0 0 125 6" version="1.1" xmlns="http://www.w3.org/2000/svg" xmlns:xlink="http://www.w3.org/1999/xlink">
    <!-- Generator: Sketch 48.2 (47327) - http://www.bohemiancoding.com/sketch -->
    <title>Underline 3</title>
    <desc>Created with Sketch.</desc>
    <defs></defs>
    <g id="Growthcasts---Full" stroke="none" stroke-width="1" fill="none" fill-rule="evenodd" transform="translate(-700.000000, -4320.000000)" fill-opacity="0.900000036">
        <g id="INTRO" transform="translate(-5.000000, 874.000000)" fill="#116DC7">
            <path d="M829.84098,3446.46452 C829.396227,3446.23317 828.886668,3446.22553 828.380285,3446.25814 C827.750007,3446.29891 827.119728,3446.33662 826.499616,3446.21279 C825.571354,3446.02831 824.628478,3446.02424 823.68179,3446.02424 C818.387326,3446.02526 813.094133,3446.00793 807.800304,3446.02781 C802.511559,3446.0487 797.223448,3445.96411 791.934703,3446.01863 C789.603563,3446.0436 787.269246,3446.06246 784.940013,3446.0115 C782.993902,3445.96869 781.067487,3446.46707 779.116928,3446.11749 C776.949076,3446.5323 774.717053,3446.18476 772.53014,3446.48898 C771.362982,3446.65205 770.13737,3446.6811 768.953693,3446.60823 C765.287659,3446.38401 761.674361,3447.05412 758.020399,3446.97054 C757.771973,3446.96443 757.517829,3447.00927 757.273215,3447.05463 C756.406582,3447.21719 755.525972,3447.24216 754.64282,3447.23604 C753.381628,3447.22738 752.125519,3447.23451 750.880212,3447.45313 C750.394796,3447.53925 749.878247,3447.52753 749.375041,3447.53568 C747.865423,3447.56014 746.351358,3447.47708 744.855718,3447.75022 C744.499916,3447.81544 744.100273,3447.77977 743.731129,3447.73391 C743.163116,3447.66308 742.610987,3447.6911 742.041704,3447.73238 C739.727719,3447.90207 737.441689,3448.24554 735.082594,3448.111 C733.918612,3448.04425 732.705708,3448.2012 731.511229,3448.164 C731.000399,3448.14769 730.510535,3448.25675 730.05244,3448.4402 C729.349731,3448.722 728.602546,3448.8071 727.84329,3448.69958 C726.512208,3448.51154 725.209083,3448.80201 723.889438,3448.80557 C723.658802,3448.80608 723.40021,3448.91412 723.209601,3449.02979 C723.085071,3449.10521 722.989766,3449.29274 723.009463,3449.41708 C723.027888,3449.54397 723.176563,3449.68818 723.318883,3449.76309 C723.466287,3449.84004 723.679769,3449.88539 723.855128,3449.87163 C725.357122,3449.75851 726.862292,3449.65557 728.358567,3449.49709 C729.974926,3449.32535 731.572224,3448.95947 733.222892,3449.27898 C733.342975,3449.30191 733.479578,3449.31109 733.599026,3449.29121 C735.523534,3448.96915 737.491883,3449.08381 739.432276,3448.91565 C742.748225,3448.62977 746.065445,3448.32809 749.413163,3448.44835 C749.852833,3448.46517 750.295679,3448.46364 750.735985,3448.44682 C751.364357,3448.42389 752.002895,3448.42848 752.616018,3448.33319 C753.615441,3448.17623 754.616135,3448.15177 755.625088,3448.14566 C757.51211,3448.13597 759.406757,3448.23993 761.272813,3447.89035 C761.62925,3447.8236 762.024445,3447.80117 762.36881,3447.978 C762.412015,3448.00042 762.447595,3448.05393 762.453949,3448.09623 C762.460302,3448.14056 762.443783,3448.22006 762.409474,3448.23025 C762.181379,3448.30363 761.946931,3448.41676 761.714389,3448.41829 C759.508415,3448.42848 757.341834,3448.88456 755.123788,3448.77092 C754.690472,3448.7485 754.241272,3448.8122 753.813038,3448.88609 C752.941958,3449.03591 752.061983,3449.09247 751.181373,3449.04916 C748.523657,3448.92023 745.903428,3449.27592 743.273033,3449.45275 C742.326981,3449.51594 741.392365,3449.43848 740.452666,3449.51186 C738.396002,3449.67188 736.378095,3450.13866 734.282039,3450.00056 C733.915435,3449.9761 733.53676,3450.09229 733.161897,3450.12796 C732.600873,3450.18146 732.036673,3450.25994 731.473107,3450.25943 C729.139426,3450.25484 726.820994,3450.36797 724.510821,3450.65181 C723.461204,3450.78023 722.396339,3450.88215 721.322579,3450.65181 C720.652273,3450.50811 719.93495,3450.53767 719.258291,3450.67016 C717.728341,3450.97031 716.105629,3450.768 714.606812,3451.25772 C714.287861,3451.36167 713.86344,3451.25517 713.488577,3451.24701 C711.416664,3451.20115 709.338398,3450.97846 707.295712,3451.49366 C706.951347,3451.58029 706.547892,3451.51251 706.172394,3451.52321 C705.859796,3451.53289 705.545293,3451.54054 705.237778,3451.57927 C705.148827,3451.5915 705.070678,3451.70513 705.009048,3451.78412 C704.986175,3451.81266 705.009683,3451.89215 705.045899,3451.9161 C705.186949,3452.01242 705.35659,3452.08376 705.488746,3452.1867 C706.026261,3452.60456 706.523113,3452.8777 707.249331,3452.34671 C707.629912,3452.06745 708.081654,3452.2774 708.363754,3452.61016 C708.470495,3452.73552 708.559446,3452.86955 708.656656,3453 C708.781187,3452.99898 708.906988,3452.99847 709.031519,3452.99847 C710.3626,3452.55258 711.748323,3452.95567 713.112443,3452.82929 C716.946212,3452.47614 720.781251,3452.01038 724.654412,3452.13472 C727.821687,3452.23613 730.973714,3452.43589 734.155602,3452.19638 C735.482236,3452.09701 736.83492,3451.68679 738.140587,3451.94107 C739.373187,3452.18109 740.601975,3452.25141 741.810432,3452.16376 C745.2471,3451.9161 748.676144,3451.63736 752.130602,3451.58691 C752.861903,3451.57672 753.68406,3451.59965 754.03605,3450.87654 C754.425526,3450.69768 754.844229,3450.59627 755.29343,3450.58863 C756.991114,3450.55958 758.684352,3450.54378 760.380766,3450.4118 C762.061296,3450.28134 763.762793,3450.32415 765.455395,3450.29867 C767.65565,3450.26504 769.844469,3450.17841 772.042183,3450.00566 C776.361367,3449.66729 780.705967,3449.60206 785.048659,3449.66321 C785.793938,3449.29886 786.62499,3449.36561 787.439523,3449.36306 C789.768122,3449.35797 792.099261,3449.42218 794.424047,3449.34268 C796.799027,3449.26166 799.175278,3449.21528 801.550257,3449.08942 C803.618358,3448.97934 805.702342,3449.04253 807.778702,3449.0619 C809.909068,3449.08126 812.038798,3448.78468 814.169164,3449.0568 C815.307095,3449.0726 816.436767,3449.06037 817.50608,3448.66849 C817.78691,3448.56556 818.110308,3448.50899 818.419729,3448.49167 C819.19614,3448.44784 819.888684,3448.30872 820.456697,3447.82258 C820.903356,3447.43988 821.546976,3447.32471 822.182973,3447.28139 C822.747174,3447.24368 823.316457,3447.24165 823.883199,3447.23859 C825.458259,3447.23094 827.033319,3447.23553 828.60965,3447.22585 C829.048685,3447.22381 829.502968,3447.22228 829.863853,3446.97513 C829.94645,3446.91857 830.003632,3446.80136 829.99982,3446.71422 C829.996008,3446.62759 829.928024,3446.50988 829.84098,3446.46452" id="Underline-3" transform="translate(767.500000, 3449.500000) rotate(1.000000) translate(-767.500000, -3449.500000) "></path>
        </g>
    </g>
</svg>