<?xml version="1.0" encoding="UTF-8"?>
<svg width="234px" height="9px" viewBox="0 0 234 9" version="1.1" xmlns="http://www.w3.org/2000/svg" xmlns:xlink="http://www.w3.org/1999/xlink">
    <!-- Generator: Sketch 48.2 (47327) - http://www.bohemiancoding.com/sketch -->
    <title>Fill 121</title>
    <desc>Created with Sketch.</desc>
    <defs></defs>
    <g id="Growthcasts---Full" stroke="none" stroke-width="1" fill="none" fill-rule="evenodd" transform="translate(-783.000000, -10652.000000)" fill-opacity="0.900000036">
        <g id="ELITE" transform="translate(0.000000, 8140.000000)" fill="#116DC7">
            <g id="MODULES" transform="translate(0.000000, 2263.000000)">
                <g id="1" transform="translate(1.000000, 0.000000)">
                    <g id="top" transform="translate(515.000000, 120.000000)">
                        <path d="M499.73842,129.613714 C498.909401,129.316259 497.959582,129.306431 497.015684,129.348363 C495.840846,129.400778 494.666007,129.449262 493.510118,129.290052 C491.779836,129.052875 490.022316,129.047633 488.257689,129.047633 C478.388809,129.048943 468.522297,129.026667 458.654601,129.052219 C448.796379,129.079082 438.939341,128.970321 429.081119,129.040426 C424.735875,129.07253 420.384709,129.096772 416.043017,129.031253 C412.415466,128.976218 408.824629,129.616989 405.188788,129.167532 C401.147912,129.700853 396.98742,129.254017 392.911015,129.645162 C390.735432,129.854822 388.450892,129.892167 386.244517,129.798476 C379.41103,129.510194 372.675842,130.371763 365.864858,130.264313 C365.401791,130.256451 364.928066,130.314107 364.472106,130.372419 C362.856703,130.581423 361.215245,130.613527 359.56905,130.605665 C357.218188,130.594527 354.876801,130.603699 352.555548,130.884774 C351.650733,130.9955 350.687886,130.980431 349.74991,130.990914 C346.935982,131.022363 344.113764,130.915568 341.325891,131.266747 C340.662676,131.350611 339.917743,131.304748 339.229657,131.245781 C338.170881,131.15471 337.141713,131.190746 336.080569,131.243816 C331.767301,131.461992 327.506143,131.903588 323.108788,131.730619 C320.939127,131.644789 318.678273,131.846586 316.451765,131.798758 C315.499577,131.777792 314.586471,131.918002 313.732582,132.153868 C312.422732,132.516186 311.029979,132.625602 309.614725,132.487358 C307.133589,132.245594 304.704563,132.61905 302.244745,132.623637 C301.81484,132.624292 301.332824,132.763191 300.97753,132.911918 C300.745405,133.008886 300.567758,133.249994 300.604472,133.409859 C300.638817,133.573001 300.915946,133.758418 301.181232,133.854731 C301.455993,133.953664 301.853922,134.011975 302.180792,133.994285 C304.980508,133.848834 307.786146,133.716486 310.575203,133.512724 C313.588096,133.291926 316.565459,132.821503 319.642304,133.232304 C319.866139,133.261787 320.120766,133.273581 320.343417,133.248029 C323.930701,132.833951 327.599703,132.981368 331.216595,132.765157 C337.397525,132.397598 343.580823,132.009728 349.820969,132.164351 C350.640514,132.185973 351.46598,132.184007 352.286709,132.162386 C353.457994,132.132903 354.648229,132.138799 355.791091,132.016279 C357.654015,131.814482 359.519308,131.783033 361.399998,131.775171 C364.917407,131.762723 368.449029,131.89638 371.927356,131.446923 C372.591756,131.361094 373.328399,131.332266 373.970296,131.559615 C374.050829,131.588443 374.117151,131.657238 374.128994,131.711618 C374.140837,131.768619 374.110045,131.870828 374.046092,131.883932 C373.620924,131.978279 373.183912,132.12373 372.750454,132.125695 C368.638519,132.138799 364.600011,132.72519 360.465575,132.579084 C359.657873,132.550256 358.820564,132.632154 358.022337,132.727156 C356.398644,132.919781 354.75837,132.992506 353.116912,132.936815 C348.162931,132.771053 343.278824,133.228373 338.375768,133.455722 C336.612326,133.536965 334.870201,133.437377 333.118602,133.531724 C329.284981,133.737452 325.523602,134.337602 321.616554,134.160047 C320.933205,134.128598 320.227355,134.27798 319.52861,134.323843 C318.482861,134.392638 317.431191,134.493537 316.380706,134.492881 C312.030724,134.486985 307.709166,134.632436 303.403003,134.997374 C301.446518,135.162481 299.46161,135.293518 297.460121,134.997374 C296.21067,134.812612 294.873581,134.850613 293.612287,135.020961 C290.760462,135.406865 287.735726,135.146757 284.941932,135.77639 C284.347407,135.910048 283.556285,135.773114 282.857541,135.762631 C278.995496,135.703665 275.121608,135.417348 271.314041,136.079741 C270.672144,136.191123 269.920105,136.103983 269.220176,136.117742 C268.637494,136.13019 268.051259,136.140018 267.478051,136.189812 C267.312248,136.205537 267.166577,136.351643 267.051699,136.453197 C267.009064,136.489887 267.052883,136.592096 267.120389,136.62289 C267.383306,136.74672 267.699518,136.838446 267.945855,136.970794 C268.947784,137.508046 269.873917,137.859225 271.227587,137.176522 C271.93699,136.81748 272.779037,137.087417 273.304872,137.515253 C273.503836,137.676429 273.66964,137.848743 273.85084,138.01647 C274.082965,138.01516 274.317459,138.014504 274.549585,138.014504 C277.030721,137.441217 279.613707,137.959469 282.156427,137.796983 C289.302572,137.342939 296.451086,136.744099 303.670658,136.903965 C309.574459,137.034347 315.449836,137.291179 321.380875,136.983242 C323.853721,136.855481 326.375124,136.328057 328.808887,136.654994 C331.106454,136.963587 333.396916,137.054002 335.649479,136.94131 C342.055428,136.62289 348.447166,136.264504 354.886276,136.19964 C356.24942,136.186536 357.781921,136.21602 358.438031,135.286311 C359.164015,135.056341 359.944477,134.925959 360.781786,134.916131 C363.946271,134.878786 367.102465,134.858475 370.264581,134.688782 C373.397089,134.521054 376.568679,134.57609 379.723689,134.543331 C383.824965,134.500088 387.904923,134.388707 392.001462,134.166599 C400.052422,133.731556 408.150755,133.647692 416.245535,133.726314 C417.634734,133.257856 419.183815,133.343686 420.702105,133.34041 C425.042612,133.333858 429.387857,133.416411 433.721258,133.314202 C438.14822,133.210028 442.577551,133.150406 447.004513,132.988575 C450.859452,132.847055 454.743999,132.928298 458.614334,132.953195 C462.585336,132.978092 466.555153,132.596774 470.526154,132.946643 C472.647259,132.966954 474.752968,132.951229 476.746167,132.447392 C477.269633,132.315044 477.872448,132.242319 478.449209,132.220042 C479.896439,132.163696 481.187341,131.984831 482.246116,131.359783 C483.078688,130.867739 484.278398,130.719667 485.463895,130.663976 C486.515565,130.615492 487.576709,130.612872 488.633117,130.608941 C491.569029,130.599113 494.504941,130.60501 497.443221,130.592561 C498.261582,130.58994 499.108366,130.587975 499.781055,130.27021 C499.935016,130.197484 500.041604,130.046791 500.034498,129.934755 C500.027392,129.823373 499.900671,129.672025 499.73842,129.613714" id="Fill-121" transform="translate(383.534833, 133.516470) rotate(0.500000) translate(-383.534833, -133.516470) "></path>
                    </g>
                </g>
            </g>
        </g>
    </g>
</svg>