<?xml version="1.0" encoding="UTF-8"?>
<svg width="605px" height="9px" viewBox="0 0 605 9" version="1.1" xmlns="http://www.w3.org/2000/svg" xmlns:xlink="http://www.w3.org/1999/xlink">
    <!-- Generator: Sketch 48.2 (47327) - http://www.bohemiancoding.com/sketch -->
    <title>Underline 2</title>
    <desc>Created with Sketch.</desc>
    <defs></defs>
    <g id="Growthcasts---Full" stroke="none" stroke-width="1" fill="none" fill-rule="evenodd" transform="translate(-515.000000, -3267.000000)" fill-opacity="0.900000036">
        <g id="INTRO" transform="translate(-5.000000, 874.000000)" fill="#116DC7">
            <path d="M1124.23034,2394.59724 C1122.07774,2394.29979 1119.61147,2394.28996 1117.16058,2394.33189 C1114.11003,2394.38431 1111.05949,2394.43279 1108.05814,2394.27358 C1103.56535,2394.0364 1099.00183,2394.03116 1094.41986,2394.03116 C1068.79466,2394.03247 1043.1756,2394.0102 1017.55347,2394.03575 C991.955944,2394.06261 966.36149,2393.95385 940.763962,2394.02396 C929.481245,2394.05606 918.183153,2394.0803 906.909662,2394.01478 C897.490484,2393.95975 888.166637,2394.60052 878.725934,2394.15106 C868.23353,2394.68438 857.430537,2394.23755 846.845878,2394.62869 C841.196832,2394.83835 835.264873,2394.8757 829.535873,2394.78201 C811.792271,2394.49372 794.303906,2395.35529 776.618733,2395.24784 C775.41635,2395.23998 774.186291,2395.29764 773.002359,2395.35595 C768.807858,2395.56495 764.545703,2395.59706 760.271248,2395.58919 C754.16708,2395.57806 748.087513,2395.58723 742.060224,2395.8683 C739.710811,2395.97903 737.210716,2395.96396 734.775199,2395.97444 C727.468648,2396.00589 720.140572,2395.8991 712.901674,2396.25028 C711.179591,2396.33414 709.245324,2396.28828 707.458663,2396.22931 C704.709481,2396.13824 702.037178,2396.17428 699.281845,2396.22735 C688.082158,2396.44552 677.017777,2396.88712 665.599754,2396.71415 C659.966083,2396.62832 654.095626,2396.83012 648.314349,2396.78229 C645.84193,2396.76132 643.470991,2396.90153 641.25381,2397.1374 C637.852697,2397.49972 634.236323,2397.60913 630.561522,2397.47089 C624.119088,2397.22912 617.81196,2397.60258 611.424878,2397.60717 C610.3086,2397.60782 609.057015,2397.74672 608.13447,2397.89545 C607.531741,2397.99242 607.070469,2398.23352 607.165799,2398.39339 C607.254978,2398.55653 607.974563,2398.74195 608.663396,2398.83826 C609.37683,2398.93719 610.41008,2398.99551 611.25882,2398.97782 C618.528469,2398.83236 625.813494,2398.70002 633.055467,2398.49625 C640.878642,2398.27546 648.609563,2397.80503 656.598797,2398.21583 C657.18,2398.24532 657.841156,2398.25711 658.419284,2398.23156 C667.733906,2397.81748 677.260713,2397.9649 686.652214,2397.74869 C702.70141,2397.38113 718.756755,2396.99326 734.959708,2397.14788 C737.08771,2397.1695 739.231088,2397.16754 741.362165,2397.14592 C744.403486,2397.11643 747.49401,2397.12233 750.461527,2396.99981 C755.298734,2396.79801 760.142092,2396.76656 765.025426,2396.7587 C774.158614,2396.74625 783.328705,2396.87991 792.360413,2396.43045 C794.085571,2396.34462 795.998313,2396.3158 797.665043,2396.54315 C797.874153,2396.57197 798.046361,2396.64077 798.077113,2396.69515 C798.107864,2396.75215 798.02791,2396.85436 797.861852,2396.86746 C796.757874,2396.96181 795.623145,2397.10726 794.497641,2397.10923 C783.820728,2397.12233 773.334475,2397.70872 762.599135,2397.56261 C760.501884,2397.53379 758.327755,2397.61568 756.255105,2397.71069 C752.039078,2397.90331 747.779998,2397.97604 743.517844,2397.92035 C730.654501,2397.75458 717.972593,2398.2119 705.241481,2398.43925 C700.662587,2398.5205 696.139045,2398.42091 691.590901,2398.51525 C681.636648,2398.72098 671.86998,2399.32113 661.725068,2399.14358 C659.950708,2399.11213 658.11792,2399.26151 656.303582,2399.30737 C653.588227,2399.37617 650.857496,2399.47707 648.12984,2399.47641 C636.834823,2399.47051 625.613609,2399.61597 614.432373,2399.9809 C609.352229,2400.14601 604.198281,2400.27705 599.001282,2399.9809 C595.757001,2399.79614 592.28516,2399.83414 589.010127,2400.00449 C581.605172,2400.3904 573.751245,2400.13029 566.496972,2400.75992 C564.953248,2400.89358 562.899049,2400.75664 561.084712,2400.74616 C551.056656,2400.68719 540.997848,2400.40088 531.111248,2401.06327 C529.444518,2401.17465 527.4918,2401.08751 525.674387,2401.10127 C524.161415,2401.11372 522.639217,2401.12355 521.150845,2401.17334 C520.720324,2401.18907 520.342081,2401.33517 520.043792,2401.43673 C519.933087,2401.47342 520.046867,2401.57563 520.222151,2401.60642 C520.904833,2401.73025 521.725898,2401.82198 522.365528,2401.95432 C524.967103,2402.49158 527.371869,2402.84276 530.886762,2402.16005 C532.728776,2401.80101 534.915206,2402.07095 536.280571,2402.49878 C536.797196,2402.65996 537.227717,2402.83227 537.698214,2403 C538.300943,2402.99869 538.909823,2402.99803 539.512551,2402.99803 C545.954986,2402.42475 552.661883,2402.943 559.264225,2402.78051 C577.819665,2402.32647 596.381256,2401.72763 615.127356,2401.88749 C630.456967,2402.01788 645.712774,2402.27471 661.113113,2401.96677 C667.534022,2401.83901 674.081011,2401.31159 680.400439,2401.63852 C686.366225,2401.94712 692.313561,2402.03753 698.162492,2401.92484 C714.795965,2401.60642 731.392537,2401.24803 748.112114,2401.18317 C751.651609,2401.17007 755.63085,2401.19955 757.334482,2400.26984 C759.219547,2400.03987 761.24607,2399.90949 763.420199,2399.89966 C771.636993,2399.86232 779.832262,2399.842 788.042906,2399.67231 C796.176671,2399.50458 804.411917,2399.55962 812.60411,2399.52686 C823.253346,2399.48362 833.84723,2399.37224 844.484165,2399.15013 C865.389019,2398.71509 886.416878,2398.63122 907.435512,2398.70984 C911.04266,2398.24139 915.064953,2398.32722 919.007292,2398.32394 C930.277708,2398.31739 941.560425,2398.39994 952.81239,2398.29773 C964.307292,2398.19356 975.808344,2398.13394 987.303245,2397.97211 C997.312851,2397.83058 1007.39934,2397.91183 1017.44892,2397.93672 C1027.75989,2397.96162 1038.06778,2397.5803 1048.37875,2397.93017 C1053.88634,2397.95048 1059.35395,2397.93476 1064.52943,2397.43092 C1065.88864,2397.29857 1067.45389,2397.22585 1068.95149,2397.20357 C1072.70932,2397.14723 1076.06123,2396.96836 1078.81041,2396.34331 C1080.97224,2395.85127 1084.08737,2395.7032 1087.16559,2395.64751 C1089.89632,2395.59902 1092.65165,2395.5964 1095.39468,2395.59247 C1103.01797,2395.58264 1110.64127,2395.58854 1118.27071,2395.57609 C1120.39563,2395.57347 1122.59436,2395.5715 1124.34105,2395.25374 C1124.74082,2395.18101 1125.01758,2395.03032 1124.99913,2394.91828 C1124.98068,2394.8069 1124.65164,2394.65556 1124.23034,2394.59724" id="Underline-2" transform="translate(822.500000, 2398.500000) rotate(1.000000) translate(-822.500000, -2398.500000) "></path>
        </g>
    </g>
</svg>