<?xml version="1.0" encoding="UTF-8"?>
<svg width="161px" height="40px" viewBox="0 0 161 40" version="1.1" xmlns="http://www.w3.org/2000/svg" xmlns:xlink="http://www.w3.org/1999/xlink">
    <title>A696DB8E-87CF-4C28-9A42-35B29B0905CCsvg</title>
    <g id="Page-1" stroke="none" stroke-width="1" fill="none" fill-rule="evenodd">
        <g id="Case-Study" transform="translate(-376.000000, -565.000000)" fill-rule="nonzero">
            <g id="logo" transform="translate(376.000000, 565.800000)">
                <g id="double" transform="translate(13.333333, 0.000000)" fill="#51ABFF">
                    <path d="M20.3093333,30.7941517 L20.2186667,30.7941517 C19.432885,32.1147652 18.3751178,33.075197 17.0453333,33.6754759 C15.7155489,34.2757547 14.2800077,34.5758897 12.7386667,34.5758897 C11.0462138,34.5758897 9.54267324,34.2832581 8.228,33.6979862 C6.91332676,33.1127143 5.78756024,32.3098534 4.85066667,31.2893793 C3.91377309,30.2689052 3.20355797,29.0683655 2.72,27.6877241 C2.23644203,26.3070828 1.99466667,24.8214149 1.99466667,23.2306759 C1.99466667,21.6399369 2.25155299,20.154269 2.76533333,18.7736276 C3.27911368,17.3929862 3.99688428,16.1924465 4.91866667,15.1719724 C5.84044905,14.1514983 6.95110461,13.3486374 8.25066667,12.7633655 C9.55022872,12.1780936 10.970659,11.8854621 12.512,11.8854621 C13.5395607,11.8854621 14.4462183,11.9905093 15.232,12.2006069 C16.0177817,12.4107045 16.7128859,12.6808259 17.3173333,13.0109793 C17.9217808,13.3411327 18.4355534,13.6937912 18.8586667,14.0689655 C19.2817799,14.4441398 19.629332,14.8118051 19.9013333,15.1719724 L20.0373333,15.1719724 L20.0373333,-1.05375938e-13 L25.4773333,-1.05375938e-13 L25.4773333,34.0356414 L20.3093333,34.0356414 L20.3093333,30.7941517 Z M7.43466667,23.2306759 C7.43466667,24.0710663 7.57822079,24.8814306 7.86533333,25.6617931 C8.15244588,26.4421556 8.57555276,27.132466 9.13466667,27.7327448 C9.69378057,28.3330237 10.3662183,28.8132396 11.152,29.1734069 C11.9377817,29.5335742 12.8293283,29.7136552 13.8266667,29.7136552 C14.824005,29.7136552 15.7155516,29.5335742 16.5013333,29.1734069 C17.287115,28.8132396 17.9595528,28.3330237 18.5186667,27.7327448 C19.0777806,27.132466 19.5008875,26.4421556 19.788,25.6617931 C20.0751125,24.8814306 20.2186667,24.0710663 20.2186667,23.2306759 C20.2186667,22.3902855 20.0751125,21.5799211 19.788,20.7995586 C19.5008875,20.0191961 19.0777806,19.3288858 18.5186667,18.7286069 C17.9595528,18.128328 17.287115,17.6481121 16.5013333,17.2879448 C15.7155516,16.9277775 14.824005,16.7476966 13.8266667,16.7476966 C12.8293283,16.7476966 11.9377817,16.9277775 11.152,17.2879448 C10.3662183,17.6481121 9.69378057,18.128328 9.13466667,18.7286069 C8.57555276,19.3288858 8.15244588,20.0191961 7.86533333,20.7995586 C7.57822079,21.5799211 7.43466667,22.3902855 7.43466667,23.2306759 Z M30.5546667,23.2306759 C30.5546667,21.5198811 30.8644413,19.9666828 31.484,18.5710345 C32.1035587,17.1753861 32.9422169,15.9823498 34,14.9918897 C35.0577831,14.0014295 36.3119927,13.2360855 37.7626667,12.6958345 C39.2133406,12.1555835 40.7546585,11.8854621 42.3866667,11.8854621 C44.0186748,11.8854621 45.5599927,12.1555835 47.0106667,12.6958345 C48.4613406,13.2360855 49.7155503,14.0014295 50.7733333,14.9918897 C51.8311164,15.9823498 52.6697747,17.1753861 53.2893333,18.5710345 C53.908892,19.9666828 54.2186667,21.5198811 54.2186667,23.2306759 C54.2186667,24.9414706 53.908892,26.4946689 53.2893333,27.8903172 C52.6697747,29.2859656 51.8311164,30.4790019 50.7733333,31.4694621 C49.7155503,32.4599222 48.4613406,33.2252663 47.0106667,33.7655172 C45.5599927,34.3057682 44.0186748,34.5758897 42.3866667,34.5758897 C40.7546585,34.5758897 39.2133406,34.3057682 37.7626667,33.7655172 C36.3119927,33.2252663 35.0577831,32.4599222 34,31.4694621 C32.9422169,30.4790019 32.1035587,29.2859656 31.484,27.8903172 C30.8644413,26.4946689 30.5546667,24.9414706 30.5546667,23.2306759 Z M35.9946667,23.2306759 C35.9946667,24.0710663 36.1382208,24.8814306 36.4253333,25.6617931 C36.7124459,26.4421556 37.1355528,27.132466 37.6946667,27.7327448 C38.2537806,28.3330237 38.9262183,28.8132396 39.712,29.1734069 C40.4977817,29.5335742 41.3893283,29.7136552 42.3866667,29.7136552 C43.384005,29.7136552 44.2755516,29.5335742 45.0613333,29.1734069 C45.847115,28.8132396 46.5195528,28.3330237 47.0786667,27.7327448 C47.6377806,27.132466 48.0608875,26.4421556 48.348,25.6617931 C48.6351125,24.8814306 48.7786667,24.0710663 48.7786667,23.2306759 C48.7786667,22.3902855 48.6351125,21.5799211 48.348,20.7995586 C48.0608875,20.0191961 47.6377806,19.3288858 47.0786667,18.7286069 C46.5195528,18.128328 45.847115,17.6481121 45.0613333,17.2879448 C44.2755516,16.9277775 43.384005,16.7476966 42.3866667,16.7476966 C41.3893283,16.7476966 40.4977817,16.9277775 39.712,17.2879448 C38.9262183,17.6481121 38.2537806,18.128328 37.6946667,18.7286069 C37.1355528,19.3288858 36.7124459,20.0191961 36.4253333,20.7995586 C36.1382208,21.5799211 35.9946667,22.3902855 35.9946667,23.2306759 Z M79.152,34.0356414 L73.984,34.0356414 L73.984,30.5690483 L73.8933333,30.5690483 C73.379553,31.6495502 72.5937831,32.5874719 71.536,33.3828414 C70.4782169,34.1782109 69.0426757,34.5758897 67.2293333,34.5758897 C65.7786594,34.5758897 64.5471162,34.3432851 63.5346667,33.878069 C62.5222172,33.4128528 61.6986698,32.7825695 61.064,31.9872 C60.4293302,31.1918305 59.9760014,30.2839223 59.704,29.2634483 C59.4319986,28.2429742 59.296,27.1774952 59.296,26.0669793 L59.296,12.4257103 L64.736,12.4257103 L64.736,23.3657379 C64.736,23.9660168 64.7662219,24.633817 64.8266667,25.3691586 C64.8871114,26.1045002 65.0457765,26.7948106 65.3026667,27.4401103 C65.5595568,28.0854101 65.9524418,28.625653 66.4813333,29.0608552 C67.0102249,29.4960573 67.7582174,29.7136552 68.7253333,29.7136552 C69.6320045,29.7136552 70.395108,29.5635877 71.0146667,29.2634483 C71.6342253,28.9633088 72.147998,28.5581267 72.556,28.0478897 C72.964002,27.5376526 73.2586658,26.9523895 73.44,26.2920828 C73.6213342,25.631776 73.712,24.9414657 73.712,24.221131 L73.712,12.4257103 L79.152,12.4257103 L79.152,34.0356414 Z M85.3173333,-1.05375938e-13 L90.7573333,-1.05375938e-13 L90.7573333,15.1719724 L90.8933333,15.1719724 C91.1653347,14.8118051 91.5128868,14.4441398 91.936,14.0689655 C92.3591132,13.6937912 92.8728859,13.3411327 93.4773333,13.0109793 C94.0817808,12.6808259 94.776885,12.4107045 95.5626667,12.2006069 C96.3484484,11.9905093 97.255106,11.8854621 98.2826667,11.8854621 C99.8240077,11.8854621 101.244438,12.1780936 102.544,12.7633655 C103.843562,13.3486374 104.954218,14.1514983 105.876,15.1719724 C106.797782,16.1924465 107.515553,17.3929862 108.029333,18.7736276 C108.543114,20.154269 108.8,21.6399369 108.8,23.2306759 C108.8,24.8214149 108.558225,26.3070828 108.074667,27.6877241 C107.591109,29.0683655 106.880894,30.2689052 105.944,31.2893793 C105.007106,32.3098534 103.873784,33.1127143 102.544,33.6979862 C101.214216,34.2832581 99.7182305,34.5758897 98.056,34.5758897 C96.514659,34.5758897 95.0791178,34.2757547 93.7493333,33.6754759 C92.4195489,33.075197 91.3617817,32.1147652 90.576,30.7941517 L90.4853333,30.7941517 L90.4853333,34.0356414 L85.3173333,34.0356414 L85.3173333,-1.05375938e-13 Z M103.36,23.2306759 C103.36,22.3902855 103.216446,21.5799211 102.929333,20.7995586 C102.642221,20.0191961 102.219114,19.3288858 101.66,18.7286069 C101.100886,18.128328 100.428448,17.6481121 99.6426667,17.2879448 C98.856885,16.9277775 97.9653383,16.7476966 96.968,16.7476966 C95.9706617,16.7476966 95.079115,16.9277775 94.2933333,17.2879448 C93.5075516,17.6481121 92.8351139,18.128328 92.276,18.7286069 C91.7168861,19.3288858 91.2937792,20.0191961 91.0066667,20.7995586 C90.7195541,21.5799211 90.576,22.3902855 90.576,23.2306759 C90.576,24.0710663 90.7195541,24.8814306 91.0066667,25.6617931 C91.2937792,26.4421556 91.7168861,27.132466 92.276,27.7327448 C92.8351139,28.3330237 93.5075516,28.8132396 94.2933333,29.1734069 C95.079115,29.5335742 95.9706617,29.7136552 96.968,29.7136552 C97.9653383,29.7136552 98.856885,29.5335742 99.6426667,29.1734069 C100.428448,28.8132396 101.100886,28.3330237 101.66,27.7327448 C102.219114,27.132466 102.642221,26.4421556 102.929333,25.6617931 C103.216446,24.8814306 103.36,24.0710663 103.36,23.2306759 Z M113.968,-1.05375938e-13 L119.408,-1.05375938e-13 L119.408,34.0356414 L113.968,34.0356414 L113.968,-1.05375938e-13 Z M130.016,25.1215448 C130.197334,26.7422978 130.831995,28.0028645 131.92,28.9032828 C133.008005,29.8037011 134.322659,30.2539034 135.864,30.2539034 C137.224007,30.2539034 138.364884,29.9762786 139.286667,29.4210207 C140.208449,28.8657627 141.016885,28.167949 141.712,27.3275586 L145.610667,30.2539034 C144.341327,31.8146285 142.920897,32.9251277 141.349333,33.5854345 C139.77777,34.2457412 138.130675,34.5758897 136.408,34.5758897 C134.775992,34.5758897 133.234674,34.3057682 131.784,33.7655172 C130.333326,33.2252663 129.079116,32.4599222 128.021333,31.4694621 C126.96355,30.4790019 126.124892,29.2859656 125.505333,27.8903172 C124.885775,26.4946689 124.576,24.9414706 124.576,23.2306759 C124.576,21.5198811 124.885775,19.9666828 125.505333,18.5710345 C126.124892,17.1753861 126.96355,15.9823498 128.021333,14.9918897 C129.079116,14.0014295 130.333326,13.2360855 131.784,12.6958345 C133.234674,12.1555835 134.775992,11.8854621 136.408,11.8854621 C137.919119,11.8854621 139.301772,12.1480801 140.556,12.6733241 C141.810228,13.1985681 142.883107,13.9564088 143.774667,14.946869 C144.666227,15.9373291 145.361331,17.1603789 145.86,18.6160552 C146.358669,20.0717314 146.608,21.7449836 146.608,23.6358621 L146.608,25.1215448 L130.016,25.1215448 Z M141.168,21.0696828 C141.137778,19.4789438 140.639116,18.2258804 139.672,17.3104552 C138.704884,16.3950299 137.360009,15.9373241 135.637333,15.9373241 C134.005325,15.9373241 132.713338,16.4025333 131.761333,17.3329655 C130.809329,18.2633978 130.227557,19.5089577 130.016,21.0696828 L141.168,21.0696828 Z"></path>
                    <polygon id="Decoration" points="146.634667 37.4121931 -1.5158245e-14 37.4121931 -1.5158245e-14 35.1611586 146.634667 35.1611586"></polygon>
                </g>
                <g id="double" fill="#292F47">
                    <path d="M20.3093333,30.7941517 L20.2186667,30.7941517 C19.432885,32.1147652 18.3751178,33.075197 17.0453333,33.6754759 C15.7155489,34.2757547 14.2800077,34.5758897 12.7386667,34.5758897 C11.0462138,34.5758897 9.54267324,34.2832581 8.228,33.6979862 C6.91332676,33.1127143 5.78756024,32.3098534 4.85066667,31.2893793 C3.91377309,30.2689052 3.20355797,29.0683655 2.72,27.6877241 C2.23644203,26.3070828 1.99466667,24.8214149 1.99466667,23.2306759 C1.99466667,21.6399369 2.25155299,20.154269 2.76533333,18.7736276 C3.27911368,17.3929862 3.99688428,16.1924465 4.91866667,15.1719724 C5.84044905,14.1514983 6.95110461,13.3486374 8.25066667,12.7633655 C9.55022872,12.1780936 10.970659,11.8854621 12.512,11.8854621 C13.5395607,11.8854621 14.4462183,11.9905093 15.232,12.2006069 C16.0177817,12.4107045 16.7128859,12.6808259 17.3173333,13.0109793 C17.9217808,13.3411327 18.4355534,13.6937912 18.8586667,14.0689655 C19.2817799,14.4441398 19.629332,14.8118051 19.9013333,15.1719724 L20.0373333,15.1719724 L20.0373333,-1.05375938e-13 L25.4773333,-1.05375938e-13 L25.4773333,34.0356414 L20.3093333,34.0356414 L20.3093333,30.7941517 Z M7.43466667,23.2306759 C7.43466667,24.0710663 7.57822079,24.8814306 7.86533333,25.6617931 C8.15244588,26.4421556 8.57555276,27.132466 9.13466667,27.7327448 C9.69378057,28.3330237 10.3662183,28.8132396 11.152,29.1734069 C11.9377817,29.5335742 12.8293283,29.7136552 13.8266667,29.7136552 C14.824005,29.7136552 15.7155516,29.5335742 16.5013333,29.1734069 C17.287115,28.8132396 17.9595528,28.3330237 18.5186667,27.7327448 C19.0777806,27.132466 19.5008875,26.4421556 19.788,25.6617931 C20.0751125,24.8814306 20.2186667,24.0710663 20.2186667,23.2306759 C20.2186667,22.3902855 20.0751125,21.5799211 19.788,20.7995586 C19.5008875,20.0191961 19.0777806,19.3288858 18.5186667,18.7286069 C17.9595528,18.128328 17.287115,17.6481121 16.5013333,17.2879448 C15.7155516,16.9277775 14.824005,16.7476966 13.8266667,16.7476966 C12.8293283,16.7476966 11.9377817,16.9277775 11.152,17.2879448 C10.3662183,17.6481121 9.69378057,18.128328 9.13466667,18.7286069 C8.57555276,19.3288858 8.15244588,20.0191961 7.86533333,20.7995586 C7.57822079,21.5799211 7.43466667,22.3902855 7.43466667,23.2306759 Z M30.5546667,23.2306759 C30.5546667,21.5198811 30.8644413,19.9666828 31.484,18.5710345 C32.1035587,17.1753861 32.9422169,15.9823498 34,14.9918897 C35.0577831,14.0014295 36.3119927,13.2360855 37.7626667,12.6958345 C39.2133406,12.1555835 40.7546585,11.8854621 42.3866667,11.8854621 C44.0186748,11.8854621 45.5599927,12.1555835 47.0106667,12.6958345 C48.4613406,13.2360855 49.7155503,14.0014295 50.7733333,14.9918897 C51.8311164,15.9823498 52.6697747,17.1753861 53.2893333,18.5710345 C53.908892,19.9666828 54.2186667,21.5198811 54.2186667,23.2306759 C54.2186667,24.9414706 53.908892,26.4946689 53.2893333,27.8903172 C52.6697747,29.2859656 51.8311164,30.4790019 50.7733333,31.4694621 C49.7155503,32.4599222 48.4613406,33.2252663 47.0106667,33.7655172 C45.5599927,34.3057682 44.0186748,34.5758897 42.3866667,34.5758897 C40.7546585,34.5758897 39.2133406,34.3057682 37.7626667,33.7655172 C36.3119927,33.2252663 35.0577831,32.4599222 34,31.4694621 C32.9422169,30.4790019 32.1035587,29.2859656 31.484,27.8903172 C30.8644413,26.4946689 30.5546667,24.9414706 30.5546667,23.2306759 Z M35.9946667,23.2306759 C35.9946667,24.0710663 36.1382208,24.8814306 36.4253333,25.6617931 C36.7124459,26.4421556 37.1355528,27.132466 37.6946667,27.7327448 C38.2537806,28.3330237 38.9262183,28.8132396 39.712,29.1734069 C40.4977817,29.5335742 41.3893283,29.7136552 42.3866667,29.7136552 C43.384005,29.7136552 44.2755516,29.5335742 45.0613333,29.1734069 C45.847115,28.8132396 46.5195528,28.3330237 47.0786667,27.7327448 C47.6377806,27.132466 48.0608875,26.4421556 48.348,25.6617931 C48.6351125,24.8814306 48.7786667,24.0710663 48.7786667,23.2306759 C48.7786667,22.3902855 48.6351125,21.5799211 48.348,20.7995586 C48.0608875,20.0191961 47.6377806,19.3288858 47.0786667,18.7286069 C46.5195528,18.128328 45.847115,17.6481121 45.0613333,17.2879448 C44.2755516,16.9277775 43.384005,16.7476966 42.3866667,16.7476966 C41.3893283,16.7476966 40.4977817,16.9277775 39.712,17.2879448 C38.9262183,17.6481121 38.2537806,18.128328 37.6946667,18.7286069 C37.1355528,19.3288858 36.7124459,20.0191961 36.4253333,20.7995586 C36.1382208,21.5799211 35.9946667,22.3902855 35.9946667,23.2306759 Z M79.152,34.0356414 L73.984,34.0356414 L73.984,30.5690483 L73.8933333,30.5690483 C73.379553,31.6495502 72.5937831,32.5874719 71.536,33.3828414 C70.4782169,34.1782109 69.0426757,34.5758897 67.2293333,34.5758897 C65.7786594,34.5758897 64.5471162,34.3432851 63.5346667,33.878069 C62.5222172,33.4128528 61.6986698,32.7825695 61.064,31.9872 C60.4293302,31.1918305 59.9760014,30.2839223 59.704,29.2634483 C59.4319986,28.2429742 59.296,27.1774952 59.296,26.0669793 L59.296,12.4257103 L64.736,12.4257103 L64.736,23.3657379 C64.736,23.9660168 64.7662219,24.633817 64.8266667,25.3691586 C64.8871114,26.1045002 65.0457765,26.7948106 65.3026667,27.4401103 C65.5595568,28.0854101 65.9524418,28.625653 66.4813333,29.0608552 C67.0102249,29.4960573 67.7582174,29.7136552 68.7253333,29.7136552 C69.6320045,29.7136552 70.395108,29.5635877 71.0146667,29.2634483 C71.6342253,28.9633088 72.147998,28.5581267 72.556,28.0478897 C72.964002,27.5376526 73.2586658,26.9523895 73.44,26.2920828 C73.6213342,25.631776 73.712,24.9414657 73.712,24.221131 L73.712,12.4257103 L79.152,12.4257103 L79.152,34.0356414 Z M85.3173333,-1.05375938e-13 L90.7573333,-1.05375938e-13 L90.7573333,15.1719724 L90.8933333,15.1719724 C91.1653347,14.8118051 91.5128868,14.4441398 91.936,14.0689655 C92.3591132,13.6937912 92.8728859,13.3411327 93.4773333,13.0109793 C94.0817808,12.6808259 94.776885,12.4107045 95.5626667,12.2006069 C96.3484484,11.9905093 97.255106,11.8854621 98.2826667,11.8854621 C99.8240077,11.8854621 101.244438,12.1780936 102.544,12.7633655 C103.843562,13.3486374 104.954218,14.1514983 105.876,15.1719724 C106.797782,16.1924465 107.515553,17.3929862 108.029333,18.7736276 C108.543114,20.154269 108.8,21.6399369 108.8,23.2306759 C108.8,24.8214149 108.558225,26.3070828 108.074667,27.6877241 C107.591109,29.0683655 106.880894,30.2689052 105.944,31.2893793 C105.007106,32.3098534 103.873784,33.1127143 102.544,33.6979862 C101.214216,34.2832581 99.7182305,34.5758897 98.056,34.5758897 C96.514659,34.5758897 95.0791178,34.2757547 93.7493333,33.6754759 C92.4195489,33.075197 91.3617817,32.1147652 90.576,30.7941517 L90.4853333,30.7941517 L90.4853333,34.0356414 L85.3173333,34.0356414 L85.3173333,-1.05375938e-13 Z M103.36,23.2306759 C103.36,22.3902855 103.216446,21.5799211 102.929333,20.7995586 C102.642221,20.0191961 102.219114,19.3288858 101.66,18.7286069 C101.100886,18.128328 100.428448,17.6481121 99.6426667,17.2879448 C98.856885,16.9277775 97.9653383,16.7476966 96.968,16.7476966 C95.9706617,16.7476966 95.079115,16.9277775 94.2933333,17.2879448 C93.5075516,17.6481121 92.8351139,18.128328 92.276,18.7286069 C91.7168861,19.3288858 91.2937792,20.0191961 91.0066667,20.7995586 C90.7195541,21.5799211 90.576,22.3902855 90.576,23.2306759 C90.576,24.0710663 90.7195541,24.8814306 91.0066667,25.6617931 C91.2937792,26.4421556 91.7168861,27.132466 92.276,27.7327448 C92.8351139,28.3330237 93.5075516,28.8132396 94.2933333,29.1734069 C95.079115,29.5335742 95.9706617,29.7136552 96.968,29.7136552 C97.9653383,29.7136552 98.856885,29.5335742 99.6426667,29.1734069 C100.428448,28.8132396 101.100886,28.3330237 101.66,27.7327448 C102.219114,27.132466 102.642221,26.4421556 102.929333,25.6617931 C103.216446,24.8814306 103.36,24.0710663 103.36,23.2306759 Z M113.968,-1.05375938e-13 L119.408,-1.05375938e-13 L119.408,34.0356414 L113.968,34.0356414 L113.968,-1.05375938e-13 Z M130.016,25.1215448 C130.197334,26.7422978 130.831995,28.0028645 131.92,28.9032828 C133.008005,29.8037011 134.322659,30.2539034 135.864,30.2539034 C137.224007,30.2539034 138.364884,29.9762786 139.286667,29.4210207 C140.208449,28.8657627 141.016885,28.167949 141.712,27.3275586 L145.610667,30.2539034 C144.341327,31.8146285 142.920897,32.9251277 141.349333,33.5854345 C139.77777,34.2457412 138.130675,34.5758897 136.408,34.5758897 C134.775992,34.5758897 133.234674,34.3057682 131.784,33.7655172 C130.333326,33.2252663 129.079116,32.4599222 128.021333,31.4694621 C126.96355,30.4790019 126.124892,29.2859656 125.505333,27.8903172 C124.885775,26.4946689 124.576,24.9414706 124.576,23.2306759 C124.576,21.5198811 124.885775,19.9666828 125.505333,18.5710345 C126.124892,17.1753861 126.96355,15.9823498 128.021333,14.9918897 C129.079116,14.0014295 130.333326,13.2360855 131.784,12.6958345 C133.234674,12.1555835 134.775992,11.8854621 136.408,11.8854621 C137.919119,11.8854621 139.301772,12.1480801 140.556,12.6733241 C141.810228,13.1985681 142.883107,13.9564088 143.774667,14.946869 C144.666227,15.9373291 145.361331,17.1603789 145.86,18.6160552 C146.358669,20.0717314 146.608,21.7449836 146.608,23.6358621 L146.608,25.1215448 L130.016,25.1215448 Z M141.168,21.0696828 C141.137778,19.4789438 140.639116,18.2258804 139.672,17.3104552 C138.704884,16.3950299 137.360009,15.9373241 135.637333,15.9373241 C134.005325,15.9373241 132.713338,16.4025333 131.761333,17.3329655 C130.809329,18.2633978 130.227557,19.5089577 130.016,21.0696828 L141.168,21.0696828 Z"></path>
                    <polygon id="Decoration" points="146.634667 37.4121931 -1.5158245e-14 37.4121931 -1.5158245e-14 35.1611586 146.634667 35.1611586"></polygon>
                </g>
            </g>
        </g>
    </g>
</svg>