<?xml version="1.0" encoding="UTF-8"?>
<svg width="337px" height="240px" viewBox="0 0 337 240" version="1.1" xmlns="http://www.w3.org/2000/svg" xmlns:xlink="http://www.w3.org/1999/xlink">
    <title>836B808C-5379-4870-B58F-B7BB3FCEC2FEsvg</title>
    <g id="Page-1" stroke="none" stroke-width="1" fill="none" fill-rule="evenodd">
        <g id="Case-Study" transform="translate(-552.000000, -2775.000000)" stroke="#00A683" stroke-width="4.06560029">
            <g id="Group-2" transform="translate(552.000000, 2778.000000)">
                <g id="icon-3" transform="translate(0.176017, 0.000000)">
                    <polyline id="Path" points="28.459202 101.640007 98.590807 49.3970435 172.178172 105.705608"></polyline>
                    <polyline id="Path" points="334.598904 72.3676852 250.644258 0.406560029 129.692649 73.1808052"></polyline>
                    <polyline id="Path" points="121.968009 193.116014 307.359382 193.116014 307.359382 51.2265637"></polyline>
                    <polyline id="Path" points="73.5873652 193.116014 42.282243 193.116014 42.282243 92.4924066"></polyline>
                    <line x1="155.712491" y1="127.050009" x2="155.712491" y2="94.5252067" id="Path"></line>
                    <line x1="155.712491" y1="160.387931" x2="155.712491" y2="190.879934" id="Path"></line>
                    <polyline id="Path" points="0 233.975297 95.5416068 233.975297 95.5416068 194.742254 87.4104062 190.879934 103.266247 182.545453 87.8169663 175.633933 103.266247 168.519132 87.2071262 160.387931 103.266247 153.273131 91.6792865 148.800971"></polyline>
                    <polyline id="Path" points="78.8726456 178.276573 63.0168045 178.276573 63.0168045 98.590807 127.863129 98.590807 127.863129 178.276573 112.820408 178.276573"></polyline>
                    <path d="M227.063776,108.958088 C227.063776,108.958088 227.876896,101.030167 227.063776,98.590807 C225.234256,93.1022466 221.168656,88.8333663 218.526016,83.751366 C215.883375,78.6693656 214.460415,72.9775252 216.493215,67.2856848 C217.712896,63.6266445 220.355536,60.1708843 223.811296,58.1380841 C227.673616,55.698724 232.552337,55.0888839 236.821217,55.2921639 C240.480257,55.495444 244.139297,56.105284 247.391778,57.5282441 C252.677058,59.7643243 256.539378,64.2364846 257.759058,69.928325 C259.385298,78.2628056 255.319698,85.5808861 251.457378,92.4924066 C249.627858,95.7448868 247.188498,99.2006471 246.375378,102.859687 C245.358977,107.941688 245.968818,113.633528 246.578658,118.512248 C246.578658,118.918808 246.578658,119.528649 246.781938,119.935209 L228.893296,123.797529 L243.122897,130.302489 L230.722816,135.99433 L243.122897,140.46649 L232.755617,145.54849 L127.659849,145.54849" id="Path"></path>
                </g>
            </g>
        </g>
    </g>
</svg>