<?xml version="1.0" encoding="UTF-8"?>
<svg width="1440px" height="514px" viewBox="0 0 1440 514" version="1.1" xmlns="http://www.w3.org/2000/svg" xmlns:xlink="http://www.w3.org/1999/xlink">
    <title>4C531486-4767-4EF0-9F01-2E0E00249014svg</title>
    <defs>
        <polygon id="path-1" points="0 0 1440 0 1440 514 0 514"></polygon>
    </defs>
    <g id="Page-1" stroke="none" stroke-width="1" fill="none" fill-rule="evenodd">
        <g id="hero-1" transform="translate(0.000000, -111.000000)">
            <g id="hero-image" transform="translate(0.000000, 111.000000)">
                <mask id="mask-2" fill="white">
                    <use xlink:href="#path-1"></use>
                </mask>
                <use id="Mask" fill="#FFFFFF" xlink:href="#path-1"></use>
                <g id="Union" opacity="0.900000036" mask="url(#mask-2)">
                    <g transform="translate(-33.000000, 148.000000)">
                        <path d="M223.521132,82.5091245 C223.521132,60.3866913 206.289371,42.2889143 184.51585,40.9060102 C184.20265,23.7238573 170.176329,9.89157654 152.919368,9.89157654 C144.203048,9.89157654 136.311127,13.4200087 130.594327,19.126369 C121.481287,10.0923126 108.938166,4.51213225 95.0925652,4.51213225 C74.1513641,4.51213225 56.1914671,17.2762569 48.5685387,35.4488419 C24.0578653,35.870042 4.32000024,55.574211 4.32000024,79.8192044 C4.32000024,103.663446 23.4092173,123.114967 47.3542586,124.153207 L47.3542586,124.197127 L184.52161,124.197127 L184.52161,124.112167 C206.292251,122.726167 223.521132,104.629686 223.521132,82.5091245 Z" id="Path" fill="#FFFFFF" fill-rule="evenodd"></path>
                        <path d="M184.51585,40.9060102 L184.25377,45.0391705 L180.44497,44.7972504 L180.37513,40.9815382 L184.51585,40.9060102 Z M130.594327,19.126369 L133.519687,22.0575612 L130.604407,24.9678014 L127.678327,22.0675692 L130.594327,19.126369 Z M48.5685387,35.4488419 L52.3876349,37.050842 L51.3421228,39.5432662 L48.6396747,39.5897062 L48.5685387,35.4488419 Z M47.3542586,124.153207 L47.5336826,120.016087 L51.4956988,120.187447 L51.4956988,124.153207 L47.3542586,124.153207 Z M47.3542586,124.197127 L47.3542586,128.338567 L43.2128184,128.338567 L43.2128184,124.197127 L47.3542586,124.197127 Z M184.52161,124.197127 L188.66305,124.197127 L188.66305,128.338567 L184.52161,128.338567 L184.52161,124.197127 Z M184.52161,124.112167 L180.38017,124.112167 L180.38017,120.225607 L184.25809,119.978647 L184.52161,124.112167 Z M184.77865,36.772922 C208.718651,38.2934181 227.662572,58.1873792 227.662572,82.5091245 L219.379692,82.5091245 C219.379692,62.5860034 203.860091,46.2844105 184.25377,45.0391705 L184.77865,36.772922 Z M152.919368,5.75013631 C172.437849,5.75013631 188.30233,21.3950172 188.65657,40.8304822 L180.37513,40.9815382 C180.10297,26.0526254 167.914089,14.0330168 152.919368,14.0330168 L152.919368,5.75013631 Z M127.668967,16.1951769 C134.130247,9.74548853 143.062568,5.75013631 152.919368,5.75013631 L152.919368,14.0330168 C145.344248,14.0330168 138.492728,17.0945289 133.519687,22.0575612 L127.668967,16.1951769 Z M95.0925652,0.3706769 C110.074326,0.3706769 123.652807,6.41353715 133.509607,16.1851689 L127.678327,22.0675692 C119.309767,13.7710088 107.802726,8.65360847 95.0925652,8.65360847 L95.0925652,0.3706769 Z M44.7495144,33.8468418 C52.9950269,14.1899768 72.424804,0.3706769 95.0925652,0.3706769 L95.0925652,8.65360847 C75.8772041,8.65360847 59.3879072,20.3625371 52.3876349,37.050842 L44.7495144,33.8468418 Z M0.17854993,79.8192044 C0.17854993,53.2537229 21.7889292,31.7669777 48.4974026,31.3079777 L48.6396747,39.5897062 C26.3268014,39.9731062 8.46144046,57.8946272 8.46144046,79.8192044 L0.17854993,79.8192044 Z M47.1747626,128.291047 C21.0793692,127.159207 0.17854993,105.945126 0.17854993,79.8192044 L8.46144046,79.8192044 C8.46144046,101.381046 25.7390654,119.070727 47.5336826,120.016087 L47.1747626,128.291047 Z M43.2128184,124.197127 L43.2128184,124.153207 L51.4956988,124.153207 L51.4956988,124.197127 L43.2128184,124.197127 Z M184.52161,128.338567 L47.3542586,128.338567 L47.3542586,120.055687 L184.52161,120.055687 L184.52161,128.338567 Z M188.66305,124.112167 L188.66305,124.197127 L180.38017,124.197127 L180.38017,124.112167 L188.66305,124.112167 Z M227.662572,82.5091245 C227.662572,106.828566 208.722251,126.721447 184.78441,128.244967 L184.25809,119.978647 C203.862251,118.730886 219.379692,102.430806 219.379692,82.5091245 L227.662572,82.5091245 Z" id="Shape" fill="#3497F3" fill-rule="nonzero"></path>
                    </g>
                </g>
                <g id="Group-44" mask="url(#mask-2)" fill="#3497F3" fill-rule="nonzero">
                    <g transform="translate(820.000000, 50.000000)">
                        <ellipse id="Oval" transform="translate(119.461395, 52.035309) scale(-1, 1) translate(-119.461395, -52.035309) " cx="119.461395" cy="52.0353087" rx="30.7948401" ry="30.3352137"></ellipse>
                        <circle id="Oval" transform="translate(88.207058, 35.029196) scale(-1, 1) translate(-88.207058, -35.029196) " cx="88.2070585" cy="35.0291962" r="34.4718514"></circle>
                        <circle id="Oval" transform="translate(48.679252, 25.836862) scale(-1, 1) translate(-48.679252, -25.836862) " cx="48.6792518" cy="25.8368623" r="21.6023766"></circle>
                        <circle id="Oval" transform="translate(28.914409, 53.873879) scale(-1, 1) translate(-28.914409, -53.873879) " cx="28.9144088" cy="53.8738791" r="28.4967728"></circle>
                        <rect id="Rectangle" transform="translate(73.957862, 63.985531) scale(-1, 1) translate(-73.957862, -63.985531) " x="27.0760328" y="45.6005389" width="93.7636586" height="36.7699834"></rect>
                    </g>
                </g>
                <g id="Group-46" mask="url(#mask-2)" fill="#172854" fill-rule="nonzero">
                    <g transform="translate(1097.000000, 310.000000)">
                        <circle id="Oval" cx="96.0271252" cy="52.6332989" r="52.5784349"></circle>
                        <circle id="Oval" cx="36.96653" cy="68.4786997" r="36.73289"></circle>
                        <circle id="Oval" cx="157.968729" cy="64.1572595" r="41.0544022"></circle>
                        <rect id="Rectangle" x="36.244586" y="64.8775475" width="122.443207" height="40.3341142"></rect>
                    </g>
                </g>
            </g>
        </g>
    </g>
</svg>