<svg height="40" width="157" xmlns="http://www.w3.org/2000/svg"><g fill="#3e3e3e" fill-rule="evenodd"><path d="m69.67 16.698-1.474 3.005c-.114.436.249.734.714.642l3.003-1.282-2.723 1.79c-.326.267-.205.943.495 1.026l3.01.276-2.95.188c-.69.096-.955.669-.404 1.189l2.595 1.606-2.838-1.192c-.778-.236-1.07.377-.77.924l1.257 2.658-1.765-2.413c-.304-.492-1-.509-1.089.15l-.279 3.114-.286-3.113c-.09-.66-.786-.643-1.09-.151l-1.765 2.413 1.259-2.658c.297-.547.006-1.16-.771-.924l-2.838 1.192 2.594-1.606c.551-.52.286-1.093-.403-1.19l-2.952-.187 3.012-.276c.699-.083.82-.76.493-1.026l-2.723-1.79 3.005 1.282c.464.092.828-.206.714-.642l-1.475-3.005 1.963 2.647c.376.352.9.192.958-.358l.301-3.189.302 3.19c.058.549.58.709.957.357zm-3.24-.936c3.484 0 6.309 2.837 6.309 6.334 0 3.499-2.825 6.335-6.31 6.335-3.482 0-6.308-2.836-6.308-6.335 0-3.497 2.826-6.334 6.309-6.334zm62.67 12.513.846-8.88c.44-4.622-7.452-3.782-9.947-1.217l.224-2.233h-3.972l-1.247 12.33h3.99l.645-6.566c.346-3.682 6.528-4.031 6.226-1.01l-.76 7.576zm-15.808 0 .92-8.983c.57-5.544-14.17-4.2-13.304 4.812.424 4.411 4.934 4.327 7.22 3.797l.235-2.201c-6.935.577-3.646-8.316 2.082-6.358l-1.02 8.933zm-14.429 0 1.548-15.525h-3.994l-1.55 15.525zm-21.391 0 1.55-15.525h-3.995l-1.55 15.525z"/><path d="m55.734 20.11c-2.107-1.241-2.963-2.195-2.995-3.214-.019-.59.527-1.15 1.248-1.374 2.019-.624 3.91.097 5.302.582l1.501-2.178c-2.239-.958-6.845-2.302-9.809-.583-3.956 2.297-1.972 6.222.25 7.571 1.263.768 3.643 2.264 3.272 3.532-.734 2.386-5.059 1.666-6.086 1.308-.772-.269-1.339-.503-1.856-.908l-.124 3.13c.718.202 1.528.346 2.414.503 7.84 1.397 14.346-3.971 6.883-8.37m27.772 4.278.359-4.17c1.175-1.77 4.785-1.784 5.96-.309 1.479 1.862-.075 4.666-1.8 5.202-2.016.629-4.6.456-4.519-.723m8.79-6.903c-3.096-3.073-11.076-1.346-12.186 1.901l-1.37 14.133h3.854l.58-5.82c8.377 2.62 13.772-5.591 9.12-10.214m42.957 4.166c.27-2.81 4.318-5.376 6.03-2.775 1.224 2.814-5.961 3.243-6.03 2.775m5.323-5.9c-4.282-.555-9.15 1.926-9.397 6.404-.374 6.812 7.489 6.983 12.023 5.22l.395-2.105c-1.587.527-8.236 2.068-8.35-1.455 8.421 1.348 12.57-7.121 5.329-8.064"/><path d="m155.87 25.178c-1.24.657-4.475 1.263-4.209-.876l.51-4.11 4.128.002.23-2.315h-4.066l.252-1.987h-3.96l-.25 1.987h-2.883l-.23 2.315h2.819l-.61 4.812c-.547 4.244 5.461 3.73 7.807 2.187l.461-2.015zm-146.892 4.688-4.174-4.19c6.013-3.45 12.16-5.341 18.162-5.99-.055 2.553-.303 5.169-.701 7.832-4.717.234-9.187 1.031-13.287 2.348m24.702-1.706-10.787 10.832a3.413 3.413 0 0 1 -4.826 0l-4.89-4.909c4.746-3.517 11.289-5.926 20.505-5.921m6.781-6.948a3.414 3.414 0 0 1 -.5.64l-6.165 6.189a62.766 62.766 0 0 0 -11.255-.537 34.967 34.967 0 0 0 2.166-7.974c5.464-.375 10.787.265 15.754 1.682m-17.502-3.874c-7.482-.046-15.086 1.42-22.22 4.228a3.445 3.445 0 0 1 .254-4.558l16.945-17.01c3.4 5.225 4.85 11.077 5.022 17.34m.281-17.115 16.72 16.784c.96.964 1.225 2.37.796 3.58-5.017-1.925-10.36-2.968-15.795-3.2.495-5.45-.159-11.17-1.72-17.164"/></g></svg>