<svg width="1440" height="1176" viewBox="0 0 1440 1176" fill="none" xmlns="http://www.w3.org/2000/svg">
<path fill-rule="evenodd" clip-rule="evenodd" d="M785.772 334.676L993.807 0L994.709 0.620961L786.674 335.297L785.772 334.676ZM516.51 18.4598L655.453 305.095L654.493 305.611L515.55 18.9753L516.51 18.4598ZM461.213 19.0242L643.843 315.205L642.939 315.823L460.309 19.6417L461.213 19.0242ZM774.612 289.68L870.058 25.9343L871.065 26.338L775.619 290.084L774.612 289.68ZM413.516 32.8077L625.999 314.435L625.155 315.14L412.672 33.5131L413.516 32.8077ZM739.738 269.558L766.533 36.696L767.603 36.8323L740.808 269.694L739.738 269.558ZM581.901 50.9918L658.111 264.323L657.103 264.722L580.892 51.3909L581.901 50.9918ZM831.813 293.242L1013.18 54.5365L1014.02 55.2449L832.655 293.951L831.813 293.242ZM199.365 68.7951L598.232 352.842L597.628 353.781L198.761 69.7345L199.365 68.7951ZM842.287 353.706L1244.31 68.8668L1244.91 69.8077L842.889 354.647L842.287 353.706ZM855.532 290.722L1053.16 72.4715L1053.94 73.254L856.312 291.505L855.532 290.722ZM768.51 236.395L807.247 73.2916L808.293 73.5667L769.556 236.67L768.51 236.395ZM861.421 307.065L1108.94 73.7777L1109.66 74.6227L862.14 307.909L861.421 307.065ZM675.241 80.5259L693.762 225.943L692.694 226.094L674.173 80.6766L675.241 80.5259ZM718.608 212.776L717.889 92.4895L718.967 92.4823L719.685 212.769L718.608 212.776ZM640.776 95.913L668.186 213.587L667.14 213.857L639.73 96.1831L640.776 95.913ZM824.973 226.043L887.706 97.8866L888.664 98.4061L825.931 226.562L824.973 226.043ZM302.604 97.911L551.935 301.945L551.273 302.841L301.943 98.8065L302.604 97.911ZM391.316 127.801L522.719 252.335L521.998 253.178L390.595 128.644L391.316 127.801ZM440.252 128.316L535.562 234.242L534.78 235.022L439.47 129.096L440.252 128.316ZM905.081 339.706L1286.64 132.412L1287.13 133.42L905.575 340.714L905.081 339.706ZM941.631 259.96L1088.1 140.72L1088.76 141.618L942.29 260.857L941.631 259.96ZM955.5 294.349L1185.17 152.04L1185.72 153.018L956.047 295.326L955.5 294.349ZM278.502 164.623L464.966 280.773L464.417 281.749L277.953 165.6L278.502 164.623ZM75.1353 169.604L524.602 357.898L524.204 358.952L74.7367 170.658L75.1353 169.604ZM266.173 191.863L426.105 279.195L425.609 280.202L265.676 192.87L266.173 191.863ZM209.931 195.492L434.345 302.962L433.899 303.994L209.485 196.525L209.931 195.492ZM1024.75 295.052L1214.8 204.505L1215.25 205.538L1025.19 296.085L1024.75 295.052ZM1008.68 319.904L1275.33 208.768L1275.73 209.823L1009.08 320.958L1008.68 319.904ZM89.7676 209.851L469.045 348.257L468.692 349.328L89.4145 210.923L89.7676 209.851ZM910.681 380.387L1451.1 210.901L1451.4 211.988L910.988 381.474L910.681 380.387ZM1032.61 326.764L1292.21 232.536L1292.56 233.608L1032.96 327.836L1032.61 326.764ZM917.252 387.351L1477.59 237.216L1477.86 238.315L917.518 388.45L917.252 387.351ZM77.7245 237.247L443.942 352.773L443.632 353.859L77.4151 238.333L77.7245 237.247ZM12.3525 249.07L476.106 374.124L475.838 375.223L12.085 250.169L12.3525 249.07ZM939.37 390.799L1484.41 268.118L1484.64 269.227L939.596 391.908L939.37 390.799ZM-55.8084 295.585L490.293 397.215L490.105 398.332L-55.996 296.702L-55.8084 295.585ZM94.3412 298.091L364.976 359.431L364.749 360.539L94.1143 299.2L94.3412 298.091ZM1085.85 372.637L1362.63 321.563L1362.81 322.68L1086.04 373.754L1085.85 372.637ZM78.8912 345.566L335.039 383.287L334.889 384.41L78.7419 346.689L78.8912 345.566ZM1122.54 381.456L1346.35 348.841L1346.5 349.964L1122.69 382.579L1122.54 381.456ZM942.09 416.062L1542.7 351.011L1542.81 352.139L942.2 417.19L942.09 416.062ZM-56.77 354.732L454.563 410.873L454.451 412.001L-56.8818 355.86L-56.77 354.732ZM943.807 424.02L1552.5 380.274L1552.57 381.406L943.881 425.152L943.807 424.02ZM-45.1656 383.945L431.302 418.863L431.227 419.994L-45.2404 385.076L-45.1656 383.945ZM-61.4702 410.784L440.552 429.566L440.513 430.699L-61.5084 411.917L-61.4702 410.784ZM1042.8 428.445L1460.41 413.403L1460.45 414.537L1042.83 429.578L1042.8 428.445ZM-86.8037 438.506L463.3 439.556L463.298 440.69L-86.8057 439.64L-86.8037 438.506ZM947.598 439.943L1558.05 439.626L1558.05 440.76L947.598 441.077L947.598 439.943ZM948.318 448.028L1555.17 469.276L1555.14 470.409L948.282 449.162L948.318 448.028ZM52.2951 462.497L326.174 453.301L326.208 454.435L52.3295 463.631L52.2951 462.497ZM-104 529.672L526.148 460.618L526.259 461.746L-103.888 530.801L-104 529.672ZM926.474 462.13L1559 529.962L1558.89 531.091L926.365 463.258L926.474 462.13ZM30.0881 487.957L354.948 465.408L355.019 466.54L30.159 489.089L30.0881 487.957ZM1093.44 466.467L1403.29 488.411L1403.21 489.543L1093.37 467.598L1093.44 466.467ZM953.698 473.77L1516.01 555.108L1515.86 556.232L953.551 474.893L953.698 473.77ZM957.261 483.459L1492.31 581.577L1492.13 582.695L957.076 484.576L957.261 483.459ZM22.9099 539.903L388.846 487.514L388.991 488.638L23.0552 541.027L22.9099 539.903ZM20.2409 567.365L411.463 496.229L411.647 497.346L20.4243 568.482L20.2409 567.365ZM32.1741 593.016L423.907 505.973L424.129 507.083L32.3967 594.126L32.1741 593.016ZM21.1621 691.393L532.816 507.494L533.164 508.567L21.5104 692.466L21.1621 691.393ZM1041.58 511.906L1383.48 588.45L1383.26 589.559L1041.36 513.016L1041.58 511.906ZM878.439 514.927L1363.45 745.092L1363.01 746.126L877.996 515.961L878.439 514.927ZM970.879 518.194L1392.58 649.864L1392.28 650.951L970.573 519.281L970.879 518.194ZM102.522 603.738L382.092 529.687L382.355 530.786L102.785 604.838L102.522 603.738ZM66 955.003L607.367 531.138L608.022 532.038L66.6553 955.903L66 955.003ZM1070.68 533.385L1325.64 601.36L1325.38 602.459L1070.42 534.484L1070.68 533.385ZM365.354 830.199L630.33 538.342L631.106 539.13L366.13 830.987L365.354 830.199ZM981.02 548.15L1305.07 682.664L1304.68 683.72L980.625 549.205L981.02 548.15ZM819.607 548.69L1092.52 848.53L1091.74 849.314L818.829 549.475L819.607 548.69ZM1023.41 549.482L1303.28 650.629L1302.93 651.702L1023.06 550.555L1023.41 549.482ZM718.978 954L719.757 550.636L720.835 550.639L720.056 955.003L718.978 954ZM903.302 552.756L1240.08 760.643L1239.54 761.621L902.757 553.735L903.302 552.756ZM176.147 733.121L509.931 553.4L510.422 554.41L176.638 734.131L176.147 733.121ZM169.168 611.15L348.138 555.607L348.443 556.695L169.473 612.238L169.168 611.15ZM779.389 558.68L981.976 977.977L981.02 978.5L778.433 559.202L779.389 558.68ZM167.933 668.217L426.552 561.428L426.946 562.484L168.326 669.273L167.933 668.217ZM243.721 774.64L546.885 561.838L547.483 562.781L244.319 775.584L243.721 774.64ZM199.656 685.907L438.83 572.998L439.271 574.032L200.097 686.942L199.656 685.907ZM232.984 739.376L503.827 573.066L504.37 574.046L233.527 740.356L232.984 739.376ZM916.949 578.519L1172.53 758.867L1171.93 759.809L916.349 579.461L916.949 578.519ZM506.994 867.819L645.981 589.034L646.936 589.561L507.948 868.346L506.994 867.819ZM881.023 590.446L1092.61 788.936L1091.89 789.783L880.305 591.293L881.023 590.446ZM819.206 597.226L964.231 828.968L963.331 829.592L818.306 597.85L819.206 597.226ZM917.685 599.663L1115.17 759.741L1114.52 760.639L917.027 600.562L917.685 599.663ZM1022.51 603.408L1171.75 684.188L1171.26 685.197L1022.01 604.417L1022.51 603.408ZM782.885 609.457L865.905 836.417L864.899 836.825L781.88 609.864L782.885 609.457ZM850.893 610.306L997.781 802.549L996.942 803.26L850.053 611.017L850.893 610.306ZM623.637 840.456L676.995 615.482L678.038 615.766L624.68 840.74L623.637 840.456ZM380.094 757.432L526.154 621.21L526.869 622.059L380.808 758.28L380.094 757.432ZM765.284 623.637L902.757 1175L901.713 1175.28L764.239 623.916L765.284 623.637ZM453.236 787.112L577.871 625.138L578.708 625.852L454.074 787.826L453.236 787.112ZM482.686 807.54L601.536 628.188L602.434 628.815L483.584 808.167L482.686 807.54ZM588.355 798.081L648.522 633.529L649.526 633.941L589.359 798.493L588.355 798.081ZM668.61 873.837L693.413 655.953L694.481 656.099L669.678 873.984L668.61 873.837ZM761.058 785.591L747.384 670.573L748.454 670.432L762.127 785.45L761.058 785.591Z" fill="url(#paint0_radial)"/>
<path fill-rule="evenodd" clip-rule="evenodd" d="M785.772 334.676L993.807 0L994.709 0.620961L786.674 335.297L785.772 334.676ZM516.51 18.4598L655.453 305.095L654.493 305.611L515.55 18.9753L516.51 18.4598ZM461.213 19.0242L643.843 315.205L642.939 315.823L460.309 19.6417L461.213 19.0242ZM774.612 289.68L870.058 25.9343L871.065 26.338L775.619 290.084L774.612 289.68ZM413.516 32.8077L625.999 314.435L625.155 315.14L412.672 33.5131L413.516 32.8077ZM739.738 269.558L766.533 36.696L767.603 36.8323L740.808 269.694L739.738 269.558ZM581.901 50.9918L658.111 264.323L657.103 264.722L580.892 51.3909L581.901 50.9918ZM831.813 293.242L1013.18 54.5365L1014.02 55.2449L832.655 293.951L831.813 293.242ZM199.365 68.7951L598.232 352.842L597.628 353.781L198.761 69.7345L199.365 68.7951ZM842.287 353.706L1244.31 68.8668L1244.91 69.8077L842.889 354.647L842.287 353.706ZM855.532 290.722L1053.16 72.4715L1053.94 73.254L856.312 291.505L855.532 290.722ZM768.51 236.395L807.247 73.2916L808.293 73.5667L769.556 236.67L768.51 236.395ZM861.421 307.065L1108.94 73.7777L1109.66 74.6227L862.14 307.909L861.421 307.065ZM675.241 80.5259L693.762 225.943L692.694 226.094L674.173 80.6766L675.241 80.5259ZM718.608 212.776L717.889 92.4895L718.967 92.4823L719.685 212.769L718.608 212.776ZM640.776 95.913L668.186 213.587L667.14 213.857L639.73 96.1831L640.776 95.913ZM824.973 226.043L887.706 97.8866L888.664 98.4061L825.931 226.562L824.973 226.043ZM302.604 97.911L551.935 301.945L551.273 302.841L301.943 98.8065L302.604 97.911ZM391.316 127.801L522.719 252.335L521.998 253.178L390.595 128.644L391.316 127.801ZM440.252 128.316L535.562 234.242L534.78 235.022L439.47 129.096L440.252 128.316ZM905.081 339.706L1286.64 132.412L1287.13 133.42L905.575 340.714L905.081 339.706ZM941.631 259.96L1088.1 140.72L1088.76 141.618L942.29 260.857L941.631 259.96ZM955.5 294.349L1185.17 152.04L1185.72 153.018L956.047 295.326L955.5 294.349ZM278.502 164.623L464.966 280.773L464.417 281.749L277.953 165.6L278.502 164.623ZM75.1353 169.604L524.602 357.898L524.204 358.952L74.7367 170.658L75.1353 169.604ZM266.173 191.863L426.105 279.195L425.609 280.202L265.676 192.87L266.173 191.863ZM209.931 195.492L434.345 302.962L433.899 303.994L209.485 196.525L209.931 195.492ZM1024.75 295.052L1214.8 204.505L1215.25 205.538L1025.19 296.085L1024.75 295.052ZM1008.68 319.904L1275.33 208.768L1275.73 209.823L1009.08 320.958L1008.68 319.904ZM89.7676 209.851L469.045 348.257L468.692 349.328L89.4145 210.923L89.7676 209.851ZM910.681 380.387L1451.1 210.901L1451.4 211.988L910.988 381.474L910.681 380.387ZM1032.61 326.764L1292.21 232.536L1292.56 233.608L1032.96 327.836L1032.61 326.764ZM917.252 387.351L1477.59 237.216L1477.86 238.315L917.518 388.45L917.252 387.351ZM77.7245 237.247L443.942 352.773L443.632 353.859L77.4151 238.333L77.7245 237.247ZM12.3525 249.07L476.106 374.124L475.838 375.223L12.085 250.169L12.3525 249.07ZM939.37 390.799L1484.41 268.118L1484.64 269.227L939.596 391.908L939.37 390.799ZM-55.8084 295.585L490.293 397.215L490.105 398.332L-55.996 296.702L-55.8084 295.585ZM94.3412 298.091L364.976 359.431L364.749 360.539L94.1143 299.2L94.3412 298.091ZM1085.85 372.637L1362.63 321.563L1362.81 322.68L1086.04 373.754L1085.85 372.637ZM78.8912 345.566L335.039 383.287L334.889 384.41L78.7419 346.689L78.8912 345.566ZM1122.54 381.456L1346.35 348.841L1346.5 349.964L1122.69 382.579L1122.54 381.456ZM942.09 416.062L1542.7 351.011L1542.81 352.139L942.2 417.19L942.09 416.062ZM-56.77 354.732L454.563 410.873L454.451 412.001L-56.8818 355.86L-56.77 354.732ZM943.807 424.02L1552.5 380.274L1552.57 381.406L943.881 425.152L943.807 424.02ZM-45.1656 383.945L431.302 418.863L431.227 419.994L-45.2404 385.076L-45.1656 383.945ZM-61.4702 410.784L440.552 429.566L440.513 430.699L-61.5084 411.917L-61.4702 410.784ZM1042.8 428.445L1460.41 413.403L1460.45 414.537L1042.83 429.578L1042.8 428.445ZM-86.8037 438.506L463.3 439.556L463.298 440.69L-86.8057 439.64L-86.8037 438.506ZM947.598 439.943L1558.05 439.626L1558.05 440.76L947.598 441.077L947.598 439.943ZM948.318 448.028L1555.17 469.276L1555.14 470.409L948.282 449.162L948.318 448.028ZM52.2951 462.497L326.174 453.301L326.208 454.435L52.3295 463.631L52.2951 462.497ZM-104 529.672L526.148 460.618L526.259 461.746L-103.888 530.801L-104 529.672ZM926.474 462.13L1559 529.962L1558.89 531.091L926.365 463.258L926.474 462.13ZM30.0881 487.957L354.948 465.408L355.019 466.54L30.159 489.089L30.0881 487.957ZM1093.44 466.467L1403.29 488.411L1403.21 489.543L1093.37 467.598L1093.44 466.467ZM953.698 473.77L1516.01 555.108L1515.86 556.232L953.551 474.893L953.698 473.77ZM957.261 483.459L1492.31 581.577L1492.13 582.695L957.076 484.576L957.261 483.459ZM22.9099 539.903L388.846 487.514L388.991 488.638L23.0552 541.027L22.9099 539.903ZM20.2409 567.365L411.463 496.229L411.647 497.346L20.4243 568.482L20.2409 567.365ZM32.1741 593.016L423.907 505.973L424.129 507.083L32.3967 594.126L32.1741 593.016ZM21.1621 691.393L532.816 507.494L533.164 508.567L21.5104 692.466L21.1621 691.393ZM1041.58 511.906L1383.48 588.45L1383.26 589.559L1041.36 513.016L1041.58 511.906ZM878.439 514.927L1363.45 745.092L1363.01 746.126L877.996 515.961L878.439 514.927ZM970.879 518.194L1392.58 649.864L1392.28 650.951L970.573 519.281L970.879 518.194ZM102.522 603.738L382.092 529.687L382.355 530.786L102.785 604.838L102.522 603.738ZM66 955.003L607.367 531.138L608.022 532.038L66.6553 955.903L66 955.003ZM1070.68 533.385L1325.64 601.36L1325.38 602.459L1070.42 534.484L1070.68 533.385ZM365.354 830.199L630.33 538.342L631.106 539.13L366.13 830.987L365.354 830.199ZM981.02 548.15L1305.07 682.664L1304.68 683.72L980.625 549.205L981.02 548.15ZM819.607 548.69L1092.52 848.53L1091.74 849.314L818.829 549.475L819.607 548.69ZM1023.41 549.482L1303.28 650.629L1302.93 651.702L1023.06 550.555L1023.41 549.482ZM718.978 954L719.757 550.636L720.835 550.639L720.056 955.003L718.978 954ZM903.302 552.756L1240.08 760.643L1239.54 761.621L902.757 553.735L903.302 552.756ZM176.147 733.121L509.931 553.4L510.422 554.41L176.638 734.131L176.147 733.121ZM169.168 611.15L348.138 555.607L348.443 556.695L169.473 612.238L169.168 611.15ZM779.389 558.68L981.976 977.977L981.02 978.5L778.433 559.202L779.389 558.68ZM167.933 668.217L426.552 561.428L426.946 562.484L168.326 669.273L167.933 668.217ZM243.721 774.64L546.885 561.838L547.483 562.781L244.319 775.584L243.721 774.64ZM199.656 685.907L438.83 572.998L439.271 574.032L200.097 686.942L199.656 685.907ZM232.984 739.376L503.827 573.066L504.37 574.046L233.527 740.356L232.984 739.376ZM916.949 578.519L1172.53 758.867L1171.93 759.809L916.349 579.461L916.949 578.519ZM506.994 867.819L645.981 589.034L646.936 589.561L507.948 868.346L506.994 867.819ZM881.023 590.446L1092.61 788.936L1091.89 789.783L880.305 591.293L881.023 590.446ZM819.206 597.226L964.231 828.968L963.331 829.592L818.306 597.85L819.206 597.226ZM917.685 599.663L1115.17 759.741L1114.52 760.639L917.027 600.562L917.685 599.663ZM1022.51 603.408L1171.75 684.188L1171.26 685.197L1022.01 604.417L1022.51 603.408ZM782.885 609.457L865.905 836.417L864.899 836.825L781.88 609.864L782.885 609.457ZM850.893 610.306L997.781 802.549L996.942 803.26L850.053 611.017L850.893 610.306ZM623.637 840.456L676.995 615.482L678.038 615.766L624.68 840.74L623.637 840.456ZM380.094 757.432L526.154 621.21L526.869 622.059L380.808 758.28L380.094 757.432ZM765.284 623.637L902.757 1175L901.713 1175.28L764.239 623.916L765.284 623.637ZM453.236 787.112L577.871 625.138L578.708 625.852L454.074 787.826L453.236 787.112ZM482.686 807.54L601.536 628.188L602.434 628.815L483.584 808.167L482.686 807.54ZM588.355 798.081L648.522 633.529L649.526 633.941L589.359 798.493L588.355 798.081ZM668.61 873.837L693.413 655.953L694.481 656.099L669.678 873.984L668.61 873.837ZM761.058 785.591L747.384 670.573L748.454 670.432L762.127 785.45L761.058 785.591Z" fill="url(#paint1_linear)"/>
<defs>
<radialGradient id="paint0_radial" cx="0" cy="0" r="1" gradientUnits="userSpaceOnUse" gradientTransform="translate(727.5 453.287) rotate(90) scale(453.287 831.5)">
<stop offset="0.134015" stop-color="white"/>
<stop offset="0.361883" stop-color="#9BCFFF"/>
<stop offset="1" stop-color="#1288FF"/>
</radialGradient>
<linearGradient id="paint1_linear" x1="727.5" y1="8.9596e-08" x2="728.096" y2="615.639" gradientUnits="userSpaceOnUse">
<stop offset="0.282435" stop-color="white"/>
<stop offset="1" stop-color="white" stop-opacity="0"/>
</linearGradient>
</defs>
</svg>
