<svg width="1663" height="1176" viewBox="0 0 1663 1176" fill="none" xmlns="http://www.w3.org/2000/svg">
<path fill-rule="evenodd" clip-rule="evenodd" d="M889.772 334.676L1097.81 0L1098.71 0.620961L890.674 335.297L889.772 334.676ZM620.51 18.4598L759.453 305.095L758.493 305.611L619.55 18.9753L620.51 18.4598ZM565.213 19.0242L747.843 315.205L746.939 315.823L564.309 19.6417L565.213 19.0242ZM878.612 289.68L974.058 25.9343L975.065 26.338L879.619 290.084L878.612 289.68ZM517.516 32.8077L729.999 314.435L729.155 315.14L516.672 33.5131L517.516 32.8077ZM843.738 269.558L870.533 36.696L871.603 36.8323L844.808 269.694L843.738 269.558ZM685.901 50.9918L762.111 264.323L761.103 264.722L684.892 51.3909L685.901 50.9918ZM935.813 293.242L1117.18 54.5365L1118.02 55.2449L936.655 293.951L935.813 293.242ZM303.365 68.7951L702.232 352.842L701.628 353.781L302.761 69.7345L303.365 68.7951ZM946.287 353.706L1348.31 68.8668L1348.91 69.8077L946.889 354.647L946.287 353.706ZM959.532 290.722L1157.16 72.4715L1157.94 73.254L960.312 291.505L959.532 290.722ZM872.51 236.395L911.247 73.2916L912.293 73.5667L873.556 236.67L872.51 236.395ZM965.421 307.065L1212.94 73.7777L1213.66 74.6227L966.14 307.909L965.421 307.065ZM779.241 80.5259L797.762 225.943L796.694 226.094L778.173 80.6766L779.241 80.5259ZM822.608 212.776L821.889 92.4895L822.967 92.4823L823.685 212.769L822.608 212.776ZM744.776 95.913L772.186 213.587L771.14 213.857L743.73 96.1831L744.776 95.913ZM928.973 226.043L991.706 97.8866L992.664 98.4061L929.931 226.562L928.973 226.043ZM406.604 97.911L655.935 301.945L655.273 302.841L405.943 98.8065L406.604 97.911ZM495.316 127.801L626.719 252.335L625.998 253.178L494.595 128.644L495.316 127.801ZM544.252 128.316L639.562 234.242L638.78 235.022L543.47 129.096L544.252 128.316ZM1009.08 339.706L1390.64 132.412L1391.13 133.42L1009.58 340.714L1009.08 339.706ZM1045.63 259.96L1192.1 140.72L1192.76 141.618L1046.29 260.857L1045.63 259.96ZM1059.5 294.349L1289.17 152.04L1289.72 153.018L1060.05 295.326L1059.5 294.349ZM382.502 164.623L568.966 280.773L568.417 281.749L381.953 165.6L382.502 164.623ZM179.135 169.604L628.602 357.898L628.204 358.952L178.737 170.658L179.135 169.604ZM370.173 191.863L530.105 279.195L529.609 280.202L369.676 192.87L370.173 191.863ZM313.931 195.492L538.345 302.962L537.899 303.994L313.485 196.525L313.931 195.492ZM1128.75 295.052L1318.8 204.505L1319.25 205.538L1129.19 296.085L1128.75 295.052ZM1112.68 319.904L1379.33 208.768L1379.73 209.823L1113.08 320.958L1112.68 319.904ZM193.768 209.851L573.045 348.257L572.692 349.328L193.415 210.923L193.768 209.851ZM1014.68 380.387L1555.1 210.901L1555.4 211.988L1014.99 381.474L1014.68 380.387ZM1136.61 326.764L1396.21 232.536L1396.56 233.608L1136.96 327.836L1136.61 326.764ZM1021.25 387.351L1581.59 237.216L1581.86 238.315L1021.52 388.45L1021.25 387.351ZM181.725 237.247L547.942 352.773L547.632 353.859L181.415 238.333L181.725 237.247ZM116.352 249.07L580.106 374.124L579.838 375.223L116.085 250.169L116.352 249.07ZM1043.37 390.799L1588.41 268.118L1588.64 269.227L1043.6 391.908L1043.37 390.799ZM48.1916 295.585L594.293 397.215L594.105 398.332L48.004 296.702L48.1916 295.585ZM198.341 298.091L468.976 359.431L468.749 360.539L198.114 299.2L198.341 298.091ZM1189.85 372.637L1466.63 321.563L1466.81 322.68L1190.04 373.754L1189.85 372.637ZM182.891 345.566L439.039 383.287L438.889 384.41L182.742 346.689L182.891 345.566ZM1226.54 381.456L1450.35 348.841L1450.5 349.964L1226.69 382.579L1226.54 381.456ZM1046.09 416.062L1646.7 351.011L1646.81 352.139L1046.2 417.19L1046.09 416.062ZM47.23 354.732L558.563 410.873L558.451 412.001L47.1182 355.86L47.23 354.732ZM1047.81 424.02L1656.5 380.274L1656.57 381.406L1047.88 425.152L1047.81 424.02ZM58.8344 383.945L535.302 418.863L535.227 419.994L58.7596 385.076L58.8344 383.945ZM42.5298 410.784L544.552 429.566L544.513 430.699L42.4916 411.917L42.5298 410.784ZM1146.8 428.445L1564.41 413.403L1564.45 414.537L1146.83 429.578L1146.8 428.445ZM17.1963 438.506L567.3 439.556L567.298 440.69L17.1943 439.64L17.1963 438.506ZM1051.6 439.943L1662.05 439.626L1662.05 440.76L1051.6 441.077L1051.6 439.943ZM1052.32 448.028L1659.17 469.276L1659.14 470.409L1052.28 449.162L1052.32 448.028ZM156.295 462.497L430.174 453.301L430.208 454.435L156.329 463.631L156.295 462.497ZM0 529.672L630.148 460.618L630.259 461.746L0.111608 530.801L0 529.672ZM1030.47 462.13L1663 529.962L1662.89 531.091L1030.36 463.258L1030.47 462.13ZM134.088 487.957L458.948 465.408L459.019 466.54L134.159 489.089L134.088 487.957ZM1197.44 466.467L1507.29 488.411L1507.21 489.543L1197.37 467.598L1197.44 466.467ZM1057.7 473.77L1620.01 555.108L1619.86 556.232L1057.55 474.893L1057.7 473.77ZM1061.26 483.459L1596.31 581.577L1596.13 582.695L1061.08 484.576L1061.26 483.459ZM126.91 539.903L492.846 487.514L492.991 488.638L127.055 541.027L126.91 539.903ZM124.241 567.365L515.463 496.229L515.647 497.346L124.424 568.482L124.241 567.365ZM136.174 593.016L527.907 505.973L528.129 507.083L136.397 594.126L136.174 593.016ZM125.162 691.393L636.816 507.494L637.164 508.567L125.51 692.466L125.162 691.393ZM1145.58 511.906L1487.48 588.45L1487.26 589.559L1145.36 513.016L1145.58 511.906ZM982.439 514.927L1467.45 745.092L1467.01 746.126L981.996 515.961L982.439 514.927ZM1074.88 518.194L1496.58 649.864L1496.28 650.951L1074.57 519.281L1074.88 518.194ZM206.522 603.738L486.092 529.687L486.355 530.786L206.785 604.838L206.522 603.738ZM170 955.003L711.367 531.138L712.022 532.038L170.655 955.903L170 955.003ZM1174.68 533.385L1429.64 601.36L1429.38 602.459L1174.42 534.484L1174.68 533.385ZM469.354 830.199L734.33 538.342L735.106 539.13L470.13 830.987L469.354 830.199ZM1085.02 548.15L1409.07 682.664L1408.68 683.72L1084.62 549.205L1085.02 548.15ZM923.607 548.69L1196.52 848.53L1195.74 849.314L922.829 549.475L923.607 548.69ZM1127.41 549.482L1407.28 650.629L1406.93 651.702L1127.06 550.555L1127.41 549.482ZM822.978 954L823.757 550.636L824.835 550.639L824.056 955.003L822.978 954ZM1007.3 552.756L1344.08 760.643L1343.54 761.621L1006.76 553.735L1007.3 552.756ZM280.147 733.121L613.931 553.4L614.422 554.41L280.638 734.131L280.147 733.121ZM273.168 611.15L452.138 555.607L452.443 556.695L273.473 612.238L273.168 611.15ZM883.389 558.68L1085.98 977.977L1085.02 978.5L882.433 559.202L883.389 558.68ZM271.933 668.217L530.552 561.428L530.946 562.484L272.326 669.273L271.933 668.217ZM347.721 774.64L650.885 561.838L651.483 562.781L348.319 775.584L347.721 774.64ZM303.656 685.907L542.83 572.998L543.271 574.032L304.097 686.942L303.656 685.907ZM336.984 739.376L607.827 573.066L608.37 574.046L337.527 740.356L336.984 739.376ZM1020.95 578.519L1276.53 758.867L1275.93 759.809L1020.35 579.461L1020.95 578.519ZM610.994 867.819L749.981 589.034L750.936 589.561L611.948 868.346L610.994 867.819ZM985.023 590.446L1196.61 788.936L1195.89 789.783L984.305 591.293L985.023 590.446ZM923.206 597.226L1068.23 828.968L1067.33 829.592L922.306 597.85L923.206 597.226ZM1021.68 599.663L1219.17 759.741L1218.52 760.639L1021.03 600.562L1021.68 599.663ZM1126.51 603.408L1275.75 684.188L1275.26 685.197L1126.01 604.417L1126.51 603.408ZM886.885 609.457L969.905 836.417L968.899 836.825L885.88 609.864L886.885 609.457ZM954.893 610.306L1101.78 802.549L1100.94 803.26L954.053 611.017L954.893 610.306ZM727.637 840.456L780.995 615.482L782.038 615.766L728.68 840.74L727.637 840.456ZM484.094 757.432L630.154 621.21L630.869 622.059L484.808 758.28L484.094 757.432ZM869.284 623.637L1006.76 1175L1005.71 1175.28L868.239 623.916L869.284 623.637ZM557.236 787.112L681.871 625.138L682.708 625.852L558.074 787.826L557.236 787.112ZM586.686 807.54L705.536 628.188L706.434 628.815L587.584 808.167L586.686 807.54ZM692.355 798.081L752.522 633.529L753.526 633.941L693.359 798.493L692.355 798.081ZM772.61 873.837L797.413 655.953L798.481 656.099L773.678 873.984L772.61 873.837ZM865.058 785.591L851.384 670.573L852.454 670.432L866.127 785.45L865.058 785.591Z" fill="url(#paint0_radial)"/>
<path fill-rule="evenodd" clip-rule="evenodd" d="M889.772 334.676L1097.81 0L1098.71 0.620961L890.674 335.297L889.772 334.676ZM620.51 18.4598L759.453 305.095L758.493 305.611L619.55 18.9753L620.51 18.4598ZM565.213 19.0242L747.843 315.205L746.939 315.823L564.309 19.6417L565.213 19.0242ZM878.612 289.68L974.058 25.9343L975.065 26.338L879.619 290.084L878.612 289.68ZM517.516 32.8077L729.999 314.435L729.155 315.14L516.672 33.5131L517.516 32.8077ZM843.738 269.558L870.533 36.696L871.603 36.8323L844.808 269.694L843.738 269.558ZM685.901 50.9918L762.111 264.323L761.103 264.722L684.892 51.3909L685.901 50.9918ZM935.813 293.242L1117.18 54.5365L1118.02 55.2449L936.655 293.951L935.813 293.242ZM303.365 68.7951L702.232 352.842L701.628 353.781L302.761 69.7345L303.365 68.7951ZM946.287 353.706L1348.31 68.8668L1348.91 69.8077L946.889 354.647L946.287 353.706ZM959.532 290.722L1157.16 72.4715L1157.94 73.254L960.312 291.505L959.532 290.722ZM872.51 236.395L911.247 73.2916L912.293 73.5667L873.556 236.67L872.51 236.395ZM965.421 307.065L1212.94 73.7777L1213.66 74.6227L966.14 307.909L965.421 307.065ZM779.241 80.5259L797.762 225.943L796.694 226.094L778.173 80.6766L779.241 80.5259ZM822.608 212.776L821.889 92.4895L822.967 92.4823L823.685 212.769L822.608 212.776ZM744.776 95.913L772.186 213.587L771.14 213.857L743.73 96.1831L744.776 95.913ZM928.973 226.043L991.706 97.8866L992.664 98.4061L929.931 226.562L928.973 226.043ZM406.604 97.911L655.935 301.945L655.273 302.841L405.943 98.8065L406.604 97.911ZM495.316 127.801L626.719 252.335L625.998 253.178L494.595 128.644L495.316 127.801ZM544.252 128.316L639.562 234.242L638.78 235.022L543.47 129.096L544.252 128.316ZM1009.08 339.706L1390.64 132.412L1391.13 133.42L1009.58 340.714L1009.08 339.706ZM1045.63 259.96L1192.1 140.72L1192.76 141.618L1046.29 260.857L1045.63 259.96ZM1059.5 294.349L1289.17 152.04L1289.72 153.018L1060.05 295.326L1059.5 294.349ZM382.502 164.623L568.966 280.773L568.417 281.749L381.953 165.6L382.502 164.623ZM179.135 169.604L628.602 357.898L628.204 358.952L178.737 170.658L179.135 169.604ZM370.173 191.863L530.105 279.195L529.609 280.202L369.676 192.87L370.173 191.863ZM313.931 195.492L538.345 302.962L537.899 303.994L313.485 196.525L313.931 195.492ZM1128.75 295.052L1318.8 204.505L1319.25 205.538L1129.19 296.085L1128.75 295.052ZM1112.68 319.904L1379.33 208.768L1379.73 209.823L1113.08 320.958L1112.68 319.904ZM193.768 209.851L573.045 348.257L572.692 349.328L193.415 210.923L193.768 209.851ZM1014.68 380.387L1555.1 210.901L1555.4 211.988L1014.99 381.474L1014.68 380.387ZM1136.61 326.764L1396.21 232.536L1396.56 233.608L1136.96 327.836L1136.61 326.764ZM1021.25 387.351L1581.59 237.216L1581.86 238.315L1021.52 388.45L1021.25 387.351ZM181.725 237.247L547.942 352.773L547.632 353.859L181.415 238.333L181.725 237.247ZM116.352 249.07L580.106 374.124L579.838 375.223L116.085 250.169L116.352 249.07ZM1043.37 390.799L1588.41 268.118L1588.64 269.227L1043.6 391.908L1043.37 390.799ZM48.1916 295.585L594.293 397.215L594.105 398.332L48.004 296.702L48.1916 295.585ZM198.341 298.091L468.976 359.431L468.749 360.539L198.114 299.2L198.341 298.091ZM1189.85 372.637L1466.63 321.563L1466.81 322.68L1190.04 373.754L1189.85 372.637ZM182.891 345.566L439.039 383.287L438.889 384.41L182.742 346.689L182.891 345.566ZM1226.54 381.456L1450.35 348.841L1450.5 349.964L1226.69 382.579L1226.54 381.456ZM1046.09 416.062L1646.7 351.011L1646.81 352.139L1046.2 417.19L1046.09 416.062ZM47.23 354.732L558.563 410.873L558.451 412.001L47.1182 355.86L47.23 354.732ZM1047.81 424.02L1656.5 380.274L1656.57 381.406L1047.88 425.152L1047.81 424.02ZM58.8344 383.945L535.302 418.863L535.227 419.994L58.7596 385.076L58.8344 383.945ZM42.5298 410.784L544.552 429.566L544.513 430.699L42.4916 411.917L42.5298 410.784ZM1146.8 428.445L1564.41 413.403L1564.45 414.537L1146.83 429.578L1146.8 428.445ZM17.1963 438.506L567.3 439.556L567.298 440.69L17.1943 439.64L17.1963 438.506ZM1051.6 439.943L1662.05 439.626L1662.05 440.76L1051.6 441.077L1051.6 439.943ZM1052.32 448.028L1659.17 469.276L1659.14 470.409L1052.28 449.162L1052.32 448.028ZM156.295 462.497L430.174 453.301L430.208 454.435L156.329 463.631L156.295 462.497ZM0 529.672L630.148 460.618L630.259 461.746L0.111608 530.801L0 529.672ZM1030.47 462.13L1663 529.962L1662.89 531.091L1030.36 463.258L1030.47 462.13ZM134.088 487.957L458.948 465.408L459.019 466.54L134.159 489.089L134.088 487.957ZM1197.44 466.467L1507.29 488.411L1507.21 489.543L1197.37 467.598L1197.44 466.467ZM1057.7 473.77L1620.01 555.108L1619.86 556.232L1057.55 474.893L1057.7 473.77ZM1061.26 483.459L1596.31 581.577L1596.13 582.695L1061.08 484.576L1061.26 483.459ZM126.91 539.903L492.846 487.514L492.991 488.638L127.055 541.027L126.91 539.903ZM124.241 567.365L515.463 496.229L515.647 497.346L124.424 568.482L124.241 567.365ZM136.174 593.016L527.907 505.973L528.129 507.083L136.397 594.126L136.174 593.016ZM125.162 691.393L636.816 507.494L637.164 508.567L125.51 692.466L125.162 691.393ZM1145.58 511.906L1487.48 588.45L1487.26 589.559L1145.36 513.016L1145.58 511.906ZM982.439 514.927L1467.45 745.092L1467.01 746.126L981.996 515.961L982.439 514.927ZM1074.88 518.194L1496.58 649.864L1496.28 650.951L1074.57 519.281L1074.88 518.194ZM206.522 603.738L486.092 529.687L486.355 530.786L206.785 604.838L206.522 603.738ZM170 955.003L711.367 531.138L712.022 532.038L170.655 955.903L170 955.003ZM1174.68 533.385L1429.64 601.36L1429.38 602.459L1174.42 534.484L1174.68 533.385ZM469.354 830.199L734.33 538.342L735.106 539.13L470.13 830.987L469.354 830.199ZM1085.02 548.15L1409.07 682.664L1408.68 683.72L1084.62 549.205L1085.02 548.15ZM923.607 548.69L1196.52 848.53L1195.74 849.314L922.829 549.475L923.607 548.69ZM1127.41 549.482L1407.28 650.629L1406.93 651.702L1127.06 550.555L1127.41 549.482ZM822.978 954L823.757 550.636L824.835 550.639L824.056 955.003L822.978 954ZM1007.3 552.756L1344.08 760.643L1343.54 761.621L1006.76 553.735L1007.3 552.756ZM280.147 733.121L613.931 553.4L614.422 554.41L280.638 734.131L280.147 733.121ZM273.168 611.15L452.138 555.607L452.443 556.695L273.473 612.238L273.168 611.15ZM883.389 558.68L1085.98 977.977L1085.02 978.5L882.433 559.202L883.389 558.68ZM271.933 668.217L530.552 561.428L530.946 562.484L272.326 669.273L271.933 668.217ZM347.721 774.64L650.885 561.838L651.483 562.781L348.319 775.584L347.721 774.64ZM303.656 685.907L542.83 572.998L543.271 574.032L304.097 686.942L303.656 685.907ZM336.984 739.376L607.827 573.066L608.37 574.046L337.527 740.356L336.984 739.376ZM1020.95 578.519L1276.53 758.867L1275.93 759.809L1020.35 579.461L1020.95 578.519ZM610.994 867.819L749.981 589.034L750.936 589.561L611.948 868.346L610.994 867.819ZM985.023 590.446L1196.61 788.936L1195.89 789.783L984.305 591.293L985.023 590.446ZM923.206 597.226L1068.23 828.968L1067.33 829.592L922.306 597.85L923.206 597.226ZM1021.68 599.663L1219.17 759.741L1218.52 760.639L1021.03 600.562L1021.68 599.663ZM1126.51 603.408L1275.75 684.188L1275.26 685.197L1126.01 604.417L1126.51 603.408ZM886.885 609.457L969.905 836.417L968.899 836.825L885.88 609.864L886.885 609.457ZM954.893 610.306L1101.78 802.549L1100.94 803.26L954.053 611.017L954.893 610.306ZM727.637 840.456L780.995 615.482L782.038 615.766L728.68 840.74L727.637 840.456ZM484.094 757.432L630.154 621.21L630.869 622.059L484.808 758.28L484.094 757.432ZM869.284 623.637L1006.76 1175L1005.71 1175.28L868.239 623.916L869.284 623.637ZM557.236 787.112L681.871 625.138L682.708 625.852L558.074 787.826L557.236 787.112ZM586.686 807.54L705.536 628.188L706.434 628.815L587.584 808.167L586.686 807.54ZM692.355 798.081L752.522 633.529L753.526 633.941L693.359 798.493L692.355 798.081ZM772.61 873.837L797.413 655.953L798.481 656.099L773.678 873.984L772.61 873.837ZM865.058 785.591L851.384 670.573L852.454 670.432L866.127 785.45L865.058 785.591Z" fill="url(#paint1_linear)"/>
<defs>
<radialGradient id="paint0_radial" cx="0" cy="0" r="1" gradientUnits="userSpaceOnUse" gradientTransform="translate(831.5 453.287) rotate(90) scale(453.287 831.5)">
<stop offset="0.134015" stop-color="white"/>
<stop offset="0.361883" stop-color="#9BCFFF"/>
<stop offset="1" stop-color="#1288FF"/>
</radialGradient>
<linearGradient id="paint1_linear" x1="831.5" y1="8.9596e-08" x2="832.096" y2="615.639" gradientUnits="userSpaceOnUse">
<stop offset="0.282435" stop-color="white"/>
<stop offset="1" stop-color="white" stop-opacity="0"/>
</linearGradient>
</defs>
</svg>
