<?xml version="1.0" encoding="UTF-8"?>
<svg width="111px" height="101px" viewBox="0 0 111 101" version="1.1" xmlns="http://www.w3.org/2000/svg" xmlns:xlink="http://www.w3.org/1999/xlink">
    <!-- Generator: Sketch 55.2 (78181) - https://sketchapp.com -->
    <title>double_logo</title>
    <desc>Created with Sketch.</desc>
    <defs>
        <path d="M54.76,82.36 L54.52,82.36 C52.4399896,85.8800176 49.6400176,88.439992 46.12,90.04 C42.5999824,91.640008 38.8000204,92.44 34.72,92.44 C30.2399776,92.44 26.2600174,91.6600078 22.78,90.1 C19.2999826,88.5399922 16.3200124,86.4000136 13.84,83.68 C11.3599876,80.9599864 9.4800064,77.7600184 8.2,74.08 C6.9199936,70.3999816 6.28,66.4400212 6.28,62.2 C6.28,57.9599788 6.9599932,54.0000184 8.32,50.32 C9.6800068,46.6399816 11.5799878,43.4400136 14.02,40.72 C16.4600122,37.9999864 19.3999828,35.8600078 22.84,34.3 C26.2800172,32.7399922 30.0399796,31.96 34.12,31.96 C36.8400136,31.96 39.2399896,32.2399972 41.32,32.8 C43.4000104,33.3600028 45.239992,34.0799956 46.84,34.96 C48.440008,35.8400044 49.7999944,36.78 50.92,37.78 C52.0400056,38.78 52.9599964,39.7599952 53.68,40.72 L54.04,40.72 L54.04,0.28 L68.44,0.28 L68.44,91 L54.76,91 L54.76,82.36 Z M20.68,62.2 C20.68,64.4400112 21.0599962,66.5999896 21.82,68.68 C22.5800038,70.7600104 23.6999926,72.599992 25.18,74.2 C26.6600074,75.800008 28.4399896,77.0799952 30.52,78.04 C32.6000104,79.0000048 34.9599868,79.48 37.6,79.48 C40.2400132,79.48 42.5999896,79.0000048 44.68,78.04 C46.7600104,77.0799952 48.5399926,75.800008 50.02,74.2 C51.5000074,72.599992 52.6199962,70.7600104 53.38,68.68 C54.1400038,66.5999896 54.52,64.4400112 54.52,62.2 C54.52,59.9599888 54.1400038,57.8000104 53.38,55.72 C52.6199962,53.6399896 51.5000074,51.800008 50.02,50.2 C48.5399926,48.599992 46.7600104,47.3200048 44.68,46.36 C42.5999896,45.3999952 40.2400132,44.92 37.6,44.92 C34.9599868,44.92 32.6000104,45.3999952 30.52,46.36 C28.4399896,47.3200048 26.6600074,48.599992 25.18,50.2 C23.6999926,51.800008 22.5800038,53.6399896 21.82,55.72 C21.0599962,57.8000104 20.68,59.9599888 20.68,62.2 Z" id="path-1"></path>
        <path d="M53.48,82.08 L53.24,82.08 C51.1599896,85.6000176 48.3600176,88.159992 44.84,89.76 C41.3199824,91.360008 37.5200204,92.16 33.44,92.16 C28.9599776,92.16 24.9800174,91.3800078 21.5,89.82 C18.0199826,88.2599922 15.0400124,86.1200136 12.56,83.4 C10.0799876,80.6799864 8.2000064,77.4800184 6.92,73.8 C5.6399936,70.1199816 5,66.1600212 5,61.92 C5,57.6799788 5.6799932,53.7200184 7.04,50.04 C8.4000068,46.3599816 10.2999878,43.1600136 12.74,40.44 C15.1800122,37.7199864 18.1199828,35.5800078 21.56,34.02 C25.0000172,32.4599922 28.7599796,31.68 32.84,31.68 C35.5600136,31.68 37.9599896,31.9599972 40.04,32.52 C42.1200104,33.0800028 43.959992,33.7999956 45.56,34.68 C47.160008,35.5600044 48.5199944,36.5 49.64,37.5 C50.7600056,38.5 51.6799964,39.4799952 52.4,40.44 L52.76,40.44 L52.76,-1.42108547e-14 L67.16,-1.42108547e-14 L67.16,90.72 L53.48,90.72 L53.48,82.08 Z M19.4,61.92 C19.4,64.1600112 19.7799962,66.3199896 20.54,68.4 C21.3000038,70.4800104 22.4199926,72.319992 23.9,73.92 C25.3800074,75.520008 27.1599896,76.7999952 29.24,77.76 C31.3200104,78.7200048 33.6799868,79.2 36.32,79.2 C38.9600132,79.2 41.3199896,78.7200048 43.4,77.76 C45.4800104,76.7999952 47.2599926,75.520008 48.74,73.92 C50.2200074,72.319992 51.3399962,70.4800104 52.1,68.4 C52.8600038,66.3199896 53.24,64.1600112 53.24,61.92 C53.24,59.6799888 52.8600038,57.5200104 52.1,55.44 C51.3399962,53.3599896 50.2200074,51.520008 48.74,49.92 C47.2599926,48.319992 45.4800104,47.0400048 43.4,46.08 C41.3199896,45.1199952 38.9600132,44.64 36.32,44.64 C33.6799868,44.64 31.3200104,45.1199952 29.24,46.08 C27.1599896,47.0400048 25.3800074,48.319992 23.9,49.92 C22.4199926,51.520008 21.3000038,53.3599896 20.54,55.44 C19.7799962,57.5200104 19.4,59.6799888 19.4,61.92 Z" id="path-2"></path>
    </defs>
    <g id="Designs" stroke="none" stroke-width="1" fill="none" fill-rule="evenodd">
        <g id="Artboard" transform="translate(-84.000000, -91.000000)">
            <g id="double_logo" transform="translate(84.000000, 91.000000)">
                <g id="double" transform="translate(34.000000, 0.000000)">
                    <rect id="Rectangle" fill="#51ABFF" x="0" y="95" width="77" height="6"></rect>
                    <g fill-rule="nonzero">
                        <use fill="#000000" xlink:href="#path-1"></use>
                        <use fill="#51ABFF" xlink:href="#path-1"></use>
                    </g>
                </g>
                <g id="double">
                    <rect id="Rectangle" fill="#292F47" x="0" y="95" width="72" height="6"></rect>
                    <g fill-rule="nonzero">
                        <use fill="#000000" xlink:href="#path-2"></use>
                        <use fill="#292F47" xlink:href="#path-2"></use>
                    </g>
                </g>
            </g>
        </g>
    </g>
</svg>