<?xml version="1.0" encoding="UTF-8"?>
<svg width="390px" height="101px" viewBox="0 0 390 101" version="1.1" xmlns="http://www.w3.org/2000/svg" xmlns:xlink="http://www.w3.org/1999/xlink">
    <!-- Generator: Sketch 55.2 (78181) - https://sketchapp.com -->
    <title>double</title>
    <desc>Created with Sketch.</desc>
    <defs>
        <path d="M54.76,111.36 L54.52,111.36 C52.4399896,114.880018 49.6400176,117.439992 46.12,119.04 C42.5999824,120.640008 38.8000204,121.44 34.72,121.44 C30.2399776,121.44 26.2600174,120.660008 22.78,119.1 C19.2999826,117.539992 16.3200124,115.400014 13.84,112.68 C11.3599876,109.959986 9.4800064,106.760018 8.2,103.08 C6.9199936,99.3999816 6.28,95.4400212 6.28,91.2 C6.28,86.9599788 6.9599932,83.0000184 8.32,79.32 C9.6800068,75.6399816 11.5799878,72.4400136 14.02,69.72 C16.4600122,66.9999864 19.3999828,64.8600078 22.84,63.3 C26.2800172,61.7399922 30.0399796,60.96 34.12,60.96 C36.8400136,60.96 39.2399896,61.2399972 41.32,61.8 C43.4000104,62.3600028 45.239992,63.0799956 46.84,63.96 C48.440008,64.8400044 49.7999944,65.78 50.92,66.78 C52.0400056,67.78 52.9599964,68.7599952 53.68,69.72 L54.04,69.72 L54.04,29.28 L68.44,29.28 L68.44,120 L54.76,120 L54.76,111.36 Z M20.68,91.2 C20.68,93.4400112 21.0599962,95.5999896 21.82,97.68 C22.5800038,99.7600104 23.6999926,101.599992 25.18,103.2 C26.6600074,104.800008 28.4399896,106.079995 30.52,107.04 C32.6000104,108.000005 34.9599868,108.48 37.6,108.48 C40.2400132,108.48 42.5999896,108.000005 44.68,107.04 C46.7600104,106.079995 48.5399926,104.800008 50.02,103.2 C51.5000074,101.599992 52.6199962,99.7600104 53.38,97.68 C54.1400038,95.5999896 54.52,93.4400112 54.52,91.2 C54.52,88.9599888 54.1400038,86.8000104 53.38,84.72 C52.6199962,82.6399896 51.5000074,80.800008 50.02,79.2 C48.5399926,77.599992 46.7600104,76.3200048 44.68,75.36 C42.5999896,74.3999952 40.2400132,73.92 37.6,73.92 C34.9599868,73.92 32.6000104,74.3999952 30.52,75.36 C28.4399896,76.3200048 26.6600074,77.599992 25.18,79.2 C23.6999926,80.800008 22.5800038,82.6399896 21.82,84.72 C21.0599962,86.8000104 20.68,88.9599888 20.68,91.2 Z M81.88,91.2 C81.88,86.6399772 82.6999918,82.5000186 84.34,78.78 C85.9800082,75.0599814 88.199986,71.8800132 91,69.24 C93.800014,66.5999868 97.1199808,64.5600072 100.96,63.12 C104.800019,61.6799928 108.879978,60.96 113.2,60.96 C117.520022,60.96 121.599981,61.6799928 125.44,63.12 C129.280019,64.5600072 132.599986,66.5999868 135.4,69.24 C138.200014,71.8800132 140.419992,75.0599814 142.06,78.78 C143.700008,82.5000186 144.52,86.6399772 144.52,91.2 C144.52,95.7600228 143.700008,99.8999814 142.06,103.62 C140.419992,107.340019 138.200014,110.519987 135.4,113.16 C132.599986,115.800013 129.280019,117.839993 125.44,119.28 C121.599981,120.720007 117.520022,121.44 113.2,121.44 C108.879978,121.44 104.800019,120.720007 100.96,119.28 C97.1199808,117.839993 93.800014,115.800013 91,113.16 C88.199986,110.519987 85.9800082,107.340019 84.34,103.62 C82.6999918,99.8999814 81.88,95.7600228 81.88,91.2 Z M96.28,91.2 C96.28,93.4400112 96.6599962,95.5999896 97.42,97.68 C98.1800038,99.7600104 99.2999926,101.599992 100.78,103.2 C102.260007,104.800008 104.03999,106.079995 106.12,107.04 C108.20001,108.000005 110.559987,108.48 113.2,108.48 C115.840013,108.48 118.19999,108.000005 120.28,107.04 C122.36001,106.079995 124.139993,104.800008 125.62,103.2 C127.100007,101.599992 128.219996,99.7600104 128.98,97.68 C129.740004,95.5999896 130.12,93.4400112 130.12,91.2 C130.12,88.9599888 129.740004,86.8000104 128.98,84.72 C128.219996,82.6399896 127.100007,80.800008 125.62,79.2 C124.139993,77.599992 122.36001,76.3200048 120.28,75.36 C118.19999,74.3999952 115.840013,73.92 113.2,73.92 C110.559987,73.92 108.20001,74.3999952 106.12,75.36 C104.03999,76.3200048 102.260007,77.599992 100.78,79.2 C99.2999926,80.800008 98.1800038,82.6399896 97.42,84.72 C96.6599962,86.8000104 96.28,88.9599888 96.28,91.2 Z M210.52,120 L196.84,120 L196.84,110.76 L196.6,110.76 C195.239993,113.640014 193.160014,116.139989 190.36,118.26 C187.559986,120.380011 183.760024,121.44 178.96,121.44 C175.119981,121.44 171.860013,120.820006 169.18,119.58 C166.499987,118.339994 164.320008,116.660011 162.64,114.54 C160.96,112.419989 159.760004,110.000014 159.04,107.28 C158.319996,104.559986 157.96,101.720015 157.96,98.76 L157.96,62.4 L172.36,62.4 L172.36,91.56 C172.36,93.160008 172.439999,94.9399902 172.6,96.9 C172.760001,98.8600098 173.179997,100.699991 173.86,102.42 C174.540003,104.140009 175.579993,105.579994 176.98,106.74 C178.380007,107.9 180.359987,108.48 182.92,108.48 C185.320012,108.48 187.339992,108.080004 188.98,107.28 C190.620008,106.479996 191.979995,105.4 193.06,104.04 C194.140005,102.679993 194.919998,101.120009 195.4,99.36 C195.880002,97.5999912 196.12,95.7600096 196.12,93.84 L196.12,62.4 L210.52,62.4 L210.52,120 Z M226.84,29.28 L241.24,29.28 L241.24,69.72 L241.6,69.72 C242.320004,68.7599952 243.239994,67.78 244.36,66.78 C245.480006,65.78 246.84,64.8400044 248.44,63.96 C250.040008,63.0799956 251.87999,62.3600028 253.96,61.8 C256.04001,61.2399972 258.439986,60.96 261.16,60.96 C265.24002,60.96 268.999983,61.7399922 272.44,63.3 C275.880017,64.8600078 278.819988,66.9999864 281.26,69.72 C283.700012,72.4400136 285.599993,75.6399816 286.96,79.32 C288.320007,83.0000184 289,86.9599788 289,91.2 C289,95.4400212 288.360006,99.3999816 287.08,103.08 C285.799994,106.760018 283.920012,109.959986 281.44,112.68 C278.959988,115.400014 275.960018,117.539992 272.44,119.1 C268.919982,120.660008 264.960022,121.44 260.56,121.44 C256.47998,121.44 252.680018,120.640008 249.16,119.04 C245.639982,117.439992 242.84001,114.880018 240.76,111.36 L240.52,111.36 L240.52,120 L226.84,120 L226.84,29.28 Z M274.6,91.2 C274.6,88.9599888 274.220004,86.8000104 273.46,84.72 C272.699996,82.6399896 271.580007,80.800008 270.1,79.2 C268.619993,77.599992 266.84001,76.3200048 264.76,75.36 C262.67999,74.3999952 260.320013,73.92 257.68,73.92 C255.039987,73.92 252.68001,74.3999952 250.6,75.36 C248.51999,76.3200048 246.740007,77.599992 245.26,79.2 C243.779993,80.800008 242.660004,82.6399896 241.9,84.72 C241.139996,86.8000104 240.76,88.9599888 240.76,91.2 C240.76,93.4400112 241.139996,95.5999896 241.9,97.68 C242.660004,99.7600104 243.779993,101.599992 245.26,103.2 C246.740007,104.800008 248.51999,106.079995 250.6,107.04 C252.68001,108.000005 255.039987,108.48 257.68,108.48 C260.320013,108.48 262.67999,108.000005 264.76,107.04 C266.84001,106.079995 268.619993,104.800008 270.1,103.2 C271.580007,101.599992 272.699996,99.7600104 273.46,97.68 C274.220004,95.5999896 274.6,93.4400112 274.6,91.2 Z M302.68,29.28 L317.08,29.28 L317.08,120 L302.68,120 L302.68,29.28 Z M345.16,96.24 C345.640002,100.560022 347.319986,103.919988 350.2,106.32 C353.080014,108.720012 356.55998,109.92 360.64,109.92 C364.240018,109.92 367.259988,109.180007 369.7,107.7 C372.140012,106.219993 374.279991,104.360011 376.12,102.12 L386.44,109.92 C383.079983,114.080021 379.320021,117.039991 375.16,118.8 C370.999979,120.560009 366.640023,121.44 362.08,121.44 C357.759978,121.44 353.680019,120.720007 349.84,119.28 C345.999981,117.839993 342.680014,115.800013 339.88,113.16 C337.079986,110.519987 334.860008,107.340019 333.22,103.62 C331.579992,99.8999814 330.76,95.7600228 330.76,91.2 C330.76,86.6399772 331.579992,82.5000186 333.22,78.78 C334.860008,75.0599814 337.079986,71.8800132 339.88,69.24 C342.680014,66.5999868 345.999981,64.5600072 349.84,63.12 C353.680019,61.6799928 357.759978,60.96 362.08,60.96 C366.08002,60.96 369.739983,61.659993 373.06,63.06 C376.380017,64.46 379.219988,66.4799868 381.58,69.12 C383.940012,71.7600132 385.779993,75.0199806 387.1,78.9 C388.420007,82.7800194 389.08,87.2399748 389.08,92.28 L389.08,96.24 L345.16,96.24 Z M374.68,85.44 C374.6,81.1999788 373.280013,77.8600122 370.72,75.42 C368.159987,72.9799878 364.600023,71.76 360.04,71.76 C355.719978,71.76 352.300013,72.9999876 349.78,75.48 C347.259987,77.9600124 345.720003,81.2799792 345.16,85.44 L374.68,85.44 Z" id="path-1"></path>
    </defs>
    <g id="Designs" stroke="none" stroke-width="1" fill="none" fill-rule="evenodd">
        <g id="Artboard" transform="translate(-119.000000, -236.000000)">
            <g id="double_logo" transform="translate(84.000000, 207.000000)">
                <g id="double" transform="translate(35.000000, 0.000000)">
                    <rect id="Rectangle" fill="#51ABFF" x="0" y="124" width="390" height="6"></rect>
                    <g fill-rule="nonzero">
                        <use fill="#000000" xlink:href="#path-1"></use>
                        <use fill="#51ABFF" xlink:href="#path-1"></use>
                    </g>
                </g>
            </g>
        </g>
    </g>
</svg>