<?xml version="1.0" encoding="UTF-8"?>
<svg width="390px" height="101px" viewBox="0 0 390 101" version="1.1" xmlns="http://www.w3.org/2000/svg" xmlns:xlink="http://www.w3.org/1999/xlink">
    <!-- Generator: Sketch 55.2 (78181) - https://sketchapp.com -->
    <title>double</title>
    <desc>Created with Sketch.</desc>
    <defs>
        <path d="M53.76,111.36 L53.52,111.36 C51.4399896,114.880018 48.6400176,117.439992 45.12,119.04 C41.5999824,120.640008 37.8000204,121.44 33.72,121.44 C29.2399776,121.44 25.2600174,120.660008 21.78,119.1 C18.2999826,117.539992 15.3200124,115.400014 12.84,112.68 C10.3599876,109.959986 8.4800064,106.760018 7.2,103.08 C5.9199936,99.3999816 5.28,95.4400212 5.28,91.2 C5.28,86.9599788 5.9599932,83.0000184 7.32,79.32 C8.6800068,75.6399816 10.5799878,72.4400136 13.02,69.72 C15.4600122,66.9999864 18.3999828,64.8600078 21.84,63.3 C25.2800172,61.7399922 29.0399796,60.96 33.12,60.96 C35.8400136,60.96 38.2399896,61.2399972 40.32,61.8 C42.4000104,62.3600028 44.239992,63.0799956 45.84,63.96 C47.440008,64.8400044 48.7999944,65.78 49.92,66.78 C51.0400056,67.78 51.9599964,68.7599952 52.68,69.72 L53.04,69.72 L53.04,29.28 L67.44,29.28 L67.44,120 L53.76,120 L53.76,111.36 Z M19.68,91.2 C19.68,93.4400112 20.0599962,95.5999896 20.82,97.68 C21.5800038,99.7600104 22.6999926,101.599992 24.18,103.2 C25.6600074,104.800008 27.4399896,106.079995 29.52,107.04 C31.6000104,108.000005 33.9599868,108.48 36.6,108.48 C39.2400132,108.48 41.5999896,108.000005 43.68,107.04 C45.7600104,106.079995 47.5399926,104.800008 49.02,103.2 C50.5000074,101.599992 51.6199962,99.7600104 52.38,97.68 C53.1400038,95.5999896 53.52,93.4400112 53.52,91.2 C53.52,88.9599888 53.1400038,86.8000104 52.38,84.72 C51.6199962,82.6399896 50.5000074,80.800008 49.02,79.2 C47.5399926,77.599992 45.7600104,76.3200048 43.68,75.36 C41.5999896,74.3999952 39.2400132,73.92 36.6,73.92 C33.9599868,73.92 31.6000104,74.3999952 29.52,75.36 C27.4399896,76.3200048 25.6600074,77.599992 24.18,79.2 C22.6999926,80.800008 21.5800038,82.6399896 20.82,84.72 C20.0599962,86.8000104 19.68,88.9599888 19.68,91.2 Z M80.88,91.2 C80.88,86.6399772 81.6999918,82.5000186 83.34,78.78 C84.9800082,75.0599814 87.199986,71.8800132 90,69.24 C92.800014,66.5999868 96.1199808,64.5600072 99.96,63.12 C103.800019,61.6799928 107.879978,60.96 112.2,60.96 C116.520022,60.96 120.599981,61.6799928 124.44,63.12 C128.280019,64.5600072 131.599986,66.5999868 134.4,69.24 C137.200014,71.8800132 139.419992,75.0599814 141.06,78.78 C142.700008,82.5000186 143.52,86.6399772 143.52,91.2 C143.52,95.7600228 142.700008,99.8999814 141.06,103.62 C139.419992,107.340019 137.200014,110.519987 134.4,113.16 C131.599986,115.800013 128.280019,117.839993 124.44,119.28 C120.599981,120.720007 116.520022,121.44 112.2,121.44 C107.879978,121.44 103.800019,120.720007 99.96,119.28 C96.1199808,117.839993 92.800014,115.800013 90,113.16 C87.199986,110.519987 84.9800082,107.340019 83.34,103.62 C81.6999918,99.8999814 80.88,95.7600228 80.88,91.2 Z M95.28,91.2 C95.28,93.4400112 95.6599962,95.5999896 96.42,97.68 C97.1800038,99.7600104 98.2999926,101.599992 99.78,103.2 C101.260007,104.800008 103.03999,106.079995 105.12,107.04 C107.20001,108.000005 109.559987,108.48 112.2,108.48 C114.840013,108.48 117.19999,108.000005 119.28,107.04 C121.36001,106.079995 123.139993,104.800008 124.62,103.2 C126.100007,101.599992 127.219996,99.7600104 127.98,97.68 C128.740004,95.5999896 129.12,93.4400112 129.12,91.2 C129.12,88.9599888 128.740004,86.8000104 127.98,84.72 C127.219996,82.6399896 126.100007,80.800008 124.62,79.2 C123.139993,77.599992 121.36001,76.3200048 119.28,75.36 C117.19999,74.3999952 114.840013,73.92 112.2,73.92 C109.559987,73.92 107.20001,74.3999952 105.12,75.36 C103.03999,76.3200048 101.260007,77.599992 99.78,79.2 C98.2999926,80.800008 97.1800038,82.6399896 96.42,84.72 C95.6599962,86.8000104 95.28,88.9599888 95.28,91.2 Z M209.52,120 L195.84,120 L195.84,110.76 L195.6,110.76 C194.239993,113.640014 192.160014,116.139989 189.36,118.26 C186.559986,120.380011 182.760024,121.44 177.96,121.44 C174.119981,121.44 170.860013,120.820006 168.18,119.58 C165.499987,118.339994 163.320008,116.660011 161.64,114.54 C159.96,112.419989 158.760004,110.000014 158.04,107.28 C157.319996,104.559986 156.96,101.720015 156.96,98.76 L156.96,62.4 L171.36,62.4 L171.36,91.56 C171.36,93.160008 171.439999,94.9399902 171.6,96.9 C171.760001,98.8600098 172.179997,100.699991 172.86,102.42 C173.540003,104.140009 174.579993,105.579994 175.98,106.74 C177.380007,107.9 179.359987,108.48 181.92,108.48 C184.320012,108.48 186.339992,108.080004 187.98,107.28 C189.620008,106.479996 190.979995,105.4 192.06,104.04 C193.140005,102.679993 193.919998,101.120009 194.4,99.36 C194.880002,97.5999912 195.12,95.7600096 195.12,93.84 L195.12,62.4 L209.52,62.4 L209.52,120 Z M225.84,29.28 L240.24,29.28 L240.24,69.72 L240.6,69.72 C241.320004,68.7599952 242.239994,67.78 243.36,66.78 C244.480006,65.78 245.84,64.8400044 247.44,63.96 C249.040008,63.0799956 250.87999,62.3600028 252.96,61.8 C255.04001,61.2399972 257.439986,60.96 260.16,60.96 C264.24002,60.96 267.999983,61.7399922 271.44,63.3 C274.880017,64.8600078 277.819988,66.9999864 280.26,69.72 C282.700012,72.4400136 284.599993,75.6399816 285.96,79.32 C287.320007,83.0000184 288,86.9599788 288,91.2 C288,95.4400212 287.360006,99.3999816 286.08,103.08 C284.799994,106.760018 282.920012,109.959986 280.44,112.68 C277.959988,115.400014 274.960018,117.539992 271.44,119.1 C267.919982,120.660008 263.960022,121.44 259.56,121.44 C255.47998,121.44 251.680018,120.640008 248.16,119.04 C244.639982,117.439992 241.84001,114.880018 239.76,111.36 L239.52,111.36 L239.52,120 L225.84,120 L225.84,29.28 Z M273.6,91.2 C273.6,88.9599888 273.220004,86.8000104 272.46,84.72 C271.699996,82.6399896 270.580007,80.800008 269.1,79.2 C267.619993,77.599992 265.84001,76.3200048 263.76,75.36 C261.67999,74.3999952 259.320013,73.92 256.68,73.92 C254.039987,73.92 251.68001,74.3999952 249.6,75.36 C247.51999,76.3200048 245.740007,77.599992 244.26,79.2 C242.779993,80.800008 241.660004,82.6399896 240.9,84.72 C240.139996,86.8000104 239.76,88.9599888 239.76,91.2 C239.76,93.4400112 240.139996,95.5999896 240.9,97.68 C241.660004,99.7600104 242.779993,101.599992 244.26,103.2 C245.740007,104.800008 247.51999,106.079995 249.6,107.04 C251.68001,108.000005 254.039987,108.48 256.68,108.48 C259.320013,108.48 261.67999,108.000005 263.76,107.04 C265.84001,106.079995 267.619993,104.800008 269.1,103.2 C270.580007,101.599992 271.699996,99.7600104 272.46,97.68 C273.220004,95.5999896 273.6,93.4400112 273.6,91.2 Z M301.68,29.28 L316.08,29.28 L316.08,120 L301.68,120 L301.68,29.28 Z M344.16,96.24 C344.640002,100.560022 346.319986,103.919988 349.2,106.32 C352.080014,108.720012 355.55998,109.92 359.64,109.92 C363.240018,109.92 366.259988,109.180007 368.7,107.7 C371.140012,106.219993 373.279991,104.360011 375.12,102.12 L385.44,109.92 C382.079983,114.080021 378.320021,117.039991 374.16,118.8 C369.999979,120.560009 365.640023,121.44 361.08,121.44 C356.759978,121.44 352.680019,120.720007 348.84,119.28 C344.999981,117.839993 341.680014,115.800013 338.88,113.16 C336.079986,110.519987 333.860008,107.340019 332.22,103.62 C330.579992,99.8999814 329.76,95.7600228 329.76,91.2 C329.76,86.6399772 330.579992,82.5000186 332.22,78.78 C333.860008,75.0599814 336.079986,71.8800132 338.88,69.24 C341.680014,66.5999868 344.999981,64.5600072 348.84,63.12 C352.680019,61.6799928 356.759978,60.96 361.08,60.96 C365.08002,60.96 368.739983,61.659993 372.06,63.06 C375.380017,64.46 378.219988,66.4799868 380.58,69.12 C382.940012,71.7600132 384.779993,75.0199806 386.1,78.9 C387.420007,82.7800194 388.08,87.2399748 388.08,92.28 L388.08,96.24 L344.16,96.24 Z M373.68,85.44 C373.6,81.1999788 372.280013,77.8600122 369.72,75.42 C367.159987,72.9799878 363.600023,71.76 359.04,71.76 C354.719978,71.76 351.300013,72.9999876 348.78,75.48 C346.259987,77.9600124 344.720003,81.2799792 344.16,85.44 L373.68,85.44 Z" id="path-1"></path>
    </defs>
    <g id="Designs" stroke="none" stroke-width="1" fill="none" fill-rule="evenodd">
        <g id="Artboard" transform="translate(-84.000000, -236.000000)">
            <g id="double_logo" transform="translate(84.000000, 207.000000)">
                <g id="double">
                    <rect id="Rectangle" fill="#292F47" x="0" y="124" width="390" height="6"></rect>
                    <g fill-rule="nonzero">
                        <use fill="#000000" xlink:href="#path-1"></use>
                        <use fill="#292F47" xlink:href="#path-1"></use>
                    </g>
                </g>
            </g>
        </g>
    </g>
</svg>