<?xml version="1.0" encoding="UTF-8"?>
<svg width="125px" height="30px" viewBox="0 0 125 30" version="1.1" xmlns="http://www.w3.org/2000/svg" xmlns:xlink="http://www.w3.org/1999/xlink">
    <!-- Generator: sketchtool 55.2 (78181) - https://sketchapp.com -->
    <title>D85BA16D-B82A-46C8-B6D3-1215BD5939B8svg</title>
    <desc>Created with sketchtool.</desc>
    <g id="Designs" stroke="none" stroke-width="1" fill="none" fill-rule="evenodd">
        <g id="Homepage-1440" transform="translate(-199.000000, -60.000000)" fill-rule="nonzero">
            <g id="logo" transform="translate(199.000000, 60.000000)">
                <g id="double">
                    <g transform="translate(10.416667, 0.000000)" fill="#51ABFF">
                        <path d="M15.8666663,24.0579306 L15.7958329,24.0579306 C15.181941,25.0896599 14.3555604,25.8399972 13.3166663,26.308965 C12.2777723,26.7779329 11.1562558,27.0124133 9.9520831,27.0124133 C8.62985431,27.0124133 7.45521331,26.7837949 6.42812487,26.3265512 C5.40103643,25.8693076 4.52153136,25.2420725 3.78958328,24.4448271 C3.05763519,23.6475818 2.50277964,22.7096601 2.12499999,21.6310341 C1.74722033,20.552408 1.55833334,19.39173 1.55833334,18.1489652 C1.55833334,16.9062004 1.75902577,15.7455223 2.16041665,14.6668963 C2.56180754,13.5882702 3.1225658,12.6503486 3.84270827,11.8531032 C4.56285074,11.0558579 5.43055038,10.4286228 6.4458332,9.97137912 C7.46111603,9.51413547 8.57082712,9.28551707 9.77499978,9.28551707 C10.5777815,9.28551707 11.2861078,9.36758521 11.8999997,9.53172396 C12.5138917,9.69586271 13.0569418,9.90689508 13.5291663,10.1648274 C14.0013909,10.4227597 14.4027758,10.6982742 14.733333,10.9913791 C15.0638902,11.284484 15.3354152,11.5717225 15.5479163,11.8531032 L15.6541663,11.8531032 L15.6541663,-8.23249515e-14 L19.9041662,-8.23249515e-14 L19.9041662,26.5903443 L15.8666663,26.5903443 L15.8666663,24.0579306 Z M5.80833326,18.1489658 C5.80833326,18.8055208 5.92048491,19.4386179 6.14479158,20.0482761 C6.36909825,20.6579343 6.69965049,21.1972392 7.13645822,21.6662071 C7.57326595,22.1351749 8.0986079,22.5103436 8.71249984,22.7917243 C9.32639178,23.073105 10.0229126,23.2137933 10.8020831,23.2137933 C11.5812537,23.2137933 12.2777744,23.073105 12.8916664,22.7917243 C13.5055583,22.5103436 14.0309003,22.1351749 14.467708,21.6662071 C14.9045157,21.1972392 15.235068,20.6579343 15.4593746,20.0482761 C15.6836813,19.4386179 15.795833,18.8055208 15.795833,18.1489658 C15.795833,17.4924108 15.6836813,16.8593137 15.4593746,16.2496555 C15.235068,15.6399973 14.9045157,15.1006923 14.467708,14.6317245 C14.0309003,14.1627566 13.5055583,13.7875879 12.8916664,13.5062072 C12.2777744,13.2248265 11.5812537,13.0841383 10.8020831,13.0841383 C10.0229126,13.0841383 9.32639178,13.2248265 8.71249984,13.5062072 C8.0986079,13.7875879 7.57326595,14.1627566 7.13645822,14.6317245 C6.69965049,15.1006923 6.36909825,15.6399973 6.14479158,16.2496555 C5.92048491,16.8593137 5.80833326,17.4924108 5.80833326,18.1489658 Z M23.870833,18.1489658 C23.870833,16.8124074 24.1128445,15.5989712 24.5968747,14.5086209 C25.0809049,13.4182706 25.7361066,12.486211 26.5624996,11.712414 C27.3888926,10.938617 28.3687439,10.340692 29.5020829,9.91862091 C30.6354219,9.49654984 31.8395765,9.28551746 33.1145828,9.28551746 C34.3895891,9.28551746 35.5937437,9.49654984 36.7270827,9.91862091 C37.8604217,10.340692 38.840273,10.938617 39.666666,11.712414 C40.493059,12.486211 41.1482607,13.4182706 41.6322909,14.5086209 C42.1163211,15.5989712 42.3583326,16.8124074 42.3583326,18.1489658 C42.3583326,19.4855242 42.1163211,20.6989603 41.6322909,21.7893106 C41.1482607,22.8796609 40.493059,23.8117205 39.666666,24.5855175 C38.840273,25.3593145 37.8604217,25.9572395 36.7270827,26.3793106 C35.5937437,26.8013817 34.3895891,27.0124141 33.1145828,27.0124141 C31.8395765,27.0124141 30.6354219,26.8013817 29.5020829,26.3793106 C28.3687439,25.9572395 27.3888926,25.3593145 26.5624996,24.5855175 C25.7361066,23.8117205 25.0809049,22.8796609 24.5968747,21.7893106 C24.1128445,20.6989603 23.870833,19.4855242 23.870833,18.1489658 Z M28.1208333,18.1489658 C28.1208333,18.8055208 28.232985,19.4386179 28.4572917,20.0482761 C28.6815983,20.6579343 29.0121506,21.1972392 29.4489583,21.6662071 C29.885766,22.1351749 30.411108,22.5103436 31.0249999,22.7917243 C31.6388919,23.073105 32.3354127,23.2137933 33.1145832,23.2137933 C33.8937537,23.2137933 34.5902745,23.073105 35.2041665,22.7917243 C35.8180584,22.5103436 36.3434004,22.1351749 36.7802081,21.6662071 C37.2170158,21.1972392 37.5475681,20.6579343 37.7718747,20.0482761 C37.9961814,19.4386179 38.1083331,18.8055208 38.1083331,18.1489658 C38.1083331,17.4924108 37.9961814,16.8593137 37.7718747,16.2496555 C37.5475681,15.6399973 37.2170158,15.1006923 36.7802081,14.6317245 C36.3434004,14.1627566 35.8180584,13.7875879 35.2041665,13.5062072 C34.5902745,13.2248265 33.8937537,13.0841383 33.1145832,13.0841383 C32.3354127,13.0841383 31.6388919,13.2248265 31.0249999,13.5062072 C30.411108,13.7875879 29.885766,14.1627566 29.4489583,14.6317245 C29.0121506,15.1006923 28.6815983,15.6399973 28.4572917,16.2496555 C28.232985,16.8593137 28.1208333,17.4924108 28.1208333,18.1489658 Z M61.8375008,26.5903443 L57.8000009,26.5903443 L57.8000009,23.8820685 L57.7291675,23.8820685 C57.3277767,24.7262106 56.7138939,25.4589619 55.8875009,26.0803443 C55.0611079,26.7017267 53.9395913,27.0124133 52.5229176,27.0124133 C51.3895786,27.0124133 50.4274355,26.830691 49.6364593,26.4672409 C48.8454831,26.1037908 48.2020868,25.6113819 47.706251,24.9899995 C47.2104152,24.3686171 46.8562521,23.6593139 46.643751,22.8620685 C46.43125,22.0648231 46.325001,21.2324177 46.325001,20.3648271 L46.325001,9.70758583 L50.575001,9.70758583 L50.575001,18.2544823 C50.575001,18.7234502 50.5986118,19.2451691 50.6458343,19.8196547 C50.6930568,20.3941403 50.8170139,20.9334453 51.0177093,21.4375857 C51.2184047,21.9417262 51.5253461,22.3637909 51.9385426,22.7037926 C52.3517391,23.0437943 52.9361083,23.2137926 53.6916676,23.2137926 C54.4000045,23.2137926 54.9961791,23.0965524 55.4802092,22.8620685 C55.9642394,22.6275846 56.3656243,22.311036 56.6843759,21.9124133 C57.0031275,21.5137906 57.2333335,21.0565538 57.3750009,20.5406892 C57.5166683,20.0248246 57.5875009,19.4855196 57.5875009,18.9227582 L57.5875009,9.70758583 L61.8375008,9.70758583 L61.8375008,26.5903443 Z M66.6541649,-8.23249515e-14 L70.9041648,-8.23249515e-14 L70.9041648,11.8531032 L71.0104148,11.8531032 C71.2229158,11.5717225 71.4944409,11.284484 71.8249981,10.9913791 C72.1555553,10.6982742 72.5569401,10.4227597 73.0291647,10.1648274 C73.5013893,9.90689508 74.0444394,9.69586271 74.6583313,9.53172396 C75.2722233,9.36758521 75.9805495,9.28551707 76.7833313,9.28551707 C77.9875039,9.28551707 79.097215,9.51413547 80.1124979,9.97137912 C81.1277807,10.4286228 81.9954803,11.0558579 82.7156228,11.8531032 C83.4357652,12.6503486 83.9965235,13.5882702 84.3979144,14.6668963 C84.7993053,15.7455223 84.9999977,16.9062004 84.9999977,18.1489652 C84.9999977,19.39173 84.8111107,20.552408 84.4333311,21.6310341 C84.0555514,22.7096601 83.5006959,23.6475818 82.7687478,24.4448271 C82.0367997,25.2420725 81.1513919,25.8693076 80.1124979,26.3265512 C79.0736038,26.7837949 77.9048655,27.0124133 76.6062479,27.0124133 C75.4020753,27.0124133 74.2805588,26.7779329 73.2416647,26.308965 C72.2027707,25.8399972 71.3763901,25.0896599 70.7624981,24.0579306 L70.6916648,24.0579306 L70.6916648,26.5903443 L66.6541649,26.5903443 L66.6541649,-8.23249515e-14 Z M80.7499982,18.1489658 C80.7499982,17.4924108 80.6378465,16.8593137 80.4135399,16.2496555 C80.1892332,15.6399973 79.858681,15.1006923 79.4218732,14.6317245 C78.9850655,14.1627566 78.4597235,13.7875879 77.8458316,13.5062072 C77.2319397,13.2248265 76.5354189,13.0841383 75.7562483,13.0841383 C74.9770778,13.0841383 74.280557,13.2248265 73.6666651,13.5062072 C73.0527731,13.7875879 72.5274312,14.1627566 72.0906234,14.6317245 C71.6538157,15.1006923 71.3232635,15.6399973 71.0989568,16.2496555 C70.8746501,16.8593137 70.7624985,17.4924108 70.7624985,18.1489658 C70.7624985,18.8055208 70.8746501,19.4386179 71.0989568,20.0482761 C71.3232635,20.6579343 71.6538157,21.1972392 72.0906234,21.6662071 C72.5274312,22.1351749 73.0527731,22.5103436 73.6666651,22.7917243 C74.280557,23.073105 74.9770778,23.2137933 75.7562483,23.2137933 C76.5354189,23.2137933 77.2319397,23.073105 77.8458316,22.7917243 C78.4597235,22.5103436 78.9850655,22.1351749 79.4218732,21.6662071 C79.858681,21.1972392 80.1892332,20.6579343 80.4135399,20.0482761 C80.6378465,19.4386179 80.7499982,18.8055208 80.7499982,18.1489658 Z M89.0374987,-8.23249515e-14 L93.2874987,-8.23249515e-14 L93.2874987,26.5903457 L89.0374987,26.5903457 L89.0374987,-8.23249515e-14 Z M101.574999,19.6262072 C101.716666,20.8924204 102.212494,21.8772381 103.062499,22.5806899 C103.912503,23.2841417 104.939576,23.6358623 106.143749,23.6358623 C107.206254,23.6358623 108.097565,23.418968 108.817707,22.9851727 C109.53785,22.5513774 110.169441,22.0062104 110.712499,21.3496554 L113.758332,23.6358623 C112.766661,24.8551788 111.65695,25.7227563 110.429166,26.238621 C109.201382,26.7544856 107.914589,27.0124141 106.568749,27.0124141 C105.293742,27.0124141 104.089588,26.8013817 102.956249,26.3793106 C101.82291,25.9572395 100.843058,25.3593145 100.016665,24.5855175 C99.1902722,23.8117205 98.5350704,22.8796609 98.0510402,21.7893106 C97.56701,20.6989603 97.3249985,19.4855242 97.3249985,18.1489658 C97.3249985,16.8124074 97.56701,15.5989712 98.0510402,14.5086209 C98.5350704,13.4182706 99.1902722,12.486211 100.016665,11.712414 C100.843058,10.938617 101.82291,10.340692 102.956249,9.91862091 C104.089588,9.49654984 105.293742,9.28551746 106.568749,9.28551746 C107.74931,9.28551746 108.829508,9.49068783 109.809374,9.90103471 C110.78924,10.3113816 111.627426,10.9034446 112.323957,11.6772416 C113.020489,12.4510386 113.563539,13.4065463 113.953124,14.5437933 C114.342709,15.6810404 114.537499,16.9882687 114.537499,18.4655175 L114.537499,19.6262072 L101.574999,19.6262072 Z M110.287497,16.4606895 C110.263886,15.2179248 109.874306,14.2389691 109.118747,13.5237931 C108.363188,12.8086172 107.312504,12.4510345 105.966664,12.4510345 C104.691657,12.4510345 103.682293,12.8144792 102.938539,13.5413793 C102.194785,14.2682795 101.740276,15.2413732 101.574997,16.4606895 L110.287497,16.4606895 Z"></path>
                        <polygon id="Decoration" points="114.558334 29.2282767 -1.18423789e-14 29.2282767 -1.18423789e-14 27.4696561 114.558334 27.4696561"></polygon>
                    </g>
                    <g fill="#292F47">
                        <path d="M15.8666663,24.0579306 L15.7958329,24.0579306 C15.181941,25.0896599 14.3555604,25.8399972 13.3166663,26.308965 C12.2777723,26.7779329 11.1562558,27.0124133 9.9520831,27.0124133 C8.62985431,27.0124133 7.45521331,26.7837949 6.42812487,26.3265512 C5.40103643,25.8693076 4.52153136,25.2420725 3.78958328,24.4448271 C3.05763519,23.6475818 2.50277964,22.7096601 2.12499999,21.6310341 C1.74722033,20.552408 1.55833334,19.39173 1.55833334,18.1489652 C1.55833334,16.9062004 1.75902577,15.7455223 2.16041665,14.6668963 C2.56180754,13.5882702 3.1225658,12.6503486 3.84270827,11.8531032 C4.56285074,11.0558579 5.43055038,10.4286228 6.4458332,9.97137912 C7.46111603,9.51413547 8.57082712,9.28551707 9.77499978,9.28551707 C10.5777815,9.28551707 11.2861078,9.36758521 11.8999997,9.53172396 C12.5138917,9.69586271 13.0569418,9.90689508 13.5291663,10.1648274 C14.0013909,10.4227597 14.4027758,10.6982742 14.733333,10.9913791 C15.0638902,11.284484 15.3354152,11.5717225 15.5479163,11.8531032 L15.6541663,11.8531032 L15.6541663,-8.23249515e-14 L19.9041662,-8.23249515e-14 L19.9041662,26.5903443 L15.8666663,26.5903443 L15.8666663,24.0579306 Z M5.80833326,18.1489658 C5.80833326,18.8055208 5.92048491,19.4386179 6.14479158,20.0482761 C6.36909825,20.6579343 6.69965049,21.1972392 7.13645822,21.6662071 C7.57326595,22.1351749 8.0986079,22.5103436 8.71249984,22.7917243 C9.32639178,23.073105 10.0229126,23.2137933 10.8020831,23.2137933 C11.5812537,23.2137933 12.2777744,23.073105 12.8916664,22.7917243 C13.5055583,22.5103436 14.0309003,22.1351749 14.467708,21.6662071 C14.9045157,21.1972392 15.235068,20.6579343 15.4593746,20.0482761 C15.6836813,19.4386179 15.795833,18.8055208 15.795833,18.1489658 C15.795833,17.4924108 15.6836813,16.8593137 15.4593746,16.2496555 C15.235068,15.6399973 14.9045157,15.1006923 14.467708,14.6317245 C14.0309003,14.1627566 13.5055583,13.7875879 12.8916664,13.5062072 C12.2777744,13.2248265 11.5812537,13.0841383 10.8020831,13.0841383 C10.0229126,13.0841383 9.32639178,13.2248265 8.71249984,13.5062072 C8.0986079,13.7875879 7.57326595,14.1627566 7.13645822,14.6317245 C6.69965049,15.1006923 6.36909825,15.6399973 6.14479158,16.2496555 C5.92048491,16.8593137 5.80833326,17.4924108 5.80833326,18.1489658 Z M23.870833,18.1489658 C23.870833,16.8124074 24.1128445,15.5989712 24.5968747,14.5086209 C25.0809049,13.4182706 25.7361066,12.486211 26.5624996,11.712414 C27.3888926,10.938617 28.3687439,10.340692 29.5020829,9.91862091 C30.6354219,9.49654984 31.8395765,9.28551746 33.1145828,9.28551746 C34.3895891,9.28551746 35.5937437,9.49654984 36.7270827,9.91862091 C37.8604217,10.340692 38.840273,10.938617 39.666666,11.712414 C40.493059,12.486211 41.1482607,13.4182706 41.6322909,14.5086209 C42.1163211,15.5989712 42.3583326,16.8124074 42.3583326,18.1489658 C42.3583326,19.4855242 42.1163211,20.6989603 41.6322909,21.7893106 C41.1482607,22.8796609 40.493059,23.8117205 39.666666,24.5855175 C38.840273,25.3593145 37.8604217,25.9572395 36.7270827,26.3793106 C35.5937437,26.8013817 34.3895891,27.0124141 33.1145828,27.0124141 C31.8395765,27.0124141 30.6354219,26.8013817 29.5020829,26.3793106 C28.3687439,25.9572395 27.3888926,25.3593145 26.5624996,24.5855175 C25.7361066,23.8117205 25.0809049,22.8796609 24.5968747,21.7893106 C24.1128445,20.6989603 23.870833,19.4855242 23.870833,18.1489658 Z M28.1208333,18.1489658 C28.1208333,18.8055208 28.232985,19.4386179 28.4572917,20.0482761 C28.6815983,20.6579343 29.0121506,21.1972392 29.4489583,21.6662071 C29.885766,22.1351749 30.411108,22.5103436 31.0249999,22.7917243 C31.6388919,23.073105 32.3354127,23.2137933 33.1145832,23.2137933 C33.8937537,23.2137933 34.5902745,23.073105 35.2041665,22.7917243 C35.8180584,22.5103436 36.3434004,22.1351749 36.7802081,21.6662071 C37.2170158,21.1972392 37.5475681,20.6579343 37.7718747,20.0482761 C37.9961814,19.4386179 38.1083331,18.8055208 38.1083331,18.1489658 C38.1083331,17.4924108 37.9961814,16.8593137 37.7718747,16.2496555 C37.5475681,15.6399973 37.2170158,15.1006923 36.7802081,14.6317245 C36.3434004,14.1627566 35.8180584,13.7875879 35.2041665,13.5062072 C34.5902745,13.2248265 33.8937537,13.0841383 33.1145832,13.0841383 C32.3354127,13.0841383 31.6388919,13.2248265 31.0249999,13.5062072 C30.411108,13.7875879 29.885766,14.1627566 29.4489583,14.6317245 C29.0121506,15.1006923 28.6815983,15.6399973 28.4572917,16.2496555 C28.232985,16.8593137 28.1208333,17.4924108 28.1208333,18.1489658 Z M61.8375008,26.5903443 L57.8000009,26.5903443 L57.8000009,23.8820685 L57.7291675,23.8820685 C57.3277767,24.7262106 56.7138939,25.4589619 55.8875009,26.0803443 C55.0611079,26.7017267 53.9395913,27.0124133 52.5229176,27.0124133 C51.3895786,27.0124133 50.4274355,26.830691 49.6364593,26.4672409 C48.8454831,26.1037908 48.2020868,25.6113819 47.706251,24.9899995 C47.2104152,24.3686171 46.8562521,23.6593139 46.643751,22.8620685 C46.43125,22.0648231 46.325001,21.2324177 46.325001,20.3648271 L46.325001,9.70758583 L50.575001,9.70758583 L50.575001,18.2544823 C50.575001,18.7234502 50.5986118,19.2451691 50.6458343,19.8196547 C50.6930568,20.3941403 50.8170139,20.9334453 51.0177093,21.4375857 C51.2184047,21.9417262 51.5253461,22.3637909 51.9385426,22.7037926 C52.3517391,23.0437943 52.9361083,23.2137926 53.6916676,23.2137926 C54.4000045,23.2137926 54.9961791,23.0965524 55.4802092,22.8620685 C55.9642394,22.6275846 56.3656243,22.311036 56.6843759,21.9124133 C57.0031275,21.5137906 57.2333335,21.0565538 57.3750009,20.5406892 C57.5166683,20.0248246 57.5875009,19.4855196 57.5875009,18.9227582 L57.5875009,9.70758583 L61.8375008,9.70758583 L61.8375008,26.5903443 Z M66.6541649,-8.23249515e-14 L70.9041648,-8.23249515e-14 L70.9041648,11.8531032 L71.0104148,11.8531032 C71.2229158,11.5717225 71.4944409,11.284484 71.8249981,10.9913791 C72.1555553,10.6982742 72.5569401,10.4227597 73.0291647,10.1648274 C73.5013893,9.90689508 74.0444394,9.69586271 74.6583313,9.53172396 C75.2722233,9.36758521 75.9805495,9.28551707 76.7833313,9.28551707 C77.9875039,9.28551707 79.097215,9.51413547 80.1124979,9.97137912 C81.1277807,10.4286228 81.9954803,11.0558579 82.7156228,11.8531032 C83.4357652,12.6503486 83.9965235,13.5882702 84.3979144,14.6668963 C84.7993053,15.7455223 84.9999977,16.9062004 84.9999977,18.1489652 C84.9999977,19.39173 84.8111107,20.552408 84.4333311,21.6310341 C84.0555514,22.7096601 83.5006959,23.6475818 82.7687478,24.4448271 C82.0367997,25.2420725 81.1513919,25.8693076 80.1124979,26.3265512 C79.0736038,26.7837949 77.9048655,27.0124133 76.6062479,27.0124133 C75.4020753,27.0124133 74.2805588,26.7779329 73.2416647,26.308965 C72.2027707,25.8399972 71.3763901,25.0896599 70.7624981,24.0579306 L70.6916648,24.0579306 L70.6916648,26.5903443 L66.6541649,26.5903443 L66.6541649,-8.23249515e-14 Z M80.7499982,18.1489658 C80.7499982,17.4924108 80.6378465,16.8593137 80.4135399,16.2496555 C80.1892332,15.6399973 79.858681,15.1006923 79.4218732,14.6317245 C78.9850655,14.1627566 78.4597235,13.7875879 77.8458316,13.5062072 C77.2319397,13.2248265 76.5354189,13.0841383 75.7562483,13.0841383 C74.9770778,13.0841383 74.280557,13.2248265 73.6666651,13.5062072 C73.0527731,13.7875879 72.5274312,14.1627566 72.0906234,14.6317245 C71.6538157,15.1006923 71.3232635,15.6399973 71.0989568,16.2496555 C70.8746501,16.8593137 70.7624985,17.4924108 70.7624985,18.1489658 C70.7624985,18.8055208 70.8746501,19.4386179 71.0989568,20.0482761 C71.3232635,20.6579343 71.6538157,21.1972392 72.0906234,21.6662071 C72.5274312,22.1351749 73.0527731,22.5103436 73.6666651,22.7917243 C74.280557,23.073105 74.9770778,23.2137933 75.7562483,23.2137933 C76.5354189,23.2137933 77.2319397,23.073105 77.8458316,22.7917243 C78.4597235,22.5103436 78.9850655,22.1351749 79.4218732,21.6662071 C79.858681,21.1972392 80.1892332,20.6579343 80.4135399,20.0482761 C80.6378465,19.4386179 80.7499982,18.8055208 80.7499982,18.1489658 Z M89.0374987,-8.23249515e-14 L93.2874987,-8.23249515e-14 L93.2874987,26.5903457 L89.0374987,26.5903457 L89.0374987,-8.23249515e-14 Z M101.574999,19.6262072 C101.716666,20.8924204 102.212494,21.8772381 103.062499,22.5806899 C103.912503,23.2841417 104.939576,23.6358623 106.143749,23.6358623 C107.206254,23.6358623 108.097565,23.418968 108.817707,22.9851727 C109.53785,22.5513774 110.169441,22.0062104 110.712499,21.3496554 L113.758332,23.6358623 C112.766661,24.8551788 111.65695,25.7227563 110.429166,26.238621 C109.201382,26.7544856 107.914589,27.0124141 106.568749,27.0124141 C105.293742,27.0124141 104.089588,26.8013817 102.956249,26.3793106 C101.82291,25.9572395 100.843058,25.3593145 100.016665,24.5855175 C99.1902722,23.8117205 98.5350704,22.8796609 98.0510402,21.7893106 C97.56701,20.6989603 97.3249985,19.4855242 97.3249985,18.1489658 C97.3249985,16.8124074 97.56701,15.5989712 98.0510402,14.5086209 C98.5350704,13.4182706 99.1902722,12.486211 100.016665,11.712414 C100.843058,10.938617 101.82291,10.340692 102.956249,9.91862091 C104.089588,9.49654984 105.293742,9.28551746 106.568749,9.28551746 C107.74931,9.28551746 108.829508,9.49068783 109.809374,9.90103471 C110.78924,10.3113816 111.627426,10.9034446 112.323957,11.6772416 C113.020489,12.4510386 113.563539,13.4065463 113.953124,14.5437933 C114.342709,15.6810404 114.537499,16.9882687 114.537499,18.4655175 L114.537499,19.6262072 L101.574999,19.6262072 Z M110.287497,16.4606895 C110.263886,15.2179248 109.874306,14.2389691 109.118747,13.5237931 C108.363188,12.8086172 107.312504,12.4510345 105.966664,12.4510345 C104.691657,12.4510345 103.682293,12.8144792 102.938539,13.5413793 C102.194785,14.2682795 101.740276,15.2413732 101.574997,16.4606895 L110.287497,16.4606895 Z"></path>
                        <polygon id="Decoration" points="114.558334 29.2282767 -1.18423789e-14 29.2282767 -1.18423789e-14 27.4696561 114.558334 27.4696561"></polygon>
                    </g>
                </g>
            </g>
        </g>
    </g>
</svg>