<?xml version="1.0" encoding="UTF-8"?>
<svg width="70px" height="70px" viewBox="0 0 70 70" version="1.1" xmlns="http://www.w3.org/2000/svg" xmlns:xlink="http://www.w3.org/1999/xlink">
    <!-- Generator: sketchtool 55.2 (78181) - https://sketchapp.com -->
    <title>3CA1456C-C52A-4868-B20E-392BA7D50B4Csvg</title>
    <desc>Created with sketchtool.</desc>
    <g id="Designs" stroke="none" stroke-width="1" fill="none" fill-rule="evenodd">
        <g id="Homepage-1440" transform="translate(-533.000000, -2628.000000)">
            <g id="Group-19" transform="translate(533.000000, 2628.000000)">
                <path d="M35,0.5 C15.9461761,0.5 0.5,15.9461761 0.5,35 C0.5,54.0538239 15.9461761,69.5 35,69.5 C54.0538239,69.5 69.5,54.0538239 69.5,35 C69.5,15.9461761 54.0538239,0.5 35,0.5 Z" id="Rectangle" stroke="#3497F3"></path>
                <g id="Group-14" transform="translate(19.000000, 21.000000)" fill="#3497F3">
                    <polygon id="Rectangle" points="0 18 1 18 1 25 0 25"></polygon>
                    <polygon id="Rectangle" points="5 15 6 15 6 25 5 25"></polygon>
                    <polygon id="Rectangle" points="10 19 11 19 11 25 10 25"></polygon>
                    <polygon id="Rectangle" points="15 12 16 12 16 25 15 25"></polygon>
                    <polygon id="Rectangle" points="20 6 21 6 21 25 20 25"></polygon>
                    <polygon id="Rectangle" points="25 0 26 0 26 25 25 25"></polygon>
                    <polygon id="Rectangle" points="30 3 31 3 31 25 30 25"></polygon>
                </g>
            </g>
        </g>
    </g>
</svg>