<?xml version="1.0" encoding="UTF-8"?>
<svg width="70px" height="70px" viewBox="0 0 70 70" version="1.1" xmlns="http://www.w3.org/2000/svg" xmlns:xlink="http://www.w3.org/1999/xlink">
    <!-- Generator: sketchtool 55.2 (78181) - https://sketchapp.com -->
    <title>9C0EF2DA-16F4-4D67-9221-D419D79C5788svg</title>
    <desc>Created with sketchtool.</desc>
    <g id="Designs" stroke="none" stroke-width="1" fill="none" fill-rule="evenodd">
        <g id="Homepage-1440" transform="translate(-835.000000, -2628.000000)" stroke="#3497F3">
            <g id="Group-20" transform="translate(835.000000, 2628.000000)">
                <circle id="Oval" cx="35" cy="35" r="34.5"></circle>
                <g id="Group-11" transform="translate(18.000000, 18.000000)">
                    <path d="M5,29.5857864 L25.1556095,29.5857864 C28.469318,29.5857864 31.1556095,26.8994949 31.1556095,23.5857864 C31.1556095,20.2720779 28.469318,17.5857864 25.1556095,17.5857864 L10.3751375,17.5857864 C7.06142903,17.5857864 4.37513753,14.8994949 4.37513753,11.5857864 C4.37513753,8.27207794 7.06142903,5.58578644 10.3751375,5.58578644 L19.5394419,5.58578644" id="Path-2"></path>
                    <circle id="Oval" cx="3" cy="29.5857864" r="2.5"></circle>
                    <circle id="Oval" cx="27" cy="5.58578644" r="2.5"></circle>
                    <polyline id="Path" transform="translate(15.000000, 5.585786) rotate(-315.000000) translate(-15.000000, -5.585786) " points="11.4142136 2 18.5857864 2 18.5857864 9.17157288"></polyline>
                </g>
            </g>
        </g>
    </g>
</svg>