<svg xmlns="http://www.w3.org/2000/svg" xmlns:xlink="http://www.w3.org/1999/xlink" width="222" height="222" viewBox="0 0 222 222">
    <defs>
        <filter id="prefix__a" width="115.4%" height="141%" x="-7.7%" y="-10.2%" filterUnits="objectBoundingBox">
            <feOffset dy="10" in="SourceAlpha" result="shadowOffsetOuter1"/>
            <feColorMatrix in="shadowOffsetOuter1" values="0 0 0 0 0.203921569 0 0 0 0 0.592156863 0 0 0 0 0.952941176 0 0 0 1 0"/>
        </filter>
        <path id="prefix__b" d="M77.973 110.864L87.873 100.964 104.135 117.227 133.127 88.237 143.027 98.136 104.136 137.027z"/>
    </defs>
    <g fill="none" fill-rule="evenodd">
        <path fill="#181D33" d="M221.427 110.963c0 61.007-49.456 110.464-110.463 110.464C49.956 221.427.5 171.97.5 110.964.5 49.955 49.956.5 110.964.5c61.007 0 110.463 49.456 110.463 110.462z"/>
        <path fill="#EFF0F6" d="M173.738 110.963c0 34.67-28.105 62.775-62.775 62.775-34.669 0-62.775-28.105-62.775-62.775 0-34.668 28.106-62.774 62.775-62.774 34.67 0 62.775 28.105 62.775 62.774zM124.59 182.5L117.594 198l.59 9.774-2.516.15-.59-9.772-8.85-14.541 2.696-.163 7.237 12.33 5.7-13.111 2.73-.165zm24.482-5.654c3.17 1.236 5.482 3.541 6.933 6.914 1.45 3.373 1.535 6.635.252 9.787-1.283 3.151-3.562 5.43-6.836 6.84-3.273 1.408-6.501 1.497-9.683.265-3.181-1.23-5.497-3.533-6.948-6.906-1.452-3.373-1.53-6.637-.236-9.794 1.294-3.155 3.578-5.439 6.852-6.847 3.274-1.408 6.496-1.494 9.666-.259zm-8.815 2.284c-2.668 1.147-4.498 2.98-5.492 5.498-.994 2.517-.87 5.22.373 8.108 1.242 2.89 3.122 4.843 5.637 5.863 2.517 1.021 5.103.96 7.76-.183 2.656-1.143 4.48-2.978 5.469-5.507.989-2.528.862-5.237-.38-8.125-1.243-2.889-3.114-4.839-5.615-5.854-2.5-1.014-5.085-.948-7.752.2zm-61.72-3.889c3.178 1.61 5.31 4.028 6.393 7.254 1.083 3.226.796 6.476-.863 9.752-1.659 3.275-4.11 5.432-7.35 6.467-3.243 1.035-6.453.747-9.632-.864-3.18-1.61-5.317-4.03-6.41-7.26-1.095-3.233-.812-6.486.847-9.762 1.658-3.275 4.114-5.428 7.366-6.458 3.252-1.03 6.468-.739 9.648.871zm-8.75 1.26c-2.57.85-4.565 2.678-5.985 5.482-1.42 2.805-1.717 5.5-.887 8.086.83 2.585 2.533 4.531 5.114 5.838 2.58 1.307 5.157 1.53 7.732.668 2.575-.86 4.573-2.694 5.994-5.499 1.42-2.805 1.718-5.492.895-8.062-.825-2.569-2.532-4.51-5.122-5.822-2.59-1.312-5.17-1.543-7.74-.692zm98.3-20.398l11.545 11.771c1.983 2.022 2.875 4.148 2.675 6.378-.2 2.23-1.26 4.286-3.178 6.168-1.92 1.882-4 2.906-6.241 3.07-2.242.166-4.355-.763-6.338-2.785l-11.545-11.77 1.799-1.766 11.545 11.771c1.547 1.578 3.118 2.33 4.714 2.261 1.595-.069 3.13-.826 4.604-2.272 1.473-1.445 2.256-2.96 2.348-4.547.092-1.585-.636-3.166-2.182-4.743l-11.546-11.77 1.8-1.766zm-114.763-.926l10.707 11.23-1.485 1.415-4.496-4.715-16.493 15.725-1.714-1.798 16.493-15.725-4.497-4.716 1.485-1.416zm129.274-48.795l25.184.888-.51 14.5-3.887-.138.332-9.426-6.584-.232-.294 8.347-3.885-.137.295-8.347-6.945-.245-.332 9.427-3.886-.138.512-14.499zm-167.51-13.32l25.104 1.084-.217 5.035-15.86-.684 15.565 7.518-.156 3.632-16.083 6.117 15.79.68-.22 5.073-25.105-1.084.244-5.647 18.943-7.254-18.247-8.86.242-5.61zm189.077-8.655l2.925 14.21-3.808.784-1.901-9.239-6.453 1.33 1.683 8.18-3.807.783-1.684-8.18-6.805 1.4 1.9 9.238-3.808.784-2.924-14.21 24.682-5.08zM25.85 64.017l12.012 14.134 7.989 3.29-1.933 4.694-7.989-3.29-18.481 1.579 2.166-5.26 12.994-.45-8.924-9.436 2.166-5.26zm167.91-3.61l8.145 16.736-3.496 1.701-2.978-6.118-19.1 9.293-2.204-4.532 19.099-9.293-2.961-6.086 3.496-1.7zM174.56 37.424l3.45 3.724-5.055 20.186 12.784-11.84 3.448 3.725-18.489 17.123-3.449-3.725 5.054-20.185-12.784 11.838-3.448-3.724 18.49-17.122zm-114.755-.25l-4.483 4.112c-2.323-.864-4.485-.38-6.484 1.452-1.68 1.542-2.54 3.348-2.579 5.418-.039 2.071.782 4.021 2.46 5.852 1.68 1.831 3.552 2.816 5.618 2.957 2.067.14 3.866-.492 5.395-1.895 1.53-1.403 2.389-2.88 2.575-4.436.186-1.555-.2-3.067-1.154-4.535l-6.157 5.645-2.602-2.839 10.161-9.319 2.603 2.84c1.532 2.308 2.159 4.98 1.883 8.018-.276 3.037-1.674 5.711-4.195 8.023-2.52 2.311-5.51 3.41-8.97 3.293-3.46-.115-6.447-1.544-8.962-4.286-2.514-2.74-3.675-5.845-3.483-9.31.193-3.466 1.614-6.415 4.269-8.848 2.016-1.849 4.278-2.979 6.784-3.389 2.506-.409 4.947.006 7.322 1.247zm94.953-12.415l5.271 2.892-4.357 26.353-4.703-2.58.848-4.914-8.585-4.71-3.689 3.355-4.702-2.58 19.917-17.816zm-73.255-6.33l6.22 14.173c1.274 2.902 1.343 5.538.208 7.91-1.134 2.372-3.009 4.131-5.624 5.28-2.616 1.147-5.145 1.326-7.588.537-2.442-.788-4.305-2.644-5.588-5.567l-6.22-14.175 4.647-2.04 6.221 14.175c.695 1.582 1.621 2.604 2.78 3.065 1.16.461 2.486.364 3.98-.292 1.495-.656 2.47-1.568 2.926-2.738.457-1.17.338-2.547-.356-4.129l-6.22-14.175 4.614-2.025zm39.907-3.88l9.068 1.836c2.845.576 4.895 1.732 6.148 3.467 1.252 1.736 1.666 3.65 1.242 5.743-.315 1.553-1.079 2.904-2.29 4.054-1.214 1.151-2.88 1.767-5.004 1.852l4.23 11.398-5.893-1.194-3.905-11.002-1.623-.329-1.988 9.81-4.975-1.009 4.99-24.627zm33.024 17.013l-8.164 7.47 6.281 3.446 1.883-10.916zm-50.022-17.054l11.28 24.212-5.338.526-2.075-4.535-9.745.96-1.15 4.851-5.338.524 6.382-25.949 5.983-.589zm-2.412 6.387L99.48 31.67l7.129-.702-4.609-10.073zm23.613-1.529l-1.458 7.198 4.092.83c1.247.251 2.265.121 3.055-.392.79-.514 1.296-1.323 1.52-2.429.224-1.105.072-2.048-.455-2.829-.528-.78-1.415-1.296-2.66-1.549l-4.094-.829z"/>
        <g>
            <use fill="#000" filter="url(#prefix__a)" xlink:href="#prefix__b"/>
            <use fill="#181D33" xlink:href="#prefix__b"/>
        </g>
    </g>
</svg>
