<svg xmlns="http://www.w3.org/2000/svg" width="1240" height="520" viewBox="0 0 1240 520">
    <g fill="none" fill-rule="evenodd">
        <g>
            <path fill="#000" d="M0 0L1 0 1 512 0 512zM173 0L174 0 174 512 173 512z" opacity=".1" transform="matrix(-1 0 0 1 1240 0) rotate(90 256 256)"/>
            <path fill="#181D33" d="M27 506L28 506 28 512 27 512zM80 506L81 506 81 512 80 512zM133 506L134 506 134 512 133 512zM53 506L54 506 54 512 53 512zM106 506L107 506 107 512 106 512zM159 506L160 506 160 512 159 512zM14 506L15 506 15 512 14 512zM67 506L68 506 68 512 67 512zM120 506L121 506 121 512 120 512zM40 506L41 506 41 512 40 512zM93 506L94 506 94 512 93 512zM146 506L147 506 147 512 146 512zM0 502L1 502 1 512 0 512zM173 502L174 502 174 512 173 512z" transform="matrix(-1 0 0 1 1240 0) rotate(90 256 256)"/>
        </g>
        <g>
            <path fill="#000" d="M159 0L160 0 160 512 159 512z" opacity=".1" transform="matrix(-1 0 0 1 1240 0) rotate(90 162.5 349.5)"/>
            <path fill="#181D33" d="M13 506L14 506 14 512 13 512zM66 506L67 506 67 512 66 512zM119 506L120 506 120 512 119 512zM39 506L40 506 40 512 39 512zM92 506L93 506 93 512 92 512zM145 506L146 506 146 512 145 512zM0 506L1 506 1 512 0 512zM53 506L54 506 54 512 53 512zM106 506L107 506 107 512 106 512zM26 506L27 506 27 512 26 512zM79 506L80 506 80 512 79 512zM132 506L133 506 133 512 132 512zM159 502L160 502 160 512 159 512z" transform="matrix(-1 0 0 1 1240 0) rotate(90 162.5 349.5)"/>
        </g>
        <g>
            <path fill="#000" d="M159 0L160 0 160 1240 159 1240z" opacity=".1" transform="matrix(-1 0 0 1 1240 0) rotate(90 440 800)"/>
            <path fill="#181D33" d="M13 1234L14 1234 14 1240 13 1240zM66 1234L67 1234 67 1240 66 1240zM119 1234L120 1234 120 1240 119 1240zM39 1234L40 1234 40 1240 39 1240zM92 1234L93 1234 93 1240 92 1240zM145 1234L146 1234 146 1240 145 1240zM0 1234L1 1234 1 1240 0 1240zM53 1234L54 1234 54 1240 53 1240zM106 1234L107 1234 107 1240 106 1240zM26 1234L27 1234 27 1240 26 1240zM79 1234L80 1234 80 1240 79 1240zM132 1234L133 1234 133 1240 132 1240zM159 1230L160 1230 160 1240 159 1240z" transform="matrix(-1 0 0 1 1240 0) rotate(90 440 800)"/>
        </g>
    </g>
</svg>
