<svg xmlns="http://www.w3.org/2000/svg" width="133" height="121" viewBox="0 0 133 121">
    <g fill="none" fill-rule="evenodd" transform="translate(0 1)">
        <path d="M75.04 50.766l-.27.25c.08-.09.17-.18.26-.26l.01.01z"/>
        <path fill="#181D33" d="M37.19 26.316c12.78 0 23.18 14.8 23.18 33s-10.4 33-23.18 33c-4.82 0-9.37-2.1-13.14-5.79-.05-.03-.09-.08-.14-.13l-9.02-8.35c.17.65.34 1.33.51 2.02.89 3.51 1.84 7.32 2.14 8.55.34 1.41-.56 2.84-2.1 3.32-.31.09-.65.15-1 .15-1.39 0-3.01-.87-3.98-3.39-1.31-3.45-8.15-21.25-9.49-24.77-.08-.18-.16-.36-.22-.55-.49-1.26-.75-2.63-.75-4.06 0-3.75 1.8-7.08 4.58-9.17l.05-.05 19.28-17.86c.05-.05.09-.1.14-.13 3.77-3.69 8.32-5.79 13.14-5.79zm0 1c-4.57 0-8.88 2-12.47 5.52-.09.08-.18.17-.26.26-3.74 3.77-6.67 9.21-8.23 15.74-.04.13-.07.27-.1.4l-.069.3-.06.3-.03.17-.001.001c2.27 1.36 3.89 5.01 3.89 9.31 0 4.298-1.62 7.948-3.889 9.308v.001l.03.17c.04.2.08.4.13.6l.045.2.054.2c1.56 6.53 4.49 11.97 8.23 15.74.08.09.17.18.26.26 3.59 3.52 7.9 5.52 12.47 5.52 12.23 0 22.18-14.35 22.18-32s-9.95-32-22.18-32zM3.51 67.576c2.19 5.78 6.78 17.86 7.89 20.76.96 2.51 2.56 3.01 3.74 2.64.88-.27 1.67-1.11 1.43-2.13-.4-1.66-2.02-8.06-3.03-12.05l-8.91-8.26-.05-.05c-.37-.28-.73-.59-1.07-.91zm11.52 1.47c-.68-3.13-1.03-6.4-1.03-9.73s.35-6.6 1.03-9.73l.015-.075.015-.075.09-.42c.04-.19.09-.37.14-.55 1.01-4.19 2.58-7.94 4.57-11.11L7.95 48.386l-2.69 2.49C2.68 52.786 1 55.856 1 59.316c0 2.2.68 4.25 1.84 5.93.66.97 1.48 1.81 2.42 2.51l1.2 1.11 1.49 1.38 5.14 4.76 1.35 1.25 5.42 5.02c-1.99-3.17-3.56-6.92-4.57-11.11-.05-.18-.1-.36-.14-.55l-.09-.42-.03-.15z"/>
        <ellipse cx="37.5" cy="59.5" fill="#181D33" rx="22.5" ry="32.5" transform="matrix(-1 0 0 1 75 0)"/>
        <path fill="#FFF" d="M15.716 51.34C18.653 51.518 21 55.327 21 60c0 4.573-2.247 8.318-5.096 8.644-.589-2.9-.904-5.97-.904-9.144 0-2.692.227-5.308.654-7.81z"/>
        <path fill="#3497F3" d="M93.16 59.872c0 24.567-14.713 44.482-32.863 44.482S27.433 84.439 27.433 59.872 42.147 15.39 60.297 15.39 93.16 35.305 93.16 59.872z" opacity=".5"/>
        <path stroke="#181D33" d="M132.237 59.872c0 32.79-19.638 59.37-43.863 59.37-24.225 0-43.864-26.58-43.864-59.37S64.149.5 88.374.5c24.225 0 43.863 26.582 43.863 59.372z"/>
    </g>
</svg>
