<svg xmlns="http://www.w3.org/2000/svg" xmlns:xlink="http://www.w3.org/1999/xlink" width="80" height="126" viewBox="0 0 80 126">
    <defs>
        <filter id="prefix__a" width="110.1%" height="119%" x="-5.1%" y="-5.1%" filterUnits="objectBoundingBox">
            <feMorphology in="SourceAlpha" radius="1" result="shadowSpreadOuter1"/>
            <feOffset dy="10" in="shadowSpreadOuter1" result="shadowOffsetOuter1"/>
            <feComposite in="shadowOffsetOuter1" in2="SourceAlpha" operator="out" result="shadowOffsetOuter1"/>
            <feColorMatrix in="shadowOffsetOuter1" values="0 0 0 0 0.0941176471 0 0 0 0 0.11372549 0 0 0 0 0.2 0 0 0 0.147481425 0"/>
        </filter>
        <path id="prefix__b" d="M79.33 66.92c0 21.768-17.647 39.414-39.416 39.414C18.146 106.334.5 88.688.5 66.92c0-21.768 17.647-39.415 39.415-39.415 21.77 0 39.415 17.647 39.415 39.415z"/>
    </defs>
    <g fill="none" fill-rule="evenodd">
        <circle cx="25" cy="107" r="19" fill="#181D33"/>
        <circle cx="56" cy="107" r="19" fill="#3497F3"/>
        <use fill="#000" filter="url(#prefix__a)" xlink:href="#prefix__b"/>
        <use fill="#FFF" stroke="#181D33" xlink:href="#prefix__b"/>
        <path stroke="#181D33" d="M79.323 66.8c-4.4 1.8-9.22 2.79-14.27 2.79-9.66 0-18.47-3.63-25.14-9.62-6.67 5.99-15.48 9.62-25.14 9.62-5.05 0-9.87-.99-14.27-2.79.05-15.85 9.45-29.51 22.98-35.72-2.08-3.12-3.28-6.85-3.28-10.87 0-9.58 6.84-17.56 15.9-19.34 1.23-.24 2.51-.37 3.81-.37 1.3 0 2.58.13 3.81.37 9.06 1.78 15.9 9.76 15.9 19.34 0 4.02-1.2 7.75-3.28 10.87 13.53 6.21 22.93 19.87 22.98 35.72z"/>
        <path fill="#FFF" stroke="#181D33" d="M35.915 76.49c0 3.038-2.462 5.501-5.5 5.501-3.037 0-5.5-2.463-5.5-5.5 0-3.038 2.463-5.5 5.5-5.5 3.038 0 5.5 2.462 5.5 5.5M54.914 76.49c0 3.038-2.462 5.501-5.5 5.501s-5.5-2.463-5.5-5.5c0-3.038 2.462-5.5 5.5-5.5s5.5 2.462 5.5 5.5"/>
        <path stroke="#181D33" d="M36 75.992C36.872 74.664 38.224 74 40.058 74 42.808 74 44 76 44 76"/>
    </g>
</svg>
