<svg xmlns="http://www.w3.org/2000/svg" width="43" height="34" viewBox="0 0 43 34">
    <path fill="#5D80A0" fill-rule="evenodd" d="M37.928 18.666c.088-.544.154-1.088.154-1.666 0-.578-.066-1.122-.154-1.666l4.663-2.805c.42-.255.53-.714.266-1.088l-4.421-5.882c-.265-.374-.862-.51-1.348-.374l-5.504 1.7c-1.15-.68-2.387-1.241-3.736-1.666l-.84-4.505C26.943.306 26.479 0 25.927 0h-8.842c-.552 0-1.016.306-1.083.714l-.84 4.505c-1.348.425-2.586 1.003-3.735 1.666l-5.504-1.7c-.508-.153-1.083 0-1.348.374l-4.42 5.882c-.288.374-.155.833.264 1.088l4.664 2.805c-.088.544-.154 1.105-.154 1.666 0 .561.066 1.122.154 1.666L.418 21.471c-.42.255-.53.714-.265 1.088l4.42 5.882c.266.374.863.51 1.35.374l5.503-1.7c1.15.68 2.387 1.241 3.735 1.666l.84 4.505c.067.408.53.714 1.083.714h8.842c.552 0 1.016-.306 1.083-.714l.84-4.505c1.348-.425 2.586-1.003 3.735-1.666l5.504 1.7c.508.153 1.083 0 1.348-.374l4.42-5.882c.266-.374.155-.833-.265-1.088l-4.663-2.805zM22.5 23c-4.136 0-7.5-2.691-7.5-6s3.364-6 7.5-6 7.5 2.691 7.5 6-3.364 6-7.5 6z"/>
</svg>
