<svg xmlns="http://www.w3.org/2000/svg" width="257" height="357" viewBox="0 0 257 357">
    <defs>
        <linearGradient id="prefix__a" x1="50%" x2="50%" y1="0%" y2="100%">
            <stop offset="0%" stop-color="#3497F3"/>
            <stop offset="100%" stop-color="#3497F3" stop-opacity="0"/>
        </linearGradient>
        <linearGradient id="prefix__b" x1="50%" x2="50%" y1="0%" y2="99.784%">
            <stop offset="0%" stop-color="#3497F3"/>
            <stop offset="100%" stop-color="#3497F3" stop-opacity="0"/>
        </linearGradient>
        <linearGradient id="prefix__c" x1="50%" x2="50%" y1="0%" y2="100%">
            <stop offset="0%" stop-color="#3497F3"/>
            <stop offset="100%" stop-color="#3497F3" stop-opacity="0"/>
        </linearGradient>
        <linearGradient id="prefix__d" x1="50%" x2="50%" y1="0%" y2="99.784%">
            <stop offset="0%" stop-color="#3497F3"/>
            <stop offset="100%" stop-color="#3497F3" stop-opacity="0"/>
        </linearGradient>
        <linearGradient id="prefix__e" x1="50%" x2="50%" y1="0%" y2="100%">
            <stop offset="0%" stop-color="#3497F3"/>
            <stop offset="99.784%" stop-color="#3497F3" stop-opacity="0"/>
        </linearGradient>
        <linearGradient id="prefix__f" x1="50%" x2="50%" y1="0%" y2="100%">
            <stop offset="0%" stop-color="#3497F3"/>
            <stop offset="100%" stop-color="#3497F3" stop-opacity="0"/>
        </linearGradient>
    </defs>
    <g fill="none" fill-rule="evenodd">
        <path fill="url(#prefix__a)" d="M88.5 25L128.5 25 128.5 215.705 88.5 190.805z" opacity=".05"/>
        <path fill="url(#prefix__a)" d="M128.5 25L168.5 25 168.5 190.805 128.5 215.705z" opacity=".1"/>
        <path fill="#3497F3" d="M129 0L169 25.102 129 50.205 89 25.102z"/>
        <path fill="#FFF" d="M138.074 17.026l-5.874 1.759L125.6 17l-6.204 1.615c-.231.06-.396.213-.396.408v12.852c0 .238.242.425.55.425l.176-.025 5.874-1.76 6.6 1.785 6.204-1.615c.231-.06.396-.212.396-.408V17.425c0-.238-.242-.425-.55-.425l-.176.026zm-12.324 11.71V18.8l6.75 1.763V30.5l-6.75-1.763z"/>
        <path fill="url(#prefix__b)" d="M88.5 190.5L128.5 190.5 128.5 357.399 88.5 332.5z" opacity=".05"/>
        <path fill="url(#prefix__c)" d="M128.5 190.5L168.5 190.5 168.5 332.5 128.5 357.399z" opacity=".1"/>
        <path fill="#3497F3" d="M129 166L169 191.102 129 216.205 89 191.102z"/>
        <path fill="#FFF" d="M128.5 183c1.352 0 2.457.7 2.457 1.556 0 .855-1.105 1.555-2.457 1.555-1.352 0-2.457-.7-2.457-1.555 0-.856 1.105-1.556 2.457-1.556zm10.5 5.985h-7V199h-2.333v-4.622h-2.334V199H125v-10.015h-7v-1.54h21v1.54z"/>
        <path fill="#0B4B87" d="M40 120.5L80 145.602 40 170.705 0 145.602z"/>
        <path fill="url(#prefix__d)" d="M0 70L40 70 40 170.95 0 146.05z" opacity=".05"/>
        <path fill="url(#prefix__e)" d="M40 70L80 70 80 146.05 40 170.95z" opacity=".1"/>
        <path fill="#3497F3" d="M40 45L80 70.102 40 95.205 0 70.102z"/>
        <path fill="#FFF" d="M52 66.667c0 .916-.94 1.666-2.09 1.666-.19 0-.367-.016-.534-.058l-3.722 2.958c.052.134.073.284.073.434 0 .916-.94 1.666-2.09 1.666s-2.092-.75-2.092-1.666c0-.15.021-.3.074-.434l-2.666-2.125c-.168.042-.356.059-.544.059-.188 0-.376-.017-.544-.059l-4.756 3.8c.052.134.073.275.073.425 0 .917-.941 1.667-2.091 1.667C29.94 75 29 74.25 29 73.333c0-.916.94-1.666 2.09-1.666.19 0 .367.016.534.058l4.767-3.792c-.052-.133-.073-.283-.073-.433 0-.917.941-1.667 2.091-1.667 1.15 0 2.091.75 2.091 1.667 0 .15-.02.3-.073.433l2.666 2.125c.167-.041.355-.058.543-.058.189 0 .377.017.544.058l3.711-2.966c-.052-.134-.073-.275-.073-.425 0-.917.941-1.667 2.091-1.667 1.15 0 2.091.75 2.091 1.667z"/>
        <path fill="url(#prefix__b)" d="M0 145.5L40 145.5 40 312.399 0 287.5z" opacity=".05"/>
        <path fill="url(#prefix__c)" d="M40 145.5L80 145.5 80 287.5 40 312.399z" opacity=".1"/>
        <path fill="#3497F3" d="M40 121L80 146.102 40 171.205 0 146.102z"/>
        <path fill="#FFF" d="M31 150.872V154h3.916l11.55-9.225-3.917-3.128L31 150.872zm18.692-8.531c.41-.323.41-.843 0-1.166l-2.465-1.933c-.41-.323-1.075-.323-1.485 0l-1.928 1.512 3.95 3.099 1.928-1.512z"/>
        <path fill="url(#prefix__f)" d="M177 70L217 70 217 171 177 146.101z" opacity=".05"/>
        <path fill="url(#prefix__f)" d="M217 70L257 70 257 146.101 217 171z" opacity=".1"/>
        <path fill="#3497F3" d="M217 45L257 70.102 217 95.205 177 70.102z"/>
        <path fill="#FFF" d="M213.518 74.818c-1.096 0-1.983.716-1.983 1.591S212.422 78 213.518 78c1.097 0 1.994-.716 1.994-1.59 0-.876-.897-1.592-1.994-1.592zM208 63v1.515h1.9l3.42 5.75-1.282 1.856c-.153.212-.238.462-.238.727 0 .834.855 1.516 1.9 1.516h11.4v-1.516h-11.001c-.133 0-.237-.083-.237-.189l.028-.09.855-1.236h7.077c.713 0 1.34-.31 1.663-.78l3.401-4.917c.076-.106.114-.234.114-.363 0-.417-.428-.758-.95-.758H212L211.107 63H208zm15.24 11.818c-1.097 0-1.984.716-1.984 1.591S222.143 78 223.239 78c1.097 0 1.994-.716 1.994-1.59 0-.876-.897-1.592-1.994-1.592z"/>
        <path fill="url(#prefix__b)" d="M177 145.5L217 145.5 217 312.399 177 287.5z" opacity=".05"/>
        <path fill="url(#prefix__c)" d="M217 145.5L257 145.5 257 287.5 217 312.399z" opacity=".1"/>
        <path fill="#3497F3" d="M217 121L257 146.102 217 171.205 177 146.102z"/>
        <path fill="#FFF" d="M224.759 147.235c.039-.24.068-.48.068-.735s-.03-.495-.068-.735l2.06-1.237c.186-.113.235-.315.118-.48l-1.954-2.596c-.117-.165-.38-.225-.595-.165l-2.432.75c-.508-.3-1.055-.547-1.65-.734l-.372-1.988c-.03-.18-.234-.315-.479-.315h-3.906c-.244 0-.45.135-.479.315l-.37 1.988c-.597.187-1.144.442-1.651.734l-2.432-.75c-.225-.067-.479 0-.596.165l-1.953 2.596c-.127.165-.069.367.117.48l2.06 1.237c-.038.24-.068.488-.068.735 0 .248.03.495.069.735l-2.061 1.237c-.186.113-.234.315-.117.48l1.953 2.596c.117.165.38.225.596.165l2.432-.75c.507.3 1.054.547 1.65.734l.371 1.988c.03.18.235.315.479.315h3.906c.245 0 .45-.135.479-.315l.371-1.988c.596-.187 1.143-.442 1.65-.734l2.433.75c.224.067.478 0 .595-.165l1.954-2.596c.117-.165.068-.367-.118-.48l-2.06-1.237zm-6.817 1.912c-1.828 0-3.314-1.187-3.314-2.647 0-1.46 1.486-2.647 3.314-2.647 1.827 0 3.314 1.187 3.314 2.647 0 1.46-1.487 2.647-3.314 2.647z"/>
    </g>
</svg>
