<svg xmlns="http://www.w3.org/2000/svg" width="51" height="23" viewBox="0 0 51 23">
    <path fill="#5D80A0" fill-rule="evenodd" d="M51 3.833c0 2.109-2.086 3.834-4.636 3.834-.418 0-.812-.039-1.183-.134l-8.252 6.804c.116.306.162.651.162.996 0 2.109-2.086 3.834-4.636 3.834-2.55 0-4.637-1.725-4.637-3.834 0-.345.047-.69.162-.996l-5.91-4.888c-.372.096-.79.134-1.206.134-.418 0-.835-.038-1.206-.134L9.11 18.19c.116.307.163.633.163.978C9.273 21.275 7.186 23 4.636 23 2.086 23 0 21.275 0 19.167c0-2.109 2.086-3.834 4.636-3.834.418 0 .812.039 1.183.134l10.57-8.72c-.115-.307-.162-.652-.162-.997 0-2.108 2.087-3.833 4.637-3.833 2.55 0 4.636 1.725 4.636 3.833 0 .345-.046.69-.162.997l5.911 4.887c.371-.096.788-.134 1.206-.134.417 0 .834.038 1.205.134l8.23-6.823c-.116-.307-.163-.633-.163-.978C41.727 1.725 43.814 0 46.364 0 48.914 0 51 1.725 51 3.833z"/>
</svg>
