<?xml version="1.0" encoding="UTF-8"?>
<svg width="44px" height="34px" viewBox="0 0 44 34" version="1.1" xmlns="http://www.w3.org/2000/svg" xmlns:xlink="http://www.w3.org/1999/xlink">
    <!-- Generator: Sketch 63.1 (92452) - https://sketch.com -->
    <title>mask</title>
    <desc>Created with Sketch.</desc>
    <g id="Page-1" stroke="none" stroke-width="1" fill="none" fill-rule="evenodd">
        <g id="Artboard" transform="translate(-255.000000, -20.000000)" fill="#FFFFFF">
            <g id="mask" transform="translate(255.000000, 20.000000)">
                <path d="M42.387,0.057 L29.333,3.967 L14.667,0 L0.88,3.589 C0.367,3.72 0,4.06 0,4.496 L0,33.056 C0,33.584 0.538,34 1.222,34 L1.613,33.943 L14.667,30.033 L29.333,34 L43.12,30.411 C43.633,30.279 44,29.939 44,29.504 L44,0.944 C44,0.416 43.462,0 42.778,0 L42.387,0.057 Z M15,26.08 L15,4 L30,7.919 L30,30 L15,26.081 L15,26.08 Z" id="Shape"></path>
            </g>
        </g>
    </g>
</svg>