<svg xmlns="http://www.w3.org/2000/svg" width="43" height="33" viewBox="0 0 43 33">
    <path fill="#5D80A0" fill-rule="evenodd" d="M12.489 26C10.008 26 8 27.575 8 29.5s2.008 3.5 4.489 3.5C14.969 33 17 31.425 17 29.5S14.97 26 12.489 26zM0 0v3.333h4.3l7.74 12.65-2.903 4.084c-.344.466-.537 1.016-.537 1.6C8.6 23.5 10.535 25 12.9 25h25.8v-3.333H13.803c-.301 0-.538-.184-.538-.417l.065-.2 1.935-2.717h16.018c1.612 0 3.031-.683 3.762-1.716L42.742 5.8c.172-.233.258-.517.258-.8 0-.917-.967-1.667-2.15-1.667H9.051L7.031 0H0zm34.489 26C32.008 26 30 27.575 30 29.5s2.008 3.5 4.489 3.5C36.969 33 39 31.425 39 29.5S36.97 26 34.489 26z"/>
</svg>
