<?xml version="1.0" encoding="UTF-8"?>
<svg width="31px" height="58px" viewBox="0 0 31 58" version="1.1" xmlns="http://www.w3.org/2000/svg" xmlns:xlink="http://www.w3.org/1999/xlink">
    <!-- Generator: Sketch 48.2 (47327) - http://www.bohemiancoding.com/sketch -->
    <title>arrow left</title>
    <desc>Created with Sketch.</desc>
    <defs></defs>
    <g id="Growthcasts---Full" stroke="none" stroke-width="1" fill="none" fill-rule="evenodd" transform="translate(-569.000000, -36417.000000)">
        <g id="EMAIL-TESTIMONIAL" transform="translate(415.000000, 36241.000000)" fill="#A0A4B1">
            <g id="testimonial" transform="translate(0.000000, 173.000000)">
                <path d="M172.798307,20.0624708 C172.730307,19.8940576 172.669307,19.7422484 172.607307,19.5896485 C172.559307,19.7398764 172.470307,19.8885228 172.473307,20.0371693 C172.476307,20.1913505 172.570307,20.3431597 172.625307,20.4973409 C172.681307,20.3518571 172.740307,20.2079546 172.798307,20.0624708 Z M175.166708,24.0241379 C175.100708,23.8343824 174.993708,23.5274001 174.887708,23.2204178 C174.220708,23.4051132 174.576708,23.878237 174.506708,24.2231704 C174.461708,24.4373833 174.505708,24.6726802 174.553708,24.8902665 C174.567708,24.9552051 174.746708,25.0479744 174.826708,25.0344807 C174.925708,25.0167702 175.055708,24.9121938 175.076708,24.8270147 C175.129708,24.6094283 175.131708,24.3808783 175.166708,24.0241379 Z M172.741936,35.2429756 C172.648936,35.3826632 172.527936,35.515699 172.476936,35.6653643 C172.451936,35.7368711 172.559936,35.8399739 172.607936,35.9281101 C172.662936,35.8474571 172.760936,35.7684671 172.761936,35.6869827 C172.764936,35.5256767 172.712936,35.3643708 172.683936,35.2038963 C173.263936,34.7465857 173.304936,34.1130026 173.462936,33.5218247 C173.487936,33.4270367 173.396936,33.3114618 173.359936,33.2050332 C173.277936,33.2798658 173.142936,33.3463837 173.123936,33.4303626 C172.982936,34.0315182 172.865936,34.6384941 172.741936,35.2429756 Z M171.759437,39.228989 C171.660437,39.2763984 171.526437,39.3126139 171.477437,39.3771433 C171.450437,39.4153342 171.560437,39.4976422 171.609437,39.5588793 C171.639437,39.5220053 171.687437,39.4871068 171.694437,39.4482574 C171.708437,39.365291 171.700437,39.2803491 171.701437,39.1967242 C172.279437,38.8786862 172.289437,38.4039339 172.456437,37.9765909 C172.482437,37.911403 172.362437,37.8218519 172.310437,37.7434947 C172.210437,37.7974887 172.036437,37.8435812 172.020437,37.9067937 C171.915437,38.3453306 171.842437,38.7878182 171.759437,39.228989 Z M163.947215,18.7569719 C164.049116,17.4934034 164.132369,16.2252373 164.256249,14.962435 C164.561952,11.853704 164.866323,8.74267415 165.482391,5.68834781 C165.702844,4.59565605 165.83072,3.50832813 165.653558,2.37885572 C165.539669,1.65167166 165.737477,1.56278509 166.424809,1.47772984 C168.914392,1.16662686 170.853175,2.6439829 172.819932,4.0171271 C174.716091,5.34276297 176.430426,6.96417655 178.17007,8.53961432 C178.644942,8.97102067 179.122478,9.35951627 179.691925,9.61544828 C180.198766,9.84302855 180.545097,10.2775 180.460512,10.9633058 C180.431207,11.20238 180.339296,11.5272757 180.183448,11.629955 C179.867088,11.8383787 179.721896,12.0889469 179.680603,12.4965991 C179.635979,12.9264729 179.797156,13.2038603 180.058236,13.455961 C180.162801,13.5571078 180.27336,13.6774111 180.32531,13.8161048 C180.373929,13.9448371 180.398572,14.1486632 180.341294,14.2505762 C180.286681,14.3463592 180.094201,14.4222193 179.994298,14.3862049 C179.778508,14.3111111 179.569377,14.1816125 179.38156,14.0337237 C178.242666,13.1310653 177.106436,12.2261081 175.97953,11.3042931 C175.491338,10.9050698 175.03578,10.4506755 174.547588,10.050686 C174.028758,9.62387718 173.488616,9.23231653 172.957132,8.82543061 C172.626786,9.7158288 173.297468,10.2828638 173.526579,10.9709684 C174.595541,14.1747162 175.215606,17.4849745 175.339485,20.8994447 C175.406753,22.7499711 175.559938,24.60203 175.43406,26.4655828 C175.330161,28.0034737 175.209611,29.5298706 174.90524,31.0348121 C174.580223,32.6355366 174.404393,34.265379 173.97148,35.8484794 C172.989101,39.4445541 171.924801,42.9931204 170.328352,46.3033787 C169.768895,47.4627354 169.255394,48.6527426 168.683283,49.8036704 C168.364259,50.445033 167.965979,51.0350559 167.607661,51.651898 C167.300625,52.1790873 167.051534,52.7637464 166.687221,53.2304008 C165.057471,55.3161701 163.595557,57.5996354 161.487604,59.1313961 C161.022722,59.4700846 160.605794,59.893062 160.157562,60.262401 C159.717989,60.6256099 159.256438,60.3957309 159.122568,59.7827201 C158.961391,59.0455746 158.890127,59.0164566 158.321346,59.1176034 C158.232765,59.1336949 158.130864,59.2539983 158.068258,59.2256465 C157.869784,59.1359937 157.638675,59.0455746 157.518126,58.8670352 C157.439535,58.7513294 157.470838,58.3613013 157.560085,58.3000002 C158.114213,57.9222323 158.089571,57.4080695 157.951705,56.7965912 C157.884437,56.4969822 157.899089,56.1567612 157.94238,55.8471907 C157.967023,55.6655863 158.088905,55.4249795 158.224107,55.3529507 C160.493902,54.1185002 162.055719,51.8963361 163.856637,50.0128604 C164.29954,49.5500372 164.91694,49.0680575 164.549297,48.1339823 C164.500678,48.0098476 164.6492,47.737824 164.75643,47.5792075 C166.18704,45.4750479 167.327266,43.1747248 168.257696,40.7341756 C169.093551,38.5426619 169.806192,36.2990424 170.153855,33.9343532 C170.52283,31.4279053 170.818542,28.9068983 171.145558,26.3920215 C171.318723,25.0679182 171.27077,23.7430486 171.160877,22.4197115 C170.977055,20.1998461 170.79057,17.980747 170.577443,15.7647129 C170.517501,15.1363769 170.40894,14.4996119 170.237773,13.9003938 C169.936066,12.8437164 169.572419,11.810027 169.226755,10.7709737 C169.161485,10.5740439 169.068908,10.3863094 168.968339,10.210835 C168.921718,10.1303774 168.798504,10.0208017 168.759209,10.0422571 C168.659972,10.0981943 168.526768,10.2085362 168.513448,10.3150469 C168.333622,11.7318681 168.13315,13.1486893 168.019927,14.5739394 C167.940005,15.5739133 167.99262,16.5876799 167.971974,17.5953164 C167.957321,18.338592 167.933344,19.0404894 167.293299,19.5554185 C166.896351,19.8749504 166.663244,20.4519468 166.32424,20.8795218 C166.11178,21.1438827 165.730151,21.0097866 165.700846,20.6450452 C165.65489,20.0757114 165.527681,19.6588641 165.001525,19.4328163 C164.558622,19.2412505 164.571942,19.1822482 164.511334,19.7102037 C164.493352,19.8665215 164.521325,20.0450609 164.464713,20.1760919 C164.416759,20.2849014 164.280891,20.3569301 164.170998,20.4082698 C164.147687,20.4189975 164.025806,20.2741737 164.022476,20.1960148 C164.000497,19.7193989 163.999831,19.2420167 163.991839,18.7654008 C163.97652,18.7623358 163.962534,18.760037 163.947215,18.7569719 Z" id="arrow-left" transform="translate(168.973233, 30.935802) rotate(-171.000000) translate(-168.973233, -30.935802) "></path>
            </g>
        </g>
    </g>
</svg>