<svg width="31" height="58" xmlns="http://www.w3.org/2000/svg">
  <path d="M9.494 38.077l.115.497c.07-.141.182-.274.202-.421.021-.153-.048-.318-.078-.479-.078.135-.159.268-.239.403zm-1.72-4.284c.036.198.094.518.15.838.688-.078.41-.601.534-.93.078-.205.071-.445.058-.667-.004-.066-.166-.186-.247-.185-.1.002-.246.085-.28.166-.086.206-.124.432-.214.778zm4.15-10.7c.114-.124.255-.237.329-.377.035-.066-.055-.185-.089-.28-.067.071-.176.134-.19.214-.028.16-.002.327.002.49-.645.36-.784.98-1.033 1.54-.04.089.033.217.053.328.092-.06.236-.105.268-.185.233-.572.444-1.153.66-1.73zm1.595-3.784c.105-.031.243-.046.301-.102.033-.034-.063-.132-.102-.2-.035.031-.088.058-.1.095-.028.08-.033.165-.047.248-.62.224-.705.69-.937 1.087-.036.06.069.167.108.253.107-.038.286-.056.312-.116.172-.417.314-.842.465-1.265zm4.513 21.442c-.298 1.232-.579 2.472-.899 3.7-.788 3.022-1.575 6.047-2.661 8.968-.39 1.044-.686 2.098-.687 3.241-.002.737-.21.793-.903.77-2.508-.082-4.191-1.845-5.92-3.509-1.665-1.606-3.104-3.475-4.576-5.303-.401-.5-.812-.96-1.335-1.301-.465-.304-.739-.787-.548-1.452.066-.231.208-.538.378-.615.345-.156.528-.38.632-.777.111-.418-.004-.717-.223-1.007-.087-.116-.178-.252-.207-.397-.028-.135-.02-.34.052-.432.069-.086.27-.13.364-.08.201.108.388.27.55.445.984 1.07 1.964 2.14 2.933 3.228.42.47.799.99 1.218 1.462.446.502.918.974 1.38 1.459.465-.828-.109-1.493-.227-2.208a35.273 35.273 0 0 1-.238-10.09c.223-1.839.362-3.692.778-5.513.343-1.502.7-2.991 1.237-4.43.571-1.53 1-3.112 1.675-4.608 1.533-3.398 3.14-6.737 5.234-9.757.734-1.057 1.427-2.152 2.172-3.2.416-.583.901-1.103 1.352-1.657.385-.472.723-1.01 1.156-1.415 1.936-1.805 3.737-3.832 6.058-5.015.513-.261.99-.614 1.491-.909.491-.29.91.01.947.636.044.753.11.793.688.782.09-.002.21-.105.266-.067.182.12.397.245.488.44.06.127-.033.507-.13.554-.607.286-.663.798-.622 1.424.02.306-.049.64-.14.939-.052.175-.21.394-.355.444-2.435.864-4.325 2.814-6.399 4.393-.51.388-1.195.767-.978 1.747.029.13-.16.376-.291.516-1.742 1.854-3.228 3.948-4.53 6.213-1.168 2.034-2.222 4.138-2.936 6.42-.756 2.417-1.443 4.861-2.16 7.294-.377 1.28-.537 2.597-.636 3.92a503.82 503.82 0 0 0-.465 6.665c-.039.63-.031 1.276.044 1.895.133 1.09.33 2.168.51 3.249.033.204.095.404.167.593.033.087.138.215.18.2.107-.04.256-.128.286-.231.399-1.372.818-2.74 1.153-4.13.236-.975.342-1.984.52-2.976.131-.732.264-1.422.977-1.83.442-.254.763-.787 1.164-1.156.252-.228.608-.036.58.329-.044.57.016 1 .5 1.306.408.259.386.315.528-.197.042-.151.043-.332.12-.453.063-.1.209-.15.325-.183.025-.007.123.155.114.233-.053.474-.127.946-.194 1.418l.043.015z" fill="#A0A4B1" fill-rule="evenodd"/>
</svg>
