<svg width="494" height="452" viewBox="0 0 494 452" fill="none" xmlns="http://www.w3.org/2000/svg">
<path fill-rule="evenodd" clip-rule="evenodd" d="M402.531 161.04H91.4707V274.223H91.4718C91.4711 274.351 91.4707 274.479 91.4707 274.608C91.4707 331.802 161.104 378.166 247.001 378.166C332.898 378.166 402.531 331.802 402.531 274.608C402.531 274.479 402.531 274.351 402.53 274.223H402.531V161.04Z" fill="#359BFA"/>
<mask id="mask0" mask-type="alpha" maskUnits="userSpaceOnUse" x="91" y="161" width="312" height="218">
<path fill-rule="evenodd" clip-rule="evenodd" d="M402.531 161.04H91.4707V274.223H91.4718C91.4711 274.351 91.4707 274.479 91.4707 274.608C91.4707 331.802 161.104 378.166 247.001 378.166C332.898 378.166 402.531 331.802 402.531 274.608C402.531 274.479 402.531 274.351 402.53 274.223H402.531V161.04Z" fill="#C4C4C4"/>
</mask>
<g mask="url(#mask0)">
<path opacity="0.5" d="M271.381 10.3567L531.158 182.893L287.979 344.405C277.922 351.085 264.84 351.085 254.783 344.405L11.604 182.893L271.381 10.3567Z" fill="#292F47"/>
</g>
<path d="M234.346 3.40434C242.171 -1.13477 251.829 -1.13478 259.654 3.40433L486.879 135.201C496.043 140.517 496.441 153.607 487.615 159.469L260.954 310.011C252.499 315.626 241.501 315.626 233.046 310.011L6.38492 159.469C-2.4407 153.607 -2.04351 140.517 7.12127 135.201L234.346 3.40434Z" fill="#359BFA"/>
<path d="M253.273 148.103C254.813 147.03 256.853 147.014 258.409 148.063L380.593 230.464L372.605 236.031L253.331 155.593C250.687 153.809 250.657 149.927 253.273 148.103Z" fill="white"/>
<path d="M378.882 413.597C379.954 412.85 380.593 411.627 380.593 410.321L380.593 230.465L372.606 236.032L372.605 410.321C372.605 413.548 376.235 415.442 378.882 413.597Z" fill="white"/>
<path d="M368.061 310.26C368.061 305.385 372.013 301.432 376.888 301.432C381.763 301.432 385.715 305.385 385.715 310.26V451.918H368.061V310.26Z" fill="white"/>
</svg>
