<svg width="480" height="187" viewBox="0 0 480 187" fill="none" xmlns="http://www.w3.org/2000/svg">
<rect x="0.444445" y="1.06478" width="467.717" height="87.4197" fill="white" stroke="#CACACA" stroke-width="0.888889"/>
<path d="M25.958 25.2959V71.1759H17.278V25.2959H25.958ZM49.7859 71.7339C46.4792 71.7339 43.5032 71.0105 40.8579 69.5639C38.2125 68.0759 36.1252 65.9885 34.5959 63.3019C33.1079 60.6152 32.3639 57.5152 32.3639 54.0019C32.3639 50.4885 33.1285 47.3885 34.6579 44.7019C36.2285 42.0152 38.3572 39.9485 41.0439 38.5019C43.7305 37.0139 46.7272 36.2699 50.0339 36.2699C53.3405 36.2699 56.3372 37.0139 59.0239 38.5019C61.7105 39.9485 63.8185 42.0152 65.3479 44.7019C66.9185 47.3885 67.7039 50.4885 67.7039 54.0019C67.7039 57.5152 66.8979 60.6152 65.2859 63.3019C63.7152 65.9885 61.5659 68.0759 58.8379 69.5639C56.1512 71.0105 53.1339 71.7339 49.7859 71.7339ZM49.7859 64.1699C51.3565 64.1699 52.8239 63.7979 54.1879 63.0539C55.5932 62.2685 56.7092 61.1112 57.5359 59.5819C58.3625 58.0525 58.7759 56.1925 58.7759 54.0019C58.7759 50.7365 57.9079 48.2359 56.1719 46.4999C54.4772 44.7225 52.3899 43.8339 49.9099 43.8339C47.4299 43.8339 45.3425 44.7225 43.6479 46.4999C41.9945 48.2359 41.1679 50.7365 41.1679 54.0019C41.1679 57.2672 41.9739 59.7885 43.5859 61.5659C45.2392 63.3019 47.3059 64.1699 49.7859 64.1699ZM88.393 63.1779L97.073 36.8279H106.311L93.601 71.1759H83.061L70.413 36.8279H79.713L88.393 63.1779ZM143.116 53.2579C143.116 54.4979 143.034 55.6139 142.868 56.6059H117.758C117.965 59.0859 118.833 61.0285 120.362 62.4339C121.892 63.8392 123.772 64.5419 126.004 64.5419C129.228 64.5419 131.522 63.1572 132.886 60.3879H142.248C141.256 63.6945 139.355 66.4225 136.544 68.5719C133.734 70.6799 130.282 71.7339 126.19 71.7339C122.884 71.7339 119.908 71.0105 117.262 69.5639C114.658 68.0759 112.612 65.9885 111.124 63.3019C109.678 60.6152 108.954 57.5152 108.954 54.0019C108.954 50.4472 109.678 47.3265 111.124 44.6399C112.571 41.9532 114.596 39.8865 117.2 38.4399C119.804 36.9932 122.801 36.2699 126.19 36.2699C129.456 36.2699 132.37 36.9725 134.932 38.3779C137.536 39.7832 139.541 41.7879 140.946 44.3919C142.393 46.9545 143.116 49.9099 143.116 53.2579ZM134.126 50.7779C134.085 48.5459 133.279 46.7685 131.708 45.4459C130.138 44.0819 128.216 43.3999 125.942 43.3999C123.793 43.3999 121.974 44.0612 120.486 45.3839C119.04 46.6652 118.151 48.4632 117.82 50.7779H134.126ZM179.973 43.9579H173.959V71.1759H165.155V43.9579H161.249V36.8279H165.155V35.0919C165.155 30.8759 166.354 27.7759 168.751 25.7919C171.149 23.8079 174.765 22.8779 179.601 23.0019V30.3179C177.493 30.2765 176.026 30.6279 175.199 31.3719C174.373 32.1159 173.959 33.4592 173.959 35.4019V36.8279H179.973V43.9579ZM200.85 71.7339C197.544 71.7339 194.568 71.0105 191.922 69.5639C189.277 68.0759 187.19 65.9885 185.66 63.3019C184.172 60.6152 183.428 57.5152 183.428 54.0019C183.428 50.4885 184.193 47.3885 185.722 44.7019C187.293 42.0152 189.422 39.9485 192.108 38.5019C194.795 37.0139 197.792 36.2699 201.098 36.2699C204.405 36.2699 207.402 37.0139 210.088 38.5019C212.775 39.9485 214.883 42.0152 216.412 44.7019C217.983 47.3885 218.768 50.4885 218.768 54.0019C218.768 57.5152 217.962 60.6152 216.35 63.3019C214.78 65.9885 212.63 68.0759 209.902 69.5639C207.216 71.0105 204.198 71.7339 200.85 71.7339ZM200.85 64.1699C202.421 64.1699 203.888 63.7979 205.252 63.0539C206.658 62.2685 207.774 61.1112 208.6 59.5819C209.427 58.0525 209.84 56.1925 209.84 54.0019C209.84 50.7365 208.972 48.2359 207.236 46.4999C205.542 44.7225 203.454 43.8339 200.974 43.8339C198.494 43.8339 196.407 44.7225 194.712 46.4999C193.059 48.2359 192.232 50.7365 192.232 54.0019C192.232 57.2672 193.038 59.7885 194.65 61.5659C196.304 63.3019 198.37 64.1699 200.85 64.1699ZM233.815 42.1599C234.931 40.3412 236.378 38.9152 238.155 37.8819C239.974 36.8485 242.041 36.3319 244.355 36.3319V45.4459H242.061C239.333 45.4459 237.267 46.0865 235.861 47.3679C234.497 48.6492 233.815 50.8812 233.815 54.0639V71.1759H225.135V36.8279H233.815V42.1599Z" fill="#292F47"/>
<rect x="1.42433" y="88.2669" width="465.757" height="85.46" fill="white" stroke="#359BFA" stroke-width="2.84866"/>
<rect x="457.209" y="163.757" width="21.365" height="21.365" fill="#359BFA" stroke="#F1F8FF" stroke-width="2.84866"/>
<path d="M30.422 155.825C27.6113 155.825 25.09 155.329 22.858 154.337C20.626 153.304 18.8487 151.919 17.526 150.183C16.2447 148.447 15.542 146.525 15.418 144.417H24.16C24.3253 145.74 24.966 146.835 26.082 147.703C27.2393 148.571 28.6653 149.005 30.36 149.005C32.0133 149.005 33.2947 148.674 34.204 148.013C35.1547 147.352 35.63 146.504 35.63 145.471C35.63 144.355 35.0513 143.528 33.894 142.991C32.778 142.412 30.98 141.792 28.5 141.131C25.9373 140.511 23.8293 139.87 22.176 139.209C20.564 138.548 19.1587 137.535 17.96 136.171C16.8027 134.807 16.224 132.968 16.224 130.653C16.224 128.752 16.7613 127.016 17.836 125.445C18.952 123.874 20.5227 122.634 22.548 121.725C24.6147 120.816 27.0327 120.361 29.802 120.361C33.894 120.361 37.1593 121.394 39.598 123.461C42.0367 125.486 43.38 128.235 43.628 131.707H35.32C35.196 130.343 34.6173 129.268 33.584 128.483C32.592 127.656 31.2487 127.243 29.554 127.243C27.9833 127.243 26.764 127.532 25.896 128.111C25.0693 128.69 24.656 129.496 24.656 130.529C24.656 131.686 25.2347 132.575 26.392 133.195C27.5493 133.774 29.3473 134.373 31.786 134.993C34.266 135.613 36.312 136.254 37.924 136.915C39.536 137.576 40.9207 138.61 42.078 140.015C43.2767 141.379 43.8967 143.198 43.938 145.471C43.938 147.455 43.38 149.232 42.264 150.803C41.1893 152.374 39.6187 153.614 37.552 154.523C35.5267 155.391 33.15 155.825 30.422 155.825ZM59.7432 125.879C60.8592 124.308 62.3885 123.006 64.3312 121.973C66.3152 120.898 68.5678 120.361 71.0892 120.361C74.0238 120.361 76.6692 121.084 79.0252 122.531C81.4225 123.978 83.3032 126.044 84.6672 128.731C86.0725 131.376 86.7752 134.456 86.7752 137.969C86.7752 141.482 86.0725 144.603 84.6672 147.331C83.3032 150.018 81.4225 152.105 79.0252 153.593C76.6692 155.081 74.0238 155.825 71.0892 155.825C68.5678 155.825 66.3358 155.308 64.3932 154.275C62.4918 153.242 60.9418 151.94 59.7432 150.369V171.635H51.0632V120.919H59.7432V125.879ZM77.9092 137.969C77.9092 135.902 77.4752 134.125 76.6072 132.637C75.7805 131.108 74.6645 129.95 73.2592 129.165C71.8952 128.38 70.4072 127.987 68.7952 127.987C67.2245 127.987 65.7365 128.4 64.3312 129.227C62.9672 130.012 61.8512 131.17 60.9832 132.699C60.1565 134.228 59.7432 136.026 59.7432 138.093C59.7432 140.16 60.1565 141.958 60.9832 143.487C61.8512 145.016 62.9672 146.194 64.3312 147.021C65.7365 147.806 67.2245 148.199 68.7952 148.199C70.4072 148.199 71.8952 147.786 73.2592 146.959C74.6645 146.132 75.7805 144.954 76.6072 143.425C77.4752 141.896 77.9092 140.077 77.9092 137.969ZM101.763 126.251C102.879 124.432 104.325 123.006 106.103 121.973C107.921 120.94 109.988 120.423 112.303 120.423V129.537H110.009C107.281 129.537 105.214 130.178 103.809 131.459C102.445 132.74 101.763 134.972 101.763 138.155V155.267H93.0827V120.919H101.763V126.251ZM150.079 137.349C150.079 138.589 149.996 139.705 149.831 140.697H124.721C124.928 143.177 125.796 145.12 127.325 146.525C128.854 147.93 130.735 148.633 132.967 148.633C136.191 148.633 138.485 147.248 139.849 144.479H149.211C148.219 147.786 146.318 150.514 143.507 152.663C140.696 154.771 137.245 155.825 133.153 155.825C129.846 155.825 126.87 155.102 124.225 153.655C121.621 152.167 119.575 150.08 118.087 147.393C116.64 144.706 115.917 141.606 115.917 138.093C115.917 134.538 116.64 131.418 118.087 128.731C119.534 126.044 121.559 123.978 124.163 122.531C126.767 121.084 129.764 120.361 133.153 120.361C136.418 120.361 139.332 121.064 141.895 122.469C144.499 123.874 146.504 125.879 147.909 128.483C149.356 131.046 150.079 134.001 150.079 137.349ZM141.089 134.869C141.048 132.637 140.242 130.86 138.671 129.537C137.1 128.173 135.178 127.491 132.905 127.491C130.756 127.491 128.937 128.152 127.449 129.475C126.002 130.756 125.114 132.554 124.783 134.869H141.089ZM154.183 137.969C154.183 134.497 154.865 131.418 156.229 128.731C157.634 126.044 159.515 123.978 161.871 122.531C164.268 121.084 166.934 120.361 169.869 120.361C172.431 120.361 174.663 120.878 176.565 121.911C178.507 122.944 180.057 124.246 181.215 125.817V120.919H189.957V155.267H181.215V150.245C180.099 151.857 178.549 153.2 176.565 154.275C174.622 155.308 172.369 155.825 169.807 155.825C166.913 155.825 164.268 155.081 161.871 153.593C159.515 152.105 157.634 150.018 156.229 147.331C154.865 144.603 154.183 141.482 154.183 137.969ZM181.215 138.093C181.215 135.985 180.801 134.187 179.975 132.699C179.148 131.17 178.032 130.012 176.627 129.227C175.221 128.4 173.713 127.987 172.101 127.987C170.489 127.987 169.001 128.38 167.637 129.165C166.273 129.95 165.157 131.108 164.289 132.637C163.462 134.125 163.049 135.902 163.049 137.969C163.049 140.036 163.462 141.854 164.289 143.425C165.157 144.954 166.273 146.132 167.637 146.959C169.042 147.786 170.53 148.199 172.101 148.199C173.713 148.199 175.221 147.806 176.627 147.021C178.032 146.194 179.148 145.037 179.975 143.549C180.801 142.02 181.215 140.201 181.215 138.093ZM196.202 137.969C196.202 134.497 196.884 131.418 198.248 128.731C199.654 126.044 201.555 123.978 203.952 122.531C206.35 121.084 209.016 120.361 211.95 120.361C214.182 120.361 216.311 120.857 218.336 121.849C220.362 122.8 221.974 124.081 223.172 125.693V109.387H231.976V155.267H223.172V150.183C222.098 151.878 220.589 153.242 218.646 154.275C216.704 155.308 214.451 155.825 211.888 155.825C208.995 155.825 206.35 155.081 203.952 153.593C201.555 152.105 199.654 150.018 198.248 147.331C196.884 144.603 196.202 141.482 196.202 137.969ZM223.234 138.093C223.234 135.985 222.821 134.187 221.994 132.699C221.168 131.17 220.052 130.012 218.646 129.227C217.241 128.4 215.732 127.987 214.12 127.987C212.508 127.987 211.02 128.38 209.656 129.165C208.292 129.95 207.176 131.108 206.308 132.637C205.482 134.125 205.068 135.902 205.068 137.969C205.068 140.036 205.482 141.854 206.308 143.425C207.176 144.954 208.292 146.132 209.656 146.959C211.062 147.786 212.55 148.199 214.12 148.199C215.732 148.199 217.241 147.806 218.646 147.021C220.052 146.194 221.168 145.037 221.994 143.549C222.821 142.02 223.234 140.201 223.234 138.093ZM253.598 155.825C250.787 155.825 248.266 155.329 246.034 154.337C243.802 153.304 242.024 151.919 240.702 150.183C239.42 148.447 238.718 146.525 238.594 144.417H247.336C247.501 145.74 248.142 146.835 249.258 147.703C250.415 148.571 251.841 149.005 253.536 149.005C255.189 149.005 256.47 148.674 257.38 148.013C258.33 147.352 258.806 146.504 258.806 145.471C258.806 144.355 258.227 143.528 257.07 142.991C255.954 142.412 254.156 141.792 251.676 141.131C249.113 140.511 247.005 139.87 245.352 139.209C243.74 138.548 242.334 137.535 241.136 136.171C239.978 134.807 239.4 132.968 239.4 130.653C239.4 128.752 239.937 127.016 241.012 125.445C242.128 123.874 243.698 122.634 245.724 121.725C247.79 120.816 250.208 120.361 252.978 120.361C257.07 120.361 260.335 121.394 262.774 123.461C265.212 125.486 266.556 128.235 266.804 131.707H258.496C258.372 130.343 257.793 129.268 256.76 128.483C255.768 127.656 254.424 127.243 252.73 127.243C251.159 127.243 249.94 127.532 249.072 128.111C248.245 128.69 247.832 129.496 247.832 130.529C247.832 131.686 248.41 132.575 249.568 133.195C250.725 133.774 252.523 134.373 254.962 134.993C257.442 135.613 259.488 136.254 261.1 136.915C262.712 137.576 264.096 138.61 265.254 140.015C266.452 141.379 267.072 143.198 267.114 145.471C267.114 147.455 266.556 149.232 265.44 150.803C264.365 152.374 262.794 153.614 260.728 154.523C258.702 155.391 256.326 155.825 253.598 155.825ZM293.583 120.423C296.187 120.423 298.502 121.002 300.527 122.159C302.552 123.275 304.123 124.949 305.239 127.181C306.396 129.372 306.975 132.017 306.975 135.117V155.267H298.295V136.295C298.295 133.567 297.613 131.48 296.249 130.033C294.885 128.545 293.025 127.801 290.669 127.801C288.272 127.801 286.37 128.545 284.965 130.033C283.601 131.48 282.919 133.567 282.919 136.295V155.267H274.239V109.387H282.919V125.197C284.035 123.709 285.523 122.552 287.383 121.725C289.243 120.857 291.31 120.423 293.583 120.423ZM347.159 137.349C347.159 138.589 347.077 139.705 346.911 140.697H321.801C322.008 143.177 322.876 145.12 324.405 146.525C325.935 147.93 327.815 148.633 330.047 148.633C333.271 148.633 335.565 147.248 336.929 144.479H346.291C345.299 147.786 343.398 150.514 340.587 152.663C337.777 154.771 334.325 155.825 330.233 155.825C326.927 155.825 323.951 155.102 321.305 153.655C318.701 152.167 316.655 150.08 315.167 147.393C313.721 144.706 312.997 141.606 312.997 138.093C312.997 134.538 313.721 131.418 315.167 128.731C316.614 126.044 318.639 123.978 321.243 122.531C323.847 121.084 326.844 120.361 330.233 120.361C333.499 120.361 336.413 121.064 338.975 122.469C341.579 123.874 343.584 125.879 344.989 128.483C346.436 131.046 347.159 134.001 347.159 137.349ZM338.169 134.869C338.128 132.637 337.322 130.86 335.751 129.537C334.181 128.173 332.259 127.491 329.985 127.491C327.836 127.491 326.017 128.152 324.529 129.475C323.083 130.756 322.194 132.554 321.863 134.869H338.169ZM385.425 137.349C385.425 138.589 385.342 139.705 385.177 140.697H360.067C360.273 143.177 361.141 145.12 362.671 146.525C364.2 147.93 366.081 148.633 368.313 148.633C371.537 148.633 373.831 147.248 375.195 144.479H384.557C383.565 147.786 381.663 150.514 378.853 152.663C376.042 154.771 372.591 155.825 368.499 155.825C365.192 155.825 362.216 155.102 359.571 153.655C356.967 152.167 354.921 150.08 353.433 147.393C351.986 144.706 351.263 141.606 351.263 138.093C351.263 134.538 351.986 131.418 353.433 128.731C354.879 126.044 356.905 123.978 359.509 122.531C362.113 121.084 365.109 120.361 368.499 120.361C371.764 120.361 374.678 121.064 377.241 122.469C379.845 123.874 381.849 125.879 383.255 128.483C384.701 131.046 385.425 134.001 385.425 137.349ZM376.435 134.869C376.393 132.637 375.587 130.86 374.017 129.537C372.446 128.173 370.524 127.491 368.251 127.491C366.101 127.491 364.283 128.152 362.795 129.475C361.348 130.756 360.459 132.554 360.129 134.869H376.435ZM401.866 128.049V144.665C401.866 145.822 402.135 146.67 402.672 147.207C403.251 147.703 404.202 147.951 405.524 147.951H409.554V155.267H404.098C396.782 155.267 393.124 151.712 393.124 144.603V128.049H389.032V120.919H393.124V112.425H401.866V120.919H409.554V128.049H401.866ZM428.942 155.825C426.131 155.825 423.61 155.329 421.378 154.337C419.146 153.304 417.368 151.919 416.046 150.183C414.764 148.447 414.062 146.525 413.938 144.417H422.68C422.845 145.74 423.486 146.835 424.602 147.703C425.759 148.571 427.185 149.005 428.88 149.005C430.533 149.005 431.814 148.674 432.724 148.013C433.674 147.352 434.15 146.504 434.15 145.471C434.15 144.355 433.571 143.528 432.414 142.991C431.298 142.412 429.5 141.792 427.02 141.131C424.457 140.511 422.349 139.87 420.696 139.209C419.084 138.548 417.678 137.535 416.48 136.171C415.322 134.807 414.744 132.968 414.744 130.653C414.744 128.752 415.281 127.016 416.356 125.445C417.472 123.874 419.042 122.634 421.068 121.725C423.134 120.816 425.552 120.361 428.322 120.361C432.414 120.361 435.679 121.394 438.118 123.461C440.556 125.486 441.9 128.235 442.148 131.707H433.84C433.716 130.343 433.137 129.268 432.104 128.483C431.112 127.656 429.768 127.243 428.074 127.243C426.503 127.243 425.284 127.532 424.416 128.111C423.589 128.69 423.176 129.496 423.176 130.529C423.176 131.686 423.754 132.575 424.912 133.195C426.069 133.774 427.867 134.373 430.306 134.993C432.786 135.613 434.832 136.254 436.444 136.915C438.056 137.576 439.44 138.61 440.598 140.015C441.796 141.379 442.416 143.198 442.458 145.471C442.458 147.455 441.9 149.232 440.784 150.803C439.709 152.374 438.138 153.614 436.072 154.523C434.046 155.391 431.67 155.825 428.942 155.825Z" fill="#292F47"/>
</svg>
