<svg width="287" height="137" viewBox="0 0 287 137" fill="none" xmlns="http://www.w3.org/2000/svg">
<path d="M7.616 49.24C4.17067 45.704 2.448 41.012 2.448 35.164C2.448 29.316 4.17067 24.624 7.616 21.088C11.0613 17.552 15.5267 15.784 21.012 15.784C25.5907 15.784 29.4213 16.8947 32.504 19.116C35.5867 21.3373 37.6493 24.488 38.692 28.568H28.356C27.132 25.44 24.684 23.876 21.012 23.876C18.2467 23.876 16.0707 24.896 14.484 26.936C12.9427 28.9307 12.172 31.6733 12.172 35.164C12.172 38.6547 12.9427 41.42 14.484 43.46C16.0707 45.4547 18.2467 46.452 21.012 46.452C24.6387 46.452 27.0867 44.8653 28.356 41.692H38.692C37.604 45.636 35.496 48.764 32.368 51.076C29.2853 53.388 25.5 54.544 21.012 54.544C15.5267 54.544 11.0613 52.776 7.616 49.24ZM55.4614 16.328V22.992C58.0001 18.1867 61.6721 15.784 66.4774 15.784V25.576H64.0974C61.2414 25.576 59.0881 26.3013 57.6374 27.752C56.1868 29.1573 55.4614 31.6053 55.4614 35.096V54H45.8734V16.328H55.4614ZM89.2112 54.544C83.7259 54.544 79.2606 52.776 75.8152 49.24C72.3699 45.6587 70.6472 40.944 70.6472 35.096C70.6472 29.248 72.3699 24.5787 75.8152 21.088C79.3059 17.552 83.7939 15.784 89.2792 15.784C94.8099 15.784 99.3432 17.5067 102.879 20.952C106.415 24.352 108.183 28.908 108.183 34.62C108.183 35.9347 108.093 37.1587 107.911 38.292H80.4392C80.6659 40.74 81.5726 42.712 83.1592 44.208C84.7459 45.704 86.7632 46.452 89.2112 46.452C92.5206 46.452 94.9686 45.092 96.5552 42.372H106.891C105.803 45.9533 103.695 48.8773 100.567 51.144C97.4392 53.4107 93.6539 54.544 89.2112 54.544ZM98.2552 32.104C98.1192 29.6107 97.1899 27.616 95.4672 26.12C93.7899 24.624 91.7499 23.876 89.3472 23.876C86.9446 23.876 84.9272 24.624 83.2952 26.12C81.7086 27.616 80.7566 29.6107 80.4392 32.104H98.2552ZM139.737 43.324C141.731 41.3293 142.729 38.6093 142.729 35.164C142.729 31.7187 141.731 29.0213 139.737 27.072C137.742 25.0773 135.407 24.08 132.733 24.08C130.058 24.08 127.723 25.0547 125.729 27.004C123.779 28.9533 122.805 31.6507 122.805 35.096C122.805 38.5413 123.802 41.2613 125.797 43.256C127.791 45.2507 130.103 46.248 132.733 46.248C135.407 46.248 137.742 45.2733 139.737 43.324ZM118.113 49.104C114.758 45.432 113.081 40.7627 113.081 35.096C113.081 29.4293 114.758 24.8053 118.113 21.224C121.467 17.5973 125.729 15.784 130.897 15.784C136.065 15.784 140.009 17.9147 142.729 22.176V16.328H152.249V54H142.729V47.676C139.873 52.2547 135.906 54.544 130.829 54.544C125.751 54.544 121.513 52.7307 118.113 49.104ZM177.036 45.976H181.592V54H175.54C171.687 54 168.718 53.116 166.632 51.348C164.547 49.58 163.504 46.656 163.504 42.576V24.148H159.492V16.328H163.504V7.012H173.092V16.328H181.524V24.148H173.092V42.576C173.092 43.8 173.387 44.684 173.976 45.228C174.566 45.7267 175.586 45.976 177.036 45.976ZM199.653 6.74C199.653 8.372 199.087 9.75466 197.953 10.888C196.82 12.0213 195.437 12.588 193.805 12.588C192.219 12.588 190.859 12.0213 189.725 10.888C188.592 9.75466 188.025 8.372 188.025 6.74C188.025 5.108 188.592 3.72533 189.725 2.592C190.859 1.45866 192.219 0.891999 193.805 0.891999C195.437 0.891999 196.82 1.45866 197.953 2.592C199.087 3.72533 199.653 5.108 199.653 6.74ZM189.045 54V16.328H198.633V54H189.045ZM204.21 16.328H214.41L224.134 45.772L233.79 16.328H243.99L230.118 54H218.082L204.21 16.328ZM265.453 54.544C259.968 54.544 255.503 52.776 252.057 49.24C248.612 45.6587 246.889 40.944 246.889 35.096C246.889 29.248 248.612 24.5787 252.057 21.088C255.548 17.552 260.036 15.784 265.521 15.784C271.052 15.784 275.585 17.5067 279.121 20.952C282.657 24.352 284.425 28.908 284.425 34.62C284.425 35.9347 284.335 37.1587 284.153 38.292H256.681C256.908 40.74 257.815 42.712 259.401 44.208C260.988 45.704 263.005 46.452 265.453 46.452C268.763 46.452 271.211 45.092 272.797 42.372H283.133C282.045 45.9533 279.937 48.8773 276.809 51.144C273.681 53.4107 269.896 54.544 265.453 54.544ZM274.497 32.104C274.361 29.6107 273.432 27.616 271.709 26.12C270.032 24.624 267.992 23.876 265.589 23.876C263.187 23.876 261.169 24.624 259.537 26.12C257.951 27.616 256.999 29.6107 256.681 32.104H274.497ZM47.804 80.328H56.984L45.424 118H35.224L28.764 92.704L22.236 118H12.036L0.476 80.328H10.132L17.068 108.956L24.004 80.328H34.068L40.868 108.888L47.804 80.328ZM72.063 80.328V86.992C74.6017 82.1867 78.2737 79.784 83.079 79.784V89.576H80.699C77.843 89.576 75.6897 90.3013 74.239 91.752C72.7883 93.1573 72.063 95.6053 72.063 99.096V118H62.475V80.328H72.063ZM100.509 70.74C100.509 72.372 99.9421 73.7547 98.8088 74.888C97.6754 76.0213 96.2928 76.588 94.6608 76.588C93.0741 76.588 91.7141 76.0213 90.5808 74.888C89.4474 73.7547 88.8808 72.372 88.8808 70.74C88.8808 69.108 89.4474 67.7253 90.5808 66.592C91.7141 65.4587 93.0741 64.892 94.6608 64.892C96.2928 64.892 97.6754 65.4587 98.8088 66.592C99.9421 67.7253 100.509 69.108 100.509 70.74ZM89.9008 118V80.328H99.4888V118H89.9008ZM124.31 109.976H128.866V118H122.814C118.961 118 115.991 117.116 113.906 115.348C111.821 113.58 110.778 110.656 110.778 106.576V88.148H106.766V80.328H110.778V71.012H120.366V80.328H128.798V88.148H120.366V106.576C120.366 107.8 120.661 108.684 121.25 109.228C121.839 109.727 122.859 109.976 124.31 109.976ZM146.927 70.74C146.927 72.372 146.36 73.7547 145.227 74.888C144.093 76.0213 142.711 76.588 141.079 76.588C139.492 76.588 138.132 76.0213 136.999 74.888C135.865 73.7547 135.299 72.372 135.299 70.74C135.299 69.108 135.865 67.7253 136.999 66.592C138.132 65.4587 139.492 64.892 141.079 64.892C142.711 64.892 144.093 65.4587 145.227 66.592C146.36 67.7253 146.927 69.108 146.927 70.74ZM136.319 118V80.328H145.907V118H136.319ZM165.696 80.328V85.972C168.098 81.8467 171.997 79.784 177.392 79.784C181.698 79.784 185.212 81.212 187.932 84.068C190.652 86.8787 192.012 90.8 192.012 95.832V118H182.492V97.192C182.492 94.2453 181.744 92.0013 180.248 90.46C178.752 88.8733 176.712 88.08 174.128 88.08C171.544 88.08 169.481 88.8733 167.94 90.46C166.444 92.0013 165.696 94.2453 165.696 97.192V118H156.108V80.328H165.696ZM204.242 113.104C200.887 109.432 199.21 104.763 199.21 99.096C199.21 93.4293 200.887 88.8053 204.242 85.224C207.596 81.5973 211.858 79.784 217.026 79.784C222.194 79.784 226.138 81.9147 228.858 86.176V80.328H238.378V118.272C238.378 123.667 236.791 128.064 233.618 131.464C230.444 134.909 225.979 136.632 220.222 136.632C214.51 136.632 209.954 135.431 206.554 133.028C203.199 130.671 201.295 127.293 200.842 122.896H210.226C210.815 124.573 211.948 125.888 213.626 126.84C215.303 127.837 217.411 128.336 219.95 128.336C222.488 128.336 224.596 127.497 226.274 125.82C227.996 124.143 228.858 121.627 228.858 118.272V111.676C226.002 116.255 222.035 118.544 216.958 118.544C211.88 118.544 207.642 116.731 204.242 113.104ZM225.866 107.324C227.86 105.329 228.858 102.609 228.858 99.164C228.858 95.7187 227.86 93.0213 225.866 91.072C223.871 89.0773 221.536 88.08 218.862 88.08C216.187 88.08 213.852 89.0547 211.858 91.004C209.908 92.9533 208.934 95.6507 208.934 99.096C208.934 102.541 209.931 105.261 211.926 107.256C213.92 109.251 216.232 110.248 218.862 110.248C221.536 110.248 223.871 109.273 225.866 107.324Z" fill="#2995F9"/>
<line x1="246.5" y1="62" x2="246.5" y2="133" stroke="#292F47" stroke-width="3"/>
</svg>
