<?xml version="1.0" encoding="UTF-8"?>
<svg width="127px" height="72px" viewBox="0 0 127 72" version="1.1" xmlns="http://www.w3.org/2000/svg" xmlns:xlink="http://www.w3.org/1999/xlink">
    <title>Union</title>
    <g id="Page-1" stroke="none" stroke-width="1" fill="none" fill-rule="evenodd" opacity="0.900000036">
        <g id="proposal-" transform="translate(-16.000000, -10723.000000)">
            <g id="Union" transform="translate(16.000000, 10723.000000)">
                <path d="M124.178402,45.8384007 C124.178402,33.5481605 114.605202,23.4938404 102.508802,22.7255603 C102.334802,13.1799202 94.5424014,5.49532008 84.9552013,5.49532008 C80.1128012,5.49532008 75.7284011,7.45556011 72.5524011,10.6257602 C67.489601,5.60684008 60.5212009,2.50674004 52.8292008,2.50674004 C41.1952006,2.50674004 31.2174805,9.59792014 26.9825204,19.6938003 C13.3654802,19.9278003 2.40000004,30.8745605 2.40000004,44.3440007 C2.40000004,57.5908009 13.0051202,68.397201 26.3079204,68.974001 L26.3079204,68.998401 L102.512002,68.998401 L102.512002,68.951201 C114.606802,68.181201 124.178402,58.1276009 124.178402,45.8384007 Z" id="Path" fill="#FFFFFF"></path>
                <path d="M102.508802,22.7255603 L102.363202,25.0217604 L100.247201,24.8873604 L100.208401,22.7675203 L102.508802,22.7255603 Z M72.5524011,10.6257602 L74.1776011,12.2542002 L72.5580011,13.8710002 L70.9324011,12.2597602 L72.5524011,10.6257602 Z M26.9825204,19.6938003 L29.1042404,20.5838003 L28.5234004,21.9684803 L27.0220404,21.9942803 L26.9825204,19.6938003 Z M26.3079204,68.974001 L26.4076004,66.675601 L28.6087204,66.770801 L28.6087204,68.974001 L26.3079204,68.974001 Z M26.3079204,68.998401 L26.3079204,71.2992011 L24.0071204,71.2992011 L24.0071204,68.998401 L26.3079204,68.998401 Z M102.512002,68.998401 L104.812802,68.998401 L104.812802,71.2992011 L102.512002,71.2992011 L102.512002,68.998401 Z M102.512002,68.951201 L100.211201,68.951201 L100.211201,66.792001 L102.365602,66.654801 L102.512002,68.951201 Z M102.654802,20.4294003 C115.954802,21.2741203 126.479202,32.3263205 126.479202,45.8384007 L121.877602,45.8384007 C121.877602,34.7700005 113.255602,25.7135604 102.363202,25.0217604 L102.654802,20.4294003 Z M84.9552013,3.19452005 C95.7988014,3.19452005 104.612402,11.8861202 104.809202,22.6836003 L100.208401,22.7675203 C100.057201,14.4736802 93.2856014,7.79612012 84.9552013,7.79612012 L84.9552013,3.19452005 Z M70.9272011,8.99732013 C74.5168011,5.41416008 79.4792012,3.19452005 84.9552013,3.19452005 L84.9552013,7.79612012 C80.7468012,7.79612012 76.9404011,9.49696014 74.1776011,12.2542002 L70.9272011,8.99732013 Z M52.8292008,0.205931603 C61.1524009,0.205931603 68.696001,3.56307605 74.1720011,8.99176013 L70.9324011,12.2597602 C66.283201,7.65056011 59.8904009,4.80756007 52.8292008,4.80756007 L52.8292008,0.205931603 Z M24.8608404,18.8038003 C29.4416804,7.88332012 40.2360006,0.205931603 52.8292008,0.205931603 L52.8292008,4.80756007 C42.1540006,4.80756007 32.9932805,11.3125202 29.1042404,20.5838003 L24.8608404,18.8038003 Z M0.0991944015,44.3440007 C0.0991944015,29.5854004 12.1049602,17.6483203 26.9430004,17.3933203 L27.0220404,21.9942803 C14.6260002,22.2072803 4.70080007,32.1636805 4.70080007,44.3440007 L0.0991944015,44.3440007 Z M26.2082004,71.2728011 C11.7107602,70.6440011 0.0991944015,58.8584009 0.0991944015,44.3440007 L4.70080007,44.3440007 C4.70080007,56.3228008 14.2994802,66.150401 26.4076004,66.675601 L26.2082004,71.2728011 Z M24.0071204,68.998401 L24.0071204,68.974001 L28.6087204,68.974001 L28.6087204,68.998401 L24.0071204,68.998401 Z M102.512002,71.2992011 L26.3079204,71.2992011 L26.3079204,66.697601 L102.512002,66.697601 L102.512002,71.2992011 Z M104.812802,68.951201 L104.812802,68.998401 L100.211201,68.998401 L100.211201,68.951201 L104.812802,68.951201 Z M126.479202,45.8384007 C126.479202,59.3492009 115.956802,70.400801 102.658002,71.2472011 L102.365602,66.654801 C113.256802,65.961601 121.877602,56.9060008 121.877602,45.8384007 L126.479202,45.8384007 Z" id="Shape" fill="#3497F3" fill-rule="nonzero"></path>
            </g>
        </g>
    </g>
</svg>